<svg width="48" height="38" viewBox="0 0 48 38" fill="none" xmlns="http://www.w3.org/2000/svg">
<path fill-rule="evenodd" clip-rule="evenodd" d="M18.7448 0.848145H29.2553C31.2929 0.848145 31.9323 2.48281 32.5991 5.00176H15.4009C16.0677 2.48281 16.7071 0.848242 18.7448 0.848145ZM5.33389 3.03076H10.25C10.3524 3.0321 10.4502 3.07336 10.5227 3.14575C10.5951 3.21814 10.6365 3.31595 10.6379 3.41836V5.00166H4.94727V3.41826C4.94848 3.31597 4.98961 3.2182 5.0619 3.14581C5.13418 3.07341 5.23189 3.03213 5.33418 3.03076H5.33389ZM4.13877 6.61797H43.8613C44.8094 6.61903 45.7184 6.99613 46.3889 7.66654C47.0593 8.33695 47.4364 9.24592 47.4375 10.194V21.0768H37.8705C37.4506 13.7903 31.3898 7.99082 24 7.99082C16.6102 7.99082 10.5497 13.7903 10.1294 21.0768H0.5625V10.1939C0.563611 9.24583 0.940762 8.33687 1.61121 7.66647C2.28166 6.99608 3.19065 6.619 4.13877 6.61797ZM36.2774 21.8851C36.2774 19.4568 35.5572 17.0831 34.2081 15.0642C32.859 13.0452 30.9415 11.4717 28.6981 10.5425C26.4547 9.61327 23.9861 9.37019 21.6046 9.84396C19.223 10.3177 17.0354 11.4871 15.3184 13.2041C13.6014 14.9212 12.4321 17.1088 11.9584 19.4904C11.4847 21.872 11.7279 24.3405 12.6572 26.5839C13.5864 28.8273 15.1601 30.7448 17.1791 32.0938C19.1981 33.4428 21.5718 34.1629 24 34.1629C27.2551 34.1591 30.3758 32.8644 32.6774 30.5626C34.9791 28.2609 36.2737 25.1401 36.2773 21.8851H36.2774ZM43.8614 37.1519H4.13877C3.19069 37.1509 2.28171 36.7739 1.61126 36.1035C0.940806 35.4332 0.563637 34.5243 0.5625 33.5762V22.6931H10.1295C10.5494 29.9798 16.6102 35.779 24 35.779C31.3898 35.779 37.4502 29.9795 37.8705 22.6931H47.4375V33.576C47.4364 34.5241 47.0593 35.433 46.3888 36.1034C45.7184 36.7738 44.8094 37.1508 43.8613 37.1519H43.8614ZM24 13.6938C22.3799 13.6937 20.7962 14.174 19.449 15.074C18.1019 15.9741 17.052 17.2534 16.4319 18.7501C15.8119 20.2469 15.6496 21.8939 15.9656 23.4829C16.2817 25.0718 17.0618 26.5314 18.2073 27.6771C19.3529 28.8227 20.8125 29.6028 22.4014 29.9189C23.9904 30.235 25.6374 30.0728 27.1342 29.4529C28.631 28.8329 29.9103 27.783 30.8104 26.4359C31.7105 25.0889 32.1909 23.5052 32.1909 21.8851C32.1885 19.7134 31.3248 17.6313 29.7893 16.0957C28.2537 14.5601 26.1717 13.6962 24 13.6938ZM24 28.4594C25.3004 28.4594 26.5716 28.0738 27.6528 27.3514C28.734 26.6289 29.5768 25.6021 30.0744 24.4007C30.5721 23.1993 30.7023 21.8773 30.4486 20.6019C30.1949 19.3265 29.5687 18.155 28.6492 17.2355C27.7297 16.316 26.5582 15.6898 25.2828 15.4361C24.0074 15.1824 22.6854 15.3126 21.484 15.8103C20.2826 16.3079 19.2557 17.1506 18.5333 18.2319C17.8109 19.3131 17.4253 20.5843 17.4253 21.8847C17.4271 23.6279 18.1204 25.2991 19.353 26.5318C20.5856 27.7645 22.2568 28.4578 24 28.4598V28.4594ZM24.8083 16.9026C24.8082 16.6884 24.723 16.4829 24.5714 16.3314C24.4198 16.18 24.2143 16.0949 24 16.0949C22.4649 16.0967 20.9933 16.7073 19.9079 17.7928C18.8224 18.8783 18.2119 20.35 18.2103 21.8851C18.2103 22.0994 18.2954 22.305 18.447 22.4565C18.5985 22.6081 18.8041 22.6933 19.0185 22.6933C19.2328 22.6933 19.4384 22.6081 19.5899 22.4565C19.7415 22.305 19.8267 22.0994 19.8267 21.8851C19.8277 20.7785 20.2678 19.7175 21.0502 18.935C21.8325 18.1524 22.8934 17.7122 24 17.7109C24.2144 17.7109 24.42 17.6258 24.5716 17.4742C24.7232 17.3227 24.8083 17.1171 24.8084 16.9027L24.8083 16.9026ZM39.0122 15.3194H42.9318C43.6744 15.3186 44.3862 15.0232 44.9112 14.4981C45.4362 13.9729 45.7314 13.261 45.732 12.5185V11.057C45.7313 10.3145 45.436 9.60252 44.911 9.07741C44.3859 8.55231 43.674 8.25695 42.9314 8.25615H39.0123C38.2697 8.25698 37.5578 8.55236 37.0328 9.07748C36.5077 9.60259 36.2124 10.3146 36.2117 11.0571V12.5186C36.2124 13.2611 36.5077 13.9731 37.0327 14.4983C37.5578 15.0234 38.2697 15.3188 39.0123 15.3195L39.0122 15.3194ZM37.8281 11.0574V12.5188C37.8285 12.8328 37.9533 13.1339 38.1754 13.3559C38.3974 13.578 38.6984 13.7029 39.0124 13.7032H42.9318C43.2458 13.7028 43.5468 13.5778 43.7688 13.3557C43.9908 13.1337 44.1157 12.8326 44.116 12.5187V11.0574C44.1157 10.7435 43.9909 10.4424 43.769 10.2204C43.547 9.99827 43.2461 9.87327 42.9321 9.87275H39.0121C38.6981 9.87317 38.3971 9.99813 38.1751 10.2202C37.9531 10.4423 37.8284 10.7434 37.8281 11.0574Z" fill="white"/>
</svg>
