<svg width="76" height="82" viewBox="0 0 76 82" fill="none" xmlns="http://www.w3.org/2000/svg">
<rect x="33.7426" y="0.414214" width="10" height="4" rx="2" transform="rotate(45 33.7426 0.414214)" stroke="#151C1C" stroke-width="2"/>
<rect x="36.9142" y="7.48529" width="10" height="4" rx="2" transform="rotate(-45 36.9142 7.48529)" stroke="#151C1C" stroke-width="2"/>
<rect x="1.5" y="7" width="73" height="73" rx="3.5" fill="white"/>
<rect x="1.5" y="7" width="73" height="73" rx="3.5" stroke="#151C1C" stroke-width="3"/>
<rect x="5.5" y="11" width="65" height="65" rx="4.5" fill="white"/>
<rect x="5.5" y="11" width="65" height="65" rx="4.5" stroke="#151C1C"/>
<rect x="8" y="13.5" width="60" height="60" rx="5" fill="#151C1C"/>
<path fill-rule="evenodd" clip-rule="evenodd" d="M32.7448 25.3481H43.2553C45.2929 25.3481 45.9323 26.9828 46.5991 29.5018H29.4009C30.0677 26.9828 30.7071 25.3482 32.7448 25.3481ZM19.3339 27.5308H24.25C24.3524 27.5321 24.4502 27.5734 24.5227 27.6457C24.5951 27.7181 24.6365 27.816 24.6379 27.9184V29.5017H18.9473V27.9183C18.9485 27.816 18.9896 27.7182 19.0619 27.6458C19.1342 27.5734 19.2319 27.5321 19.3342 27.5308H19.3339ZM18.1388 31.118H57.8613C58.8094 31.119 59.7184 31.4961 60.3889 32.1665C61.0593 32.837 61.4364 33.7459 61.4375 34.694V45.5768H51.8705C51.4506 38.2903 45.3898 32.4908 38 32.4908C30.6102 32.4908 24.5497 38.2903 24.1294 45.5768H14.5625V34.6939C14.5636 33.7458 14.9408 32.8369 15.6112 32.1665C16.2817 31.4961 17.1907 31.119 18.1388 31.118ZM50.2774 46.3851C50.2774 43.9568 49.5572 41.5831 48.2081 39.5642C46.859 37.5452 44.9415 35.9717 42.6981 35.0425C40.4547 34.1133 37.9861 33.8702 35.6046 34.344C33.223 34.8177 31.0354 35.9871 29.3184 37.7041C27.6014 39.4212 26.4321 41.6088 25.9584 43.9904C25.4847 46.372 25.7279 48.8405 26.6572 51.0839C27.5864 53.3273 29.1601 55.2448 31.1791 56.5938C33.1981 57.9428 35.5718 58.6629 38 58.6629C41.2551 58.6591 44.3758 57.3644 46.6774 55.0626C48.9791 52.7609 50.2737 49.6401 50.2773 46.3851H50.2774ZM57.8614 61.6519H18.1388C17.1907 61.6509 16.2817 61.2739 15.6113 60.6035C14.9408 59.9332 14.5636 59.0243 14.5625 58.0762V47.1931H24.1295C24.5494 54.4798 30.6102 60.279 38 60.279C45.3898 60.279 51.4502 54.4795 51.8705 47.1931H61.4375V58.076C61.4364 59.0241 61.0593 59.933 60.3888 60.6034C59.7184 61.2738 58.8094 61.6508 57.8613 61.6519H57.8614ZM38 38.1938C36.3799 38.1937 34.7962 38.674 33.449 39.574C32.1019 40.4741 31.052 41.7534 30.4319 43.2501C29.8119 44.7469 29.6496 46.3939 29.9656 47.9829C30.2817 49.5718 31.0618 51.0314 32.2073 52.1771C33.3529 53.3227 34.8125 54.1028 36.4014 54.4189C37.9904 54.735 39.6374 54.5728 41.1342 53.9529C42.631 53.3329 43.9103 52.283 44.8104 50.9359C45.7105 49.5889 46.1909 48.0052 46.1909 46.3851C46.1885 44.2134 45.3248 42.1313 43.7893 40.5957C42.2537 39.0601 40.1717 38.1962 38 38.1938ZM38 52.9594C39.3004 52.9594 40.5716 52.5738 41.6528 51.8514C42.734 51.1289 43.5768 50.1021 44.0744 48.9007C44.5721 47.6993 44.7023 46.3773 44.4486 45.1019C44.1949 43.8265 43.5687 42.655 42.6492 41.7355C41.7297 40.816 40.5582 40.1898 39.2828 39.9361C38.0074 39.6824 36.6854 39.8126 35.484 40.3103C34.2826 40.8079 33.2557 41.6506 32.5333 42.7319C31.8109 43.8131 31.4253 45.0843 31.4253 46.3847C31.4271 48.1279 32.1204 49.7991 33.353 51.0318C34.5856 52.2645 36.2568 52.9578 38 52.9598V52.9594ZM38.8083 41.4026C38.8082 41.1884 38.723 40.9829 38.5714 40.8314C38.4198 40.68 38.2143 40.5949 38 40.5949C36.4649 40.5967 34.9933 41.2073 33.9079 42.2928C32.8224 43.3783 32.2119 44.85 32.2103 46.3851C32.2103 46.5994 32.2954 46.805 32.447 46.9565C32.5985 47.1081 32.8041 47.1933 33.0185 47.1933C33.2328 47.1933 33.4384 47.1081 33.5899 46.9565C33.7415 46.805 33.8267 46.5994 33.8267 46.3851C33.8277 45.2785 34.2678 44.2175 35.0502 43.435C35.8325 42.6524 36.8934 42.2122 38 42.2109C38.2144 42.2109 38.42 42.1258 38.5716 41.9742C38.7232 41.8227 38.8083 41.6171 38.8084 41.4027L38.8083 41.4026ZM53.0122 39.8194H56.9318C57.6744 39.8186 58.3862 39.5232 58.9112 38.9981C59.4362 38.4729 59.7314 37.761 59.732 37.0185V35.557C59.7313 34.8145 59.436 34.1025 58.911 33.5774C58.3859 33.0523 57.674 32.757 56.9314 32.7562H53.0123C52.2697 32.757 51.5578 33.0524 51.0328 33.5775C50.5077 34.1026 50.2124 34.8146 50.2117 35.5571V37.0186C50.2124 37.7611 50.5077 38.4731 51.0327 38.9983C51.5578 39.5234 52.2697 39.8188 53.0123 39.8195L53.0122 39.8194ZM51.8281 35.5574V37.0188C51.8285 37.3328 51.9533 37.6339 52.1754 37.8559C52.3974 38.078 52.6984 38.2029 53.0124 38.2032H56.9318C57.2458 38.2028 57.5468 38.0778 57.7688 37.8557C57.9908 37.6337 58.1157 37.3326 58.116 37.0187V35.5574C58.1157 35.2435 57.9909 34.9424 57.769 34.7204C57.547 34.4983 57.2461 34.3733 56.9321 34.3728H53.0121C52.6981 34.3732 52.3971 34.4981 52.1751 34.7202C51.9531 34.9423 51.8284 35.2434 51.8281 35.5574Z" fill="white"/>
<rect x="14.5" y="17" width="13" height="1" rx="0.5" fill="white"/>
<rect x="45.5" y="17" width="14" height="1" rx="0.5" fill="white"/>
<rect x="62.5" y="17" width="1" height="1" rx="0.5" fill="white"/>
<rect x="60.5" y="17" width="1" height="1" rx="0.5" fill="white"/>
<rect x="14.5" y="67" width="18" height="1" rx="0.5" fill="white"/>
</svg>
