<svg width="338" height="83" viewBox="0 0 338 83" fill="none" xmlns="http://www.w3.org/2000/svg">
<rect x="32.5147" y="1.41422" width="10" height="4" rx="2" transform="rotate(45 32.5147 1.41422)" stroke="#151C1C" stroke-width="2"/>
<rect x="36.4142" y="8.48528" width="10" height="4" rx="2" transform="rotate(-45 36.4142 8.48528)" stroke="#151C1C" stroke-width="2"/>
<rect x="1.5" y="8.5" width="73" height="73" rx="3.5" fill="white"/>
<rect x="1.5" y="8.5" width="73" height="73" rx="3.5" stroke="#151C1C" stroke-width="3"/>
<rect x="5.5" y="12.5" width="65" height="65" rx="4.5" fill="white"/>
<rect x="5.5" y="12.5" width="65" height="65" rx="4.5" stroke="#151C1C"/>
<rect x="8" y="15" width="60" height="60" rx="5" fill="#151C1C"/>
<path fill-rule="evenodd" clip-rule="evenodd" d="M32.7448 26.8481H43.2553C45.2929 26.8481 45.9323 28.4828 46.5991 31.0018H29.4009C30.0677 28.4828 30.7071 26.8482 32.7448 26.8481ZM19.3339 29.0308H24.25C24.3524 29.0321 24.4502 29.0734 24.5227 29.1457C24.5951 29.2181 24.6365 29.316 24.6379 29.4184V31.0017H18.9473V29.4183C18.9485 29.316 18.9896 29.2182 19.0619 29.1458C19.1342 29.0734 19.2319 29.0321 19.3342 29.0308H19.3339ZM18.1388 32.618H57.8613C58.8094 32.619 59.7184 32.9961 60.3889 33.6665C61.0593 34.337 61.4364 35.2459 61.4375 36.194V47.0768H51.8705C51.4506 39.7903 45.3898 33.9908 38 33.9908C30.6102 33.9908 24.5497 39.7903 24.1294 47.0768H14.5625V36.1939C14.5636 35.2458 14.9408 34.3369 15.6112 33.6665C16.2817 32.9961 17.1907 32.619 18.1388 32.618ZM50.2774 47.8851C50.2774 45.4568 49.5572 43.0831 48.2081 41.0642C46.859 39.0452 44.9415 37.4717 42.6981 36.5425C40.4547 35.6133 37.9861 35.3702 35.6046 35.844C33.223 36.3177 31.0354 37.4871 29.3184 39.2041C27.6014 40.9212 26.4321 43.1088 25.9584 45.4904C25.4847 47.872 25.7279 50.3405 26.6572 52.5839C27.5864 54.8273 29.1601 56.7448 31.1791 58.0938C33.1981 59.4428 35.5718 60.1629 38 60.1629C41.2551 60.1591 44.3758 58.8644 46.6774 56.5626C48.9791 54.2609 50.2737 51.1401 50.2773 47.8851H50.2774ZM57.8614 63.1519H18.1388C17.1907 63.1509 16.2817 62.7739 15.6113 62.1035C14.9408 61.4332 14.5636 60.5243 14.5625 59.5762V48.6931H24.1295C24.5494 55.9798 30.6102 61.779 38 61.779C45.3898 61.779 51.4502 55.9795 51.8705 48.6931H61.4375V59.576C61.4364 60.5241 61.0593 61.433 60.3888 62.1034C59.7184 62.7738 58.8094 63.1508 57.8613 63.1519H57.8614ZM38 39.6938C36.3799 39.6937 34.7962 40.174 33.449 41.074C32.1019 41.9741 31.052 43.2534 30.4319 44.7501C29.8119 46.2469 29.6496 47.8939 29.9656 49.4829C30.2817 51.0718 31.0618 52.5314 32.2073 53.6771C33.3529 54.8227 34.8125 55.6028 36.4014 55.9189C37.9904 56.235 39.6374 56.0728 41.1342 55.4529C42.631 54.8329 43.9103 53.783 44.8104 52.4359C45.7105 51.0889 46.1909 49.5052 46.1909 47.8851C46.1885 45.7134 45.3248 43.6313 43.7893 42.0957C42.2537 40.5601 40.1717 39.6962 38 39.6938ZM38 54.4594C39.3004 54.4594 40.5716 54.0738 41.6528 53.3514C42.734 52.6289 43.5768 51.6021 44.0744 50.4007C44.5721 49.1993 44.7023 47.8773 44.4486 46.6019C44.1949 45.3265 43.5687 44.155 42.6492 43.2355C41.7297 42.316 40.5582 41.6898 39.2828 41.4361C38.0074 41.1824 36.6854 41.3126 35.484 41.8103C34.2826 42.3079 33.2557 43.1506 32.5333 44.2319C31.8109 45.3131 31.4253 46.5843 31.4253 47.8847C31.4271 49.6279 32.1204 51.2991 33.353 52.5318C34.5856 53.7645 36.2568 54.4578 38 54.4598V54.4594ZM38.8083 42.9026C38.8082 42.6884 38.723 42.4829 38.5714 42.3314C38.4198 42.18 38.2143 42.0949 38 42.0949C36.4649 42.0967 34.9933 42.7073 33.9079 43.7928C32.8224 44.8783 32.2119 46.35 32.2103 47.8851C32.2103 48.0994 32.2954 48.305 32.447 48.4565C32.5985 48.6081 32.8041 48.6933 33.0185 48.6933C33.2328 48.6933 33.4384 48.6081 33.5899 48.4565C33.7415 48.305 33.8267 48.0994 33.8267 47.8851C33.8277 46.7785 34.2678 45.7175 35.0502 44.935C35.8325 44.1524 36.8934 43.7122 38 43.7109C38.2144 43.7109 38.42 43.6258 38.5716 43.4742C38.7232 43.3227 38.8083 43.1171 38.8084 42.9027L38.8083 42.9026ZM53.0122 41.3194H56.9318C57.6744 41.3186 58.3862 41.0232 58.9112 40.4981C59.4362 39.9729 59.7314 39.261 59.732 38.5185V37.057C59.7313 36.3145 59.436 35.6025 58.911 35.0774C58.3859 34.5523 57.674 34.257 56.9314 34.2562H53.0123C52.2697 34.257 51.5578 34.5524 51.0328 35.0775C50.5077 35.6026 50.2124 36.3146 50.2117 37.0571V38.5186C50.2124 39.2611 50.5077 39.9731 51.0327 40.4983C51.5578 41.0234 52.2697 41.3188 53.0123 41.3195L53.0122 41.3194ZM51.8281 37.0574V38.5188C51.8285 38.8328 51.9533 39.1339 52.1754 39.3559C52.3974 39.578 52.6984 39.7029 53.0124 39.7032H56.9318C57.2458 39.7028 57.5468 39.5778 57.7688 39.3557C57.9908 39.1337 58.1157 38.8326 58.116 38.5187V37.0574C58.1157 36.7435 57.9909 36.4424 57.769 36.2204C57.547 35.9983 57.2461 35.8733 56.9321 35.8728H53.0121C52.6981 35.8732 52.3971 35.9981 52.1751 36.2202C51.9531 36.4423 51.8284 36.7434 51.8281 37.0574Z" fill="white"/>
<rect x="14.5" y="18.5" width="13" height="1" rx="0.5" fill="white"/>
<rect x="45.5" y="18.5" width="14" height="1" rx="0.5" fill="white"/>
<rect x="62.5" y="18.5" width="1" height="1" rx="0.5" fill="white"/>
<rect x="60.5" y="18.5" width="1" height="1" rx="0.5" fill="white"/>
<rect x="14.5" y="68.5" width="18" height="1" rx="0.5" fill="white"/>
<path d="M107.003 24.72C107.376 24.72 107.83 24.9733 108.363 25.48C108.923 25.96 109.203 26.3733 109.203 26.72C109.203 28.3467 109.15 30.5733 109.043 33.4C109.016 34.0933 108.99 34.9333 108.963 35.92C108.936 36.88 108.923 38 108.923 39.28C108.923 43.3333 109.163 46.32 109.643 48.24C109.616 48.88 109.363 49.3467 108.883 49.64C108.403 49.9067 107.923 50.04 107.443 50.04C106.376 50.04 105.67 49.6667 105.323 48.92C105.003 48.1733 104.843 47.1067 104.843 45.72C104.843 40.5733 104.896 35.84 105.003 31.52C101.936 34.9333 99.5496 37.8 97.843 40.12C97.843 40.12 97.603 40.28 97.123 40.6C96.6696 41 96.2963 41.2 96.003 41.2C95.3096 41.2 94.7363 41.0267 94.283 40.68C93.8296 40.3333 93.3896 39.8267 92.963 39.16L91.043 36.44C89.7096 34.5733 88.7363 33.16 88.123 32.2C88.123 34.6533 88.243 37.9867 88.483 42.2C88.6696 44.6267 88.763 46.4533 88.763 47.68C88.763 48.32 88.603 48.8667 88.283 49.32C87.963 49.7467 87.4563 49.96 86.763 49.96C86.0696 49.96 85.4963 49.8267 85.043 49.56C84.6163 49.2933 84.3896 48.8933 84.363 48.36C84.3896 47.9067 84.403 47.16 84.403 46.12C84.403 44.04 84.3363 41.5067 84.203 38.52L84.123 36.36L84.043 33.56C84.0163 32.7333 83.9896 31.7733 83.963 30.68C83.9363 29.56 83.923 28.3467 83.923 27.04C83.923 25.44 84.7896 24.64 86.523 24.64C87.0563 24.64 87.5896 24.7733 88.123 25.04C88.683 25.3067 89.0963 25.6933 89.363 26.2C89.5763 27.1333 90.363 28.68 91.723 30.84C93.083 33 94.4163 35.0267 95.723 36.92C96.8963 35.4267 97.8563 34.3067 98.603 33.56C99.883 32.2533 100.936 31.04 101.763 29.92C102.616 28.8 103.536 27.4533 104.523 25.88C104.763 25.56 105.11 25.2933 105.563 25.08C106.016 24.84 106.496 24.72 107.003 24.72ZM131.768 44.56C132.275 44.56 132.648 44.76 132.888 45.16C133.155 45.5333 133.288 45.9467 133.288 46.4C133.288 46.96 133.195 47.36 133.008 47.6C132.848 47.8133 132.528 48.04 132.048 48.28C130.928 48.8133 129.542 49.24 127.888 49.56C126.235 49.88 124.462 50.04 122.568 50.04C120.195 50.04 118.448 49.64 117.328 48.84C116.235 48.04 115.555 47.08 115.288 45.96C115.048 44.8133 114.928 43.32 114.928 41.48C114.928 39.5067 115.008 37.5733 115.168 35.68C115.328 33.76 115.608 31.32 116.008 28.36C116.195 27.08 116.702 26.16 117.528 25.6C118.355 25.0133 119.262 24.72 120.248 24.72C121.075 24.72 122.422 24.6933 124.288 24.64L127.768 24.6C129.208 24.6 130.248 24.64 130.888 24.72C131.688 24.88 132.275 25.0667 132.648 25.28C133.048 25.4667 133.248 25.8 133.248 26.28C133.248 26.8133 133.062 27.3333 132.688 27.84C132.342 28.3467 131.808 28.6 131.088 28.6C130.262 28.6 129.075 28.5467 127.528 28.44C125.982 28.3333 124.822 28.28 124.048 28.28C123.382 28.28 122.728 28.32 122.088 28.4C121.342 28.4533 120.808 28.5467 120.488 28.68C120.168 28.8133 119.982 29.04 119.928 29.36C119.555 32.1067 119.368 34.1333 119.368 35.44C119.982 35.52 120.582 35.56 121.168 35.56C121.915 35.56 122.715 35.52 123.568 35.44C124.422 35.36 124.968 35.3067 125.208 35.28C126.622 35.1467 127.835 35.08 128.848 35.08C129.435 35.08 129.875 35.1867 130.168 35.4C130.488 35.6133 130.648 35.9067 130.648 36.28C130.648 36.8667 130.488 37.32 130.168 37.64C129.875 37.96 129.342 38.2 128.568 38.36C127.635 38.5467 126.475 38.6933 125.088 38.8C123.728 38.9067 122.395 38.96 121.088 38.96C120.635 38.96 120.008 38.9333 119.208 38.88C119.128 40.5067 119.088 42.0133 119.088 43.4C119.088 45.2933 120.342 46.24 122.848 46.24C124.182 46.24 125.288 46.1467 126.168 45.96C127.048 45.7733 128.062 45.5067 129.208 45.16C130.275 44.76 131.128 44.56 131.768 44.56ZM163.559 26.72C163.559 28.32 163.505 30.56 163.399 33.44C163.372 34.1333 163.345 34.9733 163.319 35.96C163.292 36.92 163.279 38.04 163.279 39.32C163.279 43.5067 163.505 46.5067 163.959 48.32C163.932 48.9867 163.679 49.4667 163.199 49.76C162.719 50.0267 162.225 50.16 161.719 50.16C160.679 50.16 159.985 49.7867 159.639 49.04C159.319 48.2667 159.159 47.1867 159.159 45.8C159.159 40.6533 159.239 35.8933 159.399 31.52C158.892 32.5333 158.412 33.6533 157.959 34.88C157.532 36.08 156.959 37.76 156.239 39.92C155.492 42.2667 154.852 44.12 154.319 45.48C153.812 46.84 153.279 47.8933 152.719 48.64C152.559 48.72 152.239 48.88 151.759 49.12C151.305 49.3333 150.905 49.44 150.559 49.44C149.999 49.44 149.599 49.3467 149.359 49.16C149.119 48.9733 148.905 48.7067 148.719 48.36C148.532 48.0133 148.372 47.7333 148.239 47.52C147.812 46.88 147.265 45.8267 146.599 44.36C145.932 42.8933 145.319 41.36 144.759 39.76C144.545 39.2 144.345 38.6667 144.159 38.16C143.999 37.6267 143.839 37.1333 143.679 36.68C143.359 35.72 143.039 34.8267 142.719 34C142.425 33.1467 142.172 32.5467 141.959 32.2C141.959 33.6133 141.919 35.0267 141.839 36.44C141.785 38.1467 141.759 39.3733 141.759 40.12C141.759 40.6533 141.785 41.3733 141.839 42.28C141.999 45.0533 142.079 46.88 142.079 47.76C142.079 48.4 141.919 48.9467 141.599 49.4C141.279 49.8533 140.785 50.08 140.119 50.08C139.399 50.08 138.812 49.9467 138.359 49.68C137.932 49.3867 137.705 48.96 137.679 48.4C137.705 47.9467 137.719 47.2133 137.719 46.2C137.719 44.1467 137.639 40.88 137.479 36.4L137.439 34.96C137.439 33.9467 137.492 32.5067 137.599 30.64C137.625 30.1867 137.652 29.6533 137.679 29.04C137.705 28.4267 137.719 27.76 137.719 27.04C137.719 26.2133 137.999 25.6133 138.559 25.24C139.119 24.84 139.839 24.64 140.719 24.64C141.252 24.64 141.785 24.7733 142.319 25.04C142.879 25.3067 143.292 25.6933 143.559 26.2C144.092 27.2933 144.625 28.5867 145.159 30.08C145.692 31.5467 146.412 33.64 147.319 36.36C148.172 38.9467 148.852 40.92 149.359 42.28C149.865 43.6133 150.292 44.52 150.639 45L151.559 42.28C154.572 33.08 156.599 27.64 157.639 25.96C157.879 25.64 158.292 25.36 158.879 25.12C159.492 24.8533 160.065 24.72 160.599 24.72C160.999 24.72 161.585 24.9733 162.359 25.48C163.159 25.96 163.559 26.3733 163.559 26.72ZM181.864 50.04C180.104 50.04 178.491 49.8267 177.024 49.4C175.558 48.9467 174.358 48.2933 173.424 47.44C171.718 45.92 170.518 44.2667 169.824 42.48C169.158 40.6667 168.824 38.36 168.824 35.56C168.824 34.9733 168.904 34.4267 169.064 33.92C169.251 33.3867 169.491 32.8 169.784 32.16C169.864 31.9733 169.984 31.68 170.144 31.28C170.331 30.8533 170.451 30.4667 170.504 30.12C171.011 29.1867 171.864 28.2933 173.064 27.44C174.291 26.5867 175.611 25.9067 177.024 25.4C178.438 24.8667 179.678 24.6 180.744 24.6C185.891 24.6 189.571 26.36 191.784 29.88C193.038 31.9333 193.664 34 193.664 36.08C193.664 38.7733 193.171 41.1333 192.184 43.16C191.224 45.1867 189.891 46.76 188.184 47.88C187.118 48.52 186.024 49.04 184.904 49.44C183.784 49.84 182.771 50.04 181.864 50.04ZM172.984 38.52C172.958 39.9867 173.264 41.2 173.904 42.16C174.571 43.0933 175.611 44.12 177.024 45.24C178.091 45.64 178.838 45.9067 179.264 46.04C179.691 46.1733 180.158 46.24 180.664 46.24C182.398 46.24 183.931 45.88 185.264 45.16C186.598 44.44 187.624 43.4533 188.344 42.2C189.091 40.9467 189.464 39.5467 189.464 38C189.464 35.9733 189.238 34.3733 188.784 33.2C188.331 32.0267 187.518 30.9733 186.344 30.04C185.731 29.5333 184.944 29.16 183.984 28.92C183.051 28.68 182.051 28.56 180.984 28.56C178.424 28.56 176.438 29.4667 175.024 31.28C173.638 33.0667 172.958 35.48 172.984 38.52ZM212.011 39.4C214.331 43.3467 216.505 46.48 218.531 48.8C218.745 49.0133 218.851 49.2533 218.851 49.52C218.851 49.8667 218.638 50.16 218.211 50.4C217.785 50.6667 217.291 50.8 216.731 50.8C215.905 50.8 215.011 50.4533 214.051 49.76C213.358 49.28 212.718 48.5733 212.131 47.64C211.545 46.68 210.878 45.4533 210.131 43.96L209.451 42.6C208.758 41.3467 208.345 40.6133 208.211 40.4C207.625 40.64 206.945 40.8133 206.171 40.92C205.398 41.0267 204.451 41.12 203.331 41.2C203.385 44.6133 203.411 47 203.411 48.36C203.411 48.8667 203.225 49.28 202.851 49.6C202.478 49.8933 202.011 50.04 201.451 50.04C200.758 50.04 200.225 49.76 199.851 49.2C199.478 48.4533 199.291 47.2933 199.291 45.72L199.331 42.8C199.331 40.9867 199.371 39.2667 199.451 37.64C199.505 35.5067 199.531 33.9333 199.531 32.92L199.571 30.88C199.571 30.2667 199.531 29.64 199.451 29C199.025 28.8667 198.651 28.6667 198.331 28.4C198.011 28.1067 197.851 27.7867 197.851 27.44C197.851 26.7733 198.091 26.2667 198.571 25.92C199.078 25.5467 199.705 25.3067 200.451 25.2C202.611 24.8533 204.718 24.68 206.771 24.68C210.265 24.68 213.158 25.3333 215.451 26.64C217.745 27.9467 218.891 29.9333 218.891 32.6C218.891 33.4267 218.705 34.2267 218.331 35C217.985 35.7467 217.505 36.3733 216.891 36.88C215.291 38.1333 213.665 38.9733 212.011 39.4ZM214.651 32.48C214.651 31.2 213.971 30.16 212.611 29.36C211.278 28.5333 209.358 28.12 206.851 28.12C205.758 28.12 204.638 28.2533 203.491 28.52C203.545 29.48 203.571 30.16 203.571 30.56C203.571 31.36 203.518 32.5067 203.411 34C203.358 35.4933 203.331 36.6933 203.331 37.6C205.118 37.6 206.825 37.36 208.451 36.88C209.625 36.5333 210.611 36.2 211.411 35.88C212.211 35.56 212.945 35.12 213.611 34.56C214.305 33.9733 214.651 33.28 214.651 32.48ZM242.74 26.52C242.74 27 242.327 27.7067 241.5 28.64C240.513 29.76 237.94 33.2 233.78 38.96C233.833 42.4 233.94 44.76 234.1 46.04C234.18 46.84 234.22 47.4133 234.22 47.76C234.22 48.64 234.06 49.24 233.74 49.56C233.447 49.8533 232.927 50 232.18 50C231.62 50 231.087 49.84 230.58 49.52C230.1 49.1733 229.86 48.76 229.86 48.28C229.86 46.3333 229.82 43.48 229.74 39.72C229.74 39.56 229.633 39.2933 229.42 38.92C229.207 38.5467 229.073 38.3067 229.02 38.2C228.46 37.2133 227.753 36.12 226.9 34.92C226.073 33.6933 225.353 32.7733 224.74 32.16C223.567 30.9867 222.647 29.9333 221.98 29C221.313 28.04 220.98 27.36 220.98 26.96C220.98 26.4 221.233 25.96 221.74 25.64C222.273 25.2933 222.847 25.12 223.46 25.12C223.807 25.12 224.167 25.2133 224.54 25.4C224.94 25.5867 225.26 25.8533 225.5 26.2C227.073 28.5467 228.473 30.4933 229.7 32.04L231.58 34.48C232.727 33.3067 233.727 32.1467 234.58 31C235.46 29.8267 236.42 28.44 237.46 26.84L238.14 25.8C238.647 25.1067 239.433 24.76 240.5 24.76C241.007 24.76 241.5 24.9067 241.98 25.2C242.487 25.4933 242.74 25.9333 242.74 26.52ZM248.033 24.6C248.54 24.6 248.993 24.7333 249.393 25C249.82 25.2667 250.073 25.7333 250.153 26.4C250.473 28.5067 250.673 30.6133 250.753 32.72C250.86 34.8 250.913 37.16 250.913 39.8C250.913 40.92 250.82 42.96 250.633 45.92C251.807 46.0267 252.713 46.08 253.353 46.08C253.807 46.08 254.833 46.0133 256.433 45.88C257.367 45.7467 258.18 45.68 258.873 45.68C259.513 45.68 260.1 45.7467 260.633 45.88C261.167 45.9867 261.713 46.1733 262.273 46.44C262.833 46.76 263.113 47.2533 263.113 47.92C263.113 48.4533 262.94 48.9333 262.593 49.36C262.273 49.7867 261.887 50 261.433 50C261.113 50 260.607 49.9467 259.913 49.84C258.66 49.6533 257.46 49.56 256.313 49.56C255.94 49.56 255.513 49.5867 255.033 49.64C254.58 49.6667 254.247 49.68 254.033 49.68C253.393 49.76 252.753 49.8 252.113 49.8C250.807 49.8 249.633 49.7333 248.593 49.6C248.06 49.5467 247.527 49.3467 246.993 49C246.46 48.6267 246.193 48.0933 246.193 47.4C246.193 47 246.247 45.9733 246.353 44.32C246.54 41.5733 246.633 39.48 246.633 38.04C246.633 36.92 246.58 35.7467 246.473 34.52C246.367 33.2933 246.3 32.52 246.273 32.2C246.033 29.9333 245.913 28.0667 245.913 26.6C245.913 25.9067 246.073 25.4 246.393 25.08C246.74 24.76 247.287 24.6 248.033 24.6ZM284.429 49.4C284.082 48.9467 283.802 48.52 283.589 48.12C283.402 47.6933 283.162 47.1067 282.869 46.36C282.389 45.16 281.962 44.28 281.589 43.72C279.962 43.96 278.549 44.08 277.349 44.08C276.762 44.08 276.095 44.0667 275.349 44.04C274.629 44.0133 274.069 43.9867 273.669 43.96C272.282 43.8533 271.175 43.8 270.349 43.8C270.002 44.2267 269.722 44.68 269.509 45.16C269.322 45.6133 269.109 46.1867 268.869 46.88C268.469 48.0533 268.082 48.9467 267.709 49.56C267.469 49.96 267.002 50.16 266.309 50.16C265.722 50.16 265.175 50.04 264.669 49.8C264.189 49.5333 263.949 49.1733 263.949 48.72C264.162 47.7067 264.495 46.64 264.949 45.52C265.429 44.3733 266.109 42.8533 266.989 40.96L268.589 37.04C269.469 34.8 270.269 32.88 270.989 31.28C271.735 29.68 272.709 27.7867 273.909 25.6C274.069 25.28 274.335 25.0133 274.709 24.8C275.082 24.56 275.495 24.44 275.949 24.44C276.455 24.44 276.815 24.48 277.029 24.56C277.269 24.6133 277.455 24.72 277.589 24.88C277.722 25.0133 277.922 25.3067 278.189 25.76C279.095 27.1733 279.869 28.6267 280.509 30.12C281.175 31.6133 282.015 33.68 283.029 36.32L283.869 38.44C284.615 40.36 285.255 41.9733 285.789 43.28C286.349 44.56 286.962 45.7333 287.629 46.8C288.055 47.4933 288.269 47.9733 288.269 48.24C288.269 48.88 288.069 49.3733 287.669 49.72C287.295 50.04 286.802 50.2 286.189 50.2C285.415 50.2 284.829 49.9333 284.429 49.4ZM280.429 40.44C280.055 39.6667 279.562 38.3333 278.949 36.44C278.735 35.7467 278.575 35.2667 278.469 35C277.642 32.6 276.815 30.6933 275.989 29.28C275.482 30.56 274.735 32.2133 273.749 34.24C273.135 35.3867 272.295 37.44 271.229 40.4C272.935 40.6133 274.869 40.72 277.029 40.72C278.522 40.72 279.655 40.6267 280.429 40.44ZM308.495 27.52C308.495 26.7467 308.668 26.08 309.015 25.52C309.388 24.9333 309.935 24.64 310.655 24.64C311.268 24.64 311.815 24.76 312.295 25C312.775 25.24 313.015 25.64 313.015 26.2C313.015 27.2933 312.961 28.8267 312.855 30.8C312.748 32.72 312.695 34.1467 312.695 35.08C312.695 36.5467 312.748 38.5067 312.855 40.96C312.961 43.3067 313.015 45.0267 313.015 46.12C313.015 47 313.001 47.6533 312.975 48.08C312.975 48.5067 312.735 48.9333 312.255 49.36C311.801 49.76 311.095 49.96 310.135 49.96C309.628 49.96 309.188 49.88 308.815 49.72C308.468 49.5333 308.228 49.3333 308.095 49.12C306.841 47.6 305.015 45.0133 302.615 41.36C299.921 37.28 297.721 34.16 296.015 32C296.228 33.92 296.335 36.2667 296.335 39.04C296.335 40.2667 296.308 41.8667 296.255 43.84C296.228 45.7867 296.175 47.0667 296.095 47.68C295.988 48.4533 295.748 49.0533 295.375 49.48C295.028 49.88 294.468 50.08 293.695 50.08C293.108 50.08 292.668 49.92 292.375 49.6C292.108 49.2533 291.948 48.6667 291.895 47.84C291.868 46.7467 291.935 45.1067 292.095 42.92C292.121 42.5733 292.161 41.9733 292.215 41.12C292.268 40.2667 292.295 39.5067 292.295 38.84C292.295 37 292.201 34.8933 292.015 32.52C291.855 29.9067 291.775 27.9733 291.775 26.72C291.775 26.08 292.001 25.5867 292.455 25.24C292.935 24.8933 293.481 24.72 294.095 24.72C294.628 24.72 295.188 24.8533 295.775 25.12C298.068 28 301.175 32.2933 305.095 38L308.855 43.76C308.881 43.3333 308.895 42.7333 308.895 41.96C308.895 40.6 308.868 39.1333 308.815 37.56C308.761 35.9867 308.721 34.92 308.695 34.36C308.561 31.7733 308.495 29.4933 308.495 27.52ZM335.167 44.56C335.673 44.56 336.047 44.76 336.287 45.16C336.553 45.5333 336.687 45.9467 336.687 46.4C336.687 46.96 336.593 47.36 336.407 47.6C336.247 47.8133 335.927 48.04 335.447 48.28C334.327 48.8133 332.94 49.24 331.287 49.56C329.633 49.88 327.86 50.04 325.967 50.04C323.593 50.04 321.847 49.64 320.727 48.84C319.633 48.04 318.953 47.08 318.687 45.96C318.447 44.8133 318.327 43.32 318.327 41.48C318.327 39.5067 318.407 37.5733 318.567 35.68C318.727 33.76 319.007 31.32 319.407 28.36C319.593 27.08 320.1 26.16 320.927 25.6C321.753 25.0133 322.66 24.72 323.647 24.72C324.473 24.72 325.82 24.6933 327.687 24.64L331.167 24.6C332.607 24.6 333.647 24.64 334.287 24.72C335.087 24.88 335.673 25.0667 336.047 25.28C336.447 25.4667 336.647 25.8 336.647 26.28C336.647 26.8133 336.46 27.3333 336.087 27.84C335.74 28.3467 335.207 28.6 334.487 28.6C333.66 28.6 332.473 28.5467 330.927 28.44C329.38 28.3333 328.22 28.28 327.447 28.28C326.78 28.28 326.127 28.32 325.487 28.4C324.74 28.4533 324.207 28.5467 323.887 28.68C323.567 28.8133 323.38 29.04 323.327 29.36C322.953 32.1067 322.767 34.1333 322.767 35.44C323.38 35.52 323.98 35.56 324.567 35.56C325.313 35.56 326.113 35.52 326.967 35.44C327.82 35.36 328.367 35.3067 328.607 35.28C330.02 35.1467 331.233 35.08 332.247 35.08C332.833 35.08 333.273 35.1867 333.567 35.4C333.887 35.6133 334.047 35.9067 334.047 36.28C334.047 36.8667 333.887 37.32 333.567 37.64C333.273 37.96 332.74 38.2 331.967 38.36C331.033 38.5467 329.873 38.6933 328.487 38.8C327.127 38.9067 325.793 38.96 324.487 38.96C324.033 38.96 323.407 38.9333 322.607 38.88C322.527 40.5067 322.487 42.0133 322.487 43.4C322.487 45.2933 323.74 46.24 326.247 46.24C327.58 46.24 328.687 46.1467 329.567 45.96C330.447 45.7733 331.46 45.5067 332.607 45.16C333.673 44.76 334.527 44.56 335.167 44.56Z" fill="#151C1C"/>
<path d="M81.3183 56.255C81.3183 55.825 81.6333 55.61 82.2633 55.61C82.5333 55.61 83.0483 55.62 83.8083 55.64C84.6483 55.68 85.2833 55.7 85.7133 55.7C86.0633 55.7 86.4883 55.68 86.9883 55.64C87.3283 55.62 87.5433 55.61 87.6333 55.61C88.1833 55.63 88.6483 55.73 89.0283 55.91C89.1383 55.96 89.2283 56.02 89.2983 56.09C89.3683 56.16 89.4033 56.275 89.4033 56.435C89.4033 56.655 89.3333 56.845 89.1933 57.005C89.0533 57.155 88.8833 57.23 88.6833 57.23C88.4633 57.23 88.1433 57.2 87.7233 57.14C87.3533 57.07 87.0283 57.035 86.7483 57.035C86.4783 57.035 86.2733 57.04 86.1333 57.05C86.1033 57.38 86.0883 58.17 86.0883 59.42C86.0883 60.91 86.1333 62.42 86.2233 63.95L86.2533 64.385C86.2533 64.795 86.0183 65 85.5483 65C85.1783 65 84.9283 64.915 84.7983 64.745C84.6683 64.565 84.6033 64.295 84.6033 63.935C84.6033 63.225 84.5833 62.34 84.5433 61.28C84.5033 60.4 84.4833 59.775 84.4833 59.405C84.4833 59.155 84.5133 58.39 84.5733 57.11L82.8183 57.125C82.2583 57.125 81.8683 57.075 81.6483 56.975C81.4283 56.865 81.3183 56.625 81.3183 56.255ZM97.2565 59.63C97.2465 59.47 97.2415 59.23 97.2415 58.91V58.34C97.2415 57.96 97.2315 57.675 97.2115 57.485C97.1915 57.325 97.1815 56.91 97.1815 56.24C97.1815 56 97.2515 55.815 97.3915 55.685C97.5415 55.545 97.7415 55.475 97.9915 55.475C98.3115 55.475 98.5265 55.545 98.6365 55.685C98.7465 55.825 98.8015 56.055 98.8015 56.375V56.945L98.7865 58.595C98.7765 58.915 98.7715 59.395 98.7715 60.035L98.7865 61.265C98.7965 61.455 98.8015 61.72 98.8015 62.06C98.8015 62.33 98.8115 62.715 98.8315 63.215C98.8515 63.675 98.8615 64.02 98.8615 64.25C98.8615 64.44 98.8065 64.615 98.6965 64.775C98.5965 64.935 98.4565 65.015 98.2765 65.015C97.5765 65.015 97.2265 64.78 97.2265 64.31C97.2265 64.05 97.2365 63.76 97.2565 63.44C97.2765 63.21 97.2865 62.86 97.2865 62.39C97.2865 62.06 97.2765 61.585 97.2565 60.965C96.7865 61.005 95.9765 61.025 94.8265 61.025C94.1065 61.025 93.5465 61.025 93.1465 61.025C92.7465 61.015 92.4565 60.99 92.2765 60.95L92.2615 62.675C92.2615 62.785 92.2865 63.08 92.3365 63.56C92.3865 63.88 92.4115 64.16 92.4115 64.4C92.4115 64.55 92.3215 64.695 92.1415 64.835C91.9715 64.965 91.8115 65.03 91.6615 65.03C91.3015 65.03 91.0565 64.945 90.9265 64.775C90.7965 64.595 90.7315 64.325 90.7315 63.965L90.7165 62.78C90.7065 62.64 90.7015 62.445 90.7015 62.195C90.7015 61.825 90.6915 61.32 90.6715 60.68C90.6515 60.1 90.6415 59.68 90.6415 59.42C90.6415 59.03 90.6515 58.485 90.6715 57.785C90.6915 57.125 90.7015 56.635 90.7015 56.315C90.7015 55.995 90.7815 55.78 90.9415 55.67C91.1015 55.56 91.2815 55.505 91.4815 55.505C92.0415 55.505 92.3215 55.69 92.3215 56.06C92.3215 56.72 92.3065 57.35 92.2765 57.95C92.2565 58.71 92.2465 59.265 92.2465 59.615C92.5365 59.685 92.8415 59.73 93.1615 59.75C93.4815 59.77 93.9315 59.78 94.5115 59.78C95.6915 59.78 96.6065 59.73 97.2565 59.63ZM107.177 62.96C107.367 62.96 107.507 63.035 107.597 63.185C107.697 63.325 107.747 63.48 107.747 63.65C107.747 63.86 107.712 64.01 107.642 64.1C107.582 64.18 107.462 64.265 107.282 64.355C106.862 64.555 106.342 64.715 105.722 64.835C105.102 64.955 104.437 65.015 103.727 65.015C102.837 65.015 102.182 64.865 101.762 64.565C101.352 64.265 101.097 63.905 100.997 63.485C100.907 63.055 100.862 62.495 100.862 61.805C100.862 61.065 100.892 60.34 100.952 59.63C101.012 58.91 101.117 57.995 101.267 56.885C101.337 56.405 101.527 56.06 101.837 55.85C102.147 55.63 102.487 55.52 102.857 55.52C103.167 55.52 103.672 55.51 104.372 55.49L105.677 55.475C106.217 55.475 106.607 55.49 106.847 55.52C107.147 55.58 107.367 55.65 107.507 55.73C107.657 55.8 107.732 55.925 107.732 56.105C107.732 56.305 107.662 56.5 107.522 56.69C107.392 56.88 107.192 56.975 106.922 56.975C106.612 56.975 106.167 56.955 105.587 56.915C105.007 56.875 104.572 56.855 104.282 56.855C104.032 56.855 103.787 56.87 103.547 56.9C103.267 56.92 103.067 56.955 102.947 57.005C102.827 57.055 102.757 57.14 102.737 57.26C102.597 58.29 102.527 59.05 102.527 59.54C102.757 59.57 102.982 59.585 103.202 59.585C103.482 59.585 103.782 59.57 104.102 59.54C104.422 59.51 104.627 59.49 104.717 59.48C105.247 59.43 105.702 59.405 106.082 59.405C106.302 59.405 106.467 59.445 106.577 59.525C106.697 59.605 106.757 59.715 106.757 59.855C106.757 60.075 106.697 60.245 106.577 60.365C106.467 60.485 106.267 60.575 105.977 60.635C105.627 60.705 105.192 60.76 104.672 60.8C104.162 60.84 103.662 60.86 103.172 60.86C103.002 60.86 102.767 60.85 102.467 60.83C102.437 61.44 102.422 62.005 102.422 62.525C102.422 63.235 102.892 63.59 103.832 63.59C104.332 63.59 104.747 63.555 105.077 63.485C105.407 63.415 105.787 63.315 106.217 63.185C106.617 63.035 106.937 62.96 107.177 62.96ZM119.408 62.285C119.408 62.755 119.298 63.16 119.078 63.5C118.868 63.83 118.518 64.135 118.028 64.415C117.698 64.615 117.313 64.765 116.873 64.865C116.433 64.965 115.988 65.015 115.538 65.015C115.078 65.015 114.508 64.865 113.828 64.565C113.338 64.325 112.948 64.04 112.658 63.71C112.378 63.38 112.238 63.02 112.238 62.63C112.238 62.36 112.298 62.165 112.418 62.045C112.538 61.915 112.733 61.85 113.003 61.85C113.143 61.85 113.288 61.91 113.438 62.03C113.588 62.14 113.678 62.25 113.708 62.36C113.848 62.77 114.093 63.085 114.443 63.305C114.793 63.515 115.228 63.62 115.748 63.62C116.348 63.62 116.848 63.51 117.248 63.29C117.658 63.07 117.863 62.775 117.863 62.405C117.863 62.045 117.643 61.725 117.203 61.445C116.763 61.165 116.313 60.97 115.853 60.86C115.193 60.68 114.608 60.465 114.098 60.215C113.568 59.955 113.173 59.635 112.913 59.255C112.653 58.875 112.523 58.475 112.523 58.055C112.523 57.665 112.658 57.27 112.928 56.87C113.198 56.46 113.518 56.165 113.888 55.985C114.088 55.885 114.428 55.78 114.908 55.67C115.398 55.55 115.753 55.49 115.973 55.49C116.253 55.49 116.548 55.525 116.858 55.595C117.168 55.665 117.433 55.765 117.653 55.895C118.093 56.145 118.418 56.37 118.628 56.57C118.838 56.77 118.943 57.02 118.943 57.32C118.943 57.5 118.873 57.66 118.733 57.8C118.603 57.94 118.373 58.01 118.043 58.01C117.963 58.01 117.883 57.975 117.803 57.905C117.723 57.835 117.623 57.73 117.503 57.59C117.343 57.38 117.188 57.24 117.038 57.17C116.878 57.11 116.678 57.055 116.438 57.005C116.198 56.945 115.973 56.915 115.763 56.915C115.523 56.915 115.273 56.965 115.013 57.065C114.753 57.165 114.533 57.31 114.353 57.5C114.183 57.68 114.098 57.89 114.098 58.13C114.098 58.33 114.188 58.505 114.368 58.655C114.558 58.795 114.783 58.91 115.043 59C115.343 59.12 115.668 59.225 116.018 59.315C116.478 59.455 116.853 59.585 117.143 59.705C117.443 59.815 117.733 59.955 118.013 60.125C118.503 60.415 118.858 60.715 119.078 61.025C119.298 61.325 119.408 61.745 119.408 62.285ZM120.181 56.255C120.181 55.825 120.496 55.61 121.126 55.61C121.396 55.61 121.911 55.62 122.671 55.64C123.511 55.68 124.146 55.7 124.576 55.7C124.926 55.7 125.351 55.68 125.851 55.64C126.191 55.62 126.406 55.61 126.496 55.61C127.046 55.63 127.511 55.73 127.891 55.91C128.001 55.96 128.091 56.02 128.161 56.09C128.231 56.16 128.266 56.275 128.266 56.435C128.266 56.655 128.196 56.845 128.056 57.005C127.916 57.155 127.746 57.23 127.546 57.23C127.326 57.23 127.006 57.2 126.586 57.14C126.216 57.07 125.891 57.035 125.611 57.035C125.341 57.035 125.136 57.04 124.996 57.05C124.966 57.38 124.951 58.17 124.951 59.42C124.951 60.91 124.996 62.42 125.086 63.95L125.116 64.385C125.116 64.795 124.881 65 124.411 65C124.041 65 123.791 64.915 123.661 64.745C123.531 64.565 123.466 64.295 123.466 63.935C123.466 63.225 123.446 62.34 123.406 61.28C123.366 60.4 123.346 59.775 123.346 59.405C123.346 59.155 123.376 58.39 123.436 57.11L121.681 57.125C121.121 57.125 120.731 57.075 120.511 56.975C120.291 56.865 120.181 56.625 120.181 56.255ZM134.064 65.015C133.404 65.015 132.799 64.935 132.249 64.775C131.699 64.605 131.249 64.36 130.899 64.04C130.259 63.47 129.809 62.85 129.549 62.18C129.299 61.5 129.174 60.635 129.174 59.585C129.174 59.365 129.204 59.16 129.264 58.97C129.334 58.77 129.424 58.55 129.534 58.31C129.564 58.24 129.609 58.13 129.669 57.98C129.739 57.82 129.784 57.675 129.804 57.545C129.994 57.195 130.314 56.86 130.764 56.54C131.224 56.22 131.719 55.965 132.249 55.775C132.779 55.575 133.244 55.475 133.644 55.475C135.574 55.475 136.954 56.135 137.784 57.455C138.254 58.225 138.489 59 138.489 59.78C138.489 60.79 138.304 61.675 137.934 62.435C137.574 63.195 137.074 63.785 136.434 64.205C136.034 64.445 135.624 64.64 135.204 64.79C134.784 64.94 134.404 65.015 134.064 65.015ZM130.734 60.695C130.724 61.245 130.839 61.7 131.079 62.06C131.329 62.41 131.719 62.795 132.249 63.215C132.649 63.365 132.929 63.465 133.089 63.515C133.249 63.565 133.424 63.59 133.614 63.59C134.264 63.59 134.839 63.455 135.339 63.185C135.839 62.915 136.224 62.545 136.494 62.075C136.774 61.605 136.914 61.08 136.914 60.5C136.914 59.74 136.829 59.14 136.659 58.7C136.489 58.26 136.184 57.865 135.744 57.515C135.514 57.325 135.219 57.185 134.859 57.095C134.509 57.005 134.134 56.96 133.734 56.96C132.774 56.96 132.029 57.3 131.499 57.98C130.979 58.65 130.724 59.555 130.734 60.695ZM147.904 63.59C148.054 63.59 148.174 63.655 148.264 63.785C148.364 63.915 148.414 64.055 148.414 64.205C148.414 64.465 148.314 64.665 148.114 64.805C147.924 64.935 147.674 65 147.364 65C146.904 65 146.534 64.92 146.254 64.76C145.974 64.6 145.724 64.3 145.504 63.86C145.434 63.7 145.349 63.44 145.249 63.08C145.159 62.72 145.064 62.435 144.964 62.225C144.874 62.005 144.719 61.82 144.499 61.67C144.289 61.52 143.999 61.44 143.629 61.43L143.299 61.445C142.959 61.465 142.704 61.475 142.534 61.475C142.334 61.475 142.144 61.46 141.964 61.43C141.984 62.75 141.994 63.76 141.994 64.46C141.994 64.64 141.904 64.79 141.724 64.91C141.554 65.03 141.359 65.09 141.139 65.09C140.879 65.09 140.674 64.99 140.524 64.79C140.404 64.55 140.344 64.195 140.344 63.725C140.344 63.565 140.354 63.335 140.374 63.035L140.389 62.375C140.389 61.765 140.414 61.11 140.464 60.41C140.504 59.61 140.524 59.025 140.524 58.655C140.524 58.345 140.494 57.93 140.434 57.41C140.424 57.31 140.409 57.15 140.389 56.93C140.369 56.7 140.359 56.495 140.359 56.315C140.359 56.185 140.414 56.065 140.524 55.955C140.634 55.845 140.744 55.775 140.854 55.745C141.674 55.615 142.484 55.55 143.284 55.55C144.584 55.55 145.649 55.795 146.479 56.285C147.309 56.775 147.724 57.525 147.724 58.535C147.724 58.835 147.644 59.15 147.484 59.48C147.334 59.8 147.144 60.05 146.914 60.23C146.524 60.57 146.104 60.79 145.654 60.89C145.674 60.91 145.784 61.01 145.984 61.19C146.184 61.37 146.319 61.56 146.389 61.76L146.584 62.36C146.754 62.85 146.889 63.19 146.989 63.38C147.089 63.56 147.219 63.65 147.379 63.65C147.529 63.65 147.619 63.64 147.649 63.62C147.689 63.6 147.774 63.59 147.904 63.59ZM141.949 60.155C142.249 60.175 142.459 60.185 142.579 60.185C142.759 60.185 143.009 60.175 143.329 60.155L144.034 60.14C144.344 60.14 144.664 60.07 144.994 59.93C145.324 59.79 145.599 59.595 145.819 59.345C146.039 59.085 146.149 58.795 146.149 58.475C146.149 57.905 145.919 57.49 145.459 57.23C144.999 56.97 144.284 56.84 143.314 56.84C142.944 56.84 142.509 56.89 142.009 56.99C142.029 57.35 142.039 57.61 142.039 57.77C142.039 57.96 142.029 58.245 142.009 58.625L141.994 59.06C141.964 59.48 141.949 59.845 141.949 60.155ZM155.826 63.095C156.016 63.095 156.156 63.17 156.246 63.32C156.346 63.46 156.396 63.615 156.396 63.785C156.396 63.995 156.361 64.145 156.291 64.235C156.231 64.315 156.106 64.4 155.916 64.49C155.516 64.68 155.066 64.815 154.566 64.895C154.076 64.975 153.461 65.015 152.721 65.015C151.831 65.015 151.146 64.865 150.666 64.565C150.196 64.255 149.886 63.87 149.736 63.41C149.586 62.95 149.511 62.415 149.511 61.805V60.86C149.511 60.21 149.526 59.585 149.556 58.985C149.596 58.385 149.671 57.685 149.781 56.885C149.851 56.405 150.041 56.06 150.351 55.85C150.661 55.63 151.001 55.52 151.371 55.52C151.771 55.52 152.321 55.51 153.021 55.49L154.326 55.475C154.856 55.475 155.246 55.49 155.496 55.52C155.796 55.58 156.016 55.65 156.156 55.73C156.306 55.8 156.381 55.925 156.381 56.105C156.381 56.305 156.311 56.5 156.171 56.69C156.041 56.88 155.841 56.975 155.571 56.975C155.261 56.975 154.816 56.955 154.236 56.915C153.656 56.875 153.221 56.855 152.931 56.855C152.571 56.855 152.281 56.87 152.061 56.9C151.781 56.92 151.581 56.955 151.461 57.005C151.341 57.055 151.271 57.14 151.251 57.26C151.111 58.29 151.041 59.05 151.041 59.54C151.261 59.57 151.496 59.585 151.746 59.585C152.066 59.585 152.601 59.55 153.351 59.48C153.901 59.43 154.356 59.405 154.716 59.405C154.946 59.405 155.116 59.445 155.226 59.525C155.336 59.605 155.391 59.715 155.391 59.855C155.391 60.075 155.336 60.245 155.226 60.365C155.116 60.485 154.916 60.575 154.626 60.635C154.276 60.705 153.821 60.76 153.261 60.8C152.711 60.84 152.186 60.86 151.686 60.86C151.496 60.86 151.261 60.85 150.981 60.83C150.981 61.49 151.011 62.01 151.071 62.39C151.141 62.77 151.281 63.065 151.491 63.275C151.711 63.485 152.041 63.59 152.481 63.59C153.471 63.59 154.261 63.5 154.851 63.32C155.271 63.17 155.596 63.095 155.826 63.095ZM165.431 55.46C166.101 55.46 166.711 55.545 167.261 55.715C167.811 55.875 168.261 56.115 168.611 56.435C169.241 57.005 169.681 57.63 169.931 58.31C170.191 58.98 170.321 59.84 170.321 60.89C170.321 61.11 170.291 61.31 170.231 61.49C170.181 61.67 170.096 61.9 169.976 62.18C169.826 62.49 169.736 62.735 169.706 62.915C169.506 63.265 169.176 63.6 168.716 63.92C168.266 64.24 167.776 64.5 167.246 64.7C166.716 64.9 166.251 65 165.851 65C163.921 65 162.546 64.34 161.726 63.02C161.496 62.65 161.316 62.265 161.186 61.865C161.066 61.465 161.006 61.075 161.006 60.695C161.006 59.675 161.186 58.79 161.546 58.04C161.916 57.28 162.426 56.69 163.076 56.27C163.466 56.04 163.871 55.85 164.291 55.7C164.721 55.54 165.101 55.46 165.431 55.46ZM162.566 60.74C162.566 61.28 162.686 61.725 162.926 62.075C163.176 62.425 163.556 62.805 164.066 63.215C164.486 63.375 164.771 63.48 164.921 63.53C165.071 63.57 165.241 63.59 165.431 63.59C166.441 63.59 167.246 63.315 167.846 62.765C168.446 62.215 168.746 61.46 168.746 60.5C168.746 59.74 168.661 59.14 168.491 58.7C168.321 58.26 168.016 57.865 167.576 57.515C167.346 57.325 167.051 57.185 166.691 57.095C166.341 57.005 165.961 56.96 165.551 56.96C164.931 56.96 164.396 57.145 163.946 57.515C163.496 57.875 163.151 58.345 162.911 58.925C162.681 59.505 162.566 60.11 162.566 60.74ZM173.87 64.46C173.84 64.61 173.75 64.74 173.6 64.85C173.46 64.95 173.26 65 173 65C172.78 65 172.605 64.94 172.475 64.82C172.355 64.7 172.29 64.575 172.28 64.445C172.34 64.025 172.37 63.395 172.37 62.555C172.37 62.055 172.34 61.285 172.28 60.245C172.21 59.265 172.175 58.395 172.175 57.635C172.175 57.225 172.195 56.805 172.235 56.375C172.235 56.235 172.315 56.085 172.475 55.925C172.645 55.765 172.875 55.665 173.165 55.625C173.755 55.565 174.54 55.535 175.52 55.535L177.14 55.55C177.49 55.55 177.82 55.62 178.13 55.76C178.45 55.89 178.61 56.115 178.61 56.435C178.61 56.885 178.375 57.11 177.905 57.11C177.765 57.11 177.62 57.1 177.47 57.08C177.32 57.06 177.215 57.045 177.155 57.035C176.815 56.975 176.535 56.945 176.315 56.945H175.58C174.69 56.945 174.06 56.995 173.69 57.095C173.69 57.425 173.7 57.96 173.72 58.7L173.735 59.66C174.265 59.66 174.975 59.625 175.865 59.555C176.405 59.515 176.76 59.495 176.93 59.495C177.17 59.495 177.37 59.545 177.53 59.645C177.69 59.745 177.77 59.905 177.77 60.125C177.77 60.635 177.42 60.89 176.72 60.89C176.37 60.89 176.105 60.895 175.925 60.905L175.04 60.92C174.58 60.92 174.19 60.935 173.87 60.965C173.87 61.335 173.885 61.725 173.915 62.135C173.915 62.265 173.92 62.465 173.93 62.735C173.95 63.005 173.96 63.25 173.96 63.47C173.96 63.66 173.955 63.835 173.945 63.995C173.935 64.155 173.91 64.31 173.87 64.46ZM191.816 55.52C191.956 55.52 192.126 55.615 192.326 55.805C192.536 55.985 192.641 56.14 192.641 56.27C192.641 56.88 192.621 57.715 192.581 58.775C192.571 59.035 192.561 59.35 192.551 59.72C192.541 60.08 192.536 60.5 192.536 60.98C192.536 62.5 192.626 63.62 192.806 64.34C192.796 64.58 192.701 64.755 192.521 64.865C192.341 64.965 192.161 65.015 191.981 65.015C191.581 65.015 191.316 64.875 191.186 64.595C191.066 64.315 191.006 63.915 191.006 63.395C191.006 61.465 191.026 59.69 191.066 58.07C189.916 59.35 189.021 60.425 188.381 61.295C188.381 61.295 188.291 61.355 188.111 61.475C187.941 61.625 187.801 61.7 187.691 61.7C187.431 61.7 187.216 61.635 187.046 61.505C186.876 61.375 186.711 61.185 186.551 60.935L185.831 59.915C185.331 59.215 184.966 58.685 184.736 58.325C184.736 59.245 184.781 60.495 184.871 62.075C184.941 62.985 184.976 63.67 184.976 64.13C184.976 64.37 184.916 64.575 184.796 64.745C184.676 64.905 184.486 64.985 184.226 64.985C183.966 64.985 183.751 64.935 183.581 64.835C183.421 64.735 183.336 64.585 183.326 64.385C183.336 64.215 183.341 63.935 183.341 63.545C183.341 62.765 183.316 61.815 183.266 60.695L183.236 59.885L183.206 58.835C183.196 58.525 183.186 58.165 183.176 57.755C183.166 57.335 183.161 56.88 183.161 56.39C183.161 55.79 183.486 55.49 184.136 55.49C184.336 55.49 184.536 55.54 184.736 55.64C184.946 55.74 185.101 55.885 185.201 56.075C185.281 56.425 185.576 57.005 186.086 57.815C186.596 58.625 187.096 59.385 187.586 60.095C188.026 59.535 188.386 59.115 188.666 58.835C189.146 58.345 189.541 57.89 189.851 57.47C190.171 57.05 190.516 56.545 190.886 55.955C190.976 55.835 191.106 55.735 191.276 55.655C191.446 55.565 191.626 55.52 191.816 55.52ZM201.778 64.04C201.788 64.25 201.763 64.4 201.703 64.49C201.643 64.57 201.523 64.655 201.343 64.745C201.073 64.875 200.753 64.96 200.383 65C200.023 65.04 199.558 65.06 198.988 65.06H197.968C197.078 65.06 196.418 64.91 195.988 64.61C195.558 64.3 195.288 63.93 195.178 63.5C195.068 63.07 195.003 62.515 194.983 61.835C194.973 61.605 194.968 61.265 194.968 60.815C194.968 59.835 195.053 58.525 195.223 56.885C195.273 56.405 195.448 56.06 195.748 55.85C196.048 55.63 196.388 55.52 196.768 55.52C197.078 55.52 197.583 55.51 198.283 55.49L199.603 55.475C200.143 55.475 200.533 55.49 200.773 55.52C201.073 55.58 201.298 55.65 201.448 55.73C201.598 55.8 201.678 55.925 201.688 56.105C201.688 56.305 201.623 56.5 201.493 56.69C201.363 56.88 201.163 56.975 200.893 56.975C200.583 56.975 200.138 56.955 199.558 56.915C198.978 56.875 198.538 56.855 198.238 56.855C197.968 56.855 197.723 56.87 197.503 56.9C197.223 56.92 197.023 56.955 196.903 57.005C196.783 57.055 196.718 57.14 196.708 57.26C196.598 58.35 196.553 59.11 196.573 59.54C196.803 59.57 197.033 59.585 197.263 59.585C197.493 59.585 197.808 59.565 198.208 59.525C198.308 59.515 198.433 59.505 198.583 59.495C198.733 59.485 198.903 59.48 199.093 59.48C199.203 59.48 199.378 59.49 199.618 59.51L200.083 59.525C200.543 59.525 200.773 59.69 200.773 60.02C200.773 60.22 200.718 60.38 200.608 60.5C200.498 60.62 200.303 60.71 200.023 60.77C199.643 60.84 199.028 60.875 198.178 60.875H197.263C197.073 60.875 196.838 60.865 196.558 60.845C196.548 61.025 196.543 61.285 196.543 61.625C196.543 62.065 196.548 62.375 196.558 62.555C196.588 63.255 197.073 63.605 198.013 63.605C198.333 63.605 198.673 63.615 199.033 63.635L199.588 63.65C199.848 63.65 200.063 63.625 200.233 63.575C200.403 63.515 200.568 63.465 200.728 63.425C200.898 63.375 201.053 63.35 201.193 63.35C201.383 63.35 201.528 63.425 201.628 63.575C201.728 63.715 201.778 63.87 201.778 64.04ZM213.142 56.27C213.142 56.87 213.122 57.71 213.082 58.79C213.072 59.05 213.062 59.365 213.052 59.735C213.042 60.095 213.037 60.515 213.037 60.995C213.037 62.565 213.122 63.69 213.292 64.37C213.282 64.62 213.187 64.8 213.007 64.91C212.827 65.01 212.642 65.06 212.452 65.06C212.062 65.06 211.802 64.92 211.672 64.64C211.552 64.35 211.492 63.945 211.492 63.425C211.492 61.495 211.522 59.71 211.582 58.07C211.392 58.45 211.212 58.87 211.042 59.33C210.882 59.78 210.667 60.41 210.397 61.22C210.117 62.1 209.877 62.795 209.677 63.305C209.487 63.815 209.287 64.21 209.077 64.49C209.017 64.52 208.897 64.58 208.717 64.67C208.547 64.75 208.397 64.79 208.267 64.79C208.057 64.79 207.907 64.755 207.817 64.685C207.727 64.615 207.647 64.515 207.577 64.385C207.507 64.255 207.447 64.15 207.397 64.07C207.237 63.83 207.032 63.435 206.782 62.885C206.532 62.335 206.302 61.76 206.092 61.16C206.012 60.95 205.937 60.75 205.867 60.56C205.807 60.36 205.747 60.175 205.687 60.005C205.567 59.645 205.447 59.31 205.327 59C205.217 58.68 205.122 58.455 205.042 58.325C205.042 58.855 205.027 59.385 204.997 59.915C204.977 60.555 204.967 61.015 204.967 61.295C204.967 61.495 204.977 61.765 204.997 62.105C205.057 63.145 205.087 63.83 205.087 64.16C205.087 64.4 205.027 64.605 204.907 64.775C204.787 64.945 204.602 65.03 204.352 65.03C204.082 65.03 203.862 64.98 203.692 64.88C203.532 64.77 203.447 64.61 203.437 64.4C203.447 64.23 203.452 63.955 203.452 63.575C203.452 62.805 203.422 61.58 203.362 59.9L203.347 59.36C203.347 58.98 203.367 58.44 203.407 57.74C203.417 57.57 203.427 57.37 203.437 57.14C203.447 56.91 203.452 56.66 203.452 56.39C203.452 56.08 203.557 55.855 203.767 55.715C203.977 55.565 204.247 55.49 204.577 55.49C204.777 55.49 204.977 55.54 205.177 55.64C205.387 55.74 205.542 55.885 205.642 56.075C205.842 56.485 206.042 56.97 206.242 57.53C206.442 58.08 206.712 58.865 207.052 59.885C207.372 60.855 207.627 61.595 207.817 62.105C208.007 62.605 208.167 62.945 208.297 63.125L208.642 62.105C209.772 58.655 210.532 56.615 210.922 55.985C211.012 55.865 211.167 55.76 211.387 55.67C211.617 55.57 211.832 55.52 212.032 55.52C212.182 55.52 212.402 55.615 212.692 55.805C212.992 55.985 213.142 56.14 213.142 56.27ZM219.826 55.46C220.466 55.46 221.016 55.54 221.476 55.7C221.946 55.86 222.361 56.105 222.721 56.435C223.351 57.005 223.791 57.63 224.041 58.31C224.301 58.98 224.431 59.84 224.431 60.89C224.431 61.15 224.396 61.395 224.326 61.625C224.256 61.845 224.151 62.115 224.011 62.435L223.816 62.915C223.676 63.295 223.386 63.65 222.946 63.98C222.506 64.3 222.011 64.555 221.461 64.745C220.911 64.935 220.411 65.03 219.961 65.03C219.041 65.03 218.236 64.88 217.546 64.58C216.866 64.27 216.301 63.785 215.851 63.125C215.621 62.775 215.441 62.385 215.311 61.955C215.181 61.515 215.116 61.095 215.116 60.695C215.116 59.675 215.296 58.79 215.656 58.04C216.026 57.28 216.536 56.69 217.186 56.27C217.556 56.05 217.996 55.86 218.506 55.7C219.026 55.54 219.466 55.46 219.826 55.46ZM216.706 60.695C216.706 61.215 216.831 61.7 217.081 62.15C217.341 62.59 217.686 62.94 218.116 63.2C218.556 63.46 219.036 63.59 219.556 63.59C220.626 63.59 221.441 63.32 222.001 62.78C222.571 62.24 222.856 61.48 222.856 60.5C222.856 59.74 222.771 59.14 222.601 58.7C222.431 58.26 222.126 57.865 221.686 57.515C221.446 57.315 221.186 57.175 220.906 57.095C220.636 57.005 220.316 56.96 219.946 56.96C219.306 56.96 218.741 57.12 218.251 57.44C217.761 57.76 217.381 58.205 217.111 58.775C216.841 59.345 216.706 59.985 216.706 60.695ZM231.311 61.025C232.181 62.505 232.996 63.68 233.756 64.55C233.836 64.63 233.876 64.72 233.876 64.82C233.876 64.95 233.796 65.06 233.636 65.15C233.476 65.25 233.291 65.3 233.081 65.3C232.771 65.3 232.436 65.17 232.076 64.91C231.816 64.73 231.576 64.465 231.356 64.115C231.136 63.755 230.886 63.295 230.606 62.735L230.351 62.225C230.091 61.755 229.936 61.48 229.886 61.4C229.666 61.49 229.411 61.555 229.121 61.595C228.831 61.635 228.476 61.67 228.056 61.7C228.076 62.98 228.086 63.875 228.086 64.385C228.086 64.575 228.016 64.73 227.876 64.85C227.736 64.96 227.561 65.015 227.351 65.015C227.091 65.015 226.891 64.91 226.751 64.7C226.611 64.42 226.541 63.985 226.541 63.395L226.556 62.3C226.556 61.62 226.571 60.975 226.601 60.365C226.621 59.565 226.631 58.975 226.631 58.595L226.646 57.83C226.646 57.6 226.631 57.365 226.601 57.125C226.441 57.075 226.301 57 226.181 56.9C226.061 56.79 226.001 56.67 226.001 56.54C226.001 56.29 226.091 56.1 226.271 55.97C226.461 55.83 226.696 55.74 226.976 55.7C227.786 55.57 228.576 55.505 229.346 55.505C230.656 55.505 231.741 55.75 232.601 56.24C233.461 56.73 233.891 57.475 233.891 58.475C233.891 58.785 233.821 59.085 233.681 59.375C233.551 59.655 233.371 59.89 233.141 60.08C232.541 60.55 231.931 60.865 231.311 61.025ZM232.301 58.43C232.301 57.95 232.046 57.56 231.536 57.26C231.036 56.95 230.316 56.795 229.376 56.795C228.966 56.795 228.546 56.845 228.116 56.945C228.136 57.305 228.146 57.56 228.146 57.71C228.146 58.01 228.126 58.44 228.086 59C228.066 59.56 228.056 60.01 228.056 60.35C228.726 60.35 229.366 60.26 229.976 60.08C230.416 59.95 230.786 59.825 231.086 59.705C231.386 59.585 231.661 59.42 231.911 59.21C232.171 58.99 232.301 58.73 232.301 58.43ZM237.93 56.72C237.9 57.36 237.885 57.975 237.885 58.565C237.885 59.175 237.925 60.07 238.005 61.25C238.015 61.43 238.035 61.795 238.065 62.345C238.095 62.885 238.11 63.38 238.11 63.83C238.21 63.82 238.315 63.805 238.425 63.785C238.545 63.765 238.635 63.755 238.695 63.755C238.915 63.755 239.09 63.81 239.22 63.92C239.35 64.03 239.415 64.2 239.415 64.43C239.415 64.58 239.355 64.695 239.235 64.775C239.115 64.855 238.905 64.915 238.605 64.955C238.315 64.985 237.89 65 237.33 65C236.71 65 236.245 64.98 235.935 64.94C235.625 64.9 235.41 64.825 235.29 64.715C235.17 64.595 235.11 64.42 235.11 64.19C235.11 64.02 235.165 63.905 235.275 63.845C235.385 63.785 235.54 63.755 235.74 63.755L236.055 63.77L236.55 63.8L236.475 62.03C236.415 61.07 236.385 60.19 236.385 59.39C236.385 58.96 236.4 58.37 236.43 57.62L236.46 56.795C236.12 56.815 235.855 56.825 235.665 56.825C235.445 56.825 235.295 56.785 235.215 56.705C235.145 56.625 235.11 56.46 235.11 56.21C235.11 55.93 235.3 55.75 235.68 55.67C236.07 55.59 236.66 55.55 237.45 55.55C238.06 55.55 238.515 55.57 238.815 55.61C239.125 55.65 239.28 55.74 239.28 55.88C239.28 56.22 239.205 56.445 239.055 56.555C238.915 56.655 238.64 56.705 238.23 56.705L237.93 56.72ZM247.935 64.04C247.945 64.25 247.92 64.4 247.86 64.49C247.8 64.57 247.68 64.655 247.5 64.745C247.23 64.875 246.91 64.96 246.54 65C246.18 65.04 245.715 65.06 245.145 65.06H244.125C243.235 65.06 242.575 64.91 242.145 64.61C241.715 64.3 241.445 63.93 241.335 63.5C241.225 63.07 241.16 62.515 241.14 61.835C241.13 61.605 241.125 61.265 241.125 60.815C241.125 59.835 241.21 58.525 241.38 56.885C241.43 56.405 241.605 56.06 241.905 55.85C242.205 55.63 242.545 55.52 242.925 55.52C243.235 55.52 243.74 55.51 244.44 55.49L245.76 55.475C246.3 55.475 246.69 55.49 246.93 55.52C247.23 55.58 247.455 55.65 247.605 55.73C247.755 55.8 247.835 55.925 247.845 56.105C247.845 56.305 247.78 56.5 247.65 56.69C247.52 56.88 247.32 56.975 247.05 56.975C246.74 56.975 246.295 56.955 245.715 56.915C245.135 56.875 244.695 56.855 244.395 56.855C244.125 56.855 243.88 56.87 243.66 56.9C243.38 56.92 243.18 56.955 243.06 57.005C242.94 57.055 242.875 57.14 242.865 57.26C242.755 58.35 242.71 59.11 242.73 59.54C242.96 59.57 243.19 59.585 243.42 59.585C243.65 59.585 243.965 59.565 244.365 59.525C244.465 59.515 244.59 59.505 244.74 59.495C244.89 59.485 245.06 59.48 245.25 59.48C245.36 59.48 245.535 59.49 245.775 59.51L246.24 59.525C246.7 59.525 246.93 59.69 246.93 60.02C246.93 60.22 246.875 60.38 246.765 60.5C246.655 60.62 246.46 60.71 246.18 60.77C245.8 60.84 245.185 60.875 244.335 60.875H243.42C243.23 60.875 242.995 60.865 242.715 60.845C242.705 61.025 242.7 61.285 242.7 61.625C242.7 62.065 242.705 62.375 242.715 62.555C242.745 63.255 243.23 63.605 244.17 63.605C244.49 63.605 244.83 63.615 245.19 63.635L245.745 63.65C246.005 63.65 246.22 63.625 246.39 63.575C246.56 63.515 246.725 63.465 246.885 63.425C247.055 63.375 247.21 63.35 247.35 63.35C247.54 63.35 247.685 63.425 247.785 63.575C247.885 63.715 247.935 63.87 247.935 64.04ZM256.239 62.285C256.239 62.755 256.129 63.16 255.909 63.5C255.699 63.83 255.349 64.135 254.859 64.415C254.529 64.615 254.144 64.765 253.704 64.865C253.264 64.965 252.819 65.015 252.369 65.015C251.909 65.015 251.339 64.865 250.659 64.565C250.169 64.325 249.779 64.04 249.489 63.71C249.209 63.38 249.069 63.02 249.069 62.63C249.069 62.36 249.129 62.165 249.249 62.045C249.369 61.915 249.564 61.85 249.834 61.85C249.974 61.85 250.119 61.91 250.269 62.03C250.419 62.14 250.509 62.25 250.539 62.36C250.679 62.77 250.924 63.085 251.274 63.305C251.624 63.515 252.059 63.62 252.579 63.62C253.179 63.62 253.679 63.51 254.079 63.29C254.489 63.07 254.694 62.775 254.694 62.405C254.694 62.045 254.474 61.725 254.034 61.445C253.594 61.165 253.144 60.97 252.684 60.86C252.024 60.68 251.439 60.465 250.929 60.215C250.399 59.955 250.004 59.635 249.744 59.255C249.484 58.875 249.354 58.475 249.354 58.055C249.354 57.665 249.489 57.27 249.759 56.87C250.029 56.46 250.349 56.165 250.719 55.985C250.919 55.885 251.259 55.78 251.739 55.67C252.229 55.55 252.584 55.49 252.804 55.49C253.094 55.49 253.414 55.525 253.764 55.595C254.114 55.665 254.399 55.765 254.619 55.895C255.059 56.145 255.384 56.37 255.594 56.57C255.804 56.77 255.909 57.02 255.909 57.32C255.909 57.5 255.839 57.66 255.699 57.8C255.569 57.94 255.339 58.01 255.009 58.01C254.929 58.01 254.849 57.975 254.769 57.905C254.689 57.835 254.589 57.73 254.469 57.59C254.309 57.38 254.154 57.24 254.004 57.17C253.854 57.12 253.634 57.065 253.344 57.005C253.064 56.945 252.814 56.915 252.594 56.915C252.354 56.915 252.104 56.965 251.844 57.065C251.584 57.165 251.364 57.31 251.184 57.5C251.014 57.68 250.929 57.89 250.929 58.13C250.929 58.33 251.019 58.505 251.199 58.655C251.389 58.795 251.614 58.91 251.874 59C252.174 59.12 252.499 59.225 252.849 59.315C253.309 59.455 253.684 59.585 253.974 59.705C254.274 59.815 254.564 59.955 254.844 60.125C255.334 60.415 255.689 60.715 255.909 61.025C256.129 61.325 256.239 61.745 256.239 62.285Z" fill="#151C1C"/>
</svg>
