<svg width="103" height="17" viewBox="0 0 103 17" fill="none" xmlns="http://www.w3.org/2000/svg">
<path d="M10.5012 0.888C10.6505 0.888 10.8319 0.989333 11.0452 1.192C11.2692 1.384 11.3812 1.54933 11.3812 1.688C11.3812 2.33867 11.3599 3.22933 11.3172 4.36C11.3065 4.63733 11.2959 4.97333 11.2852 5.368C11.2745 5.752 11.2692 6.2 11.2692 6.712C11.2692 8.33333 11.3652 9.528 11.5572 10.296C11.5465 10.552 11.4452 10.7387 11.2532 10.856C11.0612 10.9627 10.8692 11.016 10.6772 11.016C10.2505 11.016 9.96785 10.8667 9.82919 10.568C9.70119 10.2693 9.63719 9.84267 9.63719 9.288C9.63719 7.22933 9.65852 5.336 9.70119 3.608C8.47452 4.97333 7.51985 6.12 6.83719 7.048C6.83719 7.048 6.74119 7.112 6.54919 7.24C6.36785 7.4 6.21852 7.48 6.10119 7.48C5.82385 7.48 5.59452 7.41067 5.41319 7.272C5.23185 7.13333 5.05585 6.93067 4.88519 6.664L4.11719 5.576C3.58385 4.82933 3.19452 4.264 2.94919 3.88C2.94919 4.86133 2.99719 6.19467 3.09319 7.88C3.16785 8.85067 3.20519 9.58133 3.20519 10.072C3.20519 10.328 3.14119 10.5467 3.01319 10.728C2.88519 10.8987 2.68252 10.984 2.40519 10.984C2.12785 10.984 1.89852 10.9307 1.71719 10.824C1.54652 10.7173 1.45585 10.5573 1.44519 10.344C1.45585 10.1627 1.46119 9.864 1.46119 9.448C1.46119 8.616 1.43452 7.60267 1.38119 6.408L1.34919 5.544L1.31719 4.424C1.30652 4.09333 1.29585 3.70933 1.28519 3.272C1.27452 2.824 1.26919 2.33867 1.26919 1.816C1.26919 1.176 1.61585 0.856 2.30919 0.856C2.52252 0.856 2.73585 0.909333 2.94919 1.016C3.17319 1.12267 3.33852 1.27733 3.44519 1.48C3.53052 1.85333 3.84519 2.472 4.38919 3.336C4.93319 4.2 5.46652 5.01067 5.98919 5.768C6.45852 5.17067 6.84252 4.72267 7.14119 4.424C7.65319 3.90133 8.07452 3.416 8.40519 2.968C8.74652 2.52 9.11452 1.98133 9.50919 1.352C9.60519 1.224 9.74385 1.11733 9.92519 1.032C10.1065 0.936 10.2985 0.888 10.5012 0.888ZM20.4073 8.824C20.61 8.824 20.7593 8.904 20.8553 9.064C20.962 9.21333 21.0153 9.37867 21.0153 9.56C21.0153 9.784 20.978 9.944 20.9033 10.04C20.8393 10.1253 20.7113 10.216 20.5193 10.312C20.0713 10.5253 19.5166 10.696 18.8553 10.824C18.194 10.952 17.4846 11.016 16.7273 11.016C15.778 11.016 15.0793 10.856 14.6313 10.536C14.194 10.216 13.922 9.832 13.8153 9.384C13.7193 8.92533 13.6713 8.328 13.6713 7.592C13.6713 6.80267 13.7033 6.02933 13.7673 5.272C13.8313 4.504 13.9433 3.528 14.1033 2.344C14.178 1.832 14.3806 1.464 14.7113 1.24C15.042 1.00533 15.4046 0.888 15.7993 0.888C16.13 0.888 16.6686 0.877333 17.4153 0.856L18.8073 0.839999C19.3833 0.839999 19.7993 0.855999 20.0553 0.888C20.3753 0.951999 20.61 1.02667 20.7593 1.112C20.9193 1.18667 20.9993 1.32 20.9993 1.512C20.9993 1.72533 20.9246 1.93333 20.7753 2.136C20.6366 2.33867 20.4233 2.44 20.1353 2.44C19.8046 2.44 19.33 2.41867 18.7113 2.376C18.0926 2.33333 17.6286 2.312 17.3193 2.312C17.0526 2.312 16.7913 2.328 16.5353 2.36C16.2366 2.38133 16.0233 2.41867 15.8953 2.472C15.7673 2.52533 15.6926 2.616 15.6713 2.744C15.522 3.84267 15.4473 4.65333 15.4473 5.176C15.6926 5.208 15.9326 5.224 16.1673 5.224C16.466 5.224 16.786 5.208 17.1273 5.176C17.4686 5.144 17.6873 5.12267 17.7833 5.112C18.3486 5.05867 18.834 5.032 19.2393 5.032C19.474 5.032 19.65 5.07467 19.7673 5.16C19.8953 5.24533 19.9593 5.36267 19.9593 5.512C19.9593 5.74667 19.8953 5.928 19.7673 6.056C19.65 6.184 19.4366 6.28 19.1273 6.344C18.754 6.41867 18.29 6.47733 17.7353 6.52C17.1913 6.56267 16.658 6.584 16.1353 6.584C15.954 6.584 15.7033 6.57333 15.3833 6.552C15.3513 7.20267 15.3353 7.80533 15.3353 8.36C15.3353 9.11733 15.8366 9.496 16.8393 9.496C17.3726 9.496 17.8153 9.45867 18.1673 9.384C18.5193 9.30933 18.9246 9.20267 19.3833 9.064C19.81 8.904 20.1513 8.824 20.4073 8.824ZM33.1234 1.688C33.1234 2.328 33.1021 3.224 33.0594 4.376C33.0488 4.65333 33.0381 4.98933 33.0274 5.384C33.0168 5.768 33.0114 6.216 33.0114 6.728C33.0114 8.40267 33.1021 9.60267 33.2834 10.328C33.2728 10.5947 33.1714 10.7867 32.9794 10.904C32.7874 11.0107 32.5901 11.064 32.3874 11.064C31.9714 11.064 31.6941 10.9147 31.5554 10.616C31.4274 10.3067 31.3634 9.87467 31.3634 9.32C31.3634 7.26133 31.3954 5.35733 31.4594 3.608C31.2568 4.01333 31.0648 4.46133 30.8834 4.952C30.7128 5.432 30.4834 6.104 30.1954 6.968C29.8968 7.90667 29.6408 8.648 29.4274 9.192C29.2248 9.736 29.0114 10.1573 28.7874 10.456C28.7234 10.488 28.5954 10.552 28.4034 10.648C28.2221 10.7333 28.0621 10.776 27.9234 10.776C27.6994 10.776 27.5394 10.7387 27.4434 10.664C27.3474 10.5893 27.2621 10.4827 27.1874 10.344C27.1128 10.2053 27.0488 10.0933 26.9954 10.008C26.8248 9.752 26.6061 9.33067 26.3394 8.744C26.0728 8.15733 25.8274 7.544 25.6034 6.904C25.5181 6.68 25.4381 6.46667 25.3634 6.264C25.2994 6.05067 25.2354 5.85333 25.1714 5.672C25.0434 5.288 24.9154 4.93067 24.7874 4.6C24.6701 4.25867 24.5688 4.01867 24.4834 3.88C24.4834 4.44533 24.4674 5.01067 24.4354 5.576C24.4141 6.25867 24.4034 6.74933 24.4034 7.048C24.4034 7.26133 24.4141 7.54933 24.4354 7.912C24.4994 9.02133 24.5314 9.752 24.5314 10.104C24.5314 10.36 24.4674 10.5787 24.3394 10.76C24.2114 10.9413 24.0141 11.032 23.7474 11.032C23.4594 11.032 23.2248 10.9787 23.0434 10.872C22.8728 10.7547 22.7821 10.584 22.7714 10.36C22.7821 10.1787 22.7874 9.88533 22.7874 9.48C22.7874 8.65867 22.7554 7.352 22.6914 5.56L22.6754 4.984C22.6754 4.57867 22.6968 4.00267 22.7394 3.256C22.7501 3.07467 22.7608 2.86133 22.7714 2.616C22.7821 2.37067 22.7874 2.104 22.7874 1.816C22.7874 1.48533 22.8994 1.24533 23.1234 1.096C23.3474 0.936 23.6354 0.856 23.9874 0.856C24.2008 0.856 24.4141 0.909333 24.6274 1.016C24.8514 1.12267 25.0168 1.27733 25.1234 1.48C25.3368 1.91733 25.5501 2.43467 25.7634 3.032C25.9768 3.61867 26.2648 4.456 26.6274 5.544C26.9688 6.57867 27.2408 7.368 27.4434 7.912C27.6461 8.44533 27.8168 8.808 27.9554 9L28.3234 7.912C29.5288 4.232 30.3394 2.056 30.7554 1.384C30.8514 1.256 31.0168 1.144 31.2514 1.048C31.4968 0.941333 31.7261 0.888 31.9394 0.888C32.0994 0.888 32.3341 0.989333 32.6434 1.192C32.9634 1.384 33.1234 1.54933 33.1234 1.688ZM40.4457 11.016C39.7417 11.016 39.0964 10.9307 38.5097 10.76C37.923 10.5787 37.443 10.3173 37.0697 9.976C36.387 9.368 35.907 8.70667 35.6297 7.992C35.363 7.26667 35.2297 6.344 35.2297 5.224C35.2297 4.98933 35.2617 4.77067 35.3257 4.568C35.4004 4.35467 35.4964 4.12 35.6137 3.864C35.6457 3.78933 35.6937 3.672 35.7577 3.512C35.8324 3.34133 35.8804 3.18667 35.9017 3.048C36.1044 2.67467 36.4457 2.31733 36.9257 1.976C37.4164 1.63467 37.9444 1.36267 38.5097 1.16C39.075 0.946666 39.571 0.839999 39.9977 0.839999C42.0564 0.839999 43.5284 1.544 44.4137 2.952C44.915 3.77333 45.1657 4.6 45.1657 5.432C45.1657 6.50933 44.9684 7.45333 44.5737 8.264C44.1897 9.07467 43.6564 9.704 42.9737 10.152C42.547 10.408 42.1097 10.616 41.6617 10.776C41.2137 10.936 40.8084 11.016 40.4457 11.016ZM36.8937 6.408C36.883 6.99467 37.0057 7.48 37.2617 7.864C37.5284 8.23733 37.9444 8.648 38.5097 9.096C38.9364 9.256 39.235 9.36267 39.4057 9.416C39.5764 9.46933 39.763 9.496 39.9657 9.496C40.659 9.496 41.2724 9.352 41.8057 9.064C42.339 8.776 42.7497 8.38133 43.0377 7.88C43.3364 7.37867 43.4857 6.81867 43.4857 6.2C43.4857 5.38933 43.395 4.74933 43.2137 4.28C43.0324 3.81067 42.707 3.38933 42.2377 3.016C41.9924 2.81333 41.6777 2.664 41.2937 2.568C40.9204 2.472 40.5204 2.424 40.0937 2.424C39.0697 2.424 38.275 2.78667 37.7097 3.512C37.155 4.22667 36.883 5.192 36.8937 6.408ZM52.5046 6.76C53.4326 8.33867 54.3019 9.592 55.1126 10.52C55.1979 10.6053 55.2406 10.7013 55.2406 10.808C55.2406 10.9467 55.1552 11.064 54.9846 11.16C54.8139 11.2667 54.6166 11.32 54.3926 11.32C54.0619 11.32 53.7046 11.1813 53.3206 10.904C53.0432 10.712 52.7872 10.4293 52.5526 10.056C52.3179 9.672 52.0512 9.18133 51.7526 8.584L51.4806 8.04C51.2032 7.53867 51.0379 7.24533 50.9846 7.16C50.7499 7.256 50.4779 7.32533 50.1686 7.368C49.8592 7.41067 49.4806 7.448 49.0326 7.48C49.0539 8.84533 49.0646 9.8 49.0646 10.344C49.0646 10.5467 48.9899 10.712 48.8406 10.84C48.6912 10.9573 48.5046 11.016 48.2806 11.016C48.0032 11.016 47.7899 10.904 47.6406 10.68C47.4912 10.3813 47.4166 9.91733 47.4166 9.288L47.4326 8.12C47.4326 7.39467 47.4486 6.70667 47.4806 6.056C47.5019 5.20267 47.5126 4.57333 47.5126 4.168L47.5286 3.352C47.5286 3.10667 47.5126 2.856 47.4806 2.6C47.3099 2.54667 47.1606 2.46667 47.0326 2.36C46.9046 2.24267 46.8406 2.11467 46.8406 1.976C46.8406 1.70933 46.9366 1.50667 47.1286 1.368C47.3312 1.21867 47.5819 1.12267 47.8806 1.08C48.7446 0.941333 49.5872 0.872 50.4086 0.872C51.8059 0.872 52.9632 1.13333 53.8806 1.656C54.7979 2.17867 55.2566 2.97333 55.2566 4.04C55.2566 4.37067 55.1819 4.69067 55.0326 5C54.8939 5.29867 54.7019 5.54933 54.4566 5.752C53.8166 6.25333 53.1659 6.58933 52.5046 6.76ZM53.5606 3.992C53.5606 3.48 53.2886 3.064 52.7446 2.744C52.2112 2.41333 51.4432 2.248 50.4406 2.248C50.0032 2.248 49.5552 2.30133 49.0966 2.408C49.1179 2.792 49.1286 3.064 49.1286 3.224C49.1286 3.544 49.1072 4.00267 49.0646 4.6C49.0432 5.19733 49.0326 5.67733 49.0326 6.04C49.7472 6.04 50.4299 5.944 51.0806 5.752C51.5499 5.61333 51.9446 5.48 52.2646 5.352C52.5846 5.224 52.8779 5.048 53.1446 4.824C53.4219 4.58933 53.5606 4.312 53.5606 3.992ZM64.7959 1.608C64.7959 1.8 64.6306 2.08267 64.2999 2.456C63.9053 2.904 62.8759 4.28 61.2119 6.584C61.2333 7.96 61.2759 8.904 61.3399 9.416C61.3719 9.736 61.3879 9.96533 61.3879 10.104C61.3879 10.456 61.3239 10.696 61.1959 10.824C61.0786 10.9413 60.8706 11 60.5719 11C60.3479 11 60.1346 10.936 59.9319 10.808C59.7399 10.6693 59.6439 10.504 59.6439 10.312C59.6439 9.53333 59.6279 8.392 59.5959 6.888C59.5959 6.824 59.5533 6.71733 59.4679 6.568C59.3826 6.41867 59.3293 6.32267 59.3079 6.28C59.0839 5.88533 58.8013 5.448 58.4599 4.968C58.1293 4.47733 57.8413 4.10933 57.5959 3.864C57.1266 3.39467 56.7586 2.97333 56.4919 2.6C56.2253 2.216 56.0919 1.944 56.0919 1.784C56.0919 1.56 56.1933 1.384 56.3959 1.256C56.6093 1.11733 56.8386 1.048 57.0839 1.048C57.2226 1.048 57.3666 1.08533 57.5159 1.16C57.6759 1.23467 57.8039 1.34133 57.8999 1.48C58.5293 2.41867 59.0893 3.19733 59.5799 3.816L60.3319 4.792C60.7906 4.32267 61.1906 3.85867 61.5319 3.4C61.8839 2.93067 62.2679 2.376 62.6839 1.736L62.9559 1.32C63.1586 1.04267 63.4733 0.903999 63.8999 0.903999C64.1026 0.903999 64.2999 0.962666 64.4919 1.08C64.6946 1.19733 64.7959 1.37333 64.7959 1.608ZM66.9133 0.839999C67.116 0.839999 67.2973 0.893333 67.4573 1C67.628 1.10667 67.7293 1.29333 67.7613 1.56C67.8893 2.40267 67.9693 3.24533 68.0013 4.088C68.044 4.92 68.0653 5.864 68.0653 6.92C68.0653 7.368 68.028 8.184 67.9533 9.368C68.4226 9.41067 68.7853 9.432 69.0413 9.432C69.2226 9.432 69.6333 9.40533 70.2733 9.352C70.6466 9.29867 70.972 9.272 71.2493 9.272C71.5053 9.272 71.74 9.29867 71.9533 9.352C72.1666 9.39467 72.3853 9.46933 72.6093 9.576C72.8333 9.704 72.9453 9.90133 72.9453 10.168C72.9453 10.3813 72.876 10.5733 72.7373 10.744C72.6093 10.9147 72.4546 11 72.2733 11C72.1453 11 71.9426 10.9787 71.6653 10.936C71.164 10.8613 70.684 10.824 70.2253 10.824C70.076 10.824 69.9053 10.8347 69.7133 10.856C69.532 10.8667 69.3986 10.872 69.3133 10.872C69.0573 10.904 68.8013 10.92 68.5453 10.92C68.0226 10.92 67.5533 10.8933 67.1373 10.84C66.924 10.8187 66.7106 10.7387 66.4973 10.6C66.284 10.4507 66.1773 10.2373 66.1773 9.96C66.1773 9.8 66.1986 9.38933 66.2413 8.728C66.316 7.62933 66.3533 6.792 66.3533 6.216C66.3533 5.768 66.332 5.29867 66.2893 4.808C66.2466 4.31733 66.22 4.008 66.2093 3.88C66.1133 2.97333 66.0653 2.22667 66.0653 1.64C66.0653 1.36267 66.1293 1.16 66.2573 1.032C66.396 0.903999 66.6146 0.839999 66.9133 0.839999ZM81.4714 10.76C81.3328 10.5787 81.2208 10.408 81.1354 10.248C81.0608 10.0773 80.9648 9.84267 80.8474 9.544C80.6554 9.064 80.4848 8.712 80.3354 8.488C79.6848 8.584 79.1194 8.632 78.6394 8.632C78.4048 8.632 78.1381 8.62667 77.8394 8.616C77.5514 8.60533 77.3274 8.59467 77.1674 8.584C76.6128 8.54133 76.1701 8.52 75.8394 8.52C75.7008 8.69067 75.5888 8.872 75.5034 9.064C75.4288 9.24533 75.3434 9.47467 75.2474 9.752C75.0874 10.2213 74.9328 10.5787 74.7834 10.824C74.6874 10.984 74.5008 11.064 74.2234 11.064C73.9888 11.064 73.7701 11.016 73.5674 10.92C73.3754 10.8133 73.2794 10.6693 73.2794 10.488C73.3648 10.0827 73.4981 9.656 73.6794 9.208C73.8714 8.74933 74.1434 8.14133 74.4954 7.384L75.1354 5.816C75.4874 4.92 75.8074 4.152 76.0954 3.512C76.3941 2.872 76.7834 2.11467 77.2634 1.24C77.3274 1.112 77.4341 1.00533 77.5834 0.919999C77.7328 0.823999 77.8981 0.775999 78.0794 0.775999C78.2821 0.775999 78.4261 0.791999 78.5114 0.823999C78.6074 0.845333 78.6821 0.888 78.7354 0.952C78.7888 1.00533 78.8688 1.12267 78.9754 1.304C79.3381 1.86933 79.6474 2.45067 79.9034 3.048C80.1701 3.64533 80.5061 4.472 80.9114 5.528L81.2474 6.376C81.5461 7.144 81.8021 7.78933 82.0154 8.312C82.2394 8.824 82.4848 9.29333 82.7514 9.72C82.9221 9.99733 83.0074 10.1893 83.0074 10.296C83.0074 10.552 82.9274 10.7493 82.7674 10.888C82.6181 11.016 82.4208 11.08 82.1754 11.08C81.8661 11.08 81.6314 10.9733 81.4714 10.76ZM79.8714 7.176C79.7221 6.86667 79.5248 6.33333 79.2794 5.576C79.1941 5.29867 79.1301 5.10667 79.0874 5C78.7568 4.04 78.4261 3.27733 78.0954 2.712C77.8928 3.224 77.5941 3.88533 77.1994 4.696C76.9541 5.15467 76.6181 5.976 76.1914 7.16C76.8741 7.24533 77.6474 7.288 78.5114 7.288C79.1088 7.288 79.5621 7.25067 79.8714 7.176ZM91.0978 2.008C91.0978 1.69867 91.1671 1.432 91.3058 1.208C91.4551 0.973333 91.6738 0.856 91.9618 0.856C92.2071 0.856 92.4258 0.904 92.6178 1C92.8098 1.096 92.9058 1.256 92.9058 1.48C92.9058 1.91733 92.8845 2.53067 92.8418 3.32C92.7991 4.088 92.7778 4.65867 92.7778 5.032C92.7778 5.61867 92.7991 6.40267 92.8418 7.384C92.8845 8.32267 92.9058 9.01067 92.9058 9.448C92.9058 9.8 92.9005 10.0613 92.8898 10.232C92.8898 10.4027 92.7938 10.5733 92.6018 10.744C92.4205 10.904 92.1378 10.984 91.7538 10.984C91.5511 10.984 91.3751 10.952 91.2258 10.888C91.0871 10.8133 90.9911 10.7333 90.9378 10.648C90.4365 10.04 89.7058 9.00533 88.7458 7.544C87.6685 5.912 86.7885 4.664 86.1058 3.8C86.1911 4.568 86.2338 5.50667 86.2338 6.616C86.2338 7.10667 86.2231 7.74667 86.2018 8.536C86.1911 9.31467 86.1698 9.82667 86.1378 10.072C86.0951 10.3813 85.9991 10.6213 85.8498 10.792C85.7111 10.952 85.4871 11.032 85.1778 11.032C84.9431 11.032 84.7671 10.968 84.6498 10.84C84.5431 10.7013 84.4791 10.4667 84.4578 10.136C84.4471 9.69867 84.4738 9.04267 84.5378 8.168C84.5485 8.02933 84.5645 7.78933 84.5858 7.448C84.6071 7.10667 84.6178 6.80267 84.6178 6.536C84.6178 5.8 84.5805 4.95733 84.5058 4.008C84.4418 2.96267 84.4098 2.18933 84.4098 1.688C84.4098 1.432 84.5005 1.23467 84.6818 1.096C84.8738 0.957333 85.0925 0.888 85.3378 0.888C85.5511 0.888 85.7751 0.941333 86.0098 1.048C86.9271 2.2 88.1698 3.91733 89.7378 6.2L91.2418 8.504C91.2525 8.33333 91.2578 8.09333 91.2578 7.784C91.2578 7.24 91.2471 6.65333 91.2258 6.024C91.2045 5.39467 91.1885 4.968 91.1778 4.744C91.1245 3.70933 91.0978 2.79733 91.0978 2.008ZM101.767 8.824C101.969 8.824 102.119 8.904 102.215 9.064C102.321 9.21333 102.375 9.37867 102.375 9.56C102.375 9.784 102.337 9.944 102.263 10.04C102.199 10.1253 102.071 10.216 101.879 10.312C101.431 10.5253 100.876 10.696 100.215 10.824C99.5534 10.952 98.844 11.016 98.0867 11.016C97.1374 11.016 96.4387 10.856 95.9907 10.536C95.5534 10.216 95.2814 9.832 95.1747 9.384C95.0787 8.92533 95.0307 8.328 95.0307 7.592C95.0307 6.80267 95.0627 6.02933 95.1267 5.272C95.1907 4.504 95.3027 3.528 95.4627 2.344C95.5374 1.832 95.74 1.464 96.0707 1.24C96.4014 1.00533 96.764 0.888 97.1587 0.888C97.4894 0.888 98.028 0.877333 98.7747 0.856L100.167 0.839999C100.743 0.839999 101.159 0.855999 101.415 0.888C101.735 0.951999 101.969 1.02667 102.119 1.112C102.279 1.18667 102.359 1.32 102.359 1.512C102.359 1.72533 102.284 1.93333 102.135 2.136C101.996 2.33867 101.783 2.44 101.495 2.44C101.164 2.44 100.689 2.41867 100.071 2.376C99.452 2.33333 98.988 2.312 98.6787 2.312C98.412 2.312 98.1507 2.328 97.8947 2.36C97.596 2.38133 97.3827 2.41867 97.2547 2.472C97.1267 2.52533 97.052 2.616 97.0307 2.744C96.8814 3.84267 96.8067 4.65333 96.8067 5.176C97.052 5.208 97.292 5.224 97.5267 5.224C97.8254 5.224 98.1454 5.208 98.4867 5.176C98.828 5.144 99.0467 5.12267 99.1427 5.112C99.708 5.05867 100.193 5.032 100.599 5.032C100.833 5.032 101.009 5.07467 101.127 5.16C101.255 5.24533 101.319 5.36267 101.319 5.512C101.319 5.74667 101.255 5.928 101.127 6.056C101.009 6.184 100.796 6.28 100.487 6.344C100.113 6.41867 99.6494 6.47733 99.0947 6.52C98.5507 6.56267 98.0174 6.584 97.4947 6.584C97.3134 6.584 97.0627 6.57333 96.7427 6.552C96.7107 7.20267 96.6947 7.80533 96.6947 8.36C96.6947 9.11733 97.196 9.496 98.1987 9.496C98.732 9.496 99.1747 9.45867 99.5267 9.384C99.8787 9.30933 100.284 9.20267 100.743 9.064C101.169 8.904 101.511 8.824 101.767 8.824Z" fill="#151C1C"/>
<path d="M22.2728 13.085C22.2728 12.9417 22.3778 12.87 22.5878 12.87C22.6778 12.87 22.8494 12.8733 23.1028 12.88C23.3828 12.8933 23.5944 12.9 23.7378 12.9C23.8544 12.9 23.9961 12.8933 24.1628 12.88C24.2761 12.8733 24.3478 12.87 24.3778 12.87C24.5611 12.8767 24.7161 12.91 24.8428 12.97C24.8794 12.9867 24.9094 13.0067 24.9328 13.03C24.9561 13.0533 24.9678 13.0917 24.9678 13.145C24.9678 13.2183 24.9444 13.2817 24.8978 13.335C24.8511 13.385 24.7944 13.41 24.7278 13.41C24.6544 13.41 24.5478 13.4 24.4078 13.38C24.2844 13.3567 24.1761 13.345 24.0828 13.345C23.9928 13.345 23.9244 13.3467 23.8778 13.35C23.8678 13.46 23.8628 13.7233 23.8628 14.14C23.8628 14.6367 23.8778 15.14 23.9078 15.65L23.9178 15.795C23.9178 15.9317 23.8394 16 23.6828 16C23.5594 16 23.4761 15.9717 23.4328 15.915C23.3894 15.855 23.3678 15.765 23.3678 15.645C23.3678 15.4083 23.3611 15.1133 23.3478 14.76C23.3344 14.4667 23.3278 14.2583 23.3278 14.135C23.3278 14.0517 23.3378 13.7967 23.3578 13.37L22.7728 13.375C22.5861 13.375 22.4561 13.3583 22.3828 13.325C22.3094 13.2883 22.2728 13.2083 22.2728 13.085ZM27.5855 14.21C27.5822 14.1567 27.5805 14.0767 27.5805 13.97V13.78C27.5805 13.6533 27.5772 13.5583 27.5705 13.495C27.5638 13.4417 27.5605 13.3033 27.5605 13.08C27.5605 13 27.5838 12.9383 27.6305 12.895C27.6805 12.8483 27.7472 12.825 27.8305 12.825C27.9372 12.825 28.0088 12.8483 28.0455 12.895C28.0822 12.9417 28.1005 13.0183 28.1005 13.125V13.315L28.0955 13.865C28.0922 13.9717 28.0905 14.1317 28.0905 14.345L28.0955 14.755C28.0988 14.8183 28.1005 14.9067 28.1005 15.02C28.1005 15.11 28.1038 15.2383 28.1105 15.405C28.1172 15.5583 28.1205 15.6733 28.1205 15.75C28.1205 15.8133 28.1022 15.8717 28.0655 15.925C28.0322 15.9783 27.9855 16.005 27.9255 16.005C27.6922 16.005 27.5755 15.9267 27.5755 15.77C27.5755 15.6833 27.5788 15.5867 27.5855 15.48C27.5922 15.4033 27.5955 15.2867 27.5955 15.13C27.5955 15.02 27.5922 14.8617 27.5855 14.655C27.4288 14.6683 27.1588 14.675 26.7755 14.675C26.5355 14.675 26.3488 14.675 26.2155 14.675C26.0822 14.6717 25.9855 14.6633 25.9255 14.65L25.9205 15.225C25.9205 15.2617 25.9288 15.36 25.9455 15.52C25.9622 15.6267 25.9705 15.72 25.9705 15.8C25.9705 15.85 25.9405 15.8983 25.8805 15.945C25.8238 15.9883 25.7705 16.01 25.7205 16.01C25.6005 16.01 25.5188 15.9817 25.4755 15.925C25.4322 15.865 25.4105 15.775 25.4105 15.655L25.4055 15.26C25.4022 15.2133 25.4005 15.1483 25.4005 15.065C25.4005 14.9417 25.3972 14.7733 25.3905 14.56C25.3838 14.3667 25.3805 14.2267 25.3805 14.14C25.3805 14.01 25.3838 13.8283 25.3905 13.595C25.3972 13.375 25.4005 13.2117 25.4005 13.105C25.4005 12.9983 25.4272 12.9267 25.4805 12.89C25.5338 12.8533 25.5938 12.835 25.6605 12.835C25.8472 12.835 25.9405 12.8967 25.9405 13.02C25.9405 13.24 25.9355 13.45 25.9255 13.65C25.9188 13.9033 25.9155 14.0883 25.9155 14.205C26.0122 14.2283 26.1138 14.2433 26.2205 14.25C26.3272 14.2567 26.4772 14.26 26.6705 14.26C27.0638 14.26 27.3688 14.2433 27.5855 14.21ZM30.8924 15.32C30.9558 15.32 31.0024 15.345 31.0324 15.395C31.0658 15.4417 31.0824 15.4933 31.0824 15.55C31.0824 15.62 31.0708 15.67 31.0474 15.7C31.0274 15.7267 30.9874 15.755 30.9274 15.785C30.7874 15.8517 30.6141 15.905 30.4074 15.945C30.2008 15.985 29.9791 16.005 29.7424 16.005C29.4458 16.005 29.2274 15.955 29.0874 15.855C28.9508 15.755 28.8658 15.635 28.8324 15.495C28.8024 15.3517 28.7874 15.165 28.7874 14.935C28.7874 14.6883 28.7974 14.4467 28.8174 14.21C28.8374 13.97 28.8724 13.665 28.9224 13.295C28.9458 13.135 29.0091 13.02 29.1124 12.95C29.2158 12.8767 29.3291 12.84 29.4524 12.84C29.5558 12.84 29.7241 12.8367 29.9574 12.83L30.3924 12.825C30.5724 12.825 30.7024 12.83 30.7824 12.84C30.8824 12.86 30.9558 12.8833 31.0024 12.91C31.0524 12.9333 31.0774 12.975 31.0774 13.035C31.0774 13.1017 31.0541 13.1667 31.0074 13.23C30.9641 13.2933 30.8974 13.325 30.8074 13.325C30.7041 13.325 30.5558 13.3183 30.3624 13.305C30.1691 13.2917 30.0241 13.285 29.9274 13.285C29.8441 13.285 29.7624 13.29 29.6824 13.3C29.5891 13.3067 29.5224 13.3183 29.4824 13.335C29.4424 13.3517 29.4191 13.38 29.4124 13.42C29.3658 13.7633 29.3424 14.0167 29.3424 14.18C29.4191 14.19 29.4941 14.195 29.5674 14.195C29.6608 14.195 29.7608 14.19 29.8674 14.18C29.9741 14.17 30.0424 14.1633 30.0724 14.16C30.2491 14.1433 30.4008 14.135 30.5274 14.135C30.6008 14.135 30.6558 14.1483 30.6924 14.175C30.7324 14.2017 30.7524 14.2383 30.7524 14.285C30.7524 14.3583 30.7324 14.415 30.6924 14.455C30.6558 14.495 30.5891 14.525 30.4924 14.545C30.3758 14.5683 30.2308 14.5867 30.0574 14.6C29.8874 14.6133 29.7208 14.62 29.5574 14.62C29.5008 14.62 29.4224 14.6167 29.3224 14.61C29.3124 14.8133 29.3074 15.0017 29.3074 15.175C29.3074 15.4117 29.4641 15.53 29.7774 15.53C29.9441 15.53 30.0824 15.5183 30.1924 15.495C30.3024 15.4717 30.4291 15.4383 30.5724 15.395C30.7058 15.345 30.8124 15.32 30.8924 15.32ZM34.9693 15.095C34.9693 15.2517 34.9326 15.3867 34.8593 15.5C34.7893 15.61 34.6726 15.7117 34.5093 15.805C34.3993 15.8717 34.2709 15.9217 34.1243 15.955C33.9776 15.9883 33.8293 16.005 33.6793 16.005C33.5259 16.005 33.3359 15.955 33.1093 15.855C32.9459 15.775 32.8159 15.68 32.7193 15.57C32.6259 15.46 32.5793 15.34 32.5793 15.21C32.5793 15.12 32.5993 15.055 32.6393 15.015C32.6793 14.9717 32.7443 14.95 32.8343 14.95C32.8809 14.95 32.9293 14.97 32.9793 15.01C33.0293 15.0467 33.0593 15.0833 33.0693 15.12C33.1159 15.2567 33.1976 15.3617 33.3143 15.435C33.4309 15.505 33.5759 15.54 33.7493 15.54C33.9493 15.54 34.1159 15.5033 34.2493 15.43C34.3859 15.3567 34.4543 15.2583 34.4543 15.135C34.4543 15.015 34.3809 14.9083 34.2343 14.815C34.0876 14.7217 33.9376 14.6567 33.7843 14.62C33.5643 14.56 33.3693 14.4883 33.1993 14.405C33.0226 14.3183 32.8909 14.2117 32.8043 14.085C32.7176 13.9583 32.6743 13.825 32.6743 13.685C32.6743 13.555 32.7193 13.4233 32.8093 13.29C32.8993 13.1533 33.0059 13.055 33.1293 12.995C33.1959 12.9617 33.3093 12.9267 33.4693 12.89C33.6326 12.85 33.7509 12.83 33.8243 12.83C33.9176 12.83 34.0159 12.8417 34.1193 12.865C34.2226 12.8883 34.3109 12.9217 34.3843 12.965C34.5309 13.0483 34.6393 13.1233 34.7093 13.19C34.7793 13.2567 34.8143 13.34 34.8143 13.44C34.8143 13.5 34.7909 13.5533 34.7443 13.6C34.7009 13.6467 34.6243 13.67 34.5143 13.67C34.4876 13.67 34.4609 13.6583 34.4343 13.635C34.4076 13.6117 34.3743 13.5767 34.3343 13.53C34.2809 13.46 34.2293 13.4133 34.1793 13.39C34.1259 13.37 34.0593 13.3517 33.9793 13.335C33.8993 13.315 33.8243 13.305 33.7543 13.305C33.6743 13.305 33.5909 13.3217 33.5043 13.355C33.4176 13.3883 33.3443 13.4367 33.2843 13.5C33.2276 13.56 33.1993 13.63 33.1993 13.71C33.1993 13.7767 33.2293 13.835 33.2893 13.885C33.3526 13.9317 33.4276 13.97 33.5143 14C33.6143 14.04 33.7226 14.075 33.8393 14.105C33.9926 14.1517 34.1176 14.195 34.2143 14.235C34.3143 14.2717 34.4109 14.3183 34.5043 14.375C34.6676 14.4717 34.7859 14.5717 34.8593 14.675C34.9326 14.775 34.9693 14.915 34.9693 15.095ZM35.2269 13.085C35.2269 12.9417 35.3319 12.87 35.5419 12.87C35.6319 12.87 35.8035 12.8733 36.0569 12.88C36.3369 12.8933 36.5485 12.9 36.6919 12.9C36.8085 12.9 36.9502 12.8933 37.1169 12.88C37.2302 12.8733 37.3019 12.87 37.3319 12.87C37.5152 12.8767 37.6702 12.91 37.7969 12.97C37.8335 12.9867 37.8635 13.0067 37.8869 13.03C37.9102 13.0533 37.9219 13.0917 37.9219 13.145C37.9219 13.2183 37.8985 13.2817 37.8519 13.335C37.8052 13.385 37.7485 13.41 37.6819 13.41C37.6085 13.41 37.5019 13.4 37.3619 13.38C37.2385 13.3567 37.1302 13.345 37.0369 13.345C36.9469 13.345 36.8785 13.3467 36.8319 13.35C36.8219 13.46 36.8169 13.7233 36.8169 14.14C36.8169 14.6367 36.8319 15.14 36.8619 15.65L36.8719 15.795C36.8719 15.9317 36.7935 16 36.6369 16C36.5135 16 36.4302 15.9717 36.3869 15.915C36.3435 15.855 36.3219 15.765 36.3219 15.645C36.3219 15.4083 36.3152 15.1133 36.3019 14.76C36.2885 14.4667 36.2819 14.2583 36.2819 14.135C36.2819 14.0517 36.2919 13.7967 36.3119 13.37L35.7269 13.375C35.5402 13.375 35.4102 13.3583 35.3369 13.325C35.2635 13.2883 35.2269 13.2083 35.2269 13.085ZM39.8546 16.005C39.6346 16.005 39.4329 15.9783 39.2496 15.925C39.0663 15.8683 38.9163 15.7867 38.7996 15.68C38.5863 15.49 38.4363 15.2833 38.3496 15.06C38.2663 14.8333 38.2246 14.545 38.2246 14.195C38.2246 14.1217 38.2346 14.0533 38.2546 13.99C38.2779 13.9233 38.3079 13.85 38.3446 13.77C38.3546 13.7467 38.3696 13.71 38.3896 13.66C38.4129 13.6067 38.4279 13.5583 38.4346 13.515C38.4979 13.3983 38.6046 13.2867 38.7546 13.18C38.9079 13.0733 39.0729 12.9883 39.2496 12.925C39.4263 12.8583 39.5813 12.825 39.7146 12.825C40.3579 12.825 40.8179 13.045 41.0946 13.485C41.2513 13.7417 41.3296 14 41.3296 14.26C41.3296 14.5967 41.2679 14.8917 41.1446 15.145C41.0246 15.3983 40.8579 15.595 40.6446 15.735C40.5113 15.815 40.3746 15.88 40.2346 15.93C40.0946 15.98 39.9679 16.005 39.8546 16.005ZM38.7446 14.565C38.7413 14.7483 38.7796 14.9 38.8596 15.02C38.9429 15.1367 39.0729 15.265 39.2496 15.405C39.3829 15.455 39.4763 15.4883 39.5296 15.505C39.5829 15.5217 39.6413 15.53 39.7046 15.53C39.9213 15.53 40.1129 15.485 40.2796 15.395C40.4463 15.305 40.5746 15.1817 40.6646 15.025C40.7579 14.8683 40.8046 14.6933 40.8046 14.5C40.8046 14.2467 40.7763 14.0467 40.7196 13.9C40.6629 13.7533 40.5613 13.6217 40.4146 13.505C40.3379 13.4417 40.2396 13.395 40.1196 13.365C40.0029 13.335 39.8779 13.32 39.7446 13.32C39.4246 13.32 39.1763 13.4333 38.9996 13.66C38.8263 13.8833 38.7413 14.185 38.7446 14.565ZM44.468 15.53C44.518 15.53 44.558 15.5517 44.588 15.595C44.6213 15.6383 44.638 15.685 44.638 15.735C44.638 15.8217 44.6047 15.8883 44.538 15.935C44.4747 15.9783 44.3913 16 44.288 16C44.1347 16 44.0113 15.9733 43.918 15.92C43.8247 15.8667 43.7413 15.7667 43.668 15.62C43.6447 15.5667 43.6163 15.48 43.583 15.36C43.553 15.24 43.5213 15.145 43.488 15.075C43.458 15.0017 43.4063 14.94 43.333 14.89C43.263 14.84 43.1663 14.8133 43.043 14.81L42.933 14.815C42.8197 14.8217 42.7347 14.825 42.678 14.825C42.6113 14.825 42.548 14.82 42.488 14.81C42.4947 15.25 42.498 15.5867 42.498 15.82C42.498 15.88 42.468 15.93 42.408 15.97C42.3513 16.01 42.2863 16.03 42.213 16.03C42.1263 16.03 42.058 15.9967 42.008 15.93C41.968 15.85 41.948 15.7317 41.948 15.575C41.948 15.5217 41.9513 15.445 41.958 15.345L41.963 15.125C41.963 14.9217 41.9713 14.7033 41.988 14.47C42.0013 14.2033 42.008 14.0083 42.008 13.885C42.008 13.7817 41.998 13.6433 41.978 13.47C41.9747 13.4367 41.9697 13.3833 41.963 13.31C41.9563 13.2333 41.953 13.165 41.953 13.105C41.953 13.0617 41.9713 13.0217 42.008 12.985C42.0447 12.9483 42.0813 12.925 42.118 12.915C42.3913 12.8717 42.6613 12.85 42.928 12.85C43.3613 12.85 43.7163 12.9317 43.993 13.095C44.2697 13.2583 44.408 13.5083 44.408 13.845C44.408 13.945 44.3813 14.05 44.328 14.16C44.278 14.2667 44.2147 14.35 44.138 14.41C44.008 14.5233 43.868 14.5967 43.718 14.63C43.7247 14.6367 43.7613 14.67 43.828 14.73C43.8947 14.79 43.9397 14.8533 43.963 14.92L44.028 15.12C44.0847 15.2833 44.1297 15.3967 44.163 15.46C44.1963 15.52 44.2397 15.55 44.293 15.55C44.343 15.55 44.373 15.5467 44.383 15.54C44.3963 15.5333 44.4247 15.53 44.468 15.53ZM42.483 14.385C42.583 14.3917 42.653 14.395 42.693 14.395C42.753 14.395 42.8363 14.3917 42.943 14.385L43.178 14.38C43.2813 14.38 43.388 14.3567 43.498 14.31C43.608 14.2633 43.6997 14.1983 43.773 14.115C43.8463 14.0283 43.883 13.9317 43.883 13.825C43.883 13.635 43.8063 13.4967 43.653 13.41C43.4997 13.3233 43.2613 13.28 42.938 13.28C42.8147 13.28 42.6697 13.2967 42.503 13.33C42.5097 13.45 42.513 13.5367 42.513 13.59C42.513 13.6533 42.5097 13.7483 42.503 13.875L42.498 14.02C42.488 14.16 42.483 14.2817 42.483 14.385ZM47.1086 15.365C47.1719 15.365 47.2186 15.39 47.2486 15.44C47.2819 15.4867 47.2986 15.5383 47.2986 15.595C47.2986 15.665 47.2869 15.715 47.2636 15.745C47.2436 15.7717 47.2019 15.8 47.1386 15.83C47.0053 15.8933 46.8553 15.9383 46.6886 15.965C46.5253 15.9917 46.3203 16.005 46.0736 16.005C45.7769 16.005 45.5486 15.955 45.3886 15.855C45.2319 15.7517 45.1286 15.6233 45.0786 15.47C45.0286 15.3167 45.0036 15.1383 45.0036 14.935V14.62C45.0036 14.4033 45.0086 14.195 45.0186 13.995C45.0319 13.795 45.0569 13.5617 45.0936 13.295C45.1169 13.135 45.1803 13.02 45.2836 12.95C45.3869 12.8767 45.5003 12.84 45.6236 12.84C45.7569 12.84 45.9403 12.8367 46.1736 12.83L46.6086 12.825C46.7853 12.825 46.9153 12.83 46.9986 12.84C47.0986 12.86 47.1719 12.8833 47.2186 12.91C47.2686 12.9333 47.2936 12.975 47.2936 13.035C47.2936 13.1017 47.2703 13.1667 47.2236 13.23C47.1803 13.2933 47.1136 13.325 47.0236 13.325C46.9203 13.325 46.7719 13.3183 46.5786 13.305C46.3853 13.2917 46.2403 13.285 46.1436 13.285C46.0236 13.285 45.9269 13.29 45.8536 13.3C45.7603 13.3067 45.6936 13.3183 45.6536 13.335C45.6136 13.3517 45.5903 13.38 45.5836 13.42C45.5369 13.7633 45.5136 14.0167 45.5136 14.18C45.5869 14.19 45.6653 14.195 45.7486 14.195C45.8553 14.195 46.0336 14.1833 46.2836 14.16C46.4669 14.1433 46.6186 14.135 46.7386 14.135C46.8153 14.135 46.8719 14.1483 46.9086 14.175C46.9453 14.2017 46.9636 14.2383 46.9636 14.285C46.9636 14.3583 46.9453 14.415 46.9086 14.455C46.8719 14.495 46.8053 14.525 46.7086 14.545C46.5919 14.5683 46.4403 14.5867 46.2536 14.6C46.0703 14.6133 45.8953 14.62 45.7286 14.62C45.6653 14.62 45.5869 14.6167 45.4936 14.61C45.4936 14.83 45.5036 15.0033 45.5236 15.13C45.5469 15.2567 45.5936 15.355 45.6636 15.425C45.7369 15.495 45.8469 15.53 45.9936 15.53C46.3236 15.53 46.5869 15.5 46.7836 15.44C46.9236 15.39 47.0319 15.365 47.1086 15.365ZM50.3102 12.82C50.5335 12.82 50.7369 12.8483 50.9202 12.905C51.1035 12.9583 51.2535 13.0383 51.3702 13.145C51.5802 13.335 51.7269 13.5433 51.8102 13.77C51.8969 13.9933 51.9402 14.28 51.9402 14.63C51.9402 14.7033 51.9302 14.77 51.9102 14.83C51.8935 14.89 51.8652 14.9667 51.8252 15.06C51.7752 15.1633 51.7452 15.245 51.7352 15.305C51.6685 15.4217 51.5585 15.5333 51.4052 15.64C51.2552 15.7467 51.0919 15.8333 50.9152 15.9C50.7385 15.9667 50.5835 16 50.4502 16C49.8069 16 49.3485 15.78 49.0752 15.34C48.9985 15.2167 48.9385 15.0883 48.8952 14.955C48.8552 14.8217 48.8352 14.6917 48.8352 14.565C48.8352 14.225 48.8952 13.93 49.0152 13.68C49.1385 13.4267 49.3085 13.23 49.5252 13.09C49.6552 13.0133 49.7902 12.95 49.9302 12.9C50.0735 12.8467 50.2002 12.82 50.3102 12.82ZM49.3552 14.58C49.3552 14.76 49.3952 14.9083 49.4752 15.025C49.5585 15.1417 49.6852 15.2683 49.8552 15.405C49.9952 15.4583 50.0902 15.4933 50.1402 15.51C50.1902 15.5233 50.2469 15.53 50.3102 15.53C50.6469 15.53 50.9152 15.4383 51.1152 15.255C51.3152 15.0717 51.4152 14.82 51.4152 14.5C51.4152 14.2467 51.3869 14.0467 51.3302 13.9C51.2735 13.7533 51.1719 13.6217 51.0252 13.505C50.9485 13.4417 50.8502 13.395 50.7302 13.365C50.6135 13.335 50.4869 13.32 50.3502 13.32C50.1435 13.32 49.9652 13.3817 49.8152 13.505C49.6652 13.625 49.5502 13.7817 49.4702 13.975C49.3935 14.1683 49.3552 14.37 49.3552 14.58ZM53.1232 15.82C53.1132 15.87 53.0832 15.9133 53.0332 15.95C52.9866 15.9833 52.9199 16 52.8332 16C52.7599 16 52.7016 15.98 52.6582 15.94C52.6182 15.9 52.5966 15.8583 52.5932 15.815C52.6132 15.675 52.6232 15.465 52.6232 15.185C52.6232 15.0183 52.6132 14.7617 52.5932 14.415C52.5699 14.0883 52.5582 13.7983 52.5582 13.545C52.5582 13.4083 52.5649 13.2683 52.5782 13.125C52.5782 13.0783 52.6049 13.0283 52.6582 12.975C52.7149 12.9217 52.7916 12.8883 52.8882 12.875C53.0849 12.855 53.3466 12.845 53.6732 12.845L54.2132 12.85C54.3299 12.85 54.4399 12.8733 54.5432 12.92C54.6499 12.9633 54.7032 13.0383 54.7032 13.145C54.7032 13.295 54.6249 13.37 54.4682 13.37C54.4216 13.37 54.3732 13.3667 54.3232 13.36C54.2732 13.3533 54.2382 13.3483 54.2182 13.345C54.1049 13.325 54.0116 13.315 53.9382 13.315H53.6932C53.3966 13.315 53.1866 13.3317 53.0632 13.365C53.0632 13.475 53.0666 13.6533 53.0732 13.9L53.0782 14.22C53.2549 14.22 53.4916 14.2083 53.7882 14.185C53.9682 14.1717 54.0866 14.165 54.1432 14.165C54.2232 14.165 54.2899 14.1817 54.3432 14.215C54.3966 14.2483 54.4232 14.3017 54.4232 14.375C54.4232 14.545 54.3066 14.63 54.0732 14.63C53.9566 14.63 53.8682 14.6317 53.8082 14.635L53.5132 14.64C53.3599 14.64 53.2299 14.645 53.1232 14.655C53.1232 14.7783 53.1282 14.9083 53.1382 15.045C53.1382 15.0883 53.1399 15.155 53.1432 15.245C53.1499 15.335 53.1532 15.4167 53.1532 15.49C53.1532 15.5533 53.1516 15.6117 53.1482 15.665C53.1449 15.7183 53.1366 15.77 53.1232 15.82ZM59.1054 12.84C59.152 12.84 59.2087 12.8717 59.2754 12.935C59.3454 12.995 59.3804 13.0467 59.3804 13.09C59.3804 13.2933 59.3737 13.5717 59.3604 13.925C59.357 14.0117 59.3537 14.1167 59.3504 14.24C59.347 14.36 59.3454 14.5 59.3454 14.66C59.3454 15.1667 59.3754 15.54 59.4354 15.78C59.432 15.86 59.4004 15.9183 59.3404 15.955C59.2804 15.9883 59.2204 16.005 59.1604 16.005C59.027 16.005 58.9387 15.9583 58.8954 15.865C58.8554 15.7717 58.8354 15.6383 58.8354 15.465C58.8354 14.8217 58.842 14.23 58.8554 13.69C58.472 14.1167 58.1737 14.475 57.9604 14.765C57.9604 14.765 57.9304 14.785 57.8704 14.825C57.8137 14.875 57.767 14.9 57.7304 14.9C57.6437 14.9 57.572 14.8783 57.5154 14.835C57.4587 14.7917 57.4037 14.7283 57.3504 14.645L57.1104 14.305C56.9437 14.0717 56.822 13.895 56.7454 13.775C56.7454 14.0817 56.7604 14.4983 56.7904 15.025C56.8137 15.3283 56.8254 15.5567 56.8254 15.71C56.8254 15.79 56.8054 15.8583 56.7654 15.915C56.7254 15.9683 56.662 15.995 56.5754 15.995C56.4887 15.995 56.417 15.9783 56.3604 15.945C56.307 15.9117 56.2787 15.8617 56.2754 15.795C56.2787 15.7383 56.2804 15.645 56.2804 15.515C56.2804 15.255 56.272 14.9383 56.2554 14.565L56.2454 14.295L56.2354 13.945C56.232 13.8417 56.2287 13.7217 56.2254 13.585C56.222 13.445 56.2204 13.2933 56.2204 13.13C56.2204 12.93 56.3287 12.83 56.5454 12.83C56.612 12.83 56.6787 12.8467 56.7454 12.88C56.8154 12.9133 56.867 12.9617 56.9004 13.025C56.927 13.1417 57.0254 13.335 57.1954 13.605C57.3654 13.875 57.532 14.1283 57.6954 14.365C57.842 14.1783 57.962 14.0383 58.0554 13.945C58.2154 13.7817 58.347 13.63 58.4504 13.49C58.557 13.35 58.672 13.1817 58.7954 12.985C58.8254 12.945 58.8687 12.9117 58.9254 12.885C58.982 12.855 59.042 12.84 59.1054 12.84ZM62.426 15.68C62.4293 15.75 62.421 15.8 62.401 15.83C62.381 15.8567 62.341 15.885 62.281 15.915C62.191 15.9583 62.0843 15.9867 61.961 16C61.841 16.0133 61.686 16.02 61.496 16.02H61.156C60.8593 16.02 60.6393 15.97 60.496 15.87C60.3527 15.7667 60.2627 15.6433 60.226 15.5C60.1893 15.3567 60.1677 15.1717 60.161 14.945C60.1577 14.8683 60.156 14.755 60.156 14.605C60.156 14.2783 60.1843 13.8417 60.241 13.295C60.2577 13.135 60.316 13.02 60.416 12.95C60.516 12.8767 60.6293 12.84 60.756 12.84C60.8593 12.84 61.0277 12.8367 61.261 12.83L61.701 12.825C61.881 12.825 62.011 12.83 62.091 12.84C62.191 12.86 62.266 12.8833 62.316 12.91C62.366 12.9333 62.3927 12.975 62.396 13.035C62.396 13.1017 62.3743 13.1667 62.331 13.23C62.2877 13.2933 62.221 13.325 62.131 13.325C62.0277 13.325 61.8793 13.3183 61.686 13.305C61.4927 13.2917 61.346 13.285 61.246 13.285C61.156 13.285 61.0743 13.29 61.001 13.3C60.9077 13.3067 60.841 13.3183 60.801 13.335C60.761 13.3517 60.7393 13.38 60.736 13.42C60.6993 13.7833 60.6843 14.0367 60.691 14.18C60.7677 14.19 60.8443 14.195 60.921 14.195C60.9977 14.195 61.1027 14.1883 61.236 14.175C61.2693 14.1717 61.311 14.1683 61.361 14.165C61.411 14.1617 61.4677 14.16 61.531 14.16C61.5677 14.16 61.626 14.1633 61.706 14.17L61.861 14.175C62.0143 14.175 62.091 14.23 62.091 14.34C62.091 14.4067 62.0727 14.46 62.036 14.5C61.9993 14.54 61.9343 14.57 61.841 14.59C61.7143 14.6133 61.5093 14.625 61.226 14.625H60.921C60.8577 14.625 60.7793 14.6217 60.686 14.615C60.6827 14.675 60.681 14.7617 60.681 14.875C60.681 15.0217 60.6827 15.125 60.686 15.185C60.696 15.4183 60.8577 15.535 61.171 15.535C61.2777 15.535 61.391 15.5383 61.511 15.545L61.696 15.55C61.7827 15.55 61.8543 15.5417 61.911 15.525C61.9677 15.505 62.0227 15.4883 62.076 15.475C62.1327 15.4583 62.1843 15.45 62.231 15.45C62.2943 15.45 62.3427 15.475 62.376 15.525C62.4093 15.5717 62.426 15.6233 62.426 15.68ZM66.2139 13.09C66.2139 13.29 66.2072 13.57 66.1939 13.93C66.1905 14.0167 66.1872 14.1217 66.1839 14.245C66.1805 14.365 66.1789 14.505 66.1789 14.665C66.1789 15.1883 66.2072 15.5633 66.2639 15.79C66.2605 15.8733 66.2289 15.9333 66.1689 15.97C66.1089 16.0033 66.0472 16.02 65.9839 16.02C65.8539 16.02 65.7672 15.9733 65.7239 15.88C65.6839 15.7833 65.6639 15.6483 65.6639 15.475C65.6639 14.8317 65.6739 14.2367 65.6939 13.69C65.6305 13.8167 65.5705 13.9567 65.5139 14.11C65.4605 14.26 65.3889 14.47 65.2989 14.74C65.2055 15.0333 65.1255 15.265 65.0589 15.435C64.9955 15.605 64.9289 15.7367 64.8589 15.83C64.8389 15.84 64.7989 15.86 64.7389 15.89C64.6822 15.9167 64.6322 15.93 64.5889 15.93C64.5189 15.93 64.4689 15.9183 64.4389 15.895C64.4089 15.8717 64.3822 15.8383 64.3589 15.795C64.3355 15.7517 64.3155 15.7167 64.2989 15.69C64.2455 15.61 64.1772 15.4783 64.0939 15.295C64.0105 15.1117 63.9339 14.92 63.8639 14.72C63.8372 14.65 63.8122 14.5833 63.7889 14.52C63.7689 14.4533 63.7489 14.3917 63.7289 14.335C63.6889 14.215 63.6489 14.1033 63.6089 14C63.5722 13.8933 63.5405 13.8183 63.5139 13.775C63.5139 13.9517 63.5089 14.1283 63.4989 14.305C63.4922 14.5183 63.4889 14.6717 63.4889 14.765C63.4889 14.8317 63.4922 14.9217 63.4989 15.035C63.5189 15.3817 63.5289 15.61 63.5289 15.72C63.5289 15.8 63.5089 15.8683 63.4689 15.925C63.4289 15.9817 63.3672 16.01 63.2839 16.01C63.1939 16.01 63.1205 15.9933 63.0639 15.96C63.0105 15.9233 62.9822 15.87 62.9789 15.8C62.9822 15.7433 62.9839 15.6517 62.9839 15.525C62.9839 15.2683 62.9739 14.86 62.9539 14.3L62.9489 14.12C62.9489 13.9933 62.9555 13.8133 62.9689 13.58C62.9722 13.5233 62.9755 13.4567 62.9789 13.38C62.9822 13.3033 62.9839 13.22 62.9839 13.13C62.9839 13.0267 63.0189 12.9517 63.0889 12.905C63.1589 12.855 63.2489 12.83 63.3589 12.83C63.4255 12.83 63.4922 12.8467 63.5589 12.88C63.6289 12.9133 63.6805 12.9617 63.7139 13.025C63.7805 13.1617 63.8472 13.3233 63.9139 13.51C63.9805 13.6933 64.0705 13.955 64.1839 14.295C64.2905 14.6183 64.3755 14.865 64.4389 15.035C64.5022 15.2017 64.5555 15.315 64.5989 15.375L64.7139 15.035C65.0905 13.885 65.3439 13.205 65.4739 12.995C65.5039 12.955 65.5555 12.92 65.6289 12.89C65.7055 12.8567 65.7772 12.84 65.8439 12.84C65.8939 12.84 65.9672 12.8717 66.0639 12.935C66.1639 12.995 66.2139 13.0467 66.2139 13.09ZM68.4421 12.82C68.6554 12.82 68.8387 12.8467 68.9921 12.9C69.1487 12.9533 69.2871 13.035 69.4071 13.145C69.6171 13.335 69.7637 13.5433 69.8471 13.77C69.9337 13.9933 69.9771 14.28 69.9771 14.63C69.9771 14.7167 69.9654 14.7983 69.9421 14.875C69.9187 14.9483 69.8837 15.0383 69.8371 15.145L69.7721 15.305C69.7254 15.4317 69.6287 15.55 69.4821 15.66C69.3354 15.7667 69.1704 15.8517 68.9871 15.915C68.8037 15.9783 68.6371 16.01 68.4871 16.01C68.1804 16.01 67.9121 15.96 67.6821 15.86C67.4554 15.7567 67.2671 15.595 67.1171 15.375C67.0404 15.2583 66.9804 15.1283 66.9371 14.985C66.8937 14.8383 66.8721 14.6983 66.8721 14.565C66.8721 14.225 66.9321 13.93 67.0521 13.68C67.1754 13.4267 67.3454 13.23 67.5621 13.09C67.6854 13.0167 67.8321 12.9533 68.0021 12.9C68.1754 12.8467 68.3221 12.82 68.4421 12.82ZM67.4021 14.565C67.4021 14.7383 67.4437 14.9 67.5271 15.05C67.6137 15.1967 67.7287 15.3133 67.8721 15.4C68.0187 15.4867 68.1787 15.53 68.3521 15.53C68.7087 15.53 68.9804 15.44 69.1671 15.26C69.3571 15.08 69.4521 14.8267 69.4521 14.5C69.4521 14.2467 69.4237 14.0467 69.3671 13.9C69.3104 13.7533 69.2087 13.6217 69.0621 13.505C68.9821 13.4383 68.8954 13.3917 68.8021 13.365C68.7121 13.335 68.6054 13.32 68.4821 13.32C68.2687 13.32 68.0804 13.3733 67.9171 13.48C67.7537 13.5867 67.6271 13.735 67.5371 13.925C67.4471 14.115 67.4021 14.3283 67.4021 14.565ZM72.2705 14.675C72.5605 15.1683 72.8321 15.56 73.0855 15.85C73.1121 15.8767 73.1255 15.9067 73.1255 15.94C73.1255 15.9833 73.0988 16.02 73.0455 16.05C72.9921 16.0833 72.9305 16.1 72.8605 16.1C72.7571 16.1 72.6455 16.0567 72.5255 15.97C72.4388 15.91 72.3588 15.8217 72.2855 15.705C72.2121 15.585 72.1288 15.4317 72.0355 15.245L71.9505 15.075C71.8638 14.9183 71.8121 14.8267 71.7955 14.8C71.7221 14.83 71.6371 14.8517 71.5405 14.865C71.4438 14.8783 71.3255 14.89 71.1855 14.9C71.1921 15.3267 71.1955 15.625 71.1955 15.795C71.1955 15.8583 71.1721 15.91 71.1255 15.95C71.0788 15.9867 71.0205 16.005 70.9505 16.005C70.8638 16.005 70.7971 15.97 70.7505 15.9C70.7038 15.8067 70.6805 15.6617 70.6805 15.465L70.6855 15.1C70.6855 14.8733 70.6905 14.6583 70.7005 14.455C70.7071 14.1883 70.7105 13.9917 70.7105 13.865L70.7155 13.61C70.7155 13.5333 70.7105 13.455 70.7005 13.375C70.6471 13.3583 70.6005 13.3333 70.5605 13.3C70.5205 13.2633 70.5005 13.2233 70.5005 13.18C70.5005 13.0967 70.5305 13.0333 70.5905 12.99C70.6538 12.9433 70.7321 12.9133 70.8255 12.9C71.0955 12.8567 71.3588 12.835 71.6155 12.835C72.0521 12.835 72.4138 12.9167 72.7005 13.08C72.9871 13.2433 73.1305 13.4917 73.1305 13.825C73.1305 13.9283 73.1071 14.0283 73.0605 14.125C73.0171 14.2183 72.9571 14.2967 72.8805 14.36C72.6805 14.5167 72.4771 14.6217 72.2705 14.675ZM72.6005 13.81C72.6005 13.65 72.5155 13.52 72.3455 13.42C72.1788 13.3167 71.9388 13.265 71.6255 13.265C71.4888 13.265 71.3488 13.2817 71.2055 13.315C71.2121 13.435 71.2155 13.52 71.2155 13.57C71.2155 13.67 71.2088 13.8133 71.1955 14C71.1888 14.1867 71.1855 14.3367 71.1855 14.45C71.4088 14.45 71.6221 14.42 71.8255 14.36C71.9721 14.3167 72.0955 14.275 72.1955 14.235C72.2955 14.195 72.3871 14.14 72.4705 14.07C72.5571 13.9967 72.6005 13.91 72.6005 13.81ZM74.4765 13.24C74.4665 13.4533 74.4615 13.6583 74.4615 13.855C74.4615 14.0583 74.4749 14.3567 74.5015 14.75C74.5049 14.81 74.5115 14.9317 74.5215 15.115C74.5315 15.295 74.5365 15.46 74.5365 15.61C74.5699 15.6067 74.6049 15.6017 74.6415 15.595C74.6815 15.5883 74.7115 15.585 74.7315 15.585C74.8049 15.585 74.8632 15.6033 74.9065 15.64C74.9499 15.6767 74.9715 15.7333 74.9715 15.81C74.9715 15.86 74.9515 15.8983 74.9115 15.925C74.8715 15.9517 74.8015 15.9717 74.7015 15.985C74.6049 15.995 74.4632 16 74.2765 16C74.0699 16 73.9149 15.9933 73.8115 15.98C73.7082 15.9667 73.6365 15.9417 73.5965 15.905C73.5565 15.865 73.5365 15.8067 73.5365 15.73C73.5365 15.6733 73.5549 15.635 73.5915 15.615C73.6282 15.595 73.6799 15.585 73.7465 15.585L73.8515 15.59L74.0165 15.6L73.9915 15.01C73.9715 14.69 73.9615 14.3967 73.9615 14.13C73.9615 13.9867 73.9665 13.79 73.9765 13.54L73.9865 13.265C73.8732 13.2717 73.7849 13.275 73.7215 13.275C73.6482 13.275 73.5982 13.2617 73.5715 13.235C73.5482 13.2083 73.5365 13.1533 73.5365 13.07C73.5365 12.9767 73.5999 12.9167 73.7265 12.89C73.8565 12.8633 74.0532 12.85 74.3165 12.85C74.5199 12.85 74.6715 12.8567 74.7715 12.87C74.8749 12.8833 74.9265 12.9133 74.9265 12.96C74.9265 13.0733 74.9015 13.1483 74.8515 13.185C74.8049 13.2183 74.7132 13.235 74.5765 13.235L74.4765 13.24ZM77.8118 15.68C77.8151 15.75 77.8068 15.8 77.7868 15.83C77.7668 15.8567 77.7268 15.885 77.6668 15.915C77.5768 15.9583 77.4701 15.9867 77.3468 16C77.2268 16.0133 77.0718 16.02 76.8818 16.02H76.5418C76.2451 16.02 76.0251 15.97 75.8818 15.87C75.7384 15.7667 75.6484 15.6433 75.6118 15.5C75.5751 15.3567 75.5534 15.1717 75.5468 14.945C75.5434 14.8683 75.5418 14.755 75.5418 14.605C75.5418 14.2783 75.5701 13.8417 75.6268 13.295C75.6434 13.135 75.7018 13.02 75.8018 12.95C75.9018 12.8767 76.0151 12.84 76.1418 12.84C76.2451 12.84 76.4134 12.8367 76.6468 12.83L77.0868 12.825C77.2668 12.825 77.3968 12.83 77.4768 12.84C77.5768 12.86 77.6518 12.8833 77.7018 12.91C77.7518 12.9333 77.7784 12.975 77.7818 13.035C77.7818 13.1017 77.7601 13.1667 77.7168 13.23C77.6734 13.2933 77.6068 13.325 77.5168 13.325C77.4134 13.325 77.2651 13.3183 77.0718 13.305C76.8784 13.2917 76.7318 13.285 76.6318 13.285C76.5418 13.285 76.4601 13.29 76.3868 13.3C76.2934 13.3067 76.2268 13.3183 76.1868 13.335C76.1468 13.3517 76.1251 13.38 76.1218 13.42C76.0851 13.7833 76.0701 14.0367 76.0768 14.18C76.1534 14.19 76.2301 14.195 76.3068 14.195C76.3834 14.195 76.4884 14.1883 76.6218 14.175C76.6551 14.1717 76.6968 14.1683 76.7468 14.165C76.7968 14.1617 76.8534 14.16 76.9168 14.16C76.9534 14.16 77.0118 14.1633 77.0918 14.17L77.2468 14.175C77.4001 14.175 77.4768 14.23 77.4768 14.34C77.4768 14.4067 77.4584 14.46 77.4218 14.5C77.3851 14.54 77.3201 14.57 77.2268 14.59C77.1001 14.6133 76.8951 14.625 76.6118 14.625H76.3068C76.2434 14.625 76.1651 14.6217 76.0718 14.615C76.0684 14.675 76.0668 14.7617 76.0668 14.875C76.0668 15.0217 76.0684 15.125 76.0718 15.185C76.0818 15.4183 76.2434 15.535 76.5568 15.535C76.6634 15.535 76.7768 15.5383 76.8968 15.545L77.0818 15.55C77.1684 15.55 77.2401 15.5417 77.2968 15.525C77.3534 15.505 77.4084 15.4883 77.4618 15.475C77.5184 15.4583 77.5701 15.45 77.6168 15.45C77.6801 15.45 77.7284 15.475 77.7618 15.525C77.7951 15.5717 77.8118 15.6233 77.8118 15.68ZM80.5796 15.095C80.5796 15.2517 80.5429 15.3867 80.4696 15.5C80.3996 15.61 80.2829 15.7117 80.1196 15.805C80.0096 15.8717 79.8813 15.9217 79.7346 15.955C79.5879 15.9883 79.4396 16.005 79.2896 16.005C79.1363 16.005 78.9463 15.955 78.7196 15.855C78.5563 15.775 78.4263 15.68 78.3296 15.57C78.2363 15.46 78.1896 15.34 78.1896 15.21C78.1896 15.12 78.2096 15.055 78.2496 15.015C78.2896 14.9717 78.3546 14.95 78.4446 14.95C78.4913 14.95 78.5396 14.97 78.5896 15.01C78.6396 15.0467 78.6696 15.0833 78.6796 15.12C78.7263 15.2567 78.8079 15.3617 78.9246 15.435C79.0413 15.505 79.1863 15.54 79.3596 15.54C79.5596 15.54 79.7263 15.5033 79.8596 15.43C79.9963 15.3567 80.0646 15.2583 80.0646 15.135C80.0646 15.015 79.9913 14.9083 79.8446 14.815C79.6979 14.7217 79.5479 14.6567 79.3946 14.62C79.1746 14.56 78.9796 14.4883 78.8096 14.405C78.6329 14.3183 78.5013 14.2117 78.4146 14.085C78.3279 13.9583 78.2846 13.825 78.2846 13.685C78.2846 13.555 78.3296 13.4233 78.4196 13.29C78.5096 13.1533 78.6163 13.055 78.7396 12.995C78.8063 12.9617 78.9196 12.9267 79.0796 12.89C79.2429 12.85 79.3613 12.83 79.4346 12.83C79.5313 12.83 79.6379 12.8417 79.7546 12.865C79.8713 12.8883 79.9663 12.9217 80.0396 12.965C80.1863 13.0483 80.2946 13.1233 80.3646 13.19C80.4346 13.2567 80.4696 13.34 80.4696 13.44C80.4696 13.5 80.4463 13.5533 80.3996 13.6C80.3563 13.6467 80.2796 13.67 80.1696 13.67C80.1429 13.67 80.1163 13.6583 80.0896 13.635C80.0629 13.6117 80.0296 13.5767 79.9896 13.53C79.9363 13.46 79.8846 13.4133 79.8346 13.39C79.7846 13.3733 79.7113 13.355 79.6146 13.335C79.5213 13.315 79.4379 13.305 79.3646 13.305C79.2846 13.305 79.2013 13.3217 79.1146 13.355C79.0279 13.3883 78.9546 13.4367 78.8946 13.5C78.8379 13.56 78.8096 13.63 78.8096 13.71C78.8096 13.7767 78.8396 13.835 78.8996 13.885C78.9629 13.9317 79.0379 13.97 79.1246 14C79.2246 14.04 79.3329 14.075 79.4496 14.105C79.6029 14.1517 79.7279 14.195 79.8246 14.235C79.9246 14.2717 80.0213 14.3183 80.1146 14.375C80.2779 14.4717 80.3963 14.5717 80.4696 14.675C80.5429 14.775 80.5796 14.915 80.5796 15.095Z" fill="#151C1C"/>
</svg>
