<svg width="103" height="107" viewBox="0 0 103 107" fill="none" xmlns="http://www.w3.org/2000/svg">
<rect x="47.2426" y="1.41421" width="10" height="4" rx="2" transform="rotate(45 47.2426 1.41421)" stroke="white" stroke-width="2"/>
<rect x="50.4142" y="8.48529" width="10" height="4" rx="2" transform="rotate(-45 50.4142 8.48529)" stroke="white" stroke-width="2"/>
<rect x="15" y="8" width="73" height="73" rx="3.5" fill="#151C1C"/>
<rect x="15" y="8" width="73" height="73" rx="3.5" stroke="white" stroke-width="3"/>
<rect x="19" y="12" width="65" height="65" rx="4.5" fill="white"/>
<rect x="19" y="12" width="65" height="65" rx="4.5" stroke="#151C1C"/>
<rect x="21.5" y="14.5" width="60" height="60" rx="5" fill="#151C1C"/>
<path fill-rule="evenodd" clip-rule="evenodd" d="M46.2448 26.3481H56.7553C58.7929 26.3481 59.4323 27.9828 60.0991 30.5018H42.9009C43.5677 27.9828 44.2071 26.3482 46.2448 26.3481ZM32.8339 28.5308H37.75C37.8524 28.5321 37.9502 28.5734 38.0227 28.6457C38.0951 28.7181 38.1365 28.816 38.1379 28.9184V30.5017H32.4473V28.9183C32.4485 28.816 32.4896 28.7182 32.5619 28.6458C32.6342 28.5734 32.7319 28.5321 32.8342 28.5308H32.8339ZM31.6388 32.118H71.3613C72.3094 32.119 73.2184 32.4961 73.8889 33.1665C74.5593 33.837 74.9364 34.7459 74.9375 35.694V46.5768H65.3705C64.9506 39.2903 58.8898 33.4908 51.5 33.4908C44.1102 33.4908 38.0497 39.2903 37.6294 46.5768H28.0625V35.6939C28.0636 34.7458 28.4408 33.8369 29.1112 33.1665C29.7817 32.4961 30.6907 32.119 31.6388 32.118ZM63.7774 47.3851C63.7774 44.9568 63.0572 42.5831 61.7081 40.5642C60.359 38.5452 58.4415 36.9717 56.1981 36.0425C53.9547 35.1133 51.4861 34.8702 49.1046 35.344C46.723 35.8177 44.5354 36.9871 42.8184 38.7041C41.1014 40.4212 39.9321 42.6088 39.4584 44.9904C38.9847 47.372 39.2279 49.8405 40.1572 52.0839C41.0864 54.3273 42.6601 56.2448 44.6791 57.5938C46.6981 58.9428 49.0718 59.6629 51.5 59.6629C54.7551 59.6591 57.8758 58.3644 60.1774 56.0626C62.4791 53.7609 63.7737 50.6401 63.7773 47.3851H63.7774ZM71.3614 62.6519H31.6388C30.6907 62.6509 29.7817 62.2739 29.1113 61.6035C28.4408 60.9332 28.0636 60.0243 28.0625 59.0762V48.1931H37.6295C38.0494 55.4798 44.1102 61.279 51.5 61.279C58.8898 61.279 64.9502 55.4795 65.3705 48.1931H74.9375V59.076C74.9364 60.0241 74.5593 60.933 73.8888 61.6034C73.2184 62.2738 72.3094 62.6508 71.3613 62.6519H71.3614ZM51.5 39.1938C49.8799 39.1937 48.2962 39.674 46.949 40.574C45.6019 41.4741 44.552 42.7534 43.9319 44.2501C43.3119 45.7469 43.1496 47.3939 43.4656 48.9829C43.7817 50.5718 44.5618 52.0314 45.7073 53.1771C46.8529 54.3227 48.3125 55.1028 49.9014 55.4189C51.4904 55.735 53.1374 55.5728 54.6342 54.9529C56.131 54.3329 57.4103 53.283 58.3104 51.9359C59.2105 50.5889 59.6909 49.0052 59.6909 47.3851C59.6885 45.2134 58.8248 43.1313 57.2893 41.5957C55.7537 40.0601 53.6717 39.1962 51.5 39.1938ZM51.5 53.9594C52.8004 53.9594 54.0716 53.5738 55.1528 52.8514C56.234 52.1289 57.0768 51.1021 57.5744 49.9007C58.0721 48.6993 58.2023 47.3773 57.9486 46.1019C57.6949 44.8265 57.0687 43.655 56.1492 42.7355C55.2297 41.816 54.0582 41.1898 52.7828 40.9361C51.5074 40.6824 50.1854 40.8126 48.984 41.3103C47.7826 41.8079 46.7557 42.6506 46.0333 43.7319C45.3109 44.8131 44.9253 46.0843 44.9253 47.3847C44.9271 49.1279 45.6204 50.7991 46.853 52.0318C48.0856 53.2645 49.7568 53.9578 51.5 53.9598V53.9594ZM52.3083 42.4026C52.3082 42.1884 52.223 41.9829 52.0714 41.8314C51.9198 41.68 51.7143 41.5949 51.5 41.5949C49.9649 41.5967 48.4933 42.2073 47.4079 43.2928C46.3224 44.3783 45.7119 45.85 45.7103 47.3851C45.7103 47.5994 45.7954 47.805 45.947 47.9565C46.0985 48.1081 46.3041 48.1933 46.5185 48.1933C46.7328 48.1933 46.9384 48.1081 47.0899 47.9565C47.2415 47.805 47.3267 47.5994 47.3267 47.3851C47.3277 46.2785 47.7678 45.2175 48.5502 44.435C49.3325 43.6524 50.3934 43.2122 51.5 43.2109C51.7144 43.2109 51.92 43.1258 52.0716 42.9742C52.2232 42.8227 52.3083 42.6171 52.3084 42.4027L52.3083 42.4026ZM66.5122 40.8194H70.4318C71.1744 40.8186 71.8862 40.5232 72.4112 39.9981C72.9362 39.4729 73.2314 38.761 73.232 38.0185V36.557C73.2313 35.8145 72.936 35.1025 72.411 34.5774C71.8859 34.0523 71.174 33.757 70.4314 33.7562H66.5123C65.7697 33.757 65.0578 34.0524 64.5328 34.5775C64.0077 35.1026 63.7124 35.8146 63.7117 36.5571V38.0186C63.7124 38.7611 64.0077 39.4731 64.5327 39.9983C65.0578 40.5234 65.7697 40.8188 66.5123 40.8195L66.5122 40.8194ZM65.3281 36.5574V38.0188C65.3285 38.3328 65.4533 38.6339 65.6754 38.8559C65.8974 39.078 66.1984 39.2029 66.5124 39.2032H70.4318C70.7458 39.2028 71.0468 39.0778 71.2688 38.8557C71.4908 38.6337 71.6157 38.3326 71.616 38.0187V36.5574C71.6157 36.2435 71.4909 35.9424 71.269 35.7204C71.047 35.4983 70.7461 35.3733 70.4321 35.3728H66.5121C66.1981 35.3732 65.8971 35.4981 65.6751 35.7202C65.4531 35.9423 65.3284 36.2434 65.3281 36.5574Z" fill="white"/>
<rect x="28" y="18" width="13" height="1" rx="0.5" fill="white"/>
<rect x="59" y="18" width="14" height="1" rx="0.5" fill="white"/>
<rect x="76" y="18" width="1" height="1" rx="0.5" fill="white"/>
<rect x="74" y="18" width="1" height="1" rx="0.5" fill="white"/>
<rect x="28" y="68" width="18" height="1" rx="0.5" fill="white"/>
<path d="M10.5012 86.888C10.6505 86.888 10.8319 86.9893 11.0452 87.192C11.2692 87.384 11.3812 87.5493 11.3812 87.688C11.3812 88.3387 11.3599 89.2293 11.3172 90.36C11.3065 90.6373 11.2959 90.9733 11.2852 91.368C11.2745 91.752 11.2692 92.2 11.2692 92.712C11.2692 94.3333 11.3652 95.528 11.5572 96.296C11.5465 96.552 11.4452 96.7387 11.2532 96.856C11.0612 96.9627 10.8692 97.016 10.6772 97.016C10.2505 97.016 9.96785 96.8667 9.82919 96.568C9.70119 96.2693 9.63719 95.8427 9.63719 95.288C9.63719 93.2293 9.65852 91.336 9.70119 89.608C8.47452 90.9733 7.51985 92.12 6.83719 93.048C6.83719 93.048 6.74119 93.112 6.54919 93.24C6.36785 93.4 6.21852 93.48 6.10119 93.48C5.82385 93.48 5.59452 93.4107 5.41319 93.272C5.23185 93.1333 5.05585 92.9307 4.88519 92.664L4.11719 91.576C3.58385 90.8293 3.19452 90.264 2.94919 89.88C2.94919 90.8613 2.99719 92.1947 3.09319 93.88C3.16785 94.8507 3.20519 95.5813 3.20519 96.072C3.20519 96.328 3.14119 96.5467 3.01319 96.728C2.88519 96.8987 2.68252 96.984 2.40519 96.984C2.12785 96.984 1.89852 96.9307 1.71719 96.824C1.54652 96.7173 1.45585 96.5573 1.44519 96.344C1.45585 96.1627 1.46119 95.864 1.46119 95.448C1.46119 94.616 1.43452 93.6027 1.38119 92.408L1.34919 91.544L1.31719 90.424C1.30652 90.0933 1.29585 89.7093 1.28519 89.272C1.27452 88.824 1.26919 88.3387 1.26919 87.816C1.26919 87.176 1.61585 86.856 2.30919 86.856C2.52252 86.856 2.73585 86.9093 2.94919 87.016C3.17319 87.1227 3.33852 87.2773 3.44519 87.48C3.53052 87.8533 3.84519 88.472 4.38919 89.336C4.93319 90.2 5.46652 91.0107 5.98919 91.768C6.45852 91.1707 6.84252 90.7227 7.14119 90.424C7.65319 89.9013 8.07452 89.416 8.40519 88.968C8.74652 88.52 9.11452 87.9813 9.50919 87.352C9.60519 87.224 9.74385 87.1173 9.92519 87.032C10.1065 86.936 10.2985 86.888 10.5012 86.888ZM20.4073 94.824C20.61 94.824 20.7593 94.904 20.8553 95.064C20.962 95.2133 21.0153 95.3787 21.0153 95.56C21.0153 95.784 20.978 95.944 20.9033 96.04C20.8393 96.1253 20.7113 96.216 20.5193 96.312C20.0713 96.5253 19.5166 96.696 18.8553 96.824C18.194 96.952 17.4846 97.016 16.7273 97.016C15.778 97.016 15.0793 96.856 14.6313 96.536C14.194 96.216 13.922 95.832 13.8153 95.384C13.7193 94.9253 13.6713 94.328 13.6713 93.592C13.6713 92.8027 13.7033 92.0293 13.7673 91.272C13.8313 90.504 13.9433 89.528 14.1033 88.344C14.178 87.832 14.3806 87.464 14.7113 87.24C15.042 87.0053 15.4046 86.888 15.7993 86.888C16.13 86.888 16.6686 86.8773 17.4153 86.856L18.8073 86.84C19.3833 86.84 19.7993 86.856 20.0553 86.888C20.3753 86.952 20.61 87.0267 20.7593 87.112C20.9193 87.1867 20.9993 87.32 20.9993 87.512C20.9993 87.7253 20.9246 87.9333 20.7753 88.136C20.6366 88.3387 20.4233 88.44 20.1353 88.44C19.8046 88.44 19.33 88.4187 18.7113 88.376C18.0926 88.3333 17.6286 88.312 17.3193 88.312C17.0526 88.312 16.7913 88.328 16.5353 88.36C16.2366 88.3813 16.0233 88.4187 15.8953 88.472C15.7673 88.5253 15.6926 88.616 15.6713 88.744C15.522 89.8427 15.4473 90.6533 15.4473 91.176C15.6926 91.208 15.9326 91.224 16.1673 91.224C16.466 91.224 16.786 91.208 17.1273 91.176C17.4686 91.144 17.6873 91.1227 17.7833 91.112C18.3486 91.0587 18.834 91.032 19.2393 91.032C19.474 91.032 19.65 91.0747 19.7673 91.16C19.8953 91.2453 19.9593 91.3627 19.9593 91.512C19.9593 91.7467 19.8953 91.928 19.7673 92.056C19.65 92.184 19.4366 92.28 19.1273 92.344C18.754 92.4187 18.29 92.4773 17.7353 92.52C17.1913 92.5627 16.658 92.584 16.1353 92.584C15.954 92.584 15.7033 92.5733 15.3833 92.552C15.3513 93.2027 15.3353 93.8053 15.3353 94.36C15.3353 95.1173 15.8366 95.496 16.8393 95.496C17.3726 95.496 17.8153 95.4587 18.1673 95.384C18.5193 95.3093 18.9246 95.2027 19.3833 95.064C19.81 94.904 20.1513 94.824 20.4073 94.824ZM33.1234 87.688C33.1234 88.328 33.1021 89.224 33.0594 90.376C33.0488 90.6533 33.0381 90.9893 33.0274 91.384C33.0168 91.768 33.0114 92.216 33.0114 92.728C33.0114 94.4027 33.1021 95.6027 33.2834 96.328C33.2728 96.5947 33.1714 96.7867 32.9794 96.904C32.7874 97.0107 32.5901 97.064 32.3874 97.064C31.9714 97.064 31.6941 96.9147 31.5554 96.616C31.4274 96.3067 31.3634 95.8747 31.3634 95.32C31.3634 93.2613 31.3954 91.3573 31.4594 89.608C31.2568 90.0133 31.0648 90.4613 30.8834 90.952C30.7128 91.432 30.4834 92.104 30.1954 92.968C29.8968 93.9067 29.6408 94.648 29.4274 95.192C29.2248 95.736 29.0114 96.1573 28.7874 96.456C28.7234 96.488 28.5954 96.552 28.4034 96.648C28.2221 96.7333 28.0621 96.776 27.9234 96.776C27.6994 96.776 27.5394 96.7387 27.4434 96.664C27.3474 96.5893 27.2621 96.4827 27.1874 96.344C27.1128 96.2053 27.0488 96.0933 26.9954 96.008C26.8248 95.752 26.6061 95.3307 26.3394 94.744C26.0728 94.1573 25.8274 93.544 25.6034 92.904C25.5181 92.68 25.4381 92.4667 25.3634 92.264C25.2994 92.0507 25.2354 91.8533 25.1714 91.672C25.0434 91.288 24.9154 90.9307 24.7874 90.6C24.6701 90.2587 24.5688 90.0187 24.4834 89.88C24.4834 90.4453 24.4674 91.0107 24.4354 91.576C24.4141 92.2587 24.4034 92.7493 24.4034 93.048C24.4034 93.2613 24.4141 93.5493 24.4354 93.912C24.4994 95.0213 24.5314 95.752 24.5314 96.104C24.5314 96.36 24.4674 96.5787 24.3394 96.76C24.2114 96.9413 24.0141 97.032 23.7474 97.032C23.4594 97.032 23.2248 96.9787 23.0434 96.872C22.8728 96.7547 22.7821 96.584 22.7714 96.36C22.7821 96.1787 22.7874 95.8853 22.7874 95.48C22.7874 94.6587 22.7554 93.352 22.6914 91.56L22.6754 90.984C22.6754 90.5787 22.6968 90.0027 22.7394 89.256C22.7501 89.0747 22.7608 88.8613 22.7714 88.616C22.7821 88.3707 22.7874 88.104 22.7874 87.816C22.7874 87.4853 22.8994 87.2453 23.1234 87.096C23.3474 86.936 23.6354 86.856 23.9874 86.856C24.2008 86.856 24.4141 86.9093 24.6274 87.016C24.8514 87.1227 25.0168 87.2773 25.1234 87.48C25.3368 87.9173 25.5501 88.4347 25.7634 89.032C25.9768 89.6187 26.2648 90.456 26.6274 91.544C26.9688 92.5787 27.2408 93.368 27.4434 93.912C27.6461 94.4453 27.8168 94.808 27.9554 95L28.3234 93.912C29.5288 90.232 30.3394 88.056 30.7554 87.384C30.8514 87.256 31.0168 87.144 31.2514 87.048C31.4968 86.9413 31.7261 86.888 31.9394 86.888C32.0994 86.888 32.3341 86.9893 32.6434 87.192C32.9634 87.384 33.1234 87.5493 33.1234 87.688ZM40.4457 97.016C39.7417 97.016 39.0964 96.9307 38.5097 96.76C37.923 96.5787 37.443 96.3173 37.0697 95.976C36.387 95.368 35.907 94.7067 35.6297 93.992C35.363 93.2667 35.2297 92.344 35.2297 91.224C35.2297 90.9893 35.2617 90.7707 35.3257 90.568C35.4004 90.3547 35.4964 90.12 35.6137 89.864C35.6457 89.7893 35.6937 89.672 35.7577 89.512C35.8324 89.3413 35.8804 89.1867 35.9017 89.048C36.1044 88.6747 36.4457 88.3173 36.9257 87.976C37.4164 87.6347 37.9444 87.3627 38.5097 87.16C39.075 86.9467 39.571 86.84 39.9977 86.84C42.0564 86.84 43.5284 87.544 44.4137 88.952C44.915 89.7733 45.1657 90.6 45.1657 91.432C45.1657 92.5093 44.9684 93.4533 44.5737 94.264C44.1897 95.0747 43.6564 95.704 42.9737 96.152C42.547 96.408 42.1097 96.616 41.6617 96.776C41.2137 96.936 40.8084 97.016 40.4457 97.016ZM36.8937 92.408C36.883 92.9947 37.0057 93.48 37.2617 93.864C37.5284 94.2373 37.9444 94.648 38.5097 95.096C38.9364 95.256 39.235 95.3627 39.4057 95.416C39.5764 95.4693 39.763 95.496 39.9657 95.496C40.659 95.496 41.2724 95.352 41.8057 95.064C42.339 94.776 42.7497 94.3813 43.0377 93.88C43.3364 93.3787 43.4857 92.8187 43.4857 92.2C43.4857 91.3893 43.395 90.7493 43.2137 90.28C43.0324 89.8107 42.707 89.3893 42.2377 89.016C41.9924 88.8133 41.6777 88.664 41.2937 88.568C40.9204 88.472 40.5204 88.424 40.0937 88.424C39.0697 88.424 38.275 88.7867 37.7097 89.512C37.155 90.2267 36.883 91.192 36.8937 92.408ZM52.5046 92.76C53.4326 94.3387 54.3019 95.592 55.1126 96.52C55.1979 96.6053 55.2406 96.7013 55.2406 96.808C55.2406 96.9467 55.1552 97.064 54.9846 97.16C54.8139 97.2667 54.6166 97.32 54.3926 97.32C54.0619 97.32 53.7046 97.1813 53.3206 96.904C53.0432 96.712 52.7872 96.4293 52.5526 96.056C52.3179 95.672 52.0512 95.1813 51.7526 94.584L51.4806 94.04C51.2032 93.5387 51.0379 93.2453 50.9846 93.16C50.7499 93.256 50.4779 93.3253 50.1686 93.368C49.8592 93.4107 49.4806 93.448 49.0326 93.48C49.0539 94.8453 49.0646 95.8 49.0646 96.344C49.0646 96.5467 48.9899 96.712 48.8406 96.84C48.6912 96.9573 48.5046 97.016 48.2806 97.016C48.0032 97.016 47.7899 96.904 47.6406 96.68C47.4912 96.3813 47.4166 95.9173 47.4166 95.288L47.4326 94.12C47.4326 93.3947 47.4486 92.7067 47.4806 92.056C47.5019 91.2027 47.5126 90.5733 47.5126 90.168L47.5286 89.352C47.5286 89.1067 47.5126 88.856 47.4806 88.6C47.3099 88.5467 47.1606 88.4667 47.0326 88.36C46.9046 88.2427 46.8406 88.1147 46.8406 87.976C46.8406 87.7093 46.9366 87.5067 47.1286 87.368C47.3312 87.2187 47.5819 87.1227 47.8806 87.08C48.7446 86.9413 49.5872 86.872 50.4086 86.872C51.8059 86.872 52.9632 87.1333 53.8806 87.656C54.7979 88.1787 55.2566 88.9733 55.2566 90.04C55.2566 90.3707 55.1819 90.6907 55.0326 91C54.8939 91.2987 54.7019 91.5493 54.4566 91.752C53.8166 92.2533 53.1659 92.5893 52.5046 92.76ZM53.5606 89.992C53.5606 89.48 53.2886 89.064 52.7446 88.744C52.2112 88.4133 51.4432 88.248 50.4406 88.248C50.0032 88.248 49.5552 88.3013 49.0966 88.408C49.1179 88.792 49.1286 89.064 49.1286 89.224C49.1286 89.544 49.1072 90.0027 49.0646 90.6C49.0432 91.1973 49.0326 91.6773 49.0326 92.04C49.7472 92.04 50.4299 91.944 51.0806 91.752C51.5499 91.6133 51.9446 91.48 52.2646 91.352C52.5846 91.224 52.8779 91.048 53.1446 90.824C53.4219 90.5893 53.5606 90.312 53.5606 89.992ZM64.7959 87.608C64.7959 87.8 64.6306 88.0827 64.2999 88.456C63.9053 88.904 62.8759 90.28 61.2119 92.584C61.2333 93.96 61.2759 94.904 61.3399 95.416C61.3719 95.736 61.3879 95.9653 61.3879 96.104C61.3879 96.456 61.3239 96.696 61.1959 96.824C61.0786 96.9413 60.8706 97 60.5719 97C60.3479 97 60.1346 96.936 59.9319 96.808C59.7399 96.6693 59.6439 96.504 59.6439 96.312C59.6439 95.5333 59.6279 94.392 59.5959 92.888C59.5959 92.824 59.5533 92.7173 59.4679 92.568C59.3826 92.4187 59.3293 92.3227 59.3079 92.28C59.0839 91.8853 58.8013 91.448 58.4599 90.968C58.1293 90.4773 57.8413 90.1093 57.5959 89.864C57.1266 89.3947 56.7586 88.9733 56.4919 88.6C56.2253 88.216 56.0919 87.944 56.0919 87.784C56.0919 87.56 56.1933 87.384 56.3959 87.256C56.6093 87.1173 56.8386 87.048 57.0839 87.048C57.2226 87.048 57.3666 87.0853 57.5159 87.16C57.6759 87.2347 57.8039 87.3413 57.8999 87.48C58.5293 88.4187 59.0893 89.1973 59.5799 89.816L60.3319 90.792C60.7906 90.3227 61.1906 89.8587 61.5319 89.4C61.8839 88.9307 62.2679 88.376 62.6839 87.736L62.9559 87.32C63.1586 87.0427 63.4733 86.904 63.8999 86.904C64.1026 86.904 64.2999 86.9627 64.4919 87.08C64.6946 87.1973 64.7959 87.3733 64.7959 87.608ZM66.9133 86.84C67.116 86.84 67.2973 86.8933 67.4573 87C67.628 87.1067 67.7293 87.2933 67.7613 87.56C67.8893 88.4027 67.9693 89.2453 68.0013 90.088C68.044 90.92 68.0653 91.864 68.0653 92.92C68.0653 93.368 68.028 94.184 67.9533 95.368C68.4226 95.4107 68.7853 95.432 69.0413 95.432C69.2226 95.432 69.6333 95.4053 70.2733 95.352C70.6466 95.2987 70.972 95.272 71.2493 95.272C71.5053 95.272 71.74 95.2987 71.9533 95.352C72.1666 95.3947 72.3853 95.4693 72.6093 95.576C72.8333 95.704 72.9453 95.9013 72.9453 96.168C72.9453 96.3813 72.876 96.5733 72.7373 96.744C72.6093 96.9147 72.4546 97 72.2733 97C72.1453 97 71.9426 96.9787 71.6653 96.936C71.164 96.8613 70.684 96.824 70.2253 96.824C70.076 96.824 69.9053 96.8347 69.7133 96.856C69.532 96.8667 69.3986 96.872 69.3133 96.872C69.0573 96.904 68.8013 96.92 68.5453 96.92C68.0226 96.92 67.5533 96.8933 67.1373 96.84C66.924 96.8187 66.7106 96.7387 66.4973 96.6C66.284 96.4507 66.1773 96.2373 66.1773 95.96C66.1773 95.8 66.1986 95.3893 66.2413 94.728C66.316 93.6293 66.3533 92.792 66.3533 92.216C66.3533 91.768 66.332 91.2987 66.2893 90.808C66.2466 90.3173 66.22 90.008 66.2093 89.88C66.1133 88.9733 66.0653 88.2267 66.0653 87.64C66.0653 87.3627 66.1293 87.16 66.2573 87.032C66.396 86.904 66.6146 86.84 66.9133 86.84ZM81.4714 96.76C81.3328 96.5787 81.2208 96.408 81.1354 96.248C81.0608 96.0773 80.9648 95.8427 80.8474 95.544C80.6554 95.064 80.4848 94.712 80.3354 94.488C79.6848 94.584 79.1194 94.632 78.6394 94.632C78.4048 94.632 78.1381 94.6267 77.8394 94.616C77.5514 94.6053 77.3274 94.5947 77.1674 94.584C76.6128 94.5413 76.1701 94.52 75.8394 94.52C75.7008 94.6907 75.5888 94.872 75.5034 95.064C75.4288 95.2453 75.3434 95.4747 75.2474 95.752C75.0874 96.2213 74.9328 96.5787 74.7834 96.824C74.6874 96.984 74.5008 97.064 74.2234 97.064C73.9888 97.064 73.7701 97.016 73.5674 96.92C73.3754 96.8133 73.2794 96.6693 73.2794 96.488C73.3648 96.0827 73.4981 95.656 73.6794 95.208C73.8714 94.7493 74.1434 94.1413 74.4954 93.384L75.1354 91.816C75.4874 90.92 75.8074 90.152 76.0954 89.512C76.3941 88.872 76.7834 88.1147 77.2634 87.24C77.3274 87.112 77.4341 87.0053 77.5834 86.92C77.7328 86.824 77.8981 86.776 78.0794 86.776C78.2821 86.776 78.4261 86.792 78.5114 86.824C78.6074 86.8453 78.6821 86.888 78.7354 86.952C78.7888 87.0053 78.8688 87.1227 78.9754 87.304C79.3381 87.8693 79.6474 88.4507 79.9034 89.048C80.1701 89.6453 80.5061 90.472 80.9114 91.528L81.2474 92.376C81.5461 93.144 81.8021 93.7893 82.0154 94.312C82.2394 94.824 82.4848 95.2933 82.7514 95.72C82.9221 95.9973 83.0074 96.1893 83.0074 96.296C83.0074 96.552 82.9274 96.7493 82.7674 96.888C82.6181 97.016 82.4208 97.08 82.1754 97.08C81.8661 97.08 81.6314 96.9733 81.4714 96.76ZM79.8714 93.176C79.7221 92.8667 79.5248 92.3333 79.2794 91.576C79.1941 91.2987 79.1301 91.1067 79.0874 91C78.7568 90.04 78.4261 89.2773 78.0954 88.712C77.8928 89.224 77.5941 89.8853 77.1994 90.696C76.9541 91.1547 76.6181 91.976 76.1914 93.16C76.8741 93.2453 77.6474 93.288 78.5114 93.288C79.1088 93.288 79.5621 93.2507 79.8714 93.176ZM91.0978 88.008C91.0978 87.6987 91.1671 87.432 91.3058 87.208C91.4551 86.9733 91.6738 86.856 91.9618 86.856C92.2071 86.856 92.4258 86.904 92.6178 87C92.8098 87.096 92.9058 87.256 92.9058 87.48C92.9058 87.9173 92.8845 88.5307 92.8418 89.32C92.7991 90.088 92.7778 90.6587 92.7778 91.032C92.7778 91.6187 92.7991 92.4027 92.8418 93.384C92.8845 94.3227 92.9058 95.0107 92.9058 95.448C92.9058 95.8 92.9005 96.0613 92.8898 96.232C92.8898 96.4027 92.7938 96.5733 92.6018 96.744C92.4205 96.904 92.1378 96.984 91.7538 96.984C91.5511 96.984 91.3751 96.952 91.2258 96.888C91.0871 96.8133 90.9911 96.7333 90.9378 96.648C90.4365 96.04 89.7058 95.0053 88.7458 93.544C87.6685 91.912 86.7885 90.664 86.1058 89.8C86.1911 90.568 86.2338 91.5067 86.2338 92.616C86.2338 93.1067 86.2231 93.7467 86.2018 94.536C86.1911 95.3147 86.1698 95.8267 86.1378 96.072C86.0951 96.3813 85.9991 96.6213 85.8498 96.792C85.7111 96.952 85.4871 97.032 85.1778 97.032C84.9431 97.032 84.7671 96.968 84.6498 96.84C84.5431 96.7013 84.4791 96.4667 84.4578 96.136C84.4471 95.6987 84.4738 95.0427 84.5378 94.168C84.5485 94.0293 84.5645 93.7893 84.5858 93.448C84.6071 93.1067 84.6178 92.8027 84.6178 92.536C84.6178 91.8 84.5805 90.9573 84.5058 90.008C84.4418 88.9627 84.4098 88.1893 84.4098 87.688C84.4098 87.432 84.5005 87.2347 84.6818 87.096C84.8738 86.9573 85.0925 86.888 85.3378 86.888C85.5511 86.888 85.7751 86.9413 86.0098 87.048C86.9271 88.2 88.1698 89.9173 89.7378 92.2L91.2418 94.504C91.2525 94.3333 91.2578 94.0933 91.2578 93.784C91.2578 93.24 91.2471 92.6533 91.2258 92.024C91.2045 91.3947 91.1885 90.968 91.1778 90.744C91.1245 89.7093 91.0978 88.7973 91.0978 88.008ZM101.767 94.824C101.969 94.824 102.119 94.904 102.215 95.064C102.321 95.2133 102.375 95.3787 102.375 95.56C102.375 95.784 102.337 95.944 102.263 96.04C102.199 96.1253 102.071 96.216 101.879 96.312C101.431 96.5253 100.876 96.696 100.215 96.824C99.5534 96.952 98.844 97.016 98.0867 97.016C97.1374 97.016 96.4387 96.856 95.9907 96.536C95.5534 96.216 95.2814 95.832 95.1747 95.384C95.0787 94.9253 95.0307 94.328 95.0307 93.592C95.0307 92.8027 95.0627 92.0293 95.1267 91.272C95.1907 90.504 95.3027 89.528 95.4627 88.344C95.5374 87.832 95.74 87.464 96.0707 87.24C96.4014 87.0053 96.764 86.888 97.1587 86.888C97.4894 86.888 98.028 86.8773 98.7747 86.856L100.167 86.84C100.743 86.84 101.159 86.856 101.415 86.888C101.735 86.952 101.969 87.0267 102.119 87.112C102.279 87.1867 102.359 87.32 102.359 87.512C102.359 87.7253 102.284 87.9333 102.135 88.136C101.996 88.3387 101.783 88.44 101.495 88.44C101.164 88.44 100.689 88.4187 100.071 88.376C99.452 88.3333 98.988 88.312 98.6787 88.312C98.412 88.312 98.1507 88.328 97.8947 88.36C97.596 88.3813 97.3827 88.4187 97.2547 88.472C97.1267 88.5253 97.052 88.616 97.0307 88.744C96.8814 89.8427 96.8067 90.6533 96.8067 91.176C97.052 91.208 97.292 91.224 97.5267 91.224C97.8254 91.224 98.1454 91.208 98.4867 91.176C98.828 91.144 99.0467 91.1227 99.1427 91.112C99.708 91.0587 100.193 91.032 100.599 91.032C100.833 91.032 101.009 91.0747 101.127 91.16C101.255 91.2453 101.319 91.3627 101.319 91.512C101.319 91.7467 101.255 91.928 101.127 92.056C101.009 92.184 100.796 92.28 100.487 92.344C100.113 92.4187 99.6494 92.4773 99.0947 92.52C98.5507 92.5627 98.0174 92.584 97.4947 92.584C97.3134 92.584 97.0627 92.5733 96.7427 92.552C96.7107 93.2027 96.6947 93.8053 96.6947 94.36C96.6947 95.1173 97.196 95.496 98.1987 95.496C98.732 95.496 99.1747 95.4587 99.5267 95.384C99.8787 95.3093 100.284 95.2027 100.743 95.064C101.169 94.904 101.511 94.824 101.767 94.824Z" fill="white"/>
<path d="M22.2728 102.085C22.2728 101.942 22.3778 101.87 22.5878 101.87C22.6778 101.87 22.8494 101.873 23.1028 101.88C23.3828 101.893 23.5944 101.9 23.7378 101.9C23.8544 101.9 23.9961 101.893 24.1628 101.88C24.2761 101.873 24.3478 101.87 24.3778 101.87C24.5611 101.877 24.7161 101.91 24.8428 101.97C24.8794 101.987 24.9094 102.007 24.9328 102.03C24.9561 102.053 24.9678 102.092 24.9678 102.145C24.9678 102.218 24.9444 102.282 24.8978 102.335C24.8511 102.385 24.7944 102.41 24.7278 102.41C24.6544 102.41 24.5478 102.4 24.4078 102.38C24.2844 102.357 24.1761 102.345 24.0828 102.345C23.9928 102.345 23.9244 102.347 23.8778 102.35C23.8678 102.46 23.8628 102.723 23.8628 103.14C23.8628 103.637 23.8778 104.14 23.9078 104.65L23.9178 104.795C23.9178 104.932 23.8394 105 23.6828 105C23.5594 105 23.4761 104.972 23.4328 104.915C23.3894 104.855 23.3678 104.765 23.3678 104.645C23.3678 104.408 23.3611 104.113 23.3478 103.76C23.3344 103.467 23.3278 103.258 23.3278 103.135C23.3278 103.052 23.3378 102.797 23.3578 102.37L22.7728 102.375C22.5861 102.375 22.4561 102.358 22.3828 102.325C22.3094 102.288 22.2728 102.208 22.2728 102.085ZM27.5855 103.21C27.5822 103.157 27.5805 103.077 27.5805 102.97V102.78C27.5805 102.653 27.5772 102.558 27.5705 102.495C27.5638 102.442 27.5605 102.303 27.5605 102.08C27.5605 102 27.5838 101.938 27.6305 101.895C27.6805 101.848 27.7472 101.825 27.8305 101.825C27.9372 101.825 28.0088 101.848 28.0455 101.895C28.0822 101.942 28.1005 102.018 28.1005 102.125V102.315L28.0955 102.865C28.0922 102.972 28.0905 103.132 28.0905 103.345L28.0955 103.755C28.0988 103.818 28.1005 103.907 28.1005 104.02C28.1005 104.11 28.1038 104.238 28.1105 104.405C28.1172 104.558 28.1205 104.673 28.1205 104.75C28.1205 104.813 28.1022 104.872 28.0655 104.925C28.0322 104.978 27.9855 105.005 27.9255 105.005C27.6922 105.005 27.5755 104.927 27.5755 104.77C27.5755 104.683 27.5788 104.587 27.5855 104.48C27.5922 104.403 27.5955 104.287 27.5955 104.13C27.5955 104.02 27.5922 103.862 27.5855 103.655C27.4288 103.668 27.1588 103.675 26.7755 103.675C26.5355 103.675 26.3488 103.675 26.2155 103.675C26.0822 103.672 25.9855 103.663 25.9255 103.65L25.9205 104.225C25.9205 104.262 25.9288 104.36 25.9455 104.52C25.9622 104.627 25.9705 104.72 25.9705 104.8C25.9705 104.85 25.9405 104.898 25.8805 104.945C25.8238 104.988 25.7705 105.01 25.7205 105.01C25.6005 105.01 25.5188 104.982 25.4755 104.925C25.4322 104.865 25.4105 104.775 25.4105 104.655L25.4055 104.26C25.4022 104.213 25.4005 104.148 25.4005 104.065C25.4005 103.942 25.3972 103.773 25.3905 103.56C25.3838 103.367 25.3805 103.227 25.3805 103.14C25.3805 103.01 25.3838 102.828 25.3905 102.595C25.3972 102.375 25.4005 102.212 25.4005 102.105C25.4005 101.998 25.4272 101.927 25.4805 101.89C25.5338 101.853 25.5938 101.835 25.6605 101.835C25.8472 101.835 25.9405 101.897 25.9405 102.02C25.9405 102.24 25.9355 102.45 25.9255 102.65C25.9188 102.903 25.9155 103.088 25.9155 103.205C26.0122 103.228 26.1138 103.243 26.2205 103.25C26.3272 103.257 26.4772 103.26 26.6705 103.26C27.0638 103.26 27.3688 103.243 27.5855 103.21ZM30.8924 104.32C30.9558 104.32 31.0024 104.345 31.0324 104.395C31.0658 104.442 31.0824 104.493 31.0824 104.55C31.0824 104.62 31.0708 104.67 31.0474 104.7C31.0274 104.727 30.9874 104.755 30.9274 104.785C30.7874 104.852 30.6141 104.905 30.4074 104.945C30.2008 104.985 29.9791 105.005 29.7424 105.005C29.4458 105.005 29.2274 104.955 29.0874 104.855C28.9508 104.755 28.8658 104.635 28.8324 104.495C28.8024 104.352 28.7874 104.165 28.7874 103.935C28.7874 103.688 28.7974 103.447 28.8174 103.21C28.8374 102.97 28.8724 102.665 28.9224 102.295C28.9458 102.135 29.0091 102.02 29.1124 101.95C29.2158 101.877 29.3291 101.84 29.4524 101.84C29.5558 101.84 29.7241 101.837 29.9574 101.83L30.3924 101.825C30.5724 101.825 30.7024 101.83 30.7824 101.84C30.8824 101.86 30.9558 101.883 31.0024 101.91C31.0524 101.933 31.0774 101.975 31.0774 102.035C31.0774 102.102 31.0541 102.167 31.0074 102.23C30.9641 102.293 30.8974 102.325 30.8074 102.325C30.7041 102.325 30.5558 102.318 30.3624 102.305C30.1691 102.292 30.0241 102.285 29.9274 102.285C29.8441 102.285 29.7624 102.29 29.6824 102.3C29.5891 102.307 29.5224 102.318 29.4824 102.335C29.4424 102.352 29.4191 102.38 29.4124 102.42C29.3658 102.763 29.3424 103.017 29.3424 103.18C29.4191 103.19 29.4941 103.195 29.5674 103.195C29.6608 103.195 29.7608 103.19 29.8674 103.18C29.9741 103.17 30.0424 103.163 30.0724 103.16C30.2491 103.143 30.4008 103.135 30.5274 103.135C30.6008 103.135 30.6558 103.148 30.6924 103.175C30.7324 103.202 30.7524 103.238 30.7524 103.285C30.7524 103.358 30.7324 103.415 30.6924 103.455C30.6558 103.495 30.5891 103.525 30.4924 103.545C30.3758 103.568 30.2308 103.587 30.0574 103.6C29.8874 103.613 29.7208 103.62 29.5574 103.62C29.5008 103.62 29.4224 103.617 29.3224 103.61C29.3124 103.813 29.3074 104.002 29.3074 104.175C29.3074 104.412 29.4641 104.53 29.7774 104.53C29.9441 104.53 30.0824 104.518 30.1924 104.495C30.3024 104.472 30.4291 104.438 30.5724 104.395C30.7058 104.345 30.8124 104.32 30.8924 104.32ZM34.9693 104.095C34.9693 104.252 34.9326 104.387 34.8593 104.5C34.7893 104.61 34.6726 104.712 34.5093 104.805C34.3993 104.872 34.2709 104.922 34.1243 104.955C33.9776 104.988 33.8293 105.005 33.6793 105.005C33.5259 105.005 33.3359 104.955 33.1093 104.855C32.9459 104.775 32.8159 104.68 32.7193 104.57C32.6259 104.46 32.5793 104.34 32.5793 104.21C32.5793 104.12 32.5993 104.055 32.6393 104.015C32.6793 103.972 32.7443 103.95 32.8343 103.95C32.8809 103.95 32.9293 103.97 32.9793 104.01C33.0293 104.047 33.0593 104.083 33.0693 104.12C33.1159 104.257 33.1976 104.362 33.3143 104.435C33.4309 104.505 33.5759 104.54 33.7493 104.54C33.9493 104.54 34.1159 104.503 34.2493 104.43C34.3859 104.357 34.4543 104.258 34.4543 104.135C34.4543 104.015 34.3809 103.908 34.2343 103.815C34.0876 103.722 33.9376 103.657 33.7843 103.62C33.5643 103.56 33.3693 103.488 33.1993 103.405C33.0226 103.318 32.8909 103.212 32.8043 103.085C32.7176 102.958 32.6743 102.825 32.6743 102.685C32.6743 102.555 32.7193 102.423 32.8093 102.29C32.8993 102.153 33.0059 102.055 33.1293 101.995C33.1959 101.962 33.3093 101.927 33.4693 101.89C33.6326 101.85 33.7509 101.83 33.8243 101.83C33.9176 101.83 34.0159 101.842 34.1193 101.865C34.2226 101.888 34.3109 101.922 34.3843 101.965C34.5309 102.048 34.6393 102.123 34.7093 102.19C34.7793 102.257 34.8143 102.34 34.8143 102.44C34.8143 102.5 34.7909 102.553 34.7443 102.6C34.7009 102.647 34.6243 102.67 34.5143 102.67C34.4876 102.67 34.4609 102.658 34.4343 102.635C34.4076 102.612 34.3743 102.577 34.3343 102.53C34.2809 102.46 34.2293 102.413 34.1793 102.39C34.1259 102.37 34.0593 102.352 33.9793 102.335C33.8993 102.315 33.8243 102.305 33.7543 102.305C33.6743 102.305 33.5909 102.322 33.5043 102.355C33.4176 102.388 33.3443 102.437 33.2843 102.5C33.2276 102.56 33.1993 102.63 33.1993 102.71C33.1993 102.777 33.2293 102.835 33.2893 102.885C33.3526 102.932 33.4276 102.97 33.5143 103C33.6143 103.04 33.7226 103.075 33.8393 103.105C33.9926 103.152 34.1176 103.195 34.2143 103.235C34.3143 103.272 34.4109 103.318 34.5043 103.375C34.6676 103.472 34.7859 103.572 34.8593 103.675C34.9326 103.775 34.9693 103.915 34.9693 104.095ZM35.2269 102.085C35.2269 101.942 35.3319 101.87 35.5419 101.87C35.6319 101.87 35.8035 101.873 36.0569 101.88C36.3369 101.893 36.5485 101.9 36.6919 101.9C36.8085 101.9 36.9502 101.893 37.1169 101.88C37.2302 101.873 37.3019 101.87 37.3319 101.87C37.5152 101.877 37.6702 101.91 37.7969 101.97C37.8335 101.987 37.8635 102.007 37.8869 102.03C37.9102 102.053 37.9219 102.092 37.9219 102.145C37.9219 102.218 37.8985 102.282 37.8519 102.335C37.8052 102.385 37.7485 102.41 37.6819 102.41C37.6085 102.41 37.5019 102.4 37.3619 102.38C37.2385 102.357 37.1302 102.345 37.0369 102.345C36.9469 102.345 36.8785 102.347 36.8319 102.35C36.8219 102.46 36.8169 102.723 36.8169 103.14C36.8169 103.637 36.8319 104.14 36.8619 104.65L36.8719 104.795C36.8719 104.932 36.7935 105 36.6369 105C36.5135 105 36.4302 104.972 36.3869 104.915C36.3435 104.855 36.3219 104.765 36.3219 104.645C36.3219 104.408 36.3152 104.113 36.3019 103.76C36.2885 103.467 36.2819 103.258 36.2819 103.135C36.2819 103.052 36.2919 102.797 36.3119 102.37L35.7269 102.375C35.5402 102.375 35.4102 102.358 35.3369 102.325C35.2635 102.288 35.2269 102.208 35.2269 102.085ZM39.8546 105.005C39.6346 105.005 39.4329 104.978 39.2496 104.925C39.0663 104.868 38.9163 104.787 38.7996 104.68C38.5863 104.49 38.4363 104.283 38.3496 104.06C38.2663 103.833 38.2246 103.545 38.2246 103.195C38.2246 103.122 38.2346 103.053 38.2546 102.99C38.2779 102.923 38.3079 102.85 38.3446 102.77C38.3546 102.747 38.3696 102.71 38.3896 102.66C38.4129 102.607 38.4279 102.558 38.4346 102.515C38.4979 102.398 38.6046 102.287 38.7546 102.18C38.9079 102.073 39.0729 101.988 39.2496 101.925C39.4263 101.858 39.5813 101.825 39.7146 101.825C40.3579 101.825 40.8179 102.045 41.0946 102.485C41.2513 102.742 41.3296 103 41.3296 103.26C41.3296 103.597 41.2679 103.892 41.1446 104.145C41.0246 104.398 40.8579 104.595 40.6446 104.735C40.5113 104.815 40.3746 104.88 40.2346 104.93C40.0946 104.98 39.9679 105.005 39.8546 105.005ZM38.7446 103.565C38.7413 103.748 38.7796 103.9 38.8596 104.02C38.9429 104.137 39.0729 104.265 39.2496 104.405C39.3829 104.455 39.4763 104.488 39.5296 104.505C39.5829 104.522 39.6413 104.53 39.7046 104.53C39.9213 104.53 40.1129 104.485 40.2796 104.395C40.4463 104.305 40.5746 104.182 40.6646 104.025C40.7579 103.868 40.8046 103.693 40.8046 103.5C40.8046 103.247 40.7763 103.047 40.7196 102.9C40.6629 102.753 40.5613 102.622 40.4146 102.505C40.3379 102.442 40.2396 102.395 40.1196 102.365C40.0029 102.335 39.8779 102.32 39.7446 102.32C39.4246 102.32 39.1763 102.433 38.9996 102.66C38.8263 102.883 38.7413 103.185 38.7446 103.565ZM44.468 104.53C44.518 104.53 44.558 104.552 44.588 104.595C44.6213 104.638 44.638 104.685 44.638 104.735C44.638 104.822 44.6047 104.888 44.538 104.935C44.4747 104.978 44.3913 105 44.288 105C44.1347 105 44.0113 104.973 43.918 104.92C43.8247 104.867 43.7413 104.767 43.668 104.62C43.6447 104.567 43.6163 104.48 43.583 104.36C43.553 104.24 43.5213 104.145 43.488 104.075C43.458 104.002 43.4063 103.94 43.333 103.89C43.263 103.84 43.1663 103.813 43.043 103.81L42.933 103.815C42.8197 103.822 42.7347 103.825 42.678 103.825C42.6113 103.825 42.548 103.82 42.488 103.81C42.4947 104.25 42.498 104.587 42.498 104.82C42.498 104.88 42.468 104.93 42.408 104.97C42.3513 105.01 42.2863 105.03 42.213 105.03C42.1263 105.03 42.058 104.997 42.008 104.93C41.968 104.85 41.948 104.732 41.948 104.575C41.948 104.522 41.9513 104.445 41.958 104.345L41.963 104.125C41.963 103.922 41.9713 103.703 41.988 103.47C42.0013 103.203 42.008 103.008 42.008 102.885C42.008 102.782 41.998 102.643 41.978 102.47C41.9747 102.437 41.9697 102.383 41.963 102.31C41.9563 102.233 41.953 102.165 41.953 102.105C41.953 102.062 41.9713 102.022 42.008 101.985C42.0447 101.948 42.0813 101.925 42.118 101.915C42.3913 101.872 42.6613 101.85 42.928 101.85C43.3613 101.85 43.7163 101.932 43.993 102.095C44.2697 102.258 44.408 102.508 44.408 102.845C44.408 102.945 44.3813 103.05 44.328 103.16C44.278 103.267 44.2147 103.35 44.138 103.41C44.008 103.523 43.868 103.597 43.718 103.63C43.7247 103.637 43.7613 103.67 43.828 103.73C43.8947 103.79 43.9397 103.853 43.963 103.92L44.028 104.12C44.0847 104.283 44.1297 104.397 44.163 104.46C44.1963 104.52 44.2397 104.55 44.293 104.55C44.343 104.55 44.373 104.547 44.383 104.54C44.3963 104.533 44.4247 104.53 44.468 104.53ZM42.483 103.385C42.583 103.392 42.653 103.395 42.693 103.395C42.753 103.395 42.8363 103.392 42.943 103.385L43.178 103.38C43.2813 103.38 43.388 103.357 43.498 103.31C43.608 103.263 43.6997 103.198 43.773 103.115C43.8463 103.028 43.883 102.932 43.883 102.825C43.883 102.635 43.8063 102.497 43.653 102.41C43.4997 102.323 43.2613 102.28 42.938 102.28C42.8147 102.28 42.6697 102.297 42.503 102.33C42.5097 102.45 42.513 102.537 42.513 102.59C42.513 102.653 42.5097 102.748 42.503 102.875L42.498 103.02C42.488 103.16 42.483 103.282 42.483 103.385ZM47.1086 104.365C47.1719 104.365 47.2186 104.39 47.2486 104.44C47.2819 104.487 47.2986 104.538 47.2986 104.595C47.2986 104.665 47.2869 104.715 47.2636 104.745C47.2436 104.772 47.2019 104.8 47.1386 104.83C47.0053 104.893 46.8553 104.938 46.6886 104.965C46.5253 104.992 46.3203 105.005 46.0736 105.005C45.7769 105.005 45.5486 104.955 45.3886 104.855C45.2319 104.752 45.1286 104.623 45.0786 104.47C45.0286 104.317 45.0036 104.138 45.0036 103.935V103.62C45.0036 103.403 45.0086 103.195 45.0186 102.995C45.0319 102.795 45.0569 102.562 45.0936 102.295C45.1169 102.135 45.1803 102.02 45.2836 101.95C45.3869 101.877 45.5003 101.84 45.6236 101.84C45.7569 101.84 45.9403 101.837 46.1736 101.83L46.6086 101.825C46.7853 101.825 46.9153 101.83 46.9986 101.84C47.0986 101.86 47.1719 101.883 47.2186 101.91C47.2686 101.933 47.2936 101.975 47.2936 102.035C47.2936 102.102 47.2703 102.167 47.2236 102.23C47.1803 102.293 47.1136 102.325 47.0236 102.325C46.9203 102.325 46.7719 102.318 46.5786 102.305C46.3853 102.292 46.2403 102.285 46.1436 102.285C46.0236 102.285 45.9269 102.29 45.8536 102.3C45.7603 102.307 45.6936 102.318 45.6536 102.335C45.6136 102.352 45.5903 102.38 45.5836 102.42C45.5369 102.763 45.5136 103.017 45.5136 103.18C45.5869 103.19 45.6653 103.195 45.7486 103.195C45.8553 103.195 46.0336 103.183 46.2836 103.16C46.4669 103.143 46.6186 103.135 46.7386 103.135C46.8153 103.135 46.8719 103.148 46.9086 103.175C46.9453 103.202 46.9636 103.238 46.9636 103.285C46.9636 103.358 46.9453 103.415 46.9086 103.455C46.8719 103.495 46.8053 103.525 46.7086 103.545C46.5919 103.568 46.4403 103.587 46.2536 103.6C46.0703 103.613 45.8953 103.62 45.7286 103.62C45.6653 103.62 45.5869 103.617 45.4936 103.61C45.4936 103.83 45.5036 104.003 45.5236 104.13C45.5469 104.257 45.5936 104.355 45.6636 104.425C45.7369 104.495 45.8469 104.53 45.9936 104.53C46.3236 104.53 46.5869 104.5 46.7836 104.44C46.9236 104.39 47.0319 104.365 47.1086 104.365ZM50.3102 101.82C50.5335 101.82 50.7369 101.848 50.9202 101.905C51.1035 101.958 51.2535 102.038 51.3702 102.145C51.5802 102.335 51.7269 102.543 51.8102 102.77C51.8969 102.993 51.9402 103.28 51.9402 103.63C51.9402 103.703 51.9302 103.77 51.9102 103.83C51.8935 103.89 51.8652 103.967 51.8252 104.06C51.7752 104.163 51.7452 104.245 51.7352 104.305C51.6685 104.422 51.5585 104.533 51.4052 104.64C51.2552 104.747 51.0919 104.833 50.9152 104.9C50.7385 104.967 50.5835 105 50.4502 105C49.8069 105 49.3485 104.78 49.0752 104.34C48.9985 104.217 48.9385 104.088 48.8952 103.955C48.8552 103.822 48.8352 103.692 48.8352 103.565C48.8352 103.225 48.8952 102.93 49.0152 102.68C49.1385 102.427 49.3085 102.23 49.5252 102.09C49.6552 102.013 49.7902 101.95 49.9302 101.9C50.0735 101.847 50.2002 101.82 50.3102 101.82ZM49.3552 103.58C49.3552 103.76 49.3952 103.908 49.4752 104.025C49.5585 104.142 49.6852 104.268 49.8552 104.405C49.9952 104.458 50.0902 104.493 50.1402 104.51C50.1902 104.523 50.2469 104.53 50.3102 104.53C50.6469 104.53 50.9152 104.438 51.1152 104.255C51.3152 104.072 51.4152 103.82 51.4152 103.5C51.4152 103.247 51.3869 103.047 51.3302 102.9C51.2735 102.753 51.1719 102.622 51.0252 102.505C50.9485 102.442 50.8502 102.395 50.7302 102.365C50.6135 102.335 50.4869 102.32 50.3502 102.32C50.1435 102.32 49.9652 102.382 49.8152 102.505C49.6652 102.625 49.5502 102.782 49.4702 102.975C49.3935 103.168 49.3552 103.37 49.3552 103.58ZM53.1232 104.82C53.1132 104.87 53.0832 104.913 53.0332 104.95C52.9866 104.983 52.9199 105 52.8332 105C52.7599 105 52.7016 104.98 52.6582 104.94C52.6182 104.9 52.5966 104.858 52.5932 104.815C52.6132 104.675 52.6232 104.465 52.6232 104.185C52.6232 104.018 52.6132 103.762 52.5932 103.415C52.5699 103.088 52.5582 102.798 52.5582 102.545C52.5582 102.408 52.5649 102.268 52.5782 102.125C52.5782 102.078 52.6049 102.028 52.6582 101.975C52.7149 101.922 52.7916 101.888 52.8882 101.875C53.0849 101.855 53.3466 101.845 53.6732 101.845L54.2132 101.85C54.3299 101.85 54.4399 101.873 54.5432 101.92C54.6499 101.963 54.7032 102.038 54.7032 102.145C54.7032 102.295 54.6249 102.37 54.4682 102.37C54.4216 102.37 54.3732 102.367 54.3232 102.36C54.2732 102.353 54.2382 102.348 54.2182 102.345C54.1049 102.325 54.0116 102.315 53.9382 102.315H53.6932C53.3966 102.315 53.1866 102.332 53.0632 102.365C53.0632 102.475 53.0666 102.653 53.0732 102.9L53.0782 103.22C53.2549 103.22 53.4916 103.208 53.7882 103.185C53.9682 103.172 54.0866 103.165 54.1432 103.165C54.2232 103.165 54.2899 103.182 54.3432 103.215C54.3966 103.248 54.4232 103.302 54.4232 103.375C54.4232 103.545 54.3066 103.63 54.0732 103.63C53.9566 103.63 53.8682 103.632 53.8082 103.635L53.5132 103.64C53.3599 103.64 53.2299 103.645 53.1232 103.655C53.1232 103.778 53.1282 103.908 53.1382 104.045C53.1382 104.088 53.1399 104.155 53.1432 104.245C53.1499 104.335 53.1532 104.417 53.1532 104.49C53.1532 104.553 53.1516 104.612 53.1482 104.665C53.1449 104.718 53.1366 104.77 53.1232 104.82ZM59.1054 101.84C59.152 101.84 59.2087 101.872 59.2754 101.935C59.3454 101.995 59.3804 102.047 59.3804 102.09C59.3804 102.293 59.3737 102.572 59.3604 102.925C59.357 103.012 59.3537 103.117 59.3504 103.24C59.347 103.36 59.3454 103.5 59.3454 103.66C59.3454 104.167 59.3754 104.54 59.4354 104.78C59.432 104.86 59.4004 104.918 59.3404 104.955C59.2804 104.988 59.2204 105.005 59.1604 105.005C59.027 105.005 58.9387 104.958 58.8954 104.865C58.8554 104.772 58.8354 104.638 58.8354 104.465C58.8354 103.822 58.842 103.23 58.8554 102.69C58.472 103.117 58.1737 103.475 57.9604 103.765C57.9604 103.765 57.9304 103.785 57.8704 103.825C57.8137 103.875 57.767 103.9 57.7304 103.9C57.6437 103.9 57.572 103.878 57.5154 103.835C57.4587 103.792 57.4037 103.728 57.3504 103.645L57.1104 103.305C56.9437 103.072 56.822 102.895 56.7454 102.775C56.7454 103.082 56.7604 103.498 56.7904 104.025C56.8137 104.328 56.8254 104.557 56.8254 104.71C56.8254 104.79 56.8054 104.858 56.7654 104.915C56.7254 104.968 56.662 104.995 56.5754 104.995C56.4887 104.995 56.417 104.978 56.3604 104.945C56.307 104.912 56.2787 104.862 56.2754 104.795C56.2787 104.738 56.2804 104.645 56.2804 104.515C56.2804 104.255 56.272 103.938 56.2554 103.565L56.2454 103.295L56.2354 102.945C56.232 102.842 56.2287 102.722 56.2254 102.585C56.222 102.445 56.2204 102.293 56.2204 102.13C56.2204 101.93 56.3287 101.83 56.5454 101.83C56.612 101.83 56.6787 101.847 56.7454 101.88C56.8154 101.913 56.867 101.962 56.9004 102.025C56.927 102.142 57.0254 102.335 57.1954 102.605C57.3654 102.875 57.532 103.128 57.6954 103.365C57.842 103.178 57.962 103.038 58.0554 102.945C58.2154 102.782 58.347 102.63 58.4504 102.49C58.557 102.35 58.672 102.182 58.7954 101.985C58.8254 101.945 58.8687 101.912 58.9254 101.885C58.982 101.855 59.042 101.84 59.1054 101.84ZM62.426 104.68C62.4293 104.75 62.421 104.8 62.401 104.83C62.381 104.857 62.341 104.885 62.281 104.915C62.191 104.958 62.0843 104.987 61.961 105C61.841 105.013 61.686 105.02 61.496 105.02H61.156C60.8593 105.02 60.6393 104.97 60.496 104.87C60.3527 104.767 60.2627 104.643 60.226 104.5C60.1893 104.357 60.1677 104.172 60.161 103.945C60.1577 103.868 60.156 103.755 60.156 103.605C60.156 103.278 60.1843 102.842 60.241 102.295C60.2577 102.135 60.316 102.02 60.416 101.95C60.516 101.877 60.6293 101.84 60.756 101.84C60.8593 101.84 61.0277 101.837 61.261 101.83L61.701 101.825C61.881 101.825 62.011 101.83 62.091 101.84C62.191 101.86 62.266 101.883 62.316 101.91C62.366 101.933 62.3927 101.975 62.396 102.035C62.396 102.102 62.3743 102.167 62.331 102.23C62.2877 102.293 62.221 102.325 62.131 102.325C62.0277 102.325 61.8793 102.318 61.686 102.305C61.4927 102.292 61.346 102.285 61.246 102.285C61.156 102.285 61.0743 102.29 61.001 102.3C60.9077 102.307 60.841 102.318 60.801 102.335C60.761 102.352 60.7393 102.38 60.736 102.42C60.6993 102.783 60.6843 103.037 60.691 103.18C60.7677 103.19 60.8443 103.195 60.921 103.195C60.9977 103.195 61.1027 103.188 61.236 103.175C61.2693 103.172 61.311 103.168 61.361 103.165C61.411 103.162 61.4677 103.16 61.531 103.16C61.5677 103.16 61.626 103.163 61.706 103.17L61.861 103.175C62.0143 103.175 62.091 103.23 62.091 103.34C62.091 103.407 62.0727 103.46 62.036 103.5C61.9993 103.54 61.9343 103.57 61.841 103.59C61.7143 103.613 61.5093 103.625 61.226 103.625H60.921C60.8577 103.625 60.7793 103.622 60.686 103.615C60.6827 103.675 60.681 103.762 60.681 103.875C60.681 104.022 60.6827 104.125 60.686 104.185C60.696 104.418 60.8577 104.535 61.171 104.535C61.2777 104.535 61.391 104.538 61.511 104.545L61.696 104.55C61.7827 104.55 61.8543 104.542 61.911 104.525C61.9677 104.505 62.0227 104.488 62.076 104.475C62.1327 104.458 62.1843 104.45 62.231 104.45C62.2943 104.45 62.3427 104.475 62.376 104.525C62.4093 104.572 62.426 104.623 62.426 104.68ZM66.2139 102.09C66.2139 102.29 66.2072 102.57 66.1939 102.93C66.1905 103.017 66.1872 103.122 66.1839 103.245C66.1805 103.365 66.1789 103.505 66.1789 103.665C66.1789 104.188 66.2072 104.563 66.2639 104.79C66.2605 104.873 66.2289 104.933 66.1689 104.97C66.1089 105.003 66.0472 105.02 65.9839 105.02C65.8539 105.02 65.7672 104.973 65.7239 104.88C65.6839 104.783 65.6639 104.648 65.6639 104.475C65.6639 103.832 65.6739 103.237 65.6939 102.69C65.6305 102.817 65.5705 102.957 65.5139 103.11C65.4605 103.26 65.3889 103.47 65.2989 103.74C65.2055 104.033 65.1255 104.265 65.0589 104.435C64.9955 104.605 64.9289 104.737 64.8589 104.83C64.8389 104.84 64.7989 104.86 64.7389 104.89C64.6822 104.917 64.6322 104.93 64.5889 104.93C64.5189 104.93 64.4689 104.918 64.4389 104.895C64.4089 104.872 64.3822 104.838 64.3589 104.795C64.3355 104.752 64.3155 104.717 64.2989 104.69C64.2455 104.61 64.1772 104.478 64.0939 104.295C64.0105 104.112 63.9339 103.92 63.8639 103.72C63.8372 103.65 63.8122 103.583 63.7889 103.52C63.7689 103.453 63.7489 103.392 63.7289 103.335C63.6889 103.215 63.6489 103.103 63.6089 103C63.5722 102.893 63.5405 102.818 63.5139 102.775C63.5139 102.952 63.5089 103.128 63.4989 103.305C63.4922 103.518 63.4889 103.672 63.4889 103.765C63.4889 103.832 63.4922 103.922 63.4989 104.035C63.5189 104.382 63.5289 104.61 63.5289 104.72C63.5289 104.8 63.5089 104.868 63.4689 104.925C63.4289 104.982 63.3672 105.01 63.2839 105.01C63.1939 105.01 63.1205 104.993 63.0639 104.96C63.0105 104.923 62.9822 104.87 62.9789 104.8C62.9822 104.743 62.9839 104.652 62.9839 104.525C62.9839 104.268 62.9739 103.86 62.9539 103.3L62.9489 103.12C62.9489 102.993 62.9555 102.813 62.9689 102.58C62.9722 102.523 62.9755 102.457 62.9789 102.38C62.9822 102.303 62.9839 102.22 62.9839 102.13C62.9839 102.027 63.0189 101.952 63.0889 101.905C63.1589 101.855 63.2489 101.83 63.3589 101.83C63.4255 101.83 63.4922 101.847 63.5589 101.88C63.6289 101.913 63.6805 101.962 63.7139 102.025C63.7805 102.162 63.8472 102.323 63.9139 102.51C63.9805 102.693 64.0705 102.955 64.1839 103.295C64.2905 103.618 64.3755 103.865 64.4389 104.035C64.5022 104.202 64.5555 104.315 64.5989 104.375L64.7139 104.035C65.0905 102.885 65.3439 102.205 65.4739 101.995C65.5039 101.955 65.5555 101.92 65.6289 101.89C65.7055 101.857 65.7772 101.84 65.8439 101.84C65.8939 101.84 65.9672 101.872 66.0639 101.935C66.1639 101.995 66.2139 102.047 66.2139 102.09ZM68.4421 101.82C68.6554 101.82 68.8387 101.847 68.9921 101.9C69.1487 101.953 69.2871 102.035 69.4071 102.145C69.6171 102.335 69.7637 102.543 69.8471 102.77C69.9337 102.993 69.9771 103.28 69.9771 103.63C69.9771 103.717 69.9654 103.798 69.9421 103.875C69.9187 103.948 69.8837 104.038 69.8371 104.145L69.7721 104.305C69.7254 104.432 69.6287 104.55 69.4821 104.66C69.3354 104.767 69.1704 104.852 68.9871 104.915C68.8037 104.978 68.6371 105.01 68.4871 105.01C68.1804 105.01 67.9121 104.96 67.6821 104.86C67.4554 104.757 67.2671 104.595 67.1171 104.375C67.0404 104.258 66.9804 104.128 66.9371 103.985C66.8937 103.838 66.8721 103.698 66.8721 103.565C66.8721 103.225 66.9321 102.93 67.0521 102.68C67.1754 102.427 67.3454 102.23 67.5621 102.09C67.6854 102.017 67.8321 101.953 68.0021 101.9C68.1754 101.847 68.3221 101.82 68.4421 101.82ZM67.4021 103.565C67.4021 103.738 67.4437 103.9 67.5271 104.05C67.6137 104.197 67.7287 104.313 67.8721 104.4C68.0187 104.487 68.1787 104.53 68.3521 104.53C68.7087 104.53 68.9804 104.44 69.1671 104.26C69.3571 104.08 69.4521 103.827 69.4521 103.5C69.4521 103.247 69.4237 103.047 69.3671 102.9C69.3104 102.753 69.2087 102.622 69.0621 102.505C68.9821 102.438 68.8954 102.392 68.8021 102.365C68.7121 102.335 68.6054 102.32 68.4821 102.32C68.2687 102.32 68.0804 102.373 67.9171 102.48C67.7537 102.587 67.6271 102.735 67.5371 102.925C67.4471 103.115 67.4021 103.328 67.4021 103.565ZM72.2705 103.675C72.5605 104.168 72.8321 104.56 73.0855 104.85C73.1121 104.877 73.1255 104.907 73.1255 104.94C73.1255 104.983 73.0988 105.02 73.0455 105.05C72.9921 105.083 72.9305 105.1 72.8605 105.1C72.7571 105.1 72.6455 105.057 72.5255 104.97C72.4388 104.91 72.3588 104.822 72.2855 104.705C72.2121 104.585 72.1288 104.432 72.0355 104.245L71.9505 104.075C71.8638 103.918 71.8121 103.827 71.7955 103.8C71.7221 103.83 71.6371 103.852 71.5405 103.865C71.4438 103.878 71.3255 103.89 71.1855 103.9C71.1921 104.327 71.1955 104.625 71.1955 104.795C71.1955 104.858 71.1721 104.91 71.1255 104.95C71.0788 104.987 71.0205 105.005 70.9505 105.005C70.8638 105.005 70.7971 104.97 70.7505 104.9C70.7038 104.807 70.6805 104.662 70.6805 104.465L70.6855 104.1C70.6855 103.873 70.6905 103.658 70.7005 103.455C70.7071 103.188 70.7105 102.992 70.7105 102.865L70.7155 102.61C70.7155 102.533 70.7105 102.455 70.7005 102.375C70.6471 102.358 70.6005 102.333 70.5605 102.3C70.5205 102.263 70.5005 102.223 70.5005 102.18C70.5005 102.097 70.5305 102.033 70.5905 101.99C70.6538 101.943 70.7321 101.913 70.8255 101.9C71.0955 101.857 71.3588 101.835 71.6155 101.835C72.0521 101.835 72.4138 101.917 72.7005 102.08C72.9871 102.243 73.1305 102.492 73.1305 102.825C73.1305 102.928 73.1071 103.028 73.0605 103.125C73.0171 103.218 72.9571 103.297 72.8805 103.36C72.6805 103.517 72.4771 103.622 72.2705 103.675ZM72.6005 102.81C72.6005 102.65 72.5155 102.52 72.3455 102.42C72.1788 102.317 71.9388 102.265 71.6255 102.265C71.4888 102.265 71.3488 102.282 71.2055 102.315C71.2121 102.435 71.2155 102.52 71.2155 102.57C71.2155 102.67 71.2088 102.813 71.1955 103C71.1888 103.187 71.1855 103.337 71.1855 103.45C71.4088 103.45 71.6221 103.42 71.8255 103.36C71.9721 103.317 72.0955 103.275 72.1955 103.235C72.2955 103.195 72.3871 103.14 72.4705 103.07C72.5571 102.997 72.6005 102.91 72.6005 102.81ZM74.4765 102.24C74.4665 102.453 74.4615 102.658 74.4615 102.855C74.4615 103.058 74.4749 103.357 74.5015 103.75C74.5049 103.81 74.5115 103.932 74.5215 104.115C74.5315 104.295 74.5365 104.46 74.5365 104.61C74.5699 104.607 74.6049 104.602 74.6415 104.595C74.6815 104.588 74.7115 104.585 74.7315 104.585C74.8049 104.585 74.8632 104.603 74.9065 104.64C74.9499 104.677 74.9715 104.733 74.9715 104.81C74.9715 104.86 74.9515 104.898 74.9115 104.925C74.8715 104.952 74.8015 104.972 74.7015 104.985C74.6049 104.995 74.4632 105 74.2765 105C74.0699 105 73.9149 104.993 73.8115 104.98C73.7082 104.967 73.6365 104.942 73.5965 104.905C73.5565 104.865 73.5365 104.807 73.5365 104.73C73.5365 104.673 73.5549 104.635 73.5915 104.615C73.6282 104.595 73.6799 104.585 73.7465 104.585L73.8515 104.59L74.0165 104.6L73.9915 104.01C73.9715 103.69 73.9615 103.397 73.9615 103.13C73.9615 102.987 73.9665 102.79 73.9765 102.54L73.9865 102.265C73.8732 102.272 73.7849 102.275 73.7215 102.275C73.6482 102.275 73.5982 102.262 73.5715 102.235C73.5482 102.208 73.5365 102.153 73.5365 102.07C73.5365 101.977 73.5999 101.917 73.7265 101.89C73.8565 101.863 74.0532 101.85 74.3165 101.85C74.5199 101.85 74.6715 101.857 74.7715 101.87C74.8749 101.883 74.9265 101.913 74.9265 101.96C74.9265 102.073 74.9015 102.148 74.8515 102.185C74.8049 102.218 74.7132 102.235 74.5765 102.235L74.4765 102.24ZM77.8118 104.68C77.8151 104.75 77.8068 104.8 77.7868 104.83C77.7668 104.857 77.7268 104.885 77.6668 104.915C77.5768 104.958 77.4701 104.987 77.3468 105C77.2268 105.013 77.0718 105.02 76.8818 105.02H76.5418C76.2451 105.02 76.0251 104.97 75.8818 104.87C75.7384 104.767 75.6484 104.643 75.6118 104.5C75.5751 104.357 75.5534 104.172 75.5468 103.945C75.5434 103.868 75.5418 103.755 75.5418 103.605C75.5418 103.278 75.5701 102.842 75.6268 102.295C75.6434 102.135 75.7018 102.02 75.8018 101.95C75.9018 101.877 76.0151 101.84 76.1418 101.84C76.2451 101.84 76.4134 101.837 76.6468 101.83L77.0868 101.825C77.2668 101.825 77.3968 101.83 77.4768 101.84C77.5768 101.86 77.6518 101.883 77.7018 101.91C77.7518 101.933 77.7784 101.975 77.7818 102.035C77.7818 102.102 77.7601 102.167 77.7168 102.23C77.6734 102.293 77.6068 102.325 77.5168 102.325C77.4134 102.325 77.2651 102.318 77.0718 102.305C76.8784 102.292 76.7318 102.285 76.6318 102.285C76.5418 102.285 76.4601 102.29 76.3868 102.3C76.2934 102.307 76.2268 102.318 76.1868 102.335C76.1468 102.352 76.1251 102.38 76.1218 102.42C76.0851 102.783 76.0701 103.037 76.0768 103.18C76.1534 103.19 76.2301 103.195 76.3068 103.195C76.3834 103.195 76.4884 103.188 76.6218 103.175C76.6551 103.172 76.6968 103.168 76.7468 103.165C76.7968 103.162 76.8534 103.16 76.9168 103.16C76.9534 103.16 77.0118 103.163 77.0918 103.17L77.2468 103.175C77.4001 103.175 77.4768 103.23 77.4768 103.34C77.4768 103.407 77.4584 103.46 77.4218 103.5C77.3851 103.54 77.3201 103.57 77.2268 103.59C77.1001 103.613 76.8951 103.625 76.6118 103.625H76.3068C76.2434 103.625 76.1651 103.622 76.0718 103.615C76.0684 103.675 76.0668 103.762 76.0668 103.875C76.0668 104.022 76.0684 104.125 76.0718 104.185C76.0818 104.418 76.2434 104.535 76.5568 104.535C76.6634 104.535 76.7768 104.538 76.8968 104.545L77.0818 104.55C77.1684 104.55 77.2401 104.542 77.2968 104.525C77.3534 104.505 77.4084 104.488 77.4618 104.475C77.5184 104.458 77.5701 104.45 77.6168 104.45C77.6801 104.45 77.7284 104.475 77.7618 104.525C77.7951 104.572 77.8118 104.623 77.8118 104.68ZM80.5796 104.095C80.5796 104.252 80.5429 104.387 80.4696 104.5C80.3996 104.61 80.2829 104.712 80.1196 104.805C80.0096 104.872 79.8813 104.922 79.7346 104.955C79.5879 104.988 79.4396 105.005 79.2896 105.005C79.1363 105.005 78.9463 104.955 78.7196 104.855C78.5563 104.775 78.4263 104.68 78.3296 104.57C78.2363 104.46 78.1896 104.34 78.1896 104.21C78.1896 104.12 78.2096 104.055 78.2496 104.015C78.2896 103.972 78.3546 103.95 78.4446 103.95C78.4913 103.95 78.5396 103.97 78.5896 104.01C78.6396 104.047 78.6696 104.083 78.6796 104.12C78.7263 104.257 78.8079 104.362 78.9246 104.435C79.0413 104.505 79.1863 104.54 79.3596 104.54C79.5596 104.54 79.7263 104.503 79.8596 104.43C79.9963 104.357 80.0646 104.258 80.0646 104.135C80.0646 104.015 79.9913 103.908 79.8446 103.815C79.6979 103.722 79.5479 103.657 79.3946 103.62C79.1746 103.56 78.9796 103.488 78.8096 103.405C78.6329 103.318 78.5013 103.212 78.4146 103.085C78.3279 102.958 78.2846 102.825 78.2846 102.685C78.2846 102.555 78.3296 102.423 78.4196 102.29C78.5096 102.153 78.6163 102.055 78.7396 101.995C78.8063 101.962 78.9196 101.927 79.0796 101.89C79.2429 101.85 79.3613 101.83 79.4346 101.83C79.5313 101.83 79.6379 101.842 79.7546 101.865C79.8713 101.888 79.9663 101.922 80.0396 101.965C80.1863 102.048 80.2946 102.123 80.3646 102.19C80.4346 102.257 80.4696 102.34 80.4696 102.44C80.4696 102.5 80.4463 102.553 80.3996 102.6C80.3563 102.647 80.2796 102.67 80.1696 102.67C80.1429 102.67 80.1163 102.658 80.0896 102.635C80.0629 102.612 80.0296 102.577 79.9896 102.53C79.9363 102.46 79.8846 102.413 79.8346 102.39C79.7846 102.373 79.7113 102.355 79.6146 102.335C79.5213 102.315 79.4379 102.305 79.3646 102.305C79.2846 102.305 79.2013 102.322 79.1146 102.355C79.0279 102.388 78.9546 102.437 78.8946 102.5C78.8379 102.56 78.8096 102.63 78.8096 102.71C78.8096 102.777 78.8396 102.835 78.8996 102.885C78.9629 102.932 79.0379 102.97 79.1246 103C79.2246 103.04 79.3329 103.075 79.4496 103.105C79.6029 103.152 79.7279 103.195 79.8246 103.235C79.9246 103.272 80.0213 103.318 80.1146 103.375C80.2779 103.472 80.3963 103.572 80.4696 103.675C80.5429 103.775 80.5796 103.915 80.5796 104.095Z" fill="white"/>
<rect x="3" y="45" width="8" height="2" rx="1" fill="white"/>
<rect x="92" y="45" width="8" height="2" rx="1" fill="white"/>
</svg>
