<svg xmlns="http://www.w3.org/2000/svg" viewBox="0 0 1555.32 1436.35"><defs><style>.cls-1{fill:#fff;}.cls-2{fill:#ccc;}.cls-3{fill:#3aa89a;}.cls-4{fill:#1a1a1a;}.cls-5{fill:#326e79;}.cls-6{fill:#b4afa9;}.cls-7{fill:#8b8b8b;}.cls-8{fill:#d7d4d1;}.cls-9{fill:#c1bcb7;}.cls-10{fill:#959595;}.cls-11{fill:#c4b676;}.cls-12{fill:#b9dae9;}.cls-13{fill:#ffb31c;}.cls-14{fill:#ff8c03;}.cls-15{fill:#939393;}</style></defs><g id="Réteg_2" data-name="Réteg 2"><g id="Réteg_1" data-name="Réteg 1"><path class="cls-1" d="M583.31,977.85h-1.16l-.91.11-.88.12-.89.19-.78.17h-.12l-.26.12c-.4.12-.79.25-1.17.4s-.55.21-.83.33-.55.24-.82.37-.53.27-.79.42-.52.28-.77.44-.5.32-.74.49-.49.34-.73.52l-.69.56c-.23.19-.45.39-.67.6s-.42.41-.63.63-.41.43-.61.65-.39.46-.57.7l-.54.71c-.17.24-.34.49-.5.74s-.32.51-.46.77-.29.52-.42.79-.26.53-.38.8-.24.56-.35.84l-.3.83c-.09.28-.18.57-.26.86s-.15.57-.21.86-.12.59-.17.88-.09.59-.13.89-.09.59-.12.89,0,.58,0,.88v.35c0,.29,0,.59,0,.88a2.53,2.53,0,0,0,0,.28c0,.3.07.59.12.89s.07.59.12.89.12.59.19.88.1.54.17.81v.11a1.23,1.23,0,0,0,.12.26,11.46,11.46,0,0,0,.39,1.17c.1.29.22.56.33.84s.23.54.36.81.27.53.42.79.29.52.44.77.32.51.49.75.33.49.51.73.37.47.56.69.39.45.6.67.41.43.63.63.43.41.66.61.45.39.69.57.47.37.71.54l.74.5c.25.16.51.32.76.46s.53.29.79.42l.81.4.83.33.84.31.86.25.87.23c.29.06.58.12.87.16s.59.1.88.13l.89.13h2.41c.3,0,.6-.07.9-.12l.89-.12.87-.19.79-.17h.12l.27-.12c.39-.12.79-.25,1.18-.39l.82-.33.82-.38c.27-.13.53-.27.79-.41s.52-.29.77-.45.51-.32.76-.48l.72-.53c.24-.18.47-.36.69-.56l.67-.58.64-.63c.2-.22.41-.43.6-.65l.58-.69c.18-.23.36-.47.53-.71s.34-.49.5-.74.32-.51.47-.77.28-.53.41-.8.26-.53.39-.8.23-.54.33-.82.21-.56.31-.84.17-.57.25-.85.16-.58.23-.87.11-.59.16-.89a8.48,8.48,0,0,0,.13-.88c0-.3.09-.59.12-.89s0-.59,0-.89v-.34c0-.3,0-.6,0-.89a2.53,2.53,0,0,0,0-.28c0-.3-.07-.6-.11-.91s-.08-.58-.13-.88-.11-.59-.18-.88-.11-.53-.17-.8V991l-.12-.26c-.12-.39-.25-.79-.39-1.17s-.22-.56-.34-.83-.23-.55-.35-.82l-.42-.78c-.14-.26-.29-.53-.44-.78l-.49-.74-.53-.72c-.18-.24-.37-.47-.56-.69s-.39-.47-.59-.69l-.64-.63-.65-.61c-.23-.19-.46-.38-.7-.56l-.71-.53c-.25-.18-.5-.34-.75-.51s-.5-.31-.77-.46l-.78-.42-.81-.39c-.27-.12-.55-.23-.82-.33s-.56-.22-.84-.31a8.47,8.47,0,0,0-.86-.25c-.29-.09-.58-.16-.87-.23s-.58-.12-.87-.17-.6-.1-.89-.13-.59-.09-.88-.12h-1.24Z"/><path class="cls-1" d="M583.31,977.85h-1.16l-.91.11-.88.12-.89.19-.78.17h-.12l-.26.12c-.4.12-.79.25-1.17.4s-.55.21-.83.33-.55.24-.82.37-.53.27-.79.42-.52.28-.77.44-.5.32-.74.49-.49.34-.73.52l-.69.56c-.23.19-.45.39-.67.6s-.42.41-.63.63-.41.43-.61.65-.39.46-.57.7l-.54.71c-.17.24-.34.49-.5.74s-.32.51-.46.77-.29.52-.42.79-.26.53-.38.8-.24.56-.35.84l-.3.83c-.09.28-.18.57-.26.86s-.15.57-.21.86-.12.59-.17.88-.09.59-.13.89-.09.59-.12.89,0,.58,0,.88v.35c0,.29,0,.59,0,.88a2.53,2.53,0,0,0,0,.28c0,.3.07.59.12.89s.07.6.12.9.12.59.19.89.1.52.17.79v.11a1.23,1.23,0,0,0,.12.26,11.46,11.46,0,0,0,.39,1.17c.1.29.22.56.33.84s.23.54.36.81.27.53.42.79.29.52.44.77.32.51.49.75.33.49.51.73.37.47.56.69.39.45.6.67.41.43.63.63.43.41.66.61.45.39.69.57.47.37.71.54l.74.5c.25.16.51.32.76.46s.53.29.79.42l.81.4.83.33.84.31.86.25.87.22.87.16c.29.05.59.1.88.13s.59.09.89.12h2.41l.9-.12.89-.11.87-.2.79-.16h.12l.27-.12c.39-.12.79-.25,1.18-.4s.55-.21.82-.33l.82-.37c.27-.13.53-.27.79-.42l.77-.44c.26-.15.51-.32.76-.49s.48-.34.72-.52.47-.37.69-.56l.67-.58.64-.64c.2-.21.41-.42.6-.64l.58-.69.53-.72c.18-.24.34-.49.5-.74s.32-.5.47-.76.28-.53.41-.8.26-.53.39-.8.23-.55.33-.82.21-.56.31-.85.17-.56.25-.85.16-.57.23-.87.11-.58.16-.88a8.89,8.89,0,0,0,.13-.88q.07-.45.12-.9c0-.29,0-.58,0-.88v-.34c0-.31,0-.61,0-.91a2.44,2.44,0,0,0,0-.27c0-.31-.07-.61-.11-.91s-.08-.59-.13-.88-.11-.59-.18-.88-.11-.53-.17-.79V991l-.12-.26c-.12-.4-.25-.79-.39-1.18s-.22-.55-.34-.83-.23-.54-.35-.81l-.42-.78c-.14-.27-.29-.53-.44-.78s-.32-.5-.49-.74-.35-.49-.53-.73-.37-.47-.56-.69-.39-.46-.59-.68-.42-.43-.64-.63-.43-.41-.65-.61-.46-.39-.7-.57-.47-.37-.71-.54l-.75-.5c-.25-.16-.5-.32-.77-.47l-.78-.41-.81-.4-.82-.33-.84-.31-.86-.25-.87-.23-.87-.16c-.3-.06-.6-.1-.89-.14l-.88-.11h-1.25Z"/><path class="cls-1" d="M583.31,977.85h-1.16l-.91.11-.88.12-.89.19-.78.17h-.12l-.26.12c-.4.12-.79.25-1.17.4s-.55.21-.83.33-.55.24-.82.37-.53.27-.79.42-.52.28-.77.44-.5.32-.74.49-.49.34-.73.52l-.69.56c-.23.19-.45.39-.67.6s-.42.41-.63.63-.41.43-.61.65-.39.46-.57.7l-.54.71c-.17.24-.34.49-.5.74s-.32.51-.46.77-.29.52-.42.79-.26.53-.38.8-.24.56-.35.84l-.3.83c-.09.28-.18.57-.26.86s-.15.57-.21.86-.12.59-.17.88-.09.59-.13.89-.09.59-.12.89,0,.58,0,.88v.35c0,.29,0,.59,0,.88a2.53,2.53,0,0,0,0,.28c0,.3.07.59.12.89s.07.6.12.9.12.59.19.89.1.52.17.79v.11a1.23,1.23,0,0,0,.12.26,11.46,11.46,0,0,0,.39,1.17c.1.29.22.56.33.84s.23.54.36.81.27.53.42.79.29.52.44.77.32.51.49.75.33.49.51.73.37.47.56.69.39.45.6.67.41.43.63.63.43.41.66.61.45.39.69.57.47.37.71.54l.74.5c.25.16.51.32.76.46s.53.29.79.42l.81.4.83.33.84.31.86.25.87.22.87.16c.29.05.59.1.88.13s.59.09.89.12h2.41l.9-.12.89-.11.87-.2.79-.16h.12l.27-.12c.39-.12.79-.25,1.18-.4s.55-.21.82-.33l.82-.37c.27-.13.53-.27.79-.42l.77-.44c.26-.15.51-.32.76-.49s.48-.34.72-.52.47-.37.69-.56l.67-.58.64-.64c.2-.21.41-.42.6-.64l.58-.69.53-.72c.18-.24.34-.49.5-.74s.32-.5.47-.76.28-.53.41-.8.26-.53.39-.8.23-.55.33-.82.21-.56.31-.85.17-.56.25-.85.16-.57.23-.87.11-.58.16-.88a8.89,8.89,0,0,0,.13-.88q.07-.45.12-.9c0-.29,0-.58,0-.88v-.34c0-.31,0-.61,0-.91a2.44,2.44,0,0,0,0-.27c0-.31-.07-.61-.11-.91s-.08-.59-.13-.88-.11-.59-.18-.88-.11-.53-.17-.79V991l-.12-.26c-.12-.4-.25-.79-.39-1.18s-.22-.55-.34-.83-.23-.54-.35-.81l-.42-.78c-.14-.27-.29-.53-.44-.78s-.32-.5-.49-.74-.35-.49-.53-.73-.37-.47-.56-.69-.39-.46-.59-.68-.42-.43-.64-.63-.43-.41-.65-.61-.46-.39-.7-.57-.47-.37-.71-.54l-.75-.5c-.25-.16-.5-.32-.77-.47l-.78-.41-.81-.4-.82-.33-.84-.31-.86-.25-.87-.23-.87-.16c-.3-.06-.6-.1-.89-.14l-.88-.11h-1.25Z"/><path class="cls-1" d="M583.31,977.85h-1.16l-.91.11-.88.12-.89.19-.78.17h-.12l-.26.12c-.4.12-.79.25-1.17.4s-.55.21-.83.33-.55.24-.82.37-.53.27-.79.42-.52.28-.77.44-.5.32-.74.49-.49.34-.73.52l-.69.56c-.23.19-.45.39-.67.6s-.42.41-.63.63-.41.43-.61.65-.39.46-.57.7l-.54.71c-.17.24-.34.49-.5.74s-.32.51-.46.77-.29.52-.42.79-.26.53-.38.8-.24.56-.35.84l-.3.83c-.09.28-.18.57-.26.86s-.15.57-.21.86-.12.59-.17.88-.09.59-.13.89-.09.59-.12.89,0,.58,0,.88v.35c0,.29,0,.59,0,.88a2.53,2.53,0,0,0,0,.28c0,.3.07.59.12.89s.07.6.12.9.12.59.19.89.1.52.17.79v.11a1.23,1.23,0,0,0,.12.26,11.46,11.46,0,0,0,.39,1.17c.1.29.22.56.33.84s.23.54.36.81.27.53.42.79.29.52.44.77.32.51.49.75.33.49.51.73.37.47.56.69.39.45.6.67.41.43.63.63.43.41.66.61.45.39.69.57.47.37.71.54l.74.5c.25.16.51.32.76.46s.53.29.79.42l.81.4.83.33.84.31.86.25.87.22.87.16c.29.05.59.1.88.13s.59.09.89.12h2.41l.9-.12.89-.11.87-.2.79-.16h.12l.27-.12c.39-.12.79-.25,1.18-.4s.55-.21.82-.33l.82-.37c.27-.13.53-.27.79-.42l.77-.44c.26-.15.51-.32.76-.49s.48-.34.72-.52.47-.37.69-.56l.67-.58.64-.64c.2-.21.41-.42.6-.64l.58-.69.53-.72c.18-.24.34-.49.5-.74s.32-.5.47-.76.28-.53.41-.8.26-.53.39-.8.23-.55.33-.82.21-.56.31-.85.17-.56.25-.85.16-.57.23-.87.11-.58.16-.88a8.89,8.89,0,0,0,.13-.88q.07-.45.12-.9c0-.29,0-.58,0-.88v-.34c0-.31,0-.61,0-.91a2.44,2.44,0,0,0,0-.27c0-.31-.07-.61-.11-.91s-.08-.59-.13-.88-.11-.59-.18-.88-.11-.53-.17-.79V991l-.12-.26c-.12-.4-.25-.79-.39-1.18s-.22-.55-.34-.83-.23-.54-.35-.81l-.42-.78c-.14-.27-.29-.53-.44-.78s-.32-.5-.49-.74-.35-.49-.53-.73-.37-.47-.56-.69-.39-.46-.59-.68-.42-.43-.64-.63-.43-.41-.65-.61-.46-.39-.7-.57-.47-.37-.71-.54l-.75-.5c-.25-.16-.5-.32-.77-.47l-.78-.41-.81-.4-.82-.33-.84-.31-.86-.25-.87-.23-.87-.16c-.3-.06-.6-.1-.89-.14l-.88-.11h-1.25Z"/><path class="cls-1" d="M583.31,977.85h-1.16l-.91.11-.88.12-.89.19-.78.17h-.12l-.26.12c-.4.12-.79.25-1.17.4s-.55.21-.83.33-.55.24-.82.37-.53.27-.79.42-.52.28-.77.44-.5.32-.74.49-.49.34-.73.52l-.69.56c-.23.19-.45.39-.67.6s-.42.41-.63.63-.41.43-.61.65-.39.46-.57.7l-.54.71c-.17.24-.34.49-.5.74s-.32.51-.46.77-.29.52-.42.79-.26.53-.38.8-.24.56-.35.84l-.3.83c-.09.28-.18.57-.26.86s-.15.57-.21.86-.12.59-.17.88-.09.59-.13.89-.09.59-.12.89,0,.58,0,.88v.35c0,.29,0,.59,0,.88a2.53,2.53,0,0,0,0,.28c0,.3.07.59.12.89s.07.6.12.9.12.59.19.89.1.52.17.79v.11a1.23,1.23,0,0,0,.12.26,11.46,11.46,0,0,0,.39,1.17c.1.29.22.56.33.84s.23.54.36.81.27.53.42.79.29.52.44.77.32.51.49.75.33.49.51.73.37.47.56.69.39.45.6.67.41.43.63.63.43.41.66.61.45.39.69.57.47.37.71.54l.74.5c.25.16.51.32.76.46s.53.29.79.42l.81.4.83.33.84.31.86.25.87.22.87.16c.29.05.59.1.88.13s.59.09.89.12h2.41l.9-.12.89-.11.87-.2.79-.16h.12l.27-.12c.39-.12.79-.25,1.18-.4s.55-.21.82-.33l.82-.37c.27-.13.53-.27.79-.42l.77-.44c.26-.15.51-.32.76-.49s.48-.34.72-.52.47-.37.69-.56l.67-.58.64-.64c.2-.21.41-.42.6-.64l.58-.69.53-.72c.18-.24.34-.49.5-.74s.32-.5.47-.76.28-.53.41-.8.26-.53.39-.8.23-.55.33-.82.21-.56.31-.85.17-.56.25-.85.16-.57.23-.87.11-.58.16-.88a8.89,8.89,0,0,0,.13-.88q.07-.45.12-.9c0-.29,0-.58,0-.88v-.34c0-.31,0-.61,0-.91a2.44,2.44,0,0,0,0-.27c0-.31-.07-.61-.11-.91s-.08-.59-.13-.88-.11-.59-.18-.88-.11-.53-.17-.79V991l-.12-.26c-.12-.4-.25-.79-.39-1.18s-.22-.55-.34-.83-.23-.54-.35-.81l-.42-.78c-.14-.27-.29-.53-.44-.78s-.32-.5-.49-.74-.35-.49-.53-.73-.37-.47-.56-.69-.39-.46-.59-.68-.42-.43-.64-.63-.43-.41-.65-.61-.46-.39-.7-.57-.47-.37-.71-.54l-.75-.5c-.25-.16-.5-.32-.77-.47l-.78-.41-.81-.4-.82-.33-.84-.31-.86-.25-.87-.23-.87-.16c-.3-.06-.6-.1-.89-.14l-.88-.11h-1.25Z"/><path class="cls-1" d="M583.31,977.85h-1.16l-.91.11-.88.12-.89.19-.78.17h-.12l-.26.12c-.4.12-.79.25-1.17.4s-.55.21-.83.33-.55.24-.82.37-.53.27-.79.42-.52.28-.77.44-.5.32-.74.49-.49.34-.73.52l-.69.56c-.23.19-.45.39-.67.6s-.42.41-.63.63-.41.43-.61.65-.39.46-.57.7l-.54.71c-.17.24-.34.49-.5.74s-.32.51-.46.77-.29.52-.42.79-.26.53-.38.8-.24.56-.35.84l-.3.83c-.09.28-.18.57-.26.86s-.15.57-.21.86-.12.59-.17.88-.09.59-.13.89-.09.59-.12.89,0,.58,0,.88v.35c0,.29,0,.59,0,.88a2.53,2.53,0,0,0,0,.28c0,.3.07.59.12.89s.07.6.12.9.12.59.19.89.1.52.17.79v.11a1.23,1.23,0,0,0,.12.26,11.46,11.46,0,0,0,.39,1.17c.1.29.22.56.33.84s.23.54.36.81.27.53.42.79.29.52.44.77.32.51.49.75.33.49.51.73.37.47.56.69.39.45.6.67.41.43.63.63.43.41.66.61.45.39.69.57.47.37.71.54l.74.5c.25.16.51.32.76.46s.53.29.79.42l.81.4.83.33.84.31.86.25.87.22.87.16c.29.05.59.1.88.13s.59.09.89.12h2.41l.9-.12.89-.11.87-.2.79-.16h.12l.27-.12c.39-.12.79-.25,1.18-.4s.55-.21.82-.33l.82-.37c.27-.13.53-.27.79-.42l.77-.44c.26-.15.51-.32.76-.49s.48-.34.72-.52.47-.37.69-.56l.67-.58.64-.64c.2-.21.41-.42.6-.64l.58-.69.53-.72c.18-.24.34-.49.5-.74s.32-.5.47-.76.28-.53.41-.8.26-.53.39-.8.23-.55.33-.82.21-.56.31-.85.17-.56.25-.85.16-.57.23-.87.11-.58.16-.88a8.89,8.89,0,0,0,.13-.88q.07-.45.12-.9c0-.29,0-.58,0-.88v-.34c0-.31,0-.61,0-.91a2.44,2.44,0,0,0,0-.27c0-.31-.07-.61-.11-.91s-.08-.59-.13-.88-.11-.59-.18-.88-.11-.53-.17-.79V991l-.12-.26c-.12-.4-.25-.79-.39-1.18s-.22-.55-.34-.83-.23-.54-.35-.81l-.42-.78c-.14-.27-.29-.53-.44-.78s-.32-.5-.49-.74-.35-.49-.53-.73-.37-.47-.56-.69-.39-.46-.59-.68-.42-.43-.64-.63-.43-.41-.65-.61-.46-.39-.7-.57-.47-.37-.71-.54l-.75-.5c-.25-.16-.5-.32-.77-.47l-.78-.41-.81-.4-.82-.33-.84-.31-.86-.25-.87-.23-.87-.16c-.3-.06-.6-.1-.89-.14l-.88-.11h-1.25Z"/><path class="cls-1" d="M583.31,977.85h-1.16l-.91.11-.88.12-.89.19-.78.17h-.12l-.26.12c-.4.12-.79.25-1.17.4s-.55.21-.83.33-.55.24-.82.37-.53.27-.79.42-.52.28-.77.44-.5.32-.74.49-.49.34-.73.52l-.69.56c-.23.19-.45.39-.67.6s-.42.41-.63.63-.41.43-.61.65-.39.46-.57.7l-.54.71c-.17.24-.34.49-.5.74s-.32.51-.46.77-.29.52-.42.79-.26.53-.38.8-.24.56-.35.84l-.3.83c-.09.28-.18.57-.26.86s-.15.57-.21.86-.12.59-.17.88-.09.59-.13.89-.09.59-.12.89,0,.58,0,.88v.35c0,.29,0,.59,0,.88a2.53,2.53,0,0,0,0,.28c0,.3.07.59.12.89s.07.6.12.9.12.59.19.89.1.52.17.79v.11a1.23,1.23,0,0,0,.12.26,11.46,11.46,0,0,0,.39,1.17c.1.29.22.56.33.84s.23.54.36.81.27.53.42.79.29.52.44.77.32.51.49.75.33.49.51.73.37.47.56.69.39.45.6.67.41.43.63.63.43.41.66.61.45.39.69.57.47.37.71.54l.74.5c.25.16.51.32.76.46s.53.29.79.42l.81.4.83.33.84.31.86.25.87.22.87.16c.29.05.59.1.88.13s.59.09.89.12h2.41l.9-.12.89-.11.87-.2.79-.16h.12l.27-.12c.39-.12.79-.25,1.18-.4s.55-.21.82-.33l.82-.37c.27-.13.53-.27.79-.42l.77-.44c.26-.15.51-.32.76-.49s.48-.34.72-.52.47-.37.69-.56l.67-.58.64-.64c.2-.21.41-.42.6-.64l.58-.69.53-.72c.18-.24.34-.49.5-.74s.32-.5.47-.76.28-.53.41-.8.26-.53.39-.8.23-.55.33-.82.21-.56.31-.85.17-.56.25-.85.16-.57.23-.87.11-.58.16-.88a8.89,8.89,0,0,0,.13-.88q.07-.45.12-.9c0-.29,0-.58,0-.88v-.34c0-.31,0-.61,0-.91a2.44,2.44,0,0,0,0-.27c0-.31-.07-.61-.11-.91s-.08-.59-.13-.88-.11-.59-.18-.88-.11-.53-.17-.79V991l-.12-.26c-.12-.4-.25-.79-.39-1.18s-.22-.55-.34-.83-.23-.54-.35-.81l-.42-.78c-.14-.27-.29-.53-.44-.78s-.32-.5-.49-.74-.35-.49-.53-.73-.37-.47-.56-.69-.39-.46-.59-.68-.42-.43-.64-.63-.43-.41-.65-.61-.46-.39-.7-.57-.47-.37-.71-.54l-.75-.5c-.25-.16-.5-.32-.77-.47l-.78-.41-.81-.4-.82-.33-.84-.31-.86-.25-.87-.23-.87-.16c-.3-.06-.6-.1-.89-.14l-.88-.11h-1.25Z"/><path class="cls-1" d="M583.31,977.85h-1.16l-.91.11-.88.12-.89.19-.78.17h-.12l-.26.12c-.4.12-.79.25-1.17.4s-.55.21-.83.33-.55.24-.82.37-.53.27-.79.42-.52.28-.77.44-.5.32-.74.49-.49.34-.73.52l-.69.56c-.23.19-.45.39-.67.6s-.42.41-.63.63-.41.43-.61.65-.39.46-.57.7l-.54.71c-.17.24-.34.49-.5.74s-.32.51-.46.77-.29.52-.42.79-.26.53-.38.8-.24.56-.35.84l-.3.83c-.09.28-.18.57-.26.86s-.15.57-.21.86-.12.59-.17.88-.09.59-.13.89-.09.59-.12.89,0,.58,0,.88v.35c0,.29,0,.59,0,.88a2.53,2.53,0,0,0,0,.28c0,.3.07.59.12.89s.07.6.12.9.12.59.19.89.1.52.17.79v.11a1.23,1.23,0,0,0,.12.26,11.46,11.46,0,0,0,.39,1.17c.1.29.22.56.33.84s.23.54.36.81.27.53.42.79.29.52.44.77.32.51.49.75.33.49.51.73.37.47.56.69.39.45.6.67.41.43.63.63.43.41.66.61.45.39.69.57.47.37.71.54l.74.5c.25.16.51.32.76.46s.53.29.79.42l.81.4.83.33.84.31.86.25.87.22.87.16c.29.05.59.1.88.13s.59.09.89.12h2.41l.9-.12.89-.11.87-.2.79-.16h.12l.27-.12c.39-.12.79-.25,1.18-.4s.55-.21.82-.33l.82-.37c.27-.13.53-.27.79-.42l.77-.44c.26-.15.51-.32.76-.49s.48-.34.72-.52.47-.37.69-.56l.67-.58.64-.64c.2-.21.41-.42.6-.64l.58-.69.53-.72c.18-.24.34-.49.5-.74s.32-.5.47-.76.28-.53.41-.8.26-.53.39-.8.23-.55.33-.82.21-.56.31-.85.17-.56.25-.85.16-.57.23-.87.11-.58.16-.88a8.89,8.89,0,0,0,.13-.88q.07-.45.12-.9c0-.29,0-.58,0-.88v-.34c0-.31,0-.61,0-.91a2.44,2.44,0,0,0,0-.27c0-.31-.07-.61-.11-.91s-.08-.59-.13-.88-.11-.59-.18-.88-.11-.53-.17-.79V991l-.12-.26c-.12-.4-.25-.79-.39-1.18s-.22-.55-.34-.83-.23-.54-.35-.81l-.42-.78c-.14-.27-.29-.53-.44-.78s-.32-.5-.49-.74-.35-.49-.53-.73-.37-.47-.56-.69-.39-.46-.59-.68-.42-.43-.64-.63-.43-.41-.65-.61-.46-.39-.7-.57-.47-.37-.71-.54l-.75-.5c-.25-.16-.5-.32-.77-.47l-.78-.41-.81-.4-.82-.33-.84-.31-.86-.25-.87-.23-.87-.16c-.3-.06-.6-.1-.89-.14l-.88-.11h-1.25Z"/><path class="cls-1" d="M583.31,977.85h-1.16l-.91.11-.88.12-.89.19-.78.17h-.12l-.26.12c-.4.12-.79.25-1.17.4s-.55.21-.83.33-.55.24-.82.37-.53.27-.79.42-.52.28-.77.44-.5.32-.74.49-.49.34-.73.52l-.69.56c-.23.19-.45.39-.67.6s-.42.41-.63.63-.41.43-.61.65-.39.46-.57.7l-.54.71c-.17.24-.34.49-.5.74s-.32.51-.46.77-.29.52-.42.79-.26.53-.38.8-.24.56-.35.84l-.3.83c-.09.28-.18.57-.26.86s-.15.57-.21.86-.12.59-.17.88-.09.59-.13.89-.09.59-.12.89,0,.58,0,.88v.35c0,.29,0,.59,0,.88a2.53,2.53,0,0,0,0,.28c0,.3.07.59.12.89s.07.6.12.9.12.59.19.89.1.52.17.79v.11a1.23,1.23,0,0,0,.12.26,11.46,11.46,0,0,0,.39,1.17c.1.29.22.56.33.84s.23.54.36.81.27.53.42.79.29.52.44.77.32.51.49.75.33.49.51.73.37.47.56.69.39.45.6.67.41.43.63.63.43.41.66.61.45.39.69.57.47.37.71.54l.74.5c.25.16.51.32.76.46s.53.29.79.42l.81.4.83.33.84.31.86.25.87.22.87.16c.29.05.59.1.88.13s.59.09.89.12h2.41l.9-.12.89-.11.87-.2.79-.16h.12l.27-.12c.39-.12.79-.25,1.18-.4s.55-.21.82-.33l.82-.37c.27-.13.53-.27.79-.42l.77-.44c.26-.15.51-.32.76-.49s.48-.34.72-.52.47-.37.69-.56l.67-.58.64-.64c.2-.21.41-.42.6-.64l.58-.69.53-.72c.18-.24.34-.49.5-.74s.32-.5.47-.76.28-.53.41-.8.26-.53.39-.8.23-.55.33-.82.21-.56.31-.85.17-.56.25-.85.16-.57.23-.87.11-.58.16-.88a8.89,8.89,0,0,0,.13-.88q.07-.45.12-.9c0-.29,0-.58,0-.88v-.34c0-.31,0-.61,0-.91a2.44,2.44,0,0,0,0-.27c0-.31-.07-.61-.11-.91s-.08-.59-.13-.88-.11-.59-.18-.88-.11-.53-.17-.79V991l-.12-.26c-.12-.4-.25-.79-.39-1.18s-.22-.55-.34-.83-.23-.54-.35-.81l-.42-.78c-.14-.27-.29-.53-.44-.78s-.32-.5-.49-.74-.35-.49-.53-.73-.37-.47-.56-.69-.39-.46-.59-.68-.42-.43-.64-.63-.43-.41-.65-.61-.46-.39-.7-.57-.47-.37-.71-.54l-.75-.5c-.25-.16-.5-.32-.77-.47l-.78-.41-.81-.4-.82-.33-.84-.31-.86-.25-.87-.23-.87-.16c-.3-.06-.6-.1-.89-.14l-.88-.11h-1.25Z"/><path class="cls-1" d="M583.31,977.85h-1.16l-.91.11-.88.12-.89.19-.78.17h-.12l-.26.12c-.4.12-.79.25-1.17.4s-.55.21-.83.33-.55.24-.82.37-.53.27-.79.42-.52.28-.77.44-.5.32-.74.49-.49.34-.73.52l-.69.56c-.23.19-.45.39-.67.6s-.42.41-.63.63-.41.43-.61.65-.39.46-.57.7l-.54.71c-.17.24-.34.49-.5.74s-.32.51-.46.77-.29.52-.42.79-.26.53-.38.8-.24.56-.35.84l-.3.83c-.09.28-.18.57-.26.86s-.15.57-.21.86-.12.59-.17.88-.09.59-.13.89-.09.59-.12.89,0,.58,0,.88v.35c0,.29,0,.59,0,.88a2.53,2.53,0,0,0,0,.28c0,.3.07.59.12.89s.07.6.12.9.12.59.19.89.1.52.17.79v.11a1.23,1.23,0,0,0,.12.26,11.46,11.46,0,0,0,.39,1.17c.1.29.22.56.33.84s.23.54.36.81.27.53.42.79.29.52.44.77.32.51.49.75.33.49.51.73.37.47.56.69.39.45.6.67.41.43.63.63.43.41.66.61.45.39.69.57.47.37.71.54l.74.5c.25.16.51.32.76.46s.53.29.79.42l.81.4.83.33.84.31.86.25.87.22.87.16c.29.05.59.1.88.13s.59.09.89.12h2.41l.9-.12.89-.11.87-.2.79-.16h.12l.27-.12c.39-.12.79-.25,1.18-.4s.55-.21.82-.33l.82-.37c.27-.13.53-.27.79-.42l.77-.44c.26-.15.51-.32.76-.49s.48-.34.72-.52.47-.37.69-.56l.67-.58.64-.64c.2-.21.41-.42.6-.64l.58-.69.53-.72c.18-.24.34-.49.5-.74s.32-.5.47-.76.28-.53.41-.8.26-.53.39-.8.23-.55.33-.82.21-.56.31-.85.17-.56.25-.85.16-.57.23-.87.11-.58.16-.88a8.89,8.89,0,0,0,.13-.88q.07-.45.12-.9c0-.29,0-.58,0-.88v-.34c0-.31,0-.61,0-.91a2.44,2.44,0,0,0,0-.27c0-.31-.07-.61-.11-.91s-.08-.59-.13-.88-.11-.59-.18-.88-.11-.53-.17-.79V991l-.12-.26c-.12-.4-.25-.79-.39-1.18s-.22-.55-.34-.83-.23-.54-.35-.81l-.42-.78c-.14-.27-.29-.53-.44-.78s-.32-.5-.49-.74-.35-.49-.53-.73-.37-.47-.56-.69-.39-.46-.59-.68-.42-.43-.64-.63-.43-.41-.65-.61-.46-.39-.7-.57-.47-.37-.71-.54l-.75-.5c-.25-.16-.5-.32-.77-.47l-.78-.41-.81-.4-.82-.33-.84-.31-.86-.25-.87-.23-.87-.16c-.3-.06-.6-.1-.89-.14l-.88-.11h-1.25Z"/><path class="cls-2" d="M902,1356.68c0,44-142.67,79.67-318.67,79.67s-318.66-35.67-318.66-79.67c0-21.13,33.57-41.39,93.34-56.33S498.83,1277,583.34,1277s165.57,8.39,225.33,23.33,93.34,35.2,93.34,56.33Z"/><path class="cls-3" d="M492.21,1156.32c-10.66,81-52.83,192.57-86.15,188.18s-45.17-123.07-34.5-204.07S420,1048,444.68,1051.21s58.2,24.12,47.53,105.11Z"/><path class="cls-4" d="M446.89,1034.37a68.92,68.92,0,0,0-55.44,17.29c-17.88,16.24-31.08,43.59-36.73,86.56-5.58,42.37-5.28,93.18.78,135.39,3,21.11,7.4,40,14,55.29s16.29,30.07,34.31,32.44,31.18-9.37,41.55-22.45,19.46-30.18,27.85-49.78c16.79-39.21,30.23-88.21,35.81-130.57,5.65-43,0-72.81-13.08-93.12a69,69,0,0,0-49.08-31.05ZM442.46,1068c8.65,1.14,17.76,4.57,25,15.76s13,32.28,8,70.31c-5.09,38.62-18.06,85.91-33.36,121.64-7.65,17.86-16,32.9-23.25,42-5.43,6.86-9.39,8.89-10.45,9.55-.85-.91-4.15-3.89-7.62-11.93-4.64-10.7-8.81-27.39-11.58-46.62-5.52-38.48-5.81-87.51-.73-126.14,5-38,16-56.9,25.89-65.84s19.53-9.91,28.18-8.77Z"/><path class="cls-3" d="M795.13,1140.44c10.66,81-1.19,199.68-34.51,204.07s-75.49-107.2-86.15-188.19,22.87-101.87,47.54-105.11,62.46,8.23,73.12,89.23Z"/><path class="cls-4" d="M719.79,1034.37a68.94,68.94,0,0,0-49.08,31.05c-13.07,20.31-18.73,50.15-13.08,93.12,5.58,42.37,19,91.37,35.81,130.57,8.39,19.61,17.49,36.71,27.85,49.78s23.52,24.82,41.55,22.45,27.68-17.13,34.31-32.44,11-34.18,14-55.29c6.06-42.21,6.36-93,.79-135.39-5.66-43-18.86-70.32-36.74-86.56a68.91,68.91,0,0,0-55.44-17.29Zm4.43,33.67c8.66-1.14,18.34-.18,28.18,8.77s20.89,27.81,25.89,65.84c5.09,38.63,4.79,87.66-.73,126.14-2.77,19.23-6.95,35.92-11.58,46.62-3.48,8-6.77,11-7.62,11.93-1.06-.66-5-2.69-10.45-9.55-7.25-9.14-15.6-24.18-23.25-42-15.3-35.73-28.27-83-33.35-121.64-5-38,.76-59.13,8-70.31s16.3-14.62,25-15.76Z"/><path class="cls-3" d="M193.27,766.69c-49.73,64.81-142,140.36-168.7,119.9S47,757.42,96.72,692.61s88.2-55.86,107.94-40.71,38.34,50-11.39,114.79Z"/><path class="cls-4" d="M215,638.42a69,69,0,0,0-56.66-12.75c-23.61,5.12-48.71,22.22-75.09,56.6-26,33.9-51.16,78.05-67,117.65C8.31,819.71,2.65,838.24.73,854.81S-.19,889,14.23,900.06s31.69,7.47,47.2,1.33,31.95-16.4,49-29.18c34.14-25.56,70.28-61.28,96.29-95.18,26.39-34.38,36.4-63.06,35.24-87.18a69,69,0,0,0-27-51.43Zm-20.68,27c6.93,5.31,13.09,12.83,13.74,26.12s-4.91,34.44-28.26,64.87c-23.72,30.9-58.6,65.37-89.71,88.66-15.56,11.65-30.31,20.5-41.16,24.79-8.13,3.22-12.57,3-13.82,3-.29-1.21-1.64-5.44-.64-14.14,1.34-11.59,6.07-28.12,13.29-46.17C62.22,776.46,86.48,733.85,110.19,703c23.35-30.43,42.35-41.27,55.35-44.09s21.86,1.19,28.78,6.51Z"/><path class="cls-3" d="M1070,692.61c49.73,64.81,98.81,173.52,72.15,194s-119-55.09-168.7-119.89S942.29,667,962,651.9s58.2-24.1,107.94,40.71Z"/><path class="cls-4" d="M951.69,638.42a69,69,0,0,0-27,51.43c-1.16,24.13,8.85,52.8,35.23,87.18,26,33.9,62.16,69.62,96.3,95.18,17.07,12.78,33.5,23,49,29.18s32.78,9.74,47.2-1.33,15.42-28.67,13.5-45.25-7.57-35.1-15.5-54.89c-15.85-39.59-41-83.75-67-117.65-26.38-34.38-51.49-51.48-75.09-56.6a69,69,0,0,0-56.66,12.75Zm20.67,27c6.93-5.32,15.79-9.33,28.79-6.51s32,13.66,55.35,44.09c23.71,30.9,48,73.52,62.43,109.6,7.22,18,12,34.58,13.29,46.17,1,8.69-.36,12.92-.65,14.13-1.24-.06-5.68.18-13.82-3-10.84-4.29-25.6-13.13-41.15-24.78-31.12-23.3-66-57.76-89.71-88.67-23.35-30.43-28.9-51.58-28.26-64.87s6.81-20.81,13.74-26.12Z"/><path class="cls-4" d="M274.39,295.65c-76.83,0-139.52,62.69-139.52,139.51v617.9c0,76.82,62.69,139.52,139.52,139.52H892.27c76.83,0,139.53-62.7,139.53-139.52V435.16c0-76.82-62.7-139.51-139.53-139.51Zm0,54.34H892.27c47.66,0,85.18,37.52,85.18,85.17v617.9c0,47.65-37.52,85.17-85.18,85.17H274.39c-47.66,0-85.17-37.52-85.17-85.17V435.16c0-47.65,37.51-85.17,85.17-85.17Z"/><path class="cls-3" d="M274.39,322.82H892.28a112.1,112.1,0,0,1,112.34,112.35v617.89A112.1,112.1,0,0,1,892.28,1165.4H274.39A112.1,112.1,0,0,1,162,1053.06V435.17A112.11,112.11,0,0,1,274.39,322.82Z"/><path class="cls-4" d="M274.39,316A119,119,0,0,0,155.25,435.16v617.9a119,119,0,0,0,119.14,119.13H892.27a119,119,0,0,0,119.15-119.13V435.16A119,119,0,0,0,892.27,316Zm0,13.58H892.27A105.18,105.18,0,0,1,997.83,435.16v617.9a105.18,105.18,0,0,1-105.56,105.55H274.39a105.17,105.17,0,0,1-105.55-105.55V435.16A105.17,105.17,0,0,1,274.39,329.61Z"/><path class="cls-5" d="M278,358.84H888.69a79.74,79.74,0,0,1,79.91,79.91v610.72a79.74,79.74,0,0,1-79.91,79.91H278a79.74,79.74,0,0,1-79.91-79.91V438.75A79.74,79.74,0,0,1,278,358.84Z"/><path class="cls-6" d="M305.65,436.66a29.7,29.7,0,0,0-29.77,29.77V629.88h-11a16.68,16.68,0,0,0-16.72,16.71v195a16.68,16.68,0,0,0,16.72,16.72h11v163.45a29.71,29.71,0,0,0,29.77,29.77H861a29.72,29.72,0,0,0,29.79-29.77V858.34h11a16.69,16.69,0,0,0,16.72-16.72v-195a16.68,16.68,0,0,0-16.72-16.71h-11V466.43A29.71,29.71,0,0,0,861,436.66Z"/><path class="cls-6" d="M305.65,436.66H861a29.72,29.72,0,0,1,29.78,29.77v555.36A29.72,29.72,0,0,1,861,1051.56H305.65a29.71,29.71,0,0,1-29.77-29.77V466.43a29.71,29.71,0,0,1,29.77-29.77Z"/><path class="cls-7" d="M305.65,429.86a36.63,36.63,0,0,0-36.56,36.57V623.09h-4.21a23.6,23.6,0,0,0-23.51,23.5v195a23.61,23.61,0,0,0,23.51,23.51h4.21v156.66a36.63,36.63,0,0,0,36.56,36.57H861a36.64,36.64,0,0,0,36.57-36.57V865.13h4.21a23.6,23.6,0,0,0,23.5-23.51v-195a23.6,23.6,0,0,0-23.51-23.5h-4.2V466.43A36.64,36.64,0,0,0,861,429.86Zm0,13.59H861a22.78,22.78,0,0,1,23,23V636.67h17.8a9.75,9.75,0,0,1,9.91,9.92v195a9.74,9.74,0,0,1-9.91,9.92H884v170.25a22.78,22.78,0,0,1-23,23H305.65a22.78,22.78,0,0,1-23-23V851.54H264.88a9.75,9.75,0,0,1-9.93-9.92v-195a9.76,9.76,0,0,1,9.93-9.92h17.79V466.43a22.78,22.78,0,0,1,23-23Z"/><path class="cls-8" d="M332.75,482.38H833.9a11.12,11.12,0,0,1,11.16,11.15V994.69a11.12,11.12,0,0,1-11.16,11.15H332.75a11.13,11.13,0,0,1-11.16-11.15V493.53a11.13,11.13,0,0,1,11.16-11.15Z"/><path class="cls-9" d="M813.68,482.38a11.13,11.13,0,0,1,11.16,11.15V994.69a11.13,11.13,0,0,1-11.16,11.15H833.9a11.13,11.13,0,0,0,11.16-11.15V493.53a11.13,11.13,0,0,0-11.16-11.15Z"/><path class="cls-9" d="M845.06,777,321.59,917.23v77.46a11.14,11.14,0,0,0,11.16,11.16H833.9a11.13,11.13,0,0,0,11.16-11.16Z"/><path class="cls-1" d="M353,482.38a11.13,11.13,0,0,0-11.16,11.15V994.69A11.13,11.13,0,0,0,353,1005.84H332.75a11.13,11.13,0,0,1-11.16-11.15V493.53a11.13,11.13,0,0,1,11.16-11.15Z"/><path class="cls-10" d="M332.75,475.58a18.07,18.07,0,0,0-17.95,17.95V994.68a18.07,18.07,0,0,0,17.95,18H833.9a18.08,18.08,0,0,0,18-18V493.53a18.07,18.07,0,0,0-18-17.95Zm0,13.59H833.9a4.22,4.22,0,0,1,4.37,4.36V994.68a4.22,4.22,0,0,1-4.37,4.37H332.75a4.22,4.22,0,0,1-4.36-4.37V493.53a4.21,4.21,0,0,1,4.36-4.36Z"/><rect class="cls-3" x="491.95" y="339.11" width="182.77" height="39.46"/><rect class="cls-3" x="491.95" y="1109.65" width="182.77" height="39.46"/><path class="cls-11" d="M266.45,1080.29a13,13,0,1,1-3.81-9.18,13,13,0,0,1,3.81,9.18Z"/><path class="cls-11" d="M315.65,380.16a7.58,7.58,0,1,1-2.22-5.35,7.57,7.57,0,0,1,2.22,5.35Z"/><path class="cls-11" d="M341.08,380.16a7.58,7.58,0,1,1-2.22-5.35,7.57,7.57,0,0,1,2.22,5.35Z"/><path class="cls-11" d="M366.51,380.16a7.56,7.56,0,1,1-2.21-5.35,7.56,7.56,0,0,1,2.21,5.35Z"/><path class="cls-11" d="M392,380.16a7.58,7.58,0,1,1-2.22-5.35,7.57,7.57,0,0,1,2.22,5.35Z"/><path class="cls-11" d="M417.38,380.16a7.58,7.58,0,1,1-2.22-5.35,7.57,7.57,0,0,1,2.22,5.35Z"/><path class="cls-11" d="M442.81,380.16a7.58,7.58,0,1,1-2.22-5.35,7.57,7.57,0,0,1,2.22,5.35Z"/><path class="cls-11" d="M328.36,400.91a7.55,7.55,0,1,1-2.21-5.35,7.57,7.57,0,0,1,2.21,5.35Z"/><path class="cls-11" d="M353.8,400.91a7.56,7.56,0,1,1-2.22-5.35,7.57,7.57,0,0,1,2.22,5.35Z"/><path class="cls-11" d="M379.23,400.91a7.56,7.56,0,1,1-2.22-5.35,7.57,7.57,0,0,1,2.22,5.35Z"/><path class="cls-11" d="M404.66,400.91a7.55,7.55,0,1,1-2.21-5.35,7.57,7.57,0,0,1,2.21,5.35Z"/><path class="cls-11" d="M430.09,400.91a7.55,7.55,0,1,1-2.21-5.35,7.57,7.57,0,0,1,2.21,5.35Z"/><path class="cls-1" d="M426.07,995.9a32.73,32.73,0,0,1-32.8-32.8v-37c0-105,85.1-190.07,190.07-190.07s190.08,85.09,190.08,190.07v37a32.73,32.73,0,0,1-32.81,32.8Z"/><path class="cls-12" d="M620.47,995.9l-.07-.08s32.27-62,0-119.21c40.27-63.61,4.83-135.94,4.83-135.94C710,759.76,773.39,835.52,773.39,926.09v37a32.73,32.73,0,0,1-32.8,32.8Z"/><path class="cls-4" d="M713.74,995.9v-.08s37-42.54,0-87.68c42.59-39.57,2.92-117.53,2.92-117.53a189.49,189.49,0,0,1,56.78,135.48v37a32.73,32.73,0,0,1-32.8,32.8Z"/><path class="cls-4" d="M453,995.9v-.08s-37-42.54,0-87.68c-42.59-39.57-2.92-117.53-2.92-117.53a189.49,189.49,0,0,0-56.78,135.48v37a32.73,32.73,0,0,0,32.8,32.8Z"/><path class="cls-4" d="M583.34,729.23c-108.64,0-196.87,88.21-196.87,196.86v37a39.66,39.66,0,0,0,39.6,39.59H740.62a39.66,39.66,0,0,0,39.59-39.59v-37c0-108.65-88.22-196.86-196.87-196.86Zm0,13.58A183.17,183.17,0,0,1,766.62,926.09v37a25.8,25.8,0,0,1-26,26H426.07a25.8,25.8,0,0,1-26-26v-37A183.18,183.18,0,0,1,583.34,742.81Z"/><path class="cls-4" d="M438.94,557.42a69.83,69.83,0,0,1,70,70v35.07a70,70,0,0,1-140,0V627.41a69.84,69.84,0,0,1,70-70Z"/><path class="cls-1" d="M479.68,607.6a22.6,22.6,0,1,1-6.62-16,22.56,22.56,0,0,1,6.62,16Z"/><path class="cls-4" d="M727.74,557.42a69.84,69.84,0,0,0-70,70v57.82h140V627.41a69.83,69.83,0,0,0-70-70Z"/><path class="cls-1" d="M768.48,607.6A22.59,22.59,0,1,1,745.89,585a22.6,22.6,0,0,1,22.59,22.6Z"/><path class="cls-4" d="M565.38,0c-46.67,0-85.1,38.42-85.1,85.1v265h54.35V85.1c0-17.51,13.25-30.75,30.75-30.75H601.3c17.51,0,30.75,13.24,30.75,30.75v265H686.4V85.1C686.4,38.42,648,0,601.3,0Z"/><path class="cls-4" d="M583.34,13.64c-132.59,0-240.65,108.07-240.65,240.65v61.35c0,33.68,28,61.63,61.64,61.63h358c33.67,0,61.63-27.95,61.63-61.63V254.29C824,121.71,715.93,13.64,583.34,13.64Zm0,54.35a185.89,185.89,0,0,1,186.3,186.3v61.35c0,4.51-2.78,7.28-7.28,7.28h-358c-4.51,0-7.29-2.77-7.29-7.28V254.29A185.89,185.89,0,0,1,583.34,68Z"/><path class="cls-4" d="M376.26,242.53c-39.55,0-72.24,32.69-72.24,72.24v4.28c0,85.88,70,155.87,155.87,155.87h246.9c85.88,0,155.87-70,155.87-155.87v-4.28c0-39.55-32.69-72.24-72.23-72.24Zm0,54.35H790.43c10.38,0,17.88,7.51,17.88,17.89v4.28c0,56.71-44.81,101.52-101.52,101.52H459.89c-56.71,0-101.52-44.81-101.52-101.52v-4.28c0-10.38,7.51-17.89,17.89-17.89Z"/><path class="cls-13" d="M376.25,269.71a45,45,0,0,0-45.05,45.06v4.28a128.42,128.42,0,0,0,128.7,128.7H706.79a128.41,128.41,0,0,0,128.69-128.7v-4.28a45,45,0,0,0-45.05-45.06Z"/><path class="cls-4" d="M376.25,262.91a51.89,51.89,0,0,0-51.84,51.86v4.28A135.34,135.34,0,0,0,459.9,454.54H706.79A135.35,135.35,0,0,0,842.28,319.05v-4.28a51.89,51.89,0,0,0-51.85-51.86Zm0,13.59H790.43a38,38,0,0,1,38.26,38.27v4.28A121.48,121.48,0,0,1,706.79,441H459.9A121.49,121.49,0,0,1,338,319.05v-4.28a38,38,0,0,1,38.26-38.27Z"/><path class="cls-13" d="M454.73,378H711.82A84.72,84.72,0,0,0,796.72,293l.09-38.75c0-117.89-95.57-213.47-213.47-213.47S370.07,136.4,369.86,254.29L369.79,293A84.75,84.75,0,0,0,454.72,378Z"/><path class="cls-1" d="M466.5,75.65a213.75,213.75,0,0,0-96.64,178.64L369.79,293a84.69,84.69,0,0,0,39.56,71.83l.06-126c.09-63.06,21.74-120.43,57.09-163.26Z"/><path class="cls-14" d="M648,50.81A57.78,57.78,0,0,1,659.23,85.1V378h52.59A84.72,84.72,0,0,0,796.72,293l.1-38.75C796.82,159,734.31,78.22,648,50.81Z"/><path class="cls-4" d="M583.34,34c-121.57,0-220.06,98.7-220.27,220.26L363,293a91.66,91.66,0,0,0,91.72,91.69h257.1a91.64,91.64,0,0,0,91.7-91.68h0l.09-38.75C803.61,132.72,704.91,34,583.34,34Zm0,13.59A206.58,206.58,0,0,1,790,254.29L789.93,293v0a77.79,77.79,0,0,1-78.11,78.11H454.72a77.81,77.81,0,0,1-78.13-78.1v0l.07-38.74c.2-114.24,92.45-206.69,206.68-206.69Z"/><path class="cls-13" d="M565.38,27.17A57.81,57.81,0,0,0,507.45,85.1v265H659.23V85.1A57.81,57.81,0,0,0,601.3,27.17Z"/><rect class="cls-1" x="531.55" y="74.98" width="13.59" height="281.34"/><path class="cls-4" d="M565.38,20.38A64.73,64.73,0,0,0,500.66,85.1V378h13.59V85.1A50.87,50.87,0,0,1,565.38,34H601.3A50.86,50.86,0,0,1,652.43,85.1V378H666V85.1A64.72,64.72,0,0,0,601.3,20.38Z"/><path class="cls-4" d="M1299,363.15l-11.78,7.16a176.51,176.51,0,0,0-71.25,83l0,0v0a176.39,176.39,0,0,0,8.7,152.25L1061,1000.55c-23.18,56,3.67,120.77,59.63,144s120.77-3.67,143.95-59.62L1428.16,690A176.35,176.35,0,0,0,1542,588.41v-.06a176.5,176.5,0,0,0,8.26-109.07L1547,465.9l-105-43.5-31.86,76.94-38-15.75L1404,406.66Zm5.59,61.14L1333,436.07l-14.6,35.25c-9.39,22.66,1.76,49.57,24.42,59l55,22.8c22.66,9.38,49.57-1.76,59-24.42l14.6-35.25,28.41,11.77a121.45,121.45,0,0,1-97,135.39l-14.23,2.83-174.25,420.67c-12,29-43.93,42.24-73,30.22s-42.23-43.93-30.21-72.94l174.27-420.73-8.06-12.07a121.45,121.45,0,0,1,27.12-164.26Z"/><path class="cls-2" d="M1371.2,539.58A82.83,82.83,0,0,1,1416.13,648l-176.65,426.45A83,83,0,0,1,1086.11,1011L1262.75,584.5a82.83,82.83,0,0,1,108.45-44.92Z"/><path class="cls-4" d="M1181.78,1053.93a21.84,21.84,0,1,1,0-16.7,21.83,21.83,0,0,1,0,16.7Z"/><path class="cls-2" d="M1301.3,393.53a149.32,149.32,0,1,0,222.58,92.2l-67.17-27.82-25,60.35a17.9,17.9,0,0,1-23.45,9.71l-55-22.8a17.9,17.9,0,0,1-9.71-23.45l25-60.35Z"/><path class="cls-1" d="M1456.71,457.91l-25,60.35a17.9,17.9,0,0,1-23.45,9.71l-55-22.8a17.9,17.9,0,0,1-9.71-23.45l3.36-8.13L1231.15,540.4a149.24,149.24,0,0,0,23.68,63.23l-32.93,79.51,305.47-176.37a149.64,149.64,0,0,0-3.48-21Z"/><path class="cls-4" d="M1300.71,385.94l-2.94,1.79a156.12,156.12,0,0,0-63,73.39h0v0a156,156,0,0,0,12.54,143l-167.43,404.22a89.8,89.8,0,0,0,165.92,68.73l167.41-404.17a156,156,0,0,0,110-92.31h0a156,156,0,0,0,7.3-96.47l-.81-3.35L1453,449l-27.6,66.63a11,11,0,0,1-14.57,6l-55-22.8a11,11,0,0,1-6-14.58l27.6-66.63Zm1.32,15.25L1359.62,425l-22.4,54.08a24.84,24.84,0,0,0,13.39,32.33l55.05,22.8A24.83,24.83,0,0,0,1438,520.86l22.41-54.08L1518,490.62a142.51,142.51,0,0,1-7.33,84.78h0a142.48,142.48,0,0,1-103.76,85.14l-3.56.71-170.08,410.62a76.21,76.21,0,0,1-140.81-58.33l170.1-410.67-2-3a142.49,142.49,0,0,1-13.19-133.52v0A142.54,142.54,0,0,1,1302,401.19Z"/><path class="cls-15" d="M1330.55,637.74c-19.66-8.14-40.15.34-48.29,20L1174.73,917.35c-8.14,19.65.34,40.14,20,48.28s40.14-.35,48.28-20L1350.54,686c8.14-19.65-.34-40.14-20-48.28Z"/><path class="cls-4" d="M1333.15,631.46c-22.74-9.42-47.75.94-57.17,23.68L1168.45,914.75c-9.42,22.73.94,47.74,23.68,57.16s47.74-.94,57.16-23.68l107.53-259.61c9.42-22.73-.94-47.74-23.67-57.16ZM1328,644c16.57,6.86,23.18,22.83,16.32,39.4L1236.73,943c-6.86,16.57-22.83,23.19-39.4,16.32S1174.15,936.52,1181,920l107.53-259.61c6.86-16.57,22.84-23.19,39.41-16.32Z"/></g></g></svg>