<svg xmlns="http://www.w3.org/2000/svg" viewBox="0 0 369.31 488.85"><defs><style>.cls-1{isolation:isolate;}.cls-2{fill:#133441;}.cls-3{fill:#45d5da;}.cls-4{mix-blend-mode:soft-light;}.cls-5{fill:#fff;}.cls-6{mix-blend-mode:multiply;}.cls-7{fill:#88dbdb;}.cls-8{mix-blend-mode:overlay;}.cls-9{fill:#c5f0f0;}.cls-10{fill:#73cc14;}.cls-11{fill:#bae3e3;}.cls-12{fill:#e0e0e0;}.cls-13{fill:#ccc;}.cls-14{fill:#a3c7c7;}.cls-15{fill:#b9b9b9;}.cls-16{fill:#231f20;}.cls-17{fill:#eae8e3;}.cls-18{fill:#00111a;}.cls-19{fill:#353b42;}.cls-20{fill:#292e33;}</style></defs><g class="cls-1"><g id="Réteg_2" data-name="Réteg 2"><g id="Layer_1" data-name="Layer 1"><path class="cls-2" d="M322.16,336.39c-10,0-26.74-5.3-39.48-36a4.43,4.43,0,1,1,8.18-3.4c9,21.69,21.67,32.7,34.74,30.23s23.87-17.36,24.2-33.23a4.38,4.38,0,0,1,4.52-4.34,4.43,4.43,0,0,1,4.34,4.52c-.41,20.17-14.21,38.52-31.42,41.76A27.31,27.31,0,0,1,322.16,336.39Z"/><path class="cls-2" d="M355.22,302a10.43,10.43,0,0,1-3.16-.48c-2.49-.8-8.22-3.79-7.63-14.39.48-8.53-.61-11.86-.74-12.23A5.78,5.78,0,0,1,354,269.56c.48.88,1.74,3.74,2.07,10.15a19.22,19.22,0,0,1,5.46,0,9.09,9.09,0,0,1,6.37,3.76c2.13,3.1,1.91,7.15-.58,11.13a16.69,16.69,0,0,1-6.26,5.88A12.59,12.59,0,0,1,355.22,302Zm-11.4-26.84h0Zm0,0h0Zm-.15-.29Z"/><path class="cls-2" d="M36.84,380.62c-17.74,0-34.3-14.86-36.6-33.16-1.08-8.57-.67-37.34,49.69-47.67a4.43,4.43,0,1,1,1.78,8.68c-29,5.94-44.91,20.1-42.68,37.88,1.81,14.41,15,26.07,28.88,25.38a4.43,4.43,0,1,1,.42,8.85C37.83,380.6,37.33,380.62,36.84,380.62Z"/><path class="cls-2" d="M44.17,390a13.33,13.33,0,0,1-4-.6c-5.69-1.81-8.85-7.13-8.45-14.22.52-9.16,5.77-12.21,10.11-12a11,11,0,0,1,7,3.15,13.29,13.29,0,0,1,8.6,5.75,10,10,0,0,1,.14,10.61A16.23,16.23,0,0,1,44.17,390Z"/><path class="cls-2" d="M207.3,488.54H207c-7.51-.5-11.35-3.37-11.77-3.69a4.46,4.46,0,0,1-1.65-4.06l6.76-52.12a4.43,4.43,0,0,1,8.79,1.14l-6.36,49a19.6,19.6,0,0,0,4.82.89,4.43,4.43,0,0,1-.29,8.85Z"/><path class="cls-2" d="M106.31,488.85a4.43,4.43,0,0,1-.8-8.79,46.93,46.93,0,0,0,8.06-2.19c2.34-4.77,8.27-28.42,12.89-49.58a4.43,4.43,0,1,1,8.66,1.89c-11.36,52.07-14.63,54-16.38,55-3.47,2-10.29,3.35-11.63,3.59A4.43,4.43,0,0,1,106.31,488.85Z"/><path class="cls-3" d="M232.88,20.05A17.64,17.64,0,0,0,218,3.23a316.72,316.72,0,0,0-90.27,0,17.65,17.65,0,0,0-14.93,16.82q-.44,9.65-.78,19.3H233.66C233.42,32.92,233.18,26.48,232.88,20.05Z"/><path class="cls-3" d="M232.88,20.05A17.64,17.64,0,0,0,218,3.23a316.72,316.72,0,0,0-90.27,0,17.65,17.65,0,0,0-14.93,16.82q-.44,9.65-.78,19.3H233.66C233.42,32.92,233.18,26.48,232.88,20.05Z"/><g class="cls-4"><path class="cls-5" d="M112.76,24.23A17.66,17.66,0,0,1,127.69,7.41a317.45,317.45,0,0,1,90.27,0,17.65,17.65,0,0,1,14.92,16.82c.23,5,.42,10.08.61,15.12h.17c-.24-6.43-.48-12.87-.78-19.3A17.64,17.64,0,0,0,218,3.23a316.72,316.72,0,0,0-90.27,0,17.65,17.65,0,0,0-14.93,16.82q-.44,9.65-.78,19.3h.17C112.34,34.31,112.53,29.27,112.76,24.23Z"/></g><g class="cls-6"><path class="cls-7" d="M227.3,33.76A15.24,15.24,0,0,0,213.76,19.7a311.74,311.74,0,0,0-81.88,0,15.23,15.23,0,0,0-13.53,14.06c-.27,5.38-.49,10.76-.71,16.14H228C227.79,44.52,227.57,39.14,227.3,33.76Z"/></g><path class="cls-3" d="M264.06,439.51a721.78,721.78,0,0,1-182.48,0c-16.72-2.13-29.36-14.8-30.16-30.16A3340.44,3340.44,0,0,1,51.42,61c.8-15.36,13.44-28,30.16-30.16a721.78,721.78,0,0,1,182.48,0c16.72,2.12,29.37,14.8,30.17,30.16a3340.44,3340.44,0,0,1,0,348.39C293.43,424.71,280.78,437.38,264.06,439.51Z"/><g class="cls-8"><path class="cls-5" d="M294.23,61c-.8-15.36-13.45-28-30.17-30.16a721.78,721.78,0,0,0-182.48,0C64.86,32.92,52.22,45.6,51.41,61a3346,3346,0,0,0,0,348.39c.81,15.36,13.45,28,30.17,30.16a721.78,721.78,0,0,0,182.48,0c16.72-2.13,29.37-14.8,30.17-30.16A3340.44,3340.44,0,0,0,294.23,61Zm-3,345.28c-.78,15.08-13.11,27.53-29.41,29.62a698.8,698.8,0,0,1-177.91,0c-16.3-2.09-28.63-14.54-29.41-29.62a3304,3304,0,0,1,0-342.17C55.24,49,67.57,36.53,83.87,34.45a698.8,698.8,0,0,1,177.91,0c16.3,2.08,28.63,14.54,29.41,29.62A3309.57,3309.57,0,0,1,291.19,406.24Z"/></g><g class="cls-6"><path class="cls-9" d="M59,140.07c-.2-35.81-1.46-64.75,18-83.79S242.63,38,262.6,48.66s22.4,57,22.4,89.89C285,224.62,59.49,225.39,59,140.07Z"/></g><g class="cls-4"><path class="cls-5" d="M294.23,61c-.8-15.36-13.45-28-30.17-30.16a721.78,721.78,0,0,0-182.48,0C64.86,32.92,52.22,45.6,51.41,61c0,.1,0,.2,0,.3,3.18-13,15.39-23.2,30.18-25.08a721.78,721.78,0,0,1,182.48,0c16.23,2.06,28.88,14,30.35,28.76C294.34,63.61,294.3,62.29,294.23,61Z"/></g><g class="cls-8"><g class="cls-4"><path class="cls-5" d="M251.51,422.09a621.4,621.4,0,0,1-157.38,0c-14.41-1.83-25.32-12.79-26-26.06a2889,2889,0,0,1,0-301c.69-13.27,11.6-24.22,26-26.05a621.4,621.4,0,0,1,157.38,0c14.42,1.83,25.32,12.78,26,26.05a2889,2889,0,0,1,0,301C276.83,409.3,265.93,420.26,251.51,422.09Z"/></g></g><path class="cls-10" d="M248,417.29a576.55,576.55,0,0,1-150.32,0c-13.77-1.8-24.18-12.56-24.84-25.61a2924.11,2924.11,0,0,1,0-295.79c.66-13,11.07-23.8,24.84-25.6a576.55,576.55,0,0,1,150.32,0c13.77,1.8,24.19,12.56,24.85,25.6a2924.11,2924.11,0,0,1,0,295.79C272.17,404.73,261.75,415.49,248,417.29Z"/><g class="cls-6"><path class="cls-11" d="M243.78,409.89c-29.06,7.16-111.51,8.93-140.37,1.6-10.12-2.57-60.36-32.25,68.39-32.43C285.87,378.9,268.5,403.81,243.78,409.89Z"/></g><g class="cls-4"><path class="cls-12" d="M107.65,352a14.1,14.1,0,1,0-14.1-14.1A14.1,14.1,0,0,0,107.65,352Z"/><path class="cls-12" d="M104.15,386.09a10.33,10.33,0,1,0,10.33-10.33A10.33,10.33,0,0,0,104.15,386.09Z"/><path class="cls-12" d="M225.22,119.6a8.87,8.87,0,1,0-8.87-8.87A8.87,8.87,0,0,0,225.22,119.6Z"/><path class="cls-12" d="M113.91,116.4a5.38,5.38,0,1,0-5.39-5.38A5.38,5.38,0,0,0,113.91,116.4Z"/><path class="cls-12" d="M242.91,167.19a5.39,5.39,0,1,0-5.39-5.39A5.38,5.38,0,0,0,242.91,167.19Z"/><path class="cls-12" d="M243.52,368.94a5.38,5.38,0,1,0,5.38,5.38A5.38,5.38,0,0,0,243.52,368.94Z"/><path class="cls-12" d="M153.43,365.94a8,8,0,1,0-8.05-8A8,8,0,0,0,153.43,365.94Z"/></g><g class="cls-8"><path class="cls-13" d="M68.12,100.54c.69-13.27,11.6-24.22,26-26.05a621.4,621.4,0,0,1,157.38,0c14.42,1.83,25.32,12.78,26,26.05q3.86,73.87,3.91,147.75.06-76.62-3.91-153.25c-.69-13.27-11.59-24.22-26-26.05A621.4,621.4,0,0,0,94.13,69C79.72,70.82,68.81,81.77,68.12,95q-4,76.64-3.9,153.25Q64.29,174.42,68.12,100.54Z"/></g><path class="cls-5" d="M127.93,18.42c-2.9,2.44-6.5,2.92-8,1.08s-.44-5.3,2.46-7.74,6.5-2.91,8-1.07S130.83,16,127.93,18.42Z"/><ellipse class="cls-5" cx="85.25" cy="63.97" rx="23.68" ry="15.45" transform="translate(-20.68 75.73) rotate(-43.22)"/><g class="cls-6"><path class="cls-14" d="M186,98.08c-2.58-1.82-43.37,26.78-41,32.33s21.69-2.23,23.88,0-16.18,26-13.87,29.27,42-35.75,40.29-39.62-20.55,3.87-21.87,0S188.55,99.91,186,98.08Z"/></g><path class="cls-5" d="M199,277.44c-3.09-3.36-9.83-.45-20.23-.45s-17.37-2.84-20.36.45a6.85,6.85,0,0,0-1.52,5.62,10.7,10.7,0,0,0,.26,1.35c1.58,6.1,8.71,9.4,20.44,9.82l1.1,0a31.37,31.37,0,0,0,5.89-.54c9.32-1.76,15.17-3.95,16.23-9.36A9.29,9.29,0,0,0,201,283,7.53,7.53,0,0,0,199,277.44Z"/><g class="cls-6"><path class="cls-15" d="M178.82,278.48c19.51,0,24.46-.91,17.74,5.61,2-.43,3.45-.82,4.42-1.11a7.53,7.53,0,0,0-2-5.54c-3.09-3.36-9.83-.45-20.23-.45s-17.37-2.84-20.36.45a6.85,6.85,0,0,0-1.52,5.62c.81.24,1.91.53,3.31.85C152,274.58,168.82,278.48,178.82,278.48Z"/></g><g class="cls-6"><path class="cls-15" d="M161.06,284.88c-1.24-.1-2.57-.25-3.9-.47,1.58,6.1,8.71,9.4,20.44,9.82C161.6,292.42,161,286.79,161.06,284.88Z"/></g><g class="cls-6"><path class="cls-15" d="M200.82,284.35a55.09,55.09,0,0,1-5.48.62c4.82,5.48-3.22,6.29-10.75,8.74C193.91,292,199.76,289.76,200.82,284.35Z"/></g><path class="cls-16" d="M196.56,284.09c-1.55.33-3.42.69-5.63,1,0,0,1.88,0,4.41-.16-.12-.14-.24-.27-.38-.41A4.72,4.72,0,0,0,196.56,284.09Z"/><path class="cls-16" d="M195,284.56c.14.14.26.27.38.41a55.09,55.09,0,0,0,5.48-.62A9.29,9.29,0,0,0,201,283c-1,.29-2.44.68-4.42,1.11A4.72,4.72,0,0,1,195,284.56Z"/><path class="cls-16" d="M161.06,284.88c3.11.26,5.6.25,5.6.25-2.62-.41-4.75-.84-6.45-1.22a5.21,5.21,0,0,0,.87.62S161.07,284.66,161.06,284.88Z"/><path class="cls-16" d="M161.08,284.53a5.21,5.21,0,0,1-.87-.62c-1.4-.32-2.5-.61-3.31-.85a10.7,10.7,0,0,0,.26,1.35c1.33.22,2.66.37,3.9.47C161.07,284.66,161.08,284.53,161.08,284.53Z"/><g class="cls-6"><path class="cls-17" d="M203.06,274.8a5,5,0,0,1,2.37,4.85S209.16,274.46,203.06,274.8Z"/></g><g class="cls-6"><path class="cls-17" d="M154.75,274.8a5,5,0,0,0-2.37,4.85S148.65,274.46,154.75,274.8Z"/></g><path class="cls-18" d="M336.45,193.75c-1.35,1.83-5.88,4.37-9.23,6.09.12,1.39.23,8.77.23,10.27,0,27.32,3.32,76.08-66,76.08-47.63,0-68.45-34.25-71.91-67.95h-.18s-1.88-9.93-10.42-9.93-10.43,9.93-10.43,9.93h-.18c-3.46,33.7-24.28,67.95-71.91,67.95-69.35,0-66-48.76-66-76.08,0-1.5.1-8.88.22-10.27-3.34-1.72-7.87-4.26-9.22-6.09-2.09-2.81-2.71-7.94-1.41-8.69,4.58-2.68,16.24-8.17,33.37-11.79,17.61-3.73,60.38-6,98.75,4.47,11.95,3.26,41.19,3.45,53.65,0,38.28-10.59,81.15-8.2,98.75-4.47,17.13,3.62,28.79,9.11,33.37,11.79C339.15,185.81,338.53,190.94,336.45,193.75Z"/><path class="cls-19" d="M158.3,211.23c0-20.17-21.63-30.16-59.45-30.16S41,187.66,41,213c0,23.15-2.81,64.46,55.93,64.46C141.36,277.5,158.3,242.25,158.3,211.23Z"/><path class="cls-19" d="M316.86,213c0-25.38-20.06-32-57.9-32s-59.45,10-59.45,30.16c0,31,17,66.27,61.42,66.27C319.68,277.5,316.86,236.19,316.86,213Z"/><path class="cls-20" d="M144.7,224.59c-8-12.77-21.52-2.15-38.58,8.5s-31.18,17.32-23.21,30.09,28.27,14.48,45.33,3.83S152.67,237.36,144.7,224.59Z"/><path class="cls-20" d="M308.56,224.59c8,12.77.61,31.76-16.45,42.42s-37.36,8.94-45.34-3.83,6.15-19.43,23.21-30.09S300.59,211.82,308.56,224.59Z"/><path class="cls-5" d="M56.06,193.92c3.81.2,3.15,7.59,1.94,16.06s-2.5,14.83-6.31,14.63-5.93-7.23-4.73-15.7S52.24,193.72,56.06,193.92Z"/><path class="cls-5" d="M56.86,238.58c.52,3.4-.92,6.44-3.22,6.79s-4.59-2.12-5.11-5.52.92-6.44,3.22-6.79S56.33,235.18,56.86,238.58Z"/><path class="cls-5" d="M218.79,193c3.81.2,3.15,7.59,1.94,16.07s-2.5,14.82-6.31,14.62-5.94-7.23-4.73-15.7S215,192.77,218.79,193Z"/><path class="cls-5" d="M219.58,237.62c.52,3.4-.92,6.44-3.21,6.79s-4.59-2.12-5.11-5.52.92-6.44,3.22-6.79S219.06,234.22,219.58,237.62Z"/></g></g></g></svg>