<svg xmlns="http://www.w3.org/2000/svg" viewBox="0 0 334.72 496.05"><defs><style>.cls-1{isolation:isolate;}.cls-2{fill:#133441;}.cls-3{fill:#45d5da;}.cls-4{mix-blend-mode:soft-light;}.cls-5{fill:#fff;}.cls-6{mix-blend-mode:multiply;}.cls-7{fill:#88dbdb;}.cls-8{mix-blend-mode:overlay;}.cls-9{fill:#c5f0f0;}.cls-10{fill:#73cc14;}.cls-11{fill:#bae3e3;}.cls-12{fill:#e0e0e0;}.cls-13{fill:#ccc;}.cls-14{fill:#a3c7c7;}.cls-15{fill:#ee927e;}</style></defs><g class="cls-1"><g id="Réteg_2" data-name="Réteg 2"><g id="Layer_1" data-name="Layer 1"><path class="cls-2" d="M29.72,421.47a4.26,4.26,0,0,1-.5,0C12,419.53-.54,402.76,0,382.45.54,363.25,14.19,340.1,50.91,338a4.43,4.43,0,1,1,.5,8.84c-30.68,1.73-42.09,19.63-42.53,35.81-.37,13.33,7,28.35,21.33,29.95a4.43,4.43,0,0,1-.49,8.83Z"/><path class="cls-2" d="M33.51,431.64a13.39,13.39,0,0,1-3.83-1.22c-5.34-2.69-7.62-8.43-6.11-15.37,2-9,7.6-11.16,11.88-10.3A11,11,0,0,1,41.84,409a13.3,13.3,0,0,1,7.59,7,10,10,0,0,1-1.54,10.5A16.22,16.22,0,0,1,33.51,431.64Z"/><path class="cls-2" d="M211.79,496.05h-.3c-7.5-.5-11.35-3.36-11.76-3.69a4.44,4.44,0,0,1-1.69-3.68l2.33-52.12a4.43,4.43,0,1,1,8.85.39L207,486.22a19,19,0,0,0,5.06,1,4.43,4.43,0,0,1-.29,8.85Z"/><path class="cls-2" d="M123.86,496.05a4.43,4.43,0,0,1-.29-8.85,18.64,18.64,0,0,0,5.06-1l-2.2-49.28a4.43,4.43,0,1,1,8.85-.39l2.33,52.12a4.44,4.44,0,0,1-1.69,3.68c-.41.33-4.26,3.19-11.77,3.69Z"/><path class="cls-2" d="M302.25,343.08a46.9,46.9,0,0,1-18.67-4.23,4.43,4.43,0,0,1,3.53-8.13c14.27,6.2,27,4,34.06-5.77,6.34-8.82,7.2-23.94-3.44-35.77a4.43,4.43,0,1,1,6.59-5.93c12.16,13.52,13.86,33.24,4,46.88A31.58,31.58,0,0,1,302.25,343.08Z"/><path class="cls-2" d="M323.39,293.69a11.74,11.74,0,0,1-2.89.63l-.26.09c-2.76.87-11.16,3.54-13.73-2.85-.9-2.23-.74-5.31.22-8.31-1-1.66-1.92-2.41-2.28-2.5a2.37,2.37,0,0,0-.45.21,5.77,5.77,0,0,1-5.61-10.08,11.8,11.8,0,0,1,9.89-1,14.17,14.17,0,0,1,5.72,3.94,11.93,11.93,0,0,1,10.51-.26,9.6,9.6,0,0,1,5.95,8c.42,4.07-1.59,8.75-4.67,10.89A9.86,9.86,0,0,1,323.39,293.69Z"/><path class="cls-3" d="M227.88,20.05A17.63,17.63,0,0,0,213,3.23a316.72,316.72,0,0,0-90.27,0,17.63,17.63,0,0,0-14.92,16.82c-.3,6.43-.55,12.87-.79,19.3H228.66Q228.32,29.71,227.88,20.05Z"/><path class="cls-3" d="M227.88,20.05A17.63,17.63,0,0,0,213,3.23a316.72,316.72,0,0,0-90.27,0,17.63,17.63,0,0,0-14.92,16.82c-.3,6.43-.55,12.87-.79,19.3H228.66Q228.32,29.71,227.88,20.05Z"/><g class="cls-4"><path class="cls-5" d="M107.77,24.23A17.64,17.64,0,0,1,122.69,7.41a317.45,317.45,0,0,1,90.27,0,17.64,17.64,0,0,1,14.92,16.82c.24,5,.42,10.08.62,15.12h.16q-.34-9.64-.78-19.3A17.63,17.63,0,0,0,213,3.23a316.72,316.72,0,0,0-90.27,0,17.63,17.63,0,0,0-14.92,16.82c-.3,6.43-.55,12.87-.79,19.3h.17C107.35,34.31,107.53,29.27,107.77,24.23Z"/></g><g class="cls-6"><path class="cls-7" d="M222.3,33.76A15.23,15.23,0,0,0,208.76,19.7a311.66,311.66,0,0,0-81.87,0,15.23,15.23,0,0,0-13.54,14.06c-.27,5.38-.49,10.76-.71,16.14H223C222.79,44.52,222.57,39.14,222.3,33.76Z"/></g><path class="cls-3" d="M259.07,439.51a721.86,721.86,0,0,1-182.49,0c-16.71-2.13-29.36-14.8-30.16-30.16A3340.44,3340.44,0,0,1,46.42,61c.8-15.36,13.45-28,30.16-30.16a721.86,721.86,0,0,1,182.49,0c16.71,2.12,29.36,14.8,30.16,30.16a3340.44,3340.44,0,0,1,0,348.39C288.43,424.71,275.78,437.38,259.07,439.51Z"/><g class="cls-8"><path class="cls-5" d="M289.23,61c-.8-15.36-13.45-28-30.16-30.16a721.86,721.86,0,0,0-182.49,0C59.87,32.92,47.22,45.6,46.42,61a3340.44,3340.44,0,0,0,0,348.39c.8,15.36,13.45,28,30.16,30.16a721.86,721.86,0,0,0,182.49,0c16.71-2.13,29.36-14.8,30.16-30.16A3340.44,3340.44,0,0,0,289.23,61Zm-3,345.28c-.78,15.08-13.11,27.53-29.41,29.62a698.8,698.8,0,0,1-177.91,0c-16.3-2.09-28.63-14.54-29.41-29.62a3304,3304,0,0,1,0-342.17C50.24,49,62.57,36.53,78.87,34.45a698.8,698.8,0,0,1,177.91,0c16.3,2.08,28.63,14.54,29.41,29.62A3304,3304,0,0,1,286.19,406.24Z"/></g><g class="cls-6"><path class="cls-9" d="M54,140.07c-.21-35.81-1.46-64.75,18-83.79S237.63,38,257.6,48.66s22.41,57,22.41,89.89C280,224.62,54.49,225.39,54,140.07Z"/></g><g class="cls-4"><path class="cls-5" d="M289.23,61c-.8-15.36-13.45-28-30.16-30.16a721.86,721.86,0,0,0-182.49,0C59.87,32.92,47.22,45.6,46.42,61c0,.1,0,.2,0,.3,3.18-13,15.39-23.2,30.18-25.08a721.86,721.86,0,0,1,182.49,0c16.22,2.06,28.87,14,30.34,28.76C289.35,63.61,289.3,62.29,289.23,61Z"/></g><g class="cls-8"><g class="cls-4"><path class="cls-5" d="M246.51,422.09a621.32,621.32,0,0,1-157.37,0c-14.42-1.83-25.33-12.79-26-26.06a2894.52,2894.52,0,0,1,0-301c.69-13.27,11.6-24.22,26-26.05a621.32,621.32,0,0,1,157.37,0c14.42,1.83,25.33,12.78,26,26.05a2894.52,2894.52,0,0,1,0,301C271.84,409.3,260.93,420.26,246.51,422.09Z"/></g></g><path class="cls-10" d="M243,417.29a576.47,576.47,0,0,1-150.31,0c-13.77-1.8-24.19-12.56-24.85-25.61a2924.11,2924.11,0,0,1,0-295.79c.66-13,11.08-23.8,24.85-25.6a576.47,576.47,0,0,1,150.31,0c13.77,1.8,24.19,12.56,24.85,25.6a2924.11,2924.11,0,0,1,0,295.79C267.17,404.73,256.75,415.49,243,417.29Z"/><g class="cls-6"><path class="cls-11" d="M238.78,409.89c-29.05,7.16-111.51,8.93-140.37,1.6-10.12-2.57-60.36-32.25,68.39-32.43C280.88,378.9,263.5,403.81,238.78,409.89Z"/></g><g class="cls-4"><path class="cls-12" d="M116.75,337.92a14.1,14.1,0,1,0-14.1,14.1A14.1,14.1,0,0,0,116.75,337.92Z"/><path class="cls-12" d="M109.48,375.76a10.33,10.33,0,1,0,10.33,10.33A10.33,10.33,0,0,0,109.48,375.76Z"/><path class="cls-12" d="M220.22,101.86a8.87,8.87,0,1,0,8.87,8.87A8.87,8.87,0,0,0,220.22,101.86Z"/><path class="cls-12" d="M103.52,111a5.39,5.39,0,1,0,5.39-5.39A5.38,5.38,0,0,0,103.52,111Z"/><path class="cls-12" d="M237.91,167.19a5.39,5.39,0,1,0-5.39-5.39A5.38,5.38,0,0,0,237.91,167.19Z"/><path class="cls-12" d="M238.52,368.94a5.38,5.38,0,1,0,5.38,5.38A5.39,5.39,0,0,0,238.52,368.94Z"/><path class="cls-12" d="M148.43,349.85a8,8,0,1,0,8,8A8.05,8.05,0,0,0,148.43,349.85Z"/></g><g class="cls-8"><path class="cls-13" d="M63.12,100.54c.69-13.27,11.6-24.22,26-26.05a621.32,621.32,0,0,1,157.37,0c14.42,1.83,25.33,12.78,26,26.05q3.84,73.87,3.9,147.75.07-76.62-3.9-153.25c-.69-13.27-11.6-24.22-26-26.05A621.32,621.32,0,0,0,89.14,69C74.72,70.82,63.81,81.77,63.12,95q-4,76.64-3.9,153.25Q59.3,174.42,63.12,100.54Z"/></g><path class="cls-5" d="M122.93,18.42c-2.9,2.44-6.49,2.92-8,1.08s-.45-5.3,2.45-7.74,6.5-2.91,8-1.07S125.83,16,122.93,18.42Z"/><ellipse class="cls-5" cx="80.26" cy="63.97" rx="23.68" ry="15.45" transform="translate(-22.04 72.31) rotate(-43.22)"/><g class="cls-6"><path class="cls-14" d="M181,98.08c-2.58-1.82-43.38,26.78-41,32.33s21.69-2.23,23.87,0-16.18,26-13.87,29.27,42-35.75,40.29-39.62-20.55,3.87-21.86,0S183.56,99.91,181,98.08Z"/></g><ellipse class="cls-5" cx="99.96" cy="256.16" rx="32.15" ry="32.19" transform="translate(-157.27 353.33) rotate(-89.38)"/><path class="cls-2" d="M122.09,255.2a22.18,22.18,0,1,0-21.19,23.08A22.17,22.17,0,0,0,122.09,255.2Zm-24.87-1.32c-3.43,3.9-8.83,4.75-12.07,1.91s-3.08-8.31.35-12.2,8.84-4.75,12.07-1.91S100.65,250,97.22,253.88Zm17.07,14.73c-2,2.26-5.12,2.75-7,1.11s-1.78-4.81.21-7.06,5.11-2.75,7-1.11S116.27,266.36,114.29,268.61Z"/><ellipse class="cls-5" cx="238.44" cy="256.16" rx="32.15" ry="32.19" transform="translate(-20.54 491.53) rotate(-89.32)"/><path class="cls-2" d="M260.57,255.2a22.18,22.18,0,1,0-21.19,23.08A22.17,22.17,0,0,0,260.57,255.2ZM236,252.59c-3.9,3.43-9.36,3.6-12.22.37s-2-8.63,1.88-12.06,9.37-3.6,12.22-.37S239.9,249.15,236,252.59Zm18.25,15.22c-2,2.26-5.11,2.75-7,1.1s-1.78-4.8.21-7.05,5.11-2.75,7-1.11S256.24,265.56,254.26,267.81Z"/><path class="cls-2" d="M215,195.6c-.75,5.65,9.17,9,20.28,10.18,10,1.1,19.55,3.06,21.84-4.15C261.85,186.78,217.28,178.61,215,195.6Z"/><path class="cls-2" d="M81.21,201.49c2.24,7.23,11.85,5.33,21.81,4.3,11.12-1.15,21.06-4.39,20.35-10C121.23,178.74,76.61,186.61,81.21,201.49Z"/><ellipse class="cls-15" cx="259.07" cy="296.79" rx="13.98" ry="7.48"/><ellipse class="cls-15" cx="76.58" cy="296.79" rx="13.98" ry="7.48"/><path class="cls-2" d="M186.81,285.25c-2-7.84-10.86-11.42-18.27-11.82-6.07-.33-21.25,3-20.17,11.63.18,1.45,1.48,3.06,3.18,2.42,2.91-1.1,4-3.9,6.67-5.54a18,18,0,0,1,9.72-2.4c6.07.07,12.52,2.26,16.41,7.14,1,1.21,2.8-.12,2.46-1.43Z"/></g></g></g></svg>