<svg xmlns="http://www.w3.org/2000/svg" viewBox="0 0 411.51 486.86"><defs><style>.cls-1{isolation:isolate;}.cls-2{fill:#133441;}.cls-3{fill:#45d5da;}.cls-4{mix-blend-mode:soft-light;}.cls-5{fill:#fff;}.cls-6{mix-blend-mode:multiply;}.cls-7{fill:#88dbdb;}.cls-8{mix-blend-mode:overlay;}.cls-9{fill:#c5f0f0;}.cls-10{fill:#73cc14;}.cls-11{fill:#bae3e3;}.cls-12{fill:#e0e0e0;}.cls-13{fill:#ccc;}.cls-14{fill:#a3c7c7;}.cls-15{fill:#ab1700;}.cls-16{fill:#fd6c6c;}.cls-17{fill:#ee927e;}</style></defs><g class="cls-1"><g id="Réteg_2" data-name="Réteg 2"><g id="Layer_1" data-name="Layer 1"><path class="cls-2" d="M231.09,486.86a4.42,4.42,0,0,1-4.42-4.18,40.36,40.36,0,0,1,.94-11.27,4.42,4.42,0,0,1,4.72-3.29c11.08,1.08,24.55-.36,26-3.93.74-1.82-1.67-7.85-15.42-18.89a4.43,4.43,0,0,1,5.55-6.91c15.4,12.37,21.14,21.64,18.07,29.16-4,9.75-21.43,10.22-30.92,9.7a32.47,32.47,0,0,0-.1,4.94,4.44,4.44,0,0,1-4.19,4.67Z"/><path class="cls-2" d="M86.15,473.81a4.46,4.46,0,0,1-2.36-.68,40,40,0,0,1-8.39-7.59,4.43,4.43,0,1,1,6.8-5.69c.41.49.83,1,1.24,1.4,3.69-11.94,15-33.54,49.12-35a4.43,4.43,0,1,1,.38,8.85c-39.27,1.71-42.26,33.31-42.37,34.66a4.4,4.4,0,0,1-4.42,4.07Z"/><path class="cls-2" d="M316.7,318.75a4.43,4.43,0,0,1-2.14-8.31c51.29-28.2,70.79-36.67,71.6-37a4.43,4.43,0,0,1,3.51,8.14c-.2.08-20,8.71-70.84,36.64A4.45,4.45,0,0,1,316.7,318.75Z"/><path class="cls-2" d="M406.39,284.43h0l-.45-.15a35,35,0,0,1-5.89-2.79c2.06-.56,4-1.22,5.53-1.78,1.91-.7,3.19-1.25,3.25-1.28a4.43,4.43,0,0,0-3.51-8.14h0c-.08,0-2.82,1.21-6,2.18-1.22.38-2.49.72-3.66,1l.32-.26a49.82,49.82,0,0,1,5.11-3.44c.76-.46,1.42-.82,1.87-1.08l.53-.28.13-.07h0a4.43,4.43,0,1,0-4.08-7.86h0a71.47,71.47,0,0,0-6.51,3.92c-1,.67-2,1.4-2.95,2.19,0-.33-.07-.66-.1-1a18.42,18.42,0,0,1,.36-5.33c0-.19.08-.33.1-.41l0-.06h0a4.43,4.43,0,0,0-8.41-2.76h0c0,.12-.18.55-.34,1.25a27.46,27.46,0,0,0-.56,7.94A30.67,30.67,0,0,0,385,278.83a1.1,1.1,0,0,0,.09.14,4.78,4.78,0,0,0,.38.61,25.29,25.29,0,0,0,5,5.87,38,38,0,0,0,8.86,5.66,34.75,34.75,0,0,0,4.49,1.79,4.43,4.43,0,0,0,2.6-8.47Z"/><path class="cls-2" d="M88.36,299.75a4.44,4.44,0,0,1-2.65-.88c-46.4-34.77-64.83-46.09-65-46.2a4.43,4.43,0,0,1,4.62-7.57c.74.46,18.87,11.58,65.71,46.68a4.43,4.43,0,0,1-2.66,8Z"/><path class="cls-2" d="M26.48,225.86A4.44,4.44,0,0,0,22.91,231h0a14.81,14.81,0,0,1,0,3.55,21.13,21.13,0,0,1-.58,3.19l-.12-.12a56.11,56.11,0,0,0-5.55-5.06c-1.62-1.31-2.79-2.15-2.84-2.18a4.43,4.43,0,0,0-5.15,7.21h0a61.19,61.19,0,0,1,5.49,4.5c.6.56,1.18,1.14,1.71,1.71l-.12,0a53.41,53.41,0,0,1-6.12-2.81c-.87-.46-1.6-.87-2.11-1.17L7,239.43l-.15-.08,0,0h0a4.43,4.43,0,0,0-4.61,7.57c.07.05,2.39,1.46,5.47,3,.87.43,1.81.87,2.78,1.28-1.13.48-2.23.87-3.19,1.17s-2,.55-2.6.68l-.7.15-.16,0h0a4.43,4.43,0,1,0,1.39,8.75,39.94,39.94,0,0,0,7.61-2.15,36.05,36.05,0,0,0,6.65-3.35,25.41,25.41,0,0,0,5.67-5,6.7,6.7,0,0,0,.64-.77l0,0a31.14,31.14,0,0,0,4.44-8.21,29.6,29.6,0,0,0,1.58-7,22.91,22.91,0,0,0-.1-6A4.44,4.44,0,0,0,26.48,225.86ZM22.92,231Z"/><path class="cls-3" d="M283.12,25.27A17.64,17.64,0,0,0,269.47,7.4a316.94,316.94,0,0,0-90-6.64,17.63,17.63,0,0,0-16.12,15.67c-.77,6.4-1.49,12.8-2.2,19.19l121.35,9C282.71,38.14,282.94,31.71,283.12,25.27Z"/><path class="cls-3" d="M283.12,25.27A17.64,17.64,0,0,0,269.47,7.4a316.94,316.94,0,0,0-90-6.64,17.63,17.63,0,0,0-16.12,15.67c-.77,6.4-1.49,12.8-2.2,19.19l121.35,9C282.71,38.14,282.94,31.71,283.12,25.27Z"/><g class="cls-4"><path class="cls-5" d="M163,20.61A17.63,17.63,0,0,1,179.14,4.93a317,317,0,0,1,90,6.64,17.63,17.63,0,0,1,13.64,17.87c-.14,5-.32,10.08-.5,15.12h.17c.23-6.43.46-12.86.64-19.3A17.64,17.64,0,0,0,269.47,7.4a316.94,316.94,0,0,0-90-6.64,17.63,17.63,0,0,0-16.12,15.67c-.77,6.4-1.49,12.8-2.2,19.19l.17,0C161.86,30.63,162.42,25.61,163,20.61Z"/></g><g class="cls-6"><path class="cls-7" d="M276.54,38.53a15.25,15.25,0,0,0-12.46-15,312.23,312.23,0,0,0-81.66-6,15.24,15.24,0,0,0-14.53,13c-.67,5.35-1.29,10.69-1.9,16l110.07,8.12C276.24,49.3,276.41,43.92,276.54,38.53Z"/></g><path class="cls-3" d="M283.37,445.88a721.68,721.68,0,0,1-182-13.42c-16.52-3.35-28.2-16.92-27.87-32.3A3342.31,3342.31,0,0,1,99.13,52.72c1.93-15.26,15.48-27,32.31-27.86a722.21,722.21,0,0,1,182,13.42c16.51,3.35,28.19,16.92,27.86,32.3A3342.31,3342.31,0,0,1,315.67,418C313.74,433.28,300.19,445,283.37,445.88Z"/><g class="cls-8"><path class="cls-5" d="M341.29,70.58c.33-15.38-11.35-28.95-27.86-32.3a722.21,722.21,0,0,0-182-13.42c-16.83.89-30.38,12.6-32.31,27.86A3342.31,3342.31,0,0,0,73.51,400.16c-.33,15.38,11.35,28.95,27.87,32.3a721.68,721.68,0,0,0,182,13.42c16.82-.88,30.37-12.6,32.3-27.86A3342.31,3342.31,0,0,0,341.29,70.58ZM312.86,414.7c-1.89,15-15.1,26.49-31.51,27.37A698.78,698.78,0,0,1,103.92,429c-16.1-3.28-27.48-16.6-27.15-31.71A3305.93,3305.93,0,0,1,101.94,56.05c1.89-15,15.1-26.5,31.51-27.38A698.78,698.78,0,0,1,310.88,41.75C327,45,338.36,58.36,338,73.46A3306.13,3306.13,0,0,1,312.86,414.7Z"/></g><g class="cls-6"><path class="cls-9" d="M100.89,132.18c2.43-35.73,3.3-64.68,24.13-82.24s166.5-6,185.63,6.05,18.15,58.49,15.73,91.29C320.05,233.12,95.1,217.29,100.89,132.18Z"/></g><g class="cls-4"><path class="cls-5" d="M341.29,70.58c.33-15.38-11.35-28.95-27.86-32.3a722.21,722.21,0,0,0-182-13.42c-16.83.89-30.38,12.6-32.31,27.86l0,.3c4.12-12.71,17.05-22,31.94-22.79A721.75,721.75,0,0,1,313,43.65c16,3.25,27.77,16.1,28.15,30.91C341.21,73.24,341.26,71.91,341.29,70.58Z"/></g><g class="cls-8"><g class="cls-4"><path class="cls-5" d="M272.13,427.59A621.52,621.52,0,0,1,115.18,416c-14.25-2.89-24.32-14.62-24-27.9A2892.29,2892.29,0,0,1,113.29,87.94c1.66-13.18,13.34-23.3,27.86-24.07a621.09,621.09,0,0,1,157,11.57c14.24,2.89,24.31,14.62,24,27.9A2892.29,2892.29,0,0,1,300,403.52C298.32,416.7,286.64,426.82,272.13,427.59Z"/></g></g><path class="cls-10" d="M269,422.54a576.73,576.73,0,0,1-149.91-11.05c-13.6-2.81-23.2-14.31-22.9-27.37a2925.3,2925.3,0,0,1,21.76-295c1.62-12.95,12.8-22.92,26.66-23.71A577.17,577.17,0,0,1,294.48,76.48c13.6,2.81,23.2,14.31,22.9,27.37a2924.89,2924.89,0,0,1-21.76,295C294,411.79,282.82,421.76,269,422.54Z"/><g class="cls-6"><path class="cls-11" d="M265.32,414.86c-29.51,5-111.87.7-140.11-8.74-9.9-3.3-57.83-36.6,70.59-27.31C309.57,387.05,290.41,410.61,265.32,414.86Z"/></g><g class="cls-4"><path class="cls-12" d="M135.88,319a14.1,14.1,0,1,0,13,15.09A14.1,14.1,0,0,0,135.88,319Z"/><path class="cls-12" d="M138.87,371.3a10.33,10.33,0,1,0,9.55,11.06A10.33,10.33,0,0,0,138.87,371.3Z"/><path class="cls-12" d="M269.46,106.29a8.87,8.87,0,1,0,8.2,9.5A8.87,8.87,0,0,0,269.46,106.29Z"/><path class="cls-12" d="M163.14,107.64a5.38,5.38,0,1,0-5.76,5A5.39,5.39,0,0,0,163.14,107.64Z"/><path class="cls-12" d="M283.09,162a5.38,5.38,0,1,0,5,5.77A5.39,5.39,0,0,0,283.09,162Z"/><path class="cls-12" d="M268.06,374a5.38,5.38,0,1,0,5,5.77A5.38,5.38,0,0,0,268.06,374Z"/><path class="cls-12" d="M179.62,348.33a8,8,0,1,0,7.44,8.62A8,8,0,0,0,179.62,348.33Z"/></g><g class="cls-8"><path class="cls-13" d="M112.88,93.43c1.67-13.19,13.35-23.31,27.86-24.08a621.53,621.53,0,0,1,157,11.58c14.25,2.89,24.32,14.61,24,27.9q-1.59,73.95-7,147.63,5.72-76.41,7.39-153.12c.28-13.28-9.79-25-24-27.9a621.09,621.09,0,0,0-157-11.57c-14.52.77-26.2,10.89-27.86,24.07q-9.62,76.13-15.16,152.54Q103.62,166.82,112.88,93.43Z"/></g><path class="cls-5" d="M178.57,15.93c-3.07,2.21-6.69,2.43-8.09.48s0-5.32,3-7.53,6.69-2.43,8.09-.49S181.64,13.71,178.57,15.93Z"/><ellipse class="cls-5" cx="132.66" cy="58.21" rx="23.68" ry="15.45" transform="translate(-7.07 96.45) rotate(-39)"/><g class="cls-6"><path class="cls-14" d="M230.6,99.64c-2.44-2-45.23,23.51-43.29,29.22s21.8-.63,23.81,1.76-18,24.7-16,28.17,44.55-32.56,43.09-36.55-20.78,2.35-21.8-1.61S233,101.66,230.6,99.64Z"/></g><path class="cls-15" d="M223.88,281.27c5.48,7.88-1.59,21.12-21.63,19.45S178.52,283.81,184.14,278c3.23-3.34,9.83-1,20-.14S221.16,277.37,223.88,281.27Z"/><path class="cls-5" d="M220.92,282.37c-.14,1.68-7.62,2.43-16.72,1.67s-16.35-2.73-16.21-4.41,7.48-.65,16.57.1S221.06,280.69,220.92,282.37Z"/><path class="cls-16" d="M189.12,294c2.94,2.19,7.33,3.89,13.4,4.4,6.81.57,11.88-.57,15.28-2.51C207.12,283.73,195.68,289,189.12,294Z"/><path class="cls-2" d="M161,250.49c.68-10.24-9.54-17-18.57-19-11.25-2.5-22.43.5-30,9.34-6.3,7.34,6.35,16.44,12.41,8.71,7.09-9,23.24-3.82,30.17,2.82,2,1.92,5.78,1.26,6-1.92Z"/><path class="cls-2" d="M257.25,260.92c7.94-5.4,24.73-7.87,30.22,2.22,4.7,8.62,18.69,1.75,13.69-6.55-6-10-16.54-14.77-28.05-14.17-9.24.48-20.42,5.4-21.44,15.62-.32,3.18,3.28,4.44,5.58,2.88Z"/><path class="cls-2" d="M267.83,203.35c-1.73,5.43,7.45,10.42,18.18,13.58,9.61,2.83,18.71,6.44,22.23-.26C315.47,202.88,273,187,267.83,203.35Z"/><path class="cls-2" d="M112,200.33c2.36,7.19,11.94,5.13,21.88,3.93,11.11-1.34,21-4.74,20.18-10.38C151.64,176.91,107.15,185.53,112,200.33Z"/><path class="cls-17" d="M309.2,287c-.34,4.11-6.86,6.93-14.56,6.29s-13.65-4.5-13.31-8.61,6.86-6.94,14.55-6.29S309.54,282.89,309.2,287Z"/><path class="cls-17" d="M127.34,271.86c-.35,4.12-6.86,6.93-14.56,6.29s-13.66-4.5-13.32-8.61,6.86-6.93,14.56-6.29S127.68,267.75,127.34,271.86Z"/></g></g></g></svg>