<svg xmlns="http://www.w3.org/2000/svg" viewBox="0 0 2208.63 1490.91"><defs><style>.cls-1{fill:#fff;}.cls-2{fill:#ccc;}.cls-3{fill:#3aa89a;}.cls-4{fill:#1a1a1a;}.cls-5{fill:#326e79;}.cls-6{fill:#b4afa9;}.cls-7{fill:#8b8b8b;}.cls-8{fill:#d7d4d1;}.cls-9{fill:#c1bcb7;}.cls-10{fill:#959595;}.cls-11{fill:#c4b676;}.cls-12{fill:#af0035;}.cls-13{fill:#ff5574;}.cls-14{fill:#b9dae9;}.cls-15{fill:#8bb0cc;}.cls-16{fill:#ff95a2;}.cls-17{fill:#ffb31c;}.cls-18{fill:#ff8c03;}.cls-19{fill:#939393;}.cls-20{fill:#ff4657;}.cls-21{fill:#d61c42;}.cls-22{fill:#ff9a83;}.cls-23{fill:#707070;}.cls-24{fill:#9d9d9d;}</style></defs><g id="Réteg_2" data-name="Réteg 2"><g id="Réteg_1" data-name="Réteg 1"><path class="cls-1" d="M1132.36,741.46h-1l-.75.1-.73.1-.73.16-.66.14h-.1l-.22.1a9.25,9.25,0,0,0-1,.33c-.23.08-.45.17-.68.27l-.68.31-.66.34-.64.37c-.21.13-.41.27-.61.41l-.61.43c-.19.15-.39.31-.57.47l-.56.49-.52.53-.5.54c-.17.19-.32.38-.48.58l-.45.59-.41.61c-.14.21-.26.42-.39.64s-.24.44-.34.66-.22.44-.32.67-.2.46-.29.69-.17.46-.25.69l-.21.71q-.11.36-.18.72c-.05.24-.1.48-.14.73s-.08.49-.11.73-.07.49-.1.74v1.75a2.09,2.09,0,0,1,0,.24c0,.25.06.49.1.74s.06.49.1.74l.15.73c0,.22.09.45.15.66v.1l.09.22c.1.33.21.65.33,1s.18.46.28.69.19.46.3.68.22.44.34.65.24.43.37.64.26.43.4.63l.43.6c.15.2.3.39.46.58l.5.55.52.53c.18.17.36.34.55.5l.57.48c.2.15.39.3.6.44s.4.28.61.42l.63.38.66.35.67.32a7.1,7.1,0,0,0,.69.28c.23.1.46.18.7.26s.47.14.71.21l.72.19c.24,0,.48.1.72.13s.49.08.74.11l.73.1h2c.25,0,.5-.06.75-.11s.49-.05.73-.09l.73-.16.66-.14h.1l.22-.1c.33-.1.65-.2,1-.33s.45-.18.68-.27l.68-.31c.22-.11.44-.22.66-.35s.43-.23.64-.36l.62-.41.61-.43.57-.47c.19-.16.38-.32.56-.49s.35-.34.52-.52.34-.35.51-.54.32-.37.47-.57.31-.39.45-.59.28-.41.41-.62a6.65,6.65,0,0,0,.39-.63c.12-.22.24-.44.34-.66s.22-.44.32-.67.19-.45.28-.68.18-.47.26-.7.14-.47.2-.7.13-.48.19-.73.1-.48.14-.73.08-.49.11-.73.07-.5.1-.75,0-.48,0-.73v-.29c0-.24,0-.49,0-.74,0-.07,0-.15,0-.22,0-.25-.06-.51-.1-.76l-.09-.73c0-.24-.11-.49-.16-.73s-.09-.45-.14-.67v-.09l-.1-.22c-.1-.33-.21-.65-.33-1s-.18-.47-.27-.69l-.3-.68c-.12-.22-.23-.44-.35-.65s-.24-.44-.37-.65-.26-.41-.4-.61-.29-.41-.44-.6-.3-.39-.46-.58-.33-.38-.5-.56-.34-.36-.52-.53-.36-.34-.55-.5l-.57-.47c-.2-.15-.39-.3-.6-.44l-.62-.42-.63-.38c-.22-.13-.44-.24-.66-.35l-.67-.33c-.22-.09-.45-.19-.68-.27s-.46-.18-.7-.26-.47-.15-.71-.21l-.72-.19-.72-.14-.74-.11c-.25,0-.49-.07-.74-.09h-1Z"/><path class="cls-1" d="M1132.36,741.46h-1l-.75.1-.73.1-.73.16-.66.14h-.1l-.22.1a9.25,9.25,0,0,0-1,.33c-.23.08-.45.17-.68.27l-.68.31-.66.34-.64.37c-.21.13-.41.27-.61.41l-.61.43c-.19.15-.39.31-.57.47l-.56.49-.52.53-.5.54c-.17.19-.32.38-.48.58l-.45.59-.41.61c-.14.21-.26.42-.39.64s-.24.44-.34.66-.22.44-.32.67-.2.46-.29.69-.17.46-.25.69l-.21.71q-.11.36-.18.72c-.05.24-.1.48-.14.73s-.08.49-.11.73-.07.49-.1.74v1.75a2.09,2.09,0,0,1,0,.24c0,.25.06.49.1.74s.06.5.1.75l.15.73c0,.22.09.44.15.65v.1l.09.22c.1.33.21.65.33,1s.18.46.28.69.19.46.3.68.22.44.34.65.24.43.37.64.26.43.4.63l.43.6c.15.2.3.39.46.58l.5.55.52.53c.18.17.36.34.55.5l.57.48c.2.15.39.3.6.44s.4.28.61.42l.63.38.66.35.67.32a7.1,7.1,0,0,0,.69.28c.23.1.46.18.7.26s.47.14.71.21l.72.18.72.14c.25,0,.49.08.74.1s.48.08.73.1.5,0,.74,0h.29c.25,0,.49,0,.74,0h.23c.25,0,.5-.06.75-.11s.49-.05.73-.09l.73-.16.66-.14h.1l.22-.1a9.41,9.41,0,0,0,1-.33c.23-.08.45-.18.68-.27l.68-.31c.22-.11.44-.22.66-.35s.43-.23.64-.36l.62-.41.61-.43.57-.47c.19-.16.38-.32.56-.49s.35-.34.52-.52.34-.35.51-.53.32-.38.47-.58.31-.39.45-.59.28-.41.41-.62a6.65,6.65,0,0,0,.39-.63c.12-.22.24-.44.34-.66s.22-.44.32-.67.19-.45.28-.68.18-.46.26-.7.14-.47.2-.71.13-.47.19-.72.1-.48.14-.73.08-.49.11-.73.07-.5.1-.75,0-.48,0-.73v-.29q0-.37,0-.75c0-.07,0-.15,0-.23,0-.25-.06-.5-.1-.75l-.09-.73c0-.25-.11-.49-.16-.73s-.09-.44-.14-.66v-.09l-.1-.22c-.1-.33-.21-.65-.33-1s-.18-.47-.27-.69l-.3-.68c-.12-.22-.23-.44-.35-.65l-.37-.65c-.13-.2-.26-.41-.4-.61s-.29-.41-.44-.6-.3-.39-.46-.58-.33-.38-.5-.56-.34-.36-.52-.52-.36-.35-.55-.51l-.57-.48c-.2-.15-.39-.3-.6-.44s-.41-.29-.62-.42l-.63-.39-.66-.34c-.22-.12-.44-.22-.67-.33s-.45-.19-.68-.27l-.7-.26c-.23-.08-.47-.15-.71-.21l-.72-.19-.72-.14c-.25,0-.5-.08-.74-.1l-.74-.11h-1Z"/><path class="cls-1" d="M1132.36,741.46h-1l-.75.1-.73.1-.73.16-.66.14h-.1l-.22.1a9.25,9.25,0,0,0-1,.33c-.23.08-.45.17-.68.27l-.68.31-.66.34-.64.37c-.21.13-.41.27-.61.41l-.61.43c-.19.15-.39.31-.57.47l-.56.49-.52.53-.5.54c-.17.19-.32.38-.48.58l-.45.59-.41.61c-.14.21-.26.42-.39.64s-.24.44-.34.66-.22.44-.32.67-.2.46-.29.69-.17.46-.25.69l-.21.71q-.11.36-.18.72c-.05.24-.1.48-.14.73s-.08.49-.11.73-.07.49-.1.74v1.75a2.09,2.09,0,0,1,0,.24c0,.25.06.49.1.74s.06.5.1.75l.15.73c0,.22.09.44.15.65v.1l.09.22c.1.33.21.65.33,1s.18.46.28.69.19.46.3.68.22.44.34.65.24.43.37.64.26.43.4.63l.43.6c.15.2.3.39.46.58l.5.55.52.53c.18.17.36.34.55.5l.57.48c.2.15.39.3.6.44s.4.28.61.42l.63.38.66.35.67.32a7.1,7.1,0,0,0,.69.28c.23.1.46.18.7.26s.47.14.71.21l.72.18.72.14c.25,0,.49.08.74.1s.48.08.73.1.5,0,.74,0h.29c.25,0,.49,0,.74,0h.23c.25,0,.5-.06.75-.11s.49-.05.73-.09l.73-.16.66-.14h.1l.22-.1a9.41,9.41,0,0,0,1-.33c.23-.08.45-.18.68-.27l.68-.31c.22-.11.44-.22.66-.35s.43-.23.64-.36l.62-.41.61-.43.57-.47c.19-.16.38-.32.56-.49s.35-.34.52-.52.34-.35.51-.53.32-.38.47-.58.31-.39.45-.59.28-.41.41-.62a6.65,6.65,0,0,0,.39-.63c.12-.22.24-.44.34-.66s.22-.44.32-.67.19-.45.28-.68.18-.46.26-.7.14-.47.2-.71.13-.47.19-.72.1-.48.14-.73.08-.49.11-.73.07-.5.1-.75,0-.48,0-.73v-.29q0-.37,0-.75c0-.07,0-.15,0-.23,0-.25-.06-.5-.1-.75l-.09-.73c0-.25-.11-.49-.16-.73s-.09-.44-.14-.66v-.09l-.1-.22c-.1-.33-.21-.65-.33-1s-.18-.47-.27-.69l-.3-.68c-.12-.22-.23-.44-.35-.65l-.37-.65c-.13-.2-.26-.41-.4-.61s-.29-.41-.44-.6-.3-.39-.46-.58-.33-.38-.5-.56-.34-.36-.52-.52-.36-.35-.55-.51l-.57-.48c-.2-.15-.39-.3-.6-.44s-.41-.29-.62-.42l-.63-.39-.66-.34c-.22-.12-.44-.22-.67-.33s-.45-.19-.68-.27l-.7-.26c-.23-.08-.47-.15-.71-.21l-.72-.19-.72-.14c-.25,0-.5-.08-.74-.1l-.74-.11h-1Z"/><path class="cls-1" d="M1132.36,741.46h-1l-.75.1-.73.1-.73.16-.66.14h-.1l-.22.1a9.25,9.25,0,0,0-1,.33c-.23.08-.45.17-.68.27l-.68.31-.66.34-.64.37c-.21.13-.41.27-.61.41l-.61.43c-.19.15-.39.31-.57.47l-.56.49-.52.53-.5.54c-.17.19-.32.38-.48.58l-.45.59-.41.61c-.14.21-.26.42-.39.64s-.24.44-.34.66-.22.44-.32.67-.2.46-.29.69-.17.46-.25.69l-.21.71q-.11.36-.18.72c-.05.24-.1.48-.14.73s-.08.49-.11.73-.07.49-.1.74v1.75a2.09,2.09,0,0,1,0,.24c0,.25.06.49.1.74s.06.5.1.75l.15.73c0,.22.09.44.15.65v.1l.09.22c.1.33.21.65.33,1s.18.46.28.69.19.46.3.68.22.44.34.65.24.43.37.64.26.43.4.63l.43.6c.15.2.3.39.46.58l.5.55.52.53c.18.17.36.34.55.5l.57.48c.2.15.39.3.6.44s.4.28.61.42l.63.38.66.35.67.32a7.1,7.1,0,0,0,.69.28c.23.1.46.18.7.26s.47.14.71.21l.72.18.72.14c.25,0,.49.08.74.1s.48.08.73.1.5,0,.74,0h.29c.25,0,.49,0,.74,0h.23c.25,0,.5-.06.75-.11s.49-.05.73-.09l.73-.16.66-.14h.1l.22-.1a9.41,9.41,0,0,0,1-.33c.23-.08.45-.18.68-.27l.68-.31c.22-.11.44-.22.66-.35s.43-.23.64-.36l.62-.41.61-.43.57-.47c.19-.16.38-.32.56-.49s.35-.34.52-.52.34-.35.51-.53.32-.38.47-.58.31-.39.45-.59.28-.41.41-.62a6.65,6.65,0,0,0,.39-.63c.12-.22.24-.44.34-.66s.22-.44.32-.67.19-.45.28-.68.18-.46.26-.7.14-.47.2-.71.13-.47.19-.72.1-.48.14-.73.08-.49.11-.73.07-.5.1-.75,0-.48,0-.73v-.29q0-.37,0-.75c0-.07,0-.15,0-.23,0-.25-.06-.5-.1-.75l-.09-.73c0-.25-.11-.49-.16-.73s-.09-.44-.14-.66v-.09l-.1-.22c-.1-.33-.21-.65-.33-1s-.18-.47-.27-.69l-.3-.68c-.12-.22-.23-.44-.35-.65l-.37-.65c-.13-.2-.26-.41-.4-.61s-.29-.41-.44-.6-.3-.39-.46-.58-.33-.38-.5-.56-.34-.36-.52-.52-.36-.35-.55-.51l-.57-.48c-.2-.15-.39-.3-.6-.44s-.41-.29-.62-.42l-.63-.39-.66-.34c-.22-.12-.44-.22-.67-.33s-.45-.19-.68-.27l-.7-.26c-.23-.08-.47-.15-.71-.21l-.72-.19-.72-.14c-.25,0-.5-.08-.74-.1l-.74-.11h-1Z"/><path class="cls-1" d="M1132.36,741.46h-1l-.75.1-.73.1-.73.16-.66.14h-.1l-.22.1a9.25,9.25,0,0,0-1,.33c-.23.08-.45.17-.68.27l-.68.31-.66.34-.64.37c-.21.13-.41.27-.61.41l-.61.43c-.19.15-.39.31-.57.47l-.56.49-.52.53-.5.54c-.17.19-.32.38-.48.58l-.45.59-.41.61c-.14.21-.26.42-.39.64s-.24.44-.34.66-.22.44-.32.67-.2.46-.29.69-.17.46-.25.69l-.21.71q-.11.36-.18.72c-.05.24-.1.48-.14.73s-.08.49-.11.73-.07.49-.1.74v1.75a2.09,2.09,0,0,1,0,.24c0,.25.06.49.1.74s.06.5.1.75l.15.73c0,.22.09.44.15.65v.1l.09.22c.1.33.21.65.33,1s.18.46.28.69.19.46.3.68.22.44.34.65.24.43.37.64.26.43.4.63l.43.6c.15.2.3.39.46.58l.5.55.52.53c.18.17.36.34.55.5l.57.48c.2.15.39.3.6.44s.4.28.61.42l.63.38.66.35.67.32a7.1,7.1,0,0,0,.69.28c.23.1.46.18.7.26s.47.14.71.21l.72.18.72.14c.25,0,.49.08.74.1s.48.08.73.1.5,0,.74,0h.29c.25,0,.49,0,.74,0h.23c.25,0,.5-.06.75-.11s.49-.05.73-.09l.73-.16.66-.14h.1l.22-.1a9.41,9.41,0,0,0,1-.33c.23-.08.45-.18.68-.27l.68-.31c.22-.11.44-.22.66-.35s.43-.23.64-.36l.62-.41.61-.43.57-.47c.19-.16.38-.32.56-.49s.35-.34.52-.52.34-.35.51-.53.32-.38.47-.58.31-.39.45-.59.28-.41.41-.62a6.65,6.65,0,0,0,.39-.63c.12-.22.24-.44.34-.66s.22-.44.32-.67.19-.45.28-.68.18-.46.26-.7.14-.47.2-.71.13-.47.19-.72.1-.48.14-.73.08-.49.11-.73.07-.5.1-.75,0-.48,0-.73v-.29q0-.37,0-.75c0-.07,0-.15,0-.23,0-.25-.06-.5-.1-.75l-.09-.73c0-.25-.11-.49-.16-.73s-.09-.44-.14-.66v-.09l-.1-.22c-.1-.33-.21-.65-.33-1s-.18-.47-.27-.69l-.3-.68c-.12-.22-.23-.44-.35-.65l-.37-.65c-.13-.2-.26-.41-.4-.61s-.29-.41-.44-.6-.3-.39-.46-.58-.33-.38-.5-.56-.34-.36-.52-.52-.36-.35-.55-.51l-.57-.48c-.2-.15-.39-.3-.6-.44s-.41-.29-.62-.42l-.63-.39-.66-.34c-.22-.12-.44-.22-.67-.33s-.45-.19-.68-.27l-.7-.26c-.23-.08-.47-.15-.71-.21l-.72-.19-.72-.14c-.25,0-.5-.08-.74-.1l-.74-.11h-1Z"/><path class="cls-1" d="M1132.36,741.46h-1l-.75.1-.73.1-.73.16-.66.14h-.1l-.22.1a9.25,9.25,0,0,0-1,.33c-.23.08-.45.17-.68.27l-.68.31-.66.34-.64.37c-.21.13-.41.27-.61.41l-.61.43c-.19.15-.39.31-.57.47l-.56.49-.52.53-.5.54c-.17.19-.32.38-.48.58l-.45.59-.41.61c-.14.21-.26.42-.39.64s-.24.44-.34.66-.22.44-.32.67-.2.46-.29.69-.17.46-.25.69l-.21.71q-.11.36-.18.72c-.05.24-.1.48-.14.73s-.08.49-.11.73-.07.49-.1.74v1.75a2.09,2.09,0,0,1,0,.24c0,.25.06.49.1.74s.06.5.1.75l.15.73c0,.22.09.44.15.65v.1l.09.22c.1.33.21.65.33,1s.18.46.28.69.19.46.3.68.22.44.34.65.24.43.37.64.26.43.4.63l.43.6c.15.2.3.39.46.58l.5.55.52.53c.18.17.36.34.55.5l.57.48c.2.15.39.3.6.44s.4.28.61.42l.63.38.66.35.67.32a7.1,7.1,0,0,0,.69.28c.23.1.46.18.7.26s.47.14.71.21l.72.18.72.14c.25,0,.49.08.74.1s.48.08.73.1.5,0,.74,0h.29c.25,0,.49,0,.74,0h.23c.25,0,.5-.06.75-.11s.49-.05.73-.09l.73-.16.66-.14h.1l.22-.1a9.41,9.41,0,0,0,1-.33c.23-.08.45-.18.68-.27l.68-.31c.22-.11.44-.22.66-.35s.43-.23.64-.36l.62-.41.61-.43.57-.47c.19-.16.38-.32.56-.49s.35-.34.52-.52.34-.35.51-.53.32-.38.47-.58.31-.39.45-.59.28-.41.41-.62a6.65,6.65,0,0,0,.39-.63c.12-.22.24-.44.34-.66s.22-.44.32-.67.19-.45.28-.68.18-.46.26-.7.14-.47.2-.71.13-.47.19-.72.1-.48.14-.73.08-.49.11-.73.07-.5.1-.75,0-.48,0-.73v-.29q0-.37,0-.75c0-.07,0-.15,0-.23,0-.25-.06-.5-.1-.75l-.09-.73c0-.25-.11-.49-.16-.73s-.09-.44-.14-.66v-.09l-.1-.22c-.1-.33-.21-.65-.33-1s-.18-.47-.27-.69l-.3-.68c-.12-.22-.23-.44-.35-.65l-.37-.65c-.13-.2-.26-.41-.4-.61s-.29-.41-.44-.6-.3-.39-.46-.58-.33-.38-.5-.56-.34-.36-.52-.52-.36-.35-.55-.51l-.57-.48c-.2-.15-.39-.3-.6-.44s-.41-.29-.62-.42l-.63-.39-.66-.34c-.22-.12-.44-.22-.67-.33s-.45-.19-.68-.27l-.7-.26c-.23-.08-.47-.15-.71-.21l-.72-.19-.72-.14c-.25,0-.5-.08-.74-.1l-.74-.11h-1Z"/><path class="cls-1" d="M1132.36,741.46h-1l-.75.1-.73.1-.73.16-.66.14h-.1l-.22.1a9.25,9.25,0,0,0-1,.33c-.23.08-.45.17-.68.27l-.68.31-.66.34-.64.37c-.21.13-.41.27-.61.41l-.61.43c-.19.15-.39.31-.57.47l-.56.49-.52.53-.5.54c-.17.19-.32.38-.48.58l-.45.59-.41.61c-.14.21-.26.42-.39.64s-.24.44-.34.66-.22.44-.32.67-.2.46-.29.69-.17.46-.25.69l-.21.71q-.11.36-.18.72c-.05.24-.1.48-.14.73s-.08.49-.11.73-.07.49-.1.74v1.75a2.09,2.09,0,0,1,0,.24c0,.25.06.49.1.74s.06.5.1.75l.15.73c0,.22.09.44.15.65v.1l.09.22c.1.33.21.65.33,1s.18.46.28.69.19.46.3.68.22.44.34.65.24.43.37.64.26.43.4.63l.43.6c.15.2.3.39.46.58l.5.55.52.53c.18.17.36.34.55.5l.57.48c.2.15.39.3.6.44s.4.28.61.42l.63.38.66.35.67.32a7.1,7.1,0,0,0,.69.28c.23.1.46.18.7.26s.47.14.71.21l.72.18.72.14c.25,0,.49.08.74.1s.48.08.73.1.5,0,.74,0h.29c.25,0,.49,0,.74,0h.23c.25,0,.5-.06.75-.11s.49-.05.73-.09l.73-.16.66-.14h.1l.22-.1a9.41,9.41,0,0,0,1-.33c.23-.08.45-.18.68-.27l.68-.31c.22-.11.44-.22.66-.35s.43-.23.64-.36l.62-.41.61-.43.57-.47c.19-.16.38-.32.56-.49s.35-.34.52-.52.34-.35.51-.53.32-.38.47-.58.31-.39.45-.59.28-.41.41-.62a6.65,6.65,0,0,0,.39-.63c.12-.22.24-.44.34-.66s.22-.44.32-.67.19-.45.28-.68.18-.46.26-.7.14-.47.2-.71.13-.47.19-.72.1-.48.14-.73.08-.49.11-.73.07-.5.1-.75,0-.48,0-.73v-.29q0-.37,0-.75c0-.07,0-.15,0-.23,0-.25-.06-.5-.1-.75l-.09-.73c0-.25-.11-.49-.16-.73s-.09-.44-.14-.66v-.09l-.1-.22c-.1-.33-.21-.65-.33-1s-.18-.47-.27-.69l-.3-.68c-.12-.22-.23-.44-.35-.65l-.37-.65c-.13-.2-.26-.41-.4-.61s-.29-.41-.44-.6-.3-.39-.46-.58-.33-.38-.5-.56-.34-.36-.52-.52-.36-.35-.55-.51l-.57-.48c-.2-.15-.39-.3-.6-.44s-.41-.29-.62-.42l-.63-.39-.66-.34c-.22-.12-.44-.22-.67-.33s-.45-.19-.68-.27l-.7-.26c-.23-.08-.47-.15-.71-.21l-.72-.19-.72-.14c-.25,0-.5-.08-.74-.1l-.74-.11h-1Z"/><path class="cls-1" d="M1132.36,741.46h-1l-.75.1-.73.1-.73.16-.66.14h-.1l-.22.1a9.25,9.25,0,0,0-1,.33c-.23.08-.45.17-.68.27l-.68.31-.66.34-.64.37c-.21.13-.41.27-.61.41l-.61.43c-.19.15-.39.31-.57.47l-.56.49-.52.53-.5.54c-.17.19-.32.38-.48.58l-.45.59-.41.61c-.14.21-.26.42-.39.64s-.24.44-.34.66-.22.44-.32.67-.2.46-.29.69-.17.46-.25.69l-.21.71q-.11.36-.18.72c-.05.24-.1.48-.14.73s-.08.49-.11.73-.07.49-.1.74v1.75a2.09,2.09,0,0,1,0,.24c0,.25.06.49.1.74s.06.5.1.75l.15.73c0,.22.09.44.15.65v.1l.09.22c.1.33.21.65.33,1s.18.46.28.69.19.46.3.68.22.44.34.65.24.43.37.64.26.43.4.63l.43.6c.15.2.3.39.46.58l.5.55.52.53c.18.17.36.34.55.5l.57.48c.2.15.39.3.6.44s.4.28.61.42l.63.38.66.35.67.32a7.1,7.1,0,0,0,.69.28c.23.1.46.18.7.26s.47.14.71.21l.72.18.72.14c.25,0,.49.08.74.1s.48.08.73.1.5,0,.74,0h.29c.25,0,.49,0,.74,0h.23c.25,0,.5-.06.75-.11s.49-.05.73-.09l.73-.16.66-.14h.1l.22-.1a9.41,9.41,0,0,0,1-.33c.23-.08.45-.18.68-.27l.68-.31c.22-.11.44-.22.66-.35s.43-.23.64-.36l.62-.41.61-.43.57-.47c.19-.16.38-.32.56-.49s.35-.34.52-.52.34-.35.51-.53.32-.38.47-.58.31-.39.45-.59.28-.41.41-.62a6.65,6.65,0,0,0,.39-.63c.12-.22.24-.44.34-.66s.22-.44.32-.67.19-.45.28-.68.18-.46.26-.7.14-.47.2-.71.13-.47.19-.72.1-.48.14-.73.08-.49.11-.73.07-.5.1-.75,0-.48,0-.73v-.29q0-.37,0-.75c0-.07,0-.15,0-.23,0-.25-.06-.5-.1-.75l-.09-.73c0-.25-.11-.49-.16-.73s-.09-.44-.14-.66v-.09l-.1-.22c-.1-.33-.21-.65-.33-1s-.18-.47-.27-.69l-.3-.68c-.12-.22-.23-.44-.35-.65l-.37-.65c-.13-.2-.26-.41-.4-.61s-.29-.41-.44-.6-.3-.39-.46-.58-.33-.38-.5-.56-.34-.36-.52-.52-.36-.35-.55-.51l-.57-.48c-.2-.15-.39-.3-.6-.44s-.41-.29-.62-.42l-.63-.39-.66-.34c-.22-.12-.44-.22-.67-.33s-.45-.19-.68-.27l-.7-.26c-.23-.08-.47-.15-.71-.21l-.72-.19-.72-.14c-.25,0-.5-.08-.74-.1l-.74-.11h-1Z"/><path class="cls-1" d="M1132.36,741.46h-1l-.75.1-.73.1-.73.16-.66.14h-.1l-.22.1a9.25,9.25,0,0,0-1,.33c-.23.08-.45.17-.68.27l-.68.31-.66.34-.64.37c-.21.13-.41.27-.61.41l-.61.43c-.19.15-.39.31-.57.47l-.56.49-.52.53-.5.54c-.17.19-.32.38-.48.58l-.45.59-.41.61c-.14.21-.26.42-.39.64s-.24.44-.34.66-.22.44-.32.67-.2.46-.29.69-.17.46-.25.69l-.21.71q-.11.36-.18.72c-.05.24-.1.48-.14.73s-.08.49-.11.73-.07.49-.1.74v1.75a2.09,2.09,0,0,1,0,.24c0,.25.06.49.1.74s.06.5.1.75l.15.73c0,.22.09.44.15.65v.1l.09.22c.1.33.21.65.33,1s.18.46.28.69.19.46.3.68.22.44.34.65.24.43.37.64.26.43.4.63l.43.6c.15.2.3.39.46.58l.5.55.52.53c.18.17.36.34.55.5l.57.48c.2.15.39.3.6.44s.4.28.61.42l.63.38.66.35.67.32a7.1,7.1,0,0,0,.69.28c.23.1.46.18.7.26s.47.14.71.21l.72.18.72.14c.25,0,.49.08.74.1s.48.08.73.1.5,0,.74,0h.29c.25,0,.49,0,.74,0h.23c.25,0,.5-.06.75-.11s.49-.05.73-.09l.73-.16.66-.14h.1l.22-.1a9.41,9.41,0,0,0,1-.33c.23-.08.45-.18.68-.27l.68-.31c.22-.11.44-.22.66-.35s.43-.23.64-.36l.62-.41.61-.43.57-.47c.19-.16.38-.32.56-.49s.35-.34.52-.52.34-.35.51-.53.32-.38.47-.58.31-.39.45-.59.28-.41.41-.62a6.65,6.65,0,0,0,.39-.63c.12-.22.24-.44.34-.66s.22-.44.32-.67.19-.45.28-.68.18-.46.26-.7.14-.47.2-.71.13-.47.19-.72.1-.48.14-.73.08-.49.11-.73.07-.5.1-.75,0-.48,0-.73v-.29q0-.37,0-.75c0-.07,0-.15,0-.23,0-.25-.06-.5-.1-.75l-.09-.73c0-.25-.11-.49-.16-.73s-.09-.44-.14-.66v-.09l-.1-.22c-.1-.33-.21-.65-.33-1s-.18-.47-.27-.69l-.3-.68c-.12-.22-.23-.44-.35-.65l-.37-.65c-.13-.2-.26-.41-.4-.61s-.29-.41-.44-.6-.3-.39-.46-.58-.33-.38-.5-.56-.34-.36-.52-.52-.36-.35-.55-.51l-.57-.48c-.2-.15-.39-.3-.6-.44s-.41-.29-.62-.42l-.63-.39-.66-.34c-.22-.12-.44-.22-.67-.33s-.45-.19-.68-.27l-.7-.26c-.23-.08-.47-.15-.71-.21l-.72-.19-.72-.14c-.25,0-.5-.08-.74-.1l-.74-.11h-1Z"/><path class="cls-1" d="M1132.36,741.46h-1l-.75.1-.73.1-.73.16-.66.14h-.1l-.22.1a9.25,9.25,0,0,0-1,.33c-.23.08-.45.17-.68.27l-.68.31-.66.34-.64.37c-.21.13-.41.27-.61.41l-.61.43c-.19.15-.39.31-.57.47l-.56.49-.52.53-.5.54c-.17.19-.32.38-.48.58l-.45.59-.41.61c-.14.21-.26.42-.39.64s-.24.44-.34.66-.22.44-.32.67-.2.46-.29.69-.17.46-.25.69l-.21.71q-.11.36-.18.72c-.05.24-.1.48-.14.73s-.08.49-.11.73-.07.49-.1.74v1.75a2.09,2.09,0,0,1,0,.24c0,.25.06.49.1.74s.06.5.1.75l.15.73c0,.22.09.44.15.65v.1l.09.22c.1.33.21.65.33,1s.18.46.28.69.19.46.3.68.22.44.34.65.24.43.37.64.26.43.4.63l.43.6c.15.2.3.39.46.58l.5.55.52.53c.18.17.36.34.55.5l.57.48c.2.15.39.3.6.44s.4.28.61.42l.63.38.66.35.67.32a7.1,7.1,0,0,0,.69.28c.23.1.46.18.7.26s.47.14.71.21l.72.18.72.14c.25,0,.49.08.74.1s.48.08.73.1.5,0,.74,0h.29c.25,0,.49,0,.74,0h.23c.25,0,.5-.06.75-.11s.49-.05.73-.09l.73-.16.66-.14h.1l.22-.1a9.41,9.41,0,0,0,1-.33c.23-.08.45-.18.68-.27l.68-.31c.22-.11.44-.22.66-.35s.43-.23.64-.36l.62-.41.61-.43.57-.47c.19-.16.38-.32.56-.49s.35-.34.52-.52.34-.35.51-.53.32-.38.47-.58.31-.39.45-.59.28-.41.41-.62a6.65,6.65,0,0,0,.39-.63c.12-.22.24-.44.34-.66s.22-.44.32-.67.19-.45.28-.68.18-.46.26-.7.14-.47.2-.71.13-.47.19-.72.1-.48.14-.73.08-.49.11-.73.07-.5.1-.75,0-.48,0-.73v-.29q0-.37,0-.75c0-.07,0-.15,0-.23,0-.25-.06-.5-.1-.75l-.09-.73c0-.25-.11-.49-.16-.73s-.09-.44-.14-.66v-.09l-.1-.22c-.1-.33-.21-.65-.33-1s-.18-.47-.27-.69l-.3-.68c-.12-.22-.23-.44-.35-.65l-.37-.65c-.13-.2-.26-.41-.4-.61s-.29-.41-.44-.6-.3-.39-.46-.58-.33-.38-.5-.56-.34-.36-.52-.52-.36-.35-.55-.51l-.57-.48c-.2-.15-.39-.3-.6-.44s-.41-.29-.62-.42l-.63-.39-.66-.34c-.22-.12-.44-.22-.67-.33s-.45-.19-.68-.27l-.7-.26c-.23-.08-.47-.15-.71-.21l-.72-.19-.72-.14c-.25,0-.5-.08-.74-.1l-.74-.11h-1Z"/><path class="cls-2" d="M1201.91,1391.88c0,21.93-34.83,42.95-96.84,58.45S959,1474.54,871.3,1474.54s-171.78-8.71-233.78-24.21-96.83-36.52-96.83-58.45c0-45.64,148-82.65,330.61-82.65s330.61,37,330.61,82.65Z"/><path class="cls-2" d="M2208.63,1391.88c0,26.27-41.73,51.46-116,70s-175,29-280.1,29-205.82-10.43-280.1-29-116-43.76-116-70,41.74-51.45,116-70,175-29,280.1-29,205.81,10.44,280.1,29,116,43.76,116,70Z"/><path class="cls-3" d="M774.86,1175.61c0,84.76-28.27,205.27-63.15,205.27s-63.14-120.51-63.14-205.27,37.33-101.71,63.14-101.71,63.15,16.94,63.15,101.71Z"/><path class="cls-4" d="M633.32,1222.38c3,31.63,8.85,64.14,16.78,92.41,6,21.31,13,40.12,21.92,55s20.84,28.73,39.7,28.73,30.8-13.88,39.69-28.73,15.94-33.68,21.92-55c7.93-28.27,13.75-60.77,16.78-92.4H754.64c-3,28.61-8.3,58.11-15.25,82.89-5.45,19.42-12,36-18.21,46.4-4.66,7.8-8.45,10.41-9.46,11.23-1-.82-4.79-3.43-9.45-11.23-6.22-10.38-12.79-27-18.23-46.4-7-24.78-12.29-54.28-15.25-82.89Z"/><path class="cls-4" d="M711.72,1056.29a71.52,71.52,0,0,0-54.7,25.29c-16.2,19.12-26.07,49.05-26.07,94a507,507,0,0,0,3.43,56.8h35.53a479.2,479.2,0,0,1-3.71-56.8c0-39.79,8.79-60.72,17.71-71.25s18.75-12.82,27.81-12.82,18.87,2.28,27.8,12.82,17.71,31.46,17.71,71.25a479.2,479.2,0,0,1-3.71,56.8h35.53a506.9,506.9,0,0,0,3.42-56.8c0-45-9.86-74.9-26.05-94a71.54,71.54,0,0,0-54.7-25.29Z"/><path class="cls-3" d="M1094,1175.61c0,84.76-28.27,205.27-63.14,205.27s-63.14-120.51-63.14-205.27,37.32-101.71,63.14-101.71,63.14,16.94,63.14,101.71Z"/><path class="cls-4" d="M952.49,1222.38c3,31.63,8.85,64.14,16.78,92.41,6,21.31,13,40.12,21.92,55s20.84,28.73,39.7,28.73,30.8-13.88,39.69-28.73,15.94-33.68,21.92-55c7.93-28.27,13.75-60.77,16.78-92.4h-35.47c-3,28.61-8.29,58.11-15.25,82.89-5.45,19.42-12,36-18.21,46.4-4.66,7.8-8.46,10.41-9.46,11.23-1-.82-4.79-3.43-9.46-11.23-6.21-10.38-12.77-27-18.22-46.4-7-24.78-12.29-54.28-15.25-82.89Z"/><path class="cls-4" d="M1030.89,1056.29a71.52,71.52,0,0,0-54.7,25.29c-16.2,19.12-26.06,49.05-26.06,94a509.2,509.2,0,0,0,3.41,56.8h35.54a479.2,479.2,0,0,1-3.71-56.8c0-39.79,8.79-60.72,17.72-71.25s18.75-12.82,27.8-12.82,18.88,2.28,27.79,12.82,17.73,31.46,17.73,71.25a479.29,479.29,0,0,1-3.72,56.8h35.54a509.2,509.2,0,0,0,3.41-56.8c0-45-9.86-74.9-26.05-94a71.52,71.52,0,0,0-54.7-25.29Z"/><path class="cls-3" d="M423.86,819.43c-84.77,0-205.27-28.27-205.27-63.14s120.5-63.14,205.27-63.14,101.7,37.32,101.7,63.14-16.93,63.14-101.7,63.14Z"/><path class="cls-4" d="M377.08,677.9c-31.63,3-64.14,8.85-92.41,16.78-21.31,6-40.12,13-55,21.91S201,737.43,201,756.3,214.84,787.1,229.7,796s33.68,15.94,55,21.91c28.27,7.94,60.77,13.75,92.4,16.78V799.21c-28.61-3-58.1-8.29-82.89-15.24-19.41-5.45-36-12-46.4-18.22-7.79-4.66-10.41-8.45-11.23-9.45.82-1,3.44-4.8,11.23-9.46,10.39-6.22,27-12.78,46.4-18.23,24.79-7,54.28-12.28,82.89-15.24Z"/><path class="cls-4" d="M543.17,756.3a71.56,71.56,0,0,0-25.29-54.71c-19.12-16.19-49.05-26.06-94-26.06a509.28,509.28,0,0,0-56.8,3.42v35.54a477.18,477.18,0,0,1,56.8-3.72c39.8,0,60.72,8.8,71.25,17.72s12.82,18.75,12.82,27.81-2.28,18.87-12.82,27.79-31.45,17.72-71.25,17.72a477.18,477.18,0,0,1-56.8-3.72v35.54a509.28,509.28,0,0,0,56.8,3.42c45,0,74.9-9.86,94-26.06a71.51,71.51,0,0,0,25.29-54.69Z"/><path class="cls-3" d="M1388.67,714.81c32.44,78.32,52.44,200.46,20.22,213.81S1304.44,841.45,1272,763.14,1267.56,654.9,1291.42,645s64.81-8.52,97.25,69.79Z"/><path class="cls-4" d="M1275.81,812.19c14.9,28.06,32.72,55.87,50.87,79,13.67,17.39,27.38,32.07,41.28,42.4s30.25,18.57,47.68,11.35,23.14-24.61,25.67-41.74,1.83-37.21-.79-59.18c-3.49-29.16-10.56-61.41-19.86-91.79l-32.77,13.57c8.21,27.56,14.57,56.86,17.63,82.42,2.4,20,2.71,37.86.94,49.84-1.33,9-3.83,12.85-4.44,14-1.24-.37-5.75-1.34-13-6.75-9.72-7.22-22.13-20-34.6-35.9-15.9-20.24-32.12-45.45-45.8-70.75Z"/><path class="cls-4" d="M1284.68,628.74a71.54,71.54,0,0,0-40.86,44.3c-7.65,23.86-5.31,55.29,11.9,96.84a509.5,509.5,0,0,0,24.9,51.16l32.83-13.59a479.52,479.52,0,0,1-25.17-51.06c-15.23-36.77-15.11-59.46-10.9-72.61s12.42-19,20.79-22.48,18.31-5.12,30.58,1.2,28.41,22.28,43.64,59a479.18,479.18,0,0,1,18.3,53.9l32.83-13.6A510,510,0,0,0,1405,708.07c-17.22-41.55-37.78-65.43-60.06-76.9a71.52,71.52,0,0,0-60.21-2.43Z"/><path class="cls-4" d="M550.77,291.05c-79.7,0-144.75,65-144.75,144.75v641.05c0,79.71,65.05,144.75,144.75,144.75h641.05c79.71,0,144.76-65,144.76-144.75v-641c0-79.71-65-144.75-144.76-144.75Zm0,56.38h641.05c49.45,0,88.37,38.93,88.37,88.37v641.05c0,49.44-38.92,88.37-88.37,88.37h-641c-49.44,0-88.36-38.93-88.36-88.37v-641c0-49.44,38.92-88.37,88.36-88.37Z"/><path class="cls-3" d="M550.77,319.24h641.05A116.3,116.3,0,0,1,1308.38,435.8v641.05a116.3,116.3,0,0,1-116.56,116.56h-641a116.31,116.31,0,0,1-116.56-116.56v-641A116.3,116.3,0,0,1,550.77,319.24Z"/><path class="cls-4" d="M550.77,312.19A123.49,123.49,0,0,0,427.17,435.8v641.05a123.49,123.49,0,0,0,123.6,123.61h641.05a123.49,123.49,0,0,0,123.61-123.61v-641a123.49,123.49,0,0,0-123.61-123.61Zm0,14.1h641.05A109.11,109.11,0,0,1,1301.33,435.8v641.05a109.11,109.11,0,0,1-109.51,109.51h-641a109.11,109.11,0,0,1-109.5-109.51v-641a109.11,109.11,0,0,1,109.5-109.51Z"/><path class="cls-5" d="M554.5,356.61h633.61a82.72,82.72,0,0,1,82.9,82.91v633.61a82.71,82.71,0,0,1-82.9,82.9H554.5a82.72,82.72,0,0,1-82.91-82.9V439.52a82.73,82.73,0,0,1,82.91-82.91Z"/><path class="cls-6" d="M583.21,437.34a30.82,30.82,0,0,0-30.89,30.9V637.81H540.9a17.3,17.3,0,0,0-17.34,17.34V857.49a17.3,17.3,0,0,0,17.34,17.34h11.42v169.58a30.81,30.81,0,0,0,30.89,30.89h576.17a30.82,30.82,0,0,0,30.9-30.89V874.83h11.41A17.3,17.3,0,0,0,1219,857.49V655.15a17.31,17.31,0,0,0-17.34-17.34h-11.41V468.24a30.83,30.83,0,0,0-30.9-30.9Z"/><path class="cls-6" d="M583.21,437.34h576.17a30.83,30.83,0,0,1,30.9,30.9v576.17a30.83,30.83,0,0,1-30.9,30.9H583.21a30.82,30.82,0,0,1-30.89-30.9V468.24a30.82,30.82,0,0,1,30.89-30.9Z"/><path class="cls-7" d="M583.21,430.29a38,38,0,0,0-37.94,37.95V630.76H540.9a24.49,24.49,0,0,0-24.39,24.39V857.49a24.49,24.49,0,0,0,24.39,24.39h4.37v162.53a38,38,0,0,0,37.94,37.94h576.17a38,38,0,0,0,37.94-37.94V881.88h4.37a24.49,24.49,0,0,0,24.39-24.39V655.15a24.49,24.49,0,0,0-24.39-24.39h-4.37V468.24a38,38,0,0,0-37.94-37.95Zm0,14.1h576.17a23.65,23.65,0,0,1,23.85,23.85V644.86h18.46A10.12,10.12,0,0,1,1212,655.15V857.49a10.12,10.12,0,0,1-10.29,10.3h-18.46v176.62a23.64,23.64,0,0,1-23.85,23.84H583.21a23.63,23.63,0,0,1-23.84-23.84V867.79H540.9a10.12,10.12,0,0,1-10.29-10.3V655.15a10.12,10.12,0,0,1,10.29-10.29h18.47V468.24a23.64,23.64,0,0,1,23.84-23.85Z"/><path class="cls-8" d="M611.32,484.78h519.95a11.55,11.55,0,0,1,11.57,11.58v519.93a11.55,11.55,0,0,1-11.57,11.58H611.32a11.55,11.55,0,0,1-11.57-11.58V496.36a11.55,11.55,0,0,1,11.57-11.58Z"/><path class="cls-9" d="M1110.28,484.78a11.55,11.55,0,0,1,11.58,11.58v519.93a11.55,11.55,0,0,1-11.58,11.58h21a11.55,11.55,0,0,0,11.58-11.58V496.36a11.55,11.55,0,0,0-11.58-11.58Z"/><path class="cls-9" d="M1142.84,790.41,599.75,935.93v80.37a11.54,11.54,0,0,0,11.57,11.57h519.94a11.55,11.55,0,0,0,11.58-11.57Z"/><path class="cls-1" d="M632.31,484.78a11.55,11.55,0,0,0-11.58,11.58v519.93a11.55,11.55,0,0,0,11.58,11.58h-21a11.55,11.55,0,0,1-11.58-11.58V496.36a11.55,11.55,0,0,1,11.58-11.58Z"/><path class="cls-10" d="M611.32,477.73a18.74,18.74,0,0,0-18.62,18.62v519.94a18.74,18.74,0,0,0,18.62,18.63h519.94a18.75,18.75,0,0,0,18.63-18.63V496.35a18.74,18.74,0,0,0-18.63-18.62Zm0,14.1h519.94a4.37,4.37,0,0,1,4.53,4.52v519.94a4.37,4.37,0,0,1-4.53,4.53H611.32a4.37,4.37,0,0,1-4.52-4.53V496.35a4.37,4.37,0,0,1,4.52-4.52Z"/><rect class="cls-3" x="776.49" y="336.15" width="189.62" height="40.94"/><rect class="cls-3" x="776.49" y="1135.56" width="189.62" height="40.94"/><path class="cls-11" d="M542.53,1105.11a13.47,13.47,0,1,1-13.46-13.47,13.46,13.46,0,0,1,13.46,13.47Z"/><path class="cls-11" d="M593.58,378.73a7.85,7.85,0,1,1-2.3-5.55,7.85,7.85,0,0,1,2.3,5.55Z"/><path class="cls-11" d="M620,378.73a7.85,7.85,0,1,1-7.85-7.85,7.84,7.84,0,0,1,7.85,7.85Z"/><path class="cls-11" d="M646.35,378.73a7.85,7.85,0,1,1-7.85-7.85,7.85,7.85,0,0,1,7.85,7.85Z"/><path class="cls-11" d="M672.74,378.73a7.86,7.86,0,1,1-7.86-7.85,7.85,7.85,0,0,1,7.86,7.85Z"/><path class="cls-11" d="M699.12,378.73a7.86,7.86,0,1,1-7.85-7.85,7.84,7.84,0,0,1,7.85,7.85Z"/><path class="cls-11" d="M725.51,378.73a7.85,7.85,0,1,1-2.3-5.55,7.86,7.86,0,0,1,2.3,5.55Z"/><path class="cls-11" d="M606.77,400.26a7.86,7.86,0,1,1-7.85-7.85,7.88,7.88,0,0,1,7.85,7.85Z"/><path class="cls-11" d="M633.16,400.26a7.86,7.86,0,1,1-7.86-7.85,7.85,7.85,0,0,1,7.86,7.85Z"/><path class="cls-11" d="M659.54,400.26a7.85,7.85,0,1,1-7.85-7.85,7.88,7.88,0,0,1,7.85,7.85Z"/><path class="cls-11" d="M685.93,400.26a7.86,7.86,0,1,1-7.85-7.85,7.88,7.88,0,0,1,7.85,7.85Z"/><path class="cls-11" d="M712.31,400.26a7.85,7.85,0,1,1-7.85-7.85,7.88,7.88,0,0,1,7.85,7.85Z"/><path class="cls-4" d="M721.48,519.3a72.45,72.45,0,0,0-72.61,72.61v60H794.09v-60a72.45,72.45,0,0,0-72.61-72.61Z"/><path class="cls-1" d="M740.31,547.92a23.46,23.46,0,1,0,16.57,6.87,23.44,23.44,0,0,0-16.57-6.87Z"/><path class="cls-4" d="M1021.11,519.3a72.45,72.45,0,0,0-72.61,72.61v60h145.23v-60a72.46,72.46,0,0,0-72.62-72.61Z"/><path class="cls-1" d="M1039.94,547.92a23.44,23.44,0,1,0,16.58,6.87,23.44,23.44,0,0,0-16.58-6.87Z"/><path class="cls-12" d="M765.36,736.64a22,22,0,0,0-22.09,22.1v24.93a128,128,0,0,0,256.07,0V758.74a22,22,0,0,0-22.09-22.1Z"/><path class="cls-13" d="M871.3,824a127.77,127.77,0,0,0-96.47,43.86,128,128,0,0,0,192.94,0A127.74,127.74,0,0,0,871.3,824Z"/><path class="cls-1" d="M765.36,736.64a22,22,0,0,0-22.1,22.1V781a295,295,0,0,0,256.08.08V758.74a22,22,0,0,0-22.09-22.1Z"/><path class="cls-14" d="M765.36,736.64a22,22,0,0,0-22.1,22.1V781A298.54,298.54,0,0,0,788,797.78c-8.72-5.89-10.4-14-10.4-26.87V736.64Z"/><path class="cls-14" d="M930.66,736.64v34.27c0,17.28-4.42,32.24-19.28,36.22a298,298,0,0,0,88-26.06V758.74a22,22,0,0,0-22.09-22.1Z"/><path class="cls-15" d="M977.25,736.64a22,22,0,0,1,22.09,22.1V781a299.68,299.68,0,0,1-44.74,16.8c8.73-5.89,10.4-14.06,10.4-26.88V736.64Z"/><path class="cls-4" d="M866.29,729.59v14.1h111a14.86,14.86,0,0,1,15,15v24.93a120.88,120.88,0,0,1-121,121c-1.69,0-3.36-.06-5-.13v14.1c1.67.06,3.33.13,5,.13a135.19,135.19,0,0,0,135.07-135.09V758.74a29.24,29.24,0,0,0-29.14-29.15Z"/><path class="cls-4" d="M742.08,776.92,739,783.25a301.77,301.77,0,0,0,264.6,0l-3.08-6.33a294.75,294.75,0,0,1-258.44,0Z"/><path class="cls-16" d="M835.84,843.5a26.49,26.49,0,0,0-15.05,4.39c-4,2.81-6.24,6.63-6.24,10.61,0,8.28,9.54,15,21.29,15s21.29-6.71,21.29-15c0-4-2.24-7.8-6.23-10.6a26.42,26.42,0,0,0-15.06-4.4Z"/><path class="cls-4" d="M765.36,729.59a29.24,29.24,0,0,0-29.15,29.15v24.93a135.2,135.2,0,0,0,135.1,135.08c1.67,0,3.33-.06,5-.12v-14.1c-1.66.07-3.33.13-5,.13a120.88,120.88,0,0,1-121-121V758.74a14.86,14.86,0,0,1,15-15H876.31v-14.1Z"/><path class="cls-4" d="M636.93,199a238.92,238.92,0,0,0-5.16,49.49v60.72c0,34,28.27,62.31,62.3,62.31h354.46c34,0,62.32-28.28,62.32-62.31V248.5a239.6,239.6,0,0,0-5.16-49.49h-57.94a184.53,184.53,0,0,1,6.71,49.48v60.73c0,3.77-2.16,5.93-5.93,5.93H694.07c-3.77,0-5.92-2.16-5.92-5.93V248.5A184.67,184.67,0,0,1,694.87,199Z"/><path class="cls-4" d="M871.3,9C752.78,9,654,95.75,635,209h57.35a183.24,183.24,0,0,1,357.84,0h57.34C1088.67,95.75,989.82,9,871.3,9Z"/><path class="cls-4" d="M866.29,235.56V292h210c9.59,0,16.41,6.82,16.41,16.4v4.26c0,55.45-43.76,99.21-99.21,99.21H866.29v56.39H993.52c85.72,0,155.6-69.89,155.6-155.6v-4.26c0-39.84-32.95-72.79-72.8-72.79Z"/><path class="cls-4" d="M666.28,235.56c-39.85,0-72.8,32.95-72.8,72.79v4.26c0,85.71,69.88,155.6,155.6,155.6H876.31V411.82H749.08c-55.45,0-99.21-43.76-99.21-99.21v-4.26c0-9.58,6.82-16.4,16.41-16.4h210V235.56Z"/><path class="cls-17" d="M666.29,263.75a44.51,44.51,0,0,0-44.61,44.61v4.24A127.13,127.13,0,0,0,749.09,440H993.52A127.13,127.13,0,0,0,1120.93,312.6v-4.24a44.51,44.51,0,0,0-44.61-44.61Z"/><path class="cls-4" d="M666.28,256.7a51.7,51.7,0,0,0-51.66,51.65v4.24A134.33,134.33,0,0,0,749.09,447.07H876.31V433H749.09A120,120,0,0,1,628.72,312.59v-4.24a37.32,37.32,0,0,1,37.56-37.55h210V256.7Z"/><path class="cls-4" d="M866.29,256.7v14.1h210a37.32,37.32,0,0,1,37.56,37.55v4.24A120,120,0,0,1,993.52,433H866.29v14.1H993.52A134.33,134.33,0,0,0,1128,312.59v-4.24a51.7,51.7,0,0,0-51.66-51.65Z"/><path class="cls-4" d="M853.53,0c-44.45,0-81,36.54-81,81V343.34h47.28V81c0-19.09,14.62-33.72,33.71-33.72h35.56c19.09,0,33.71,14.63,33.71,33.72V343.34h47.26V81c0-44.45-36.52-81-81-81Z"/><path class="cls-17" d="M744,370.91H998.5a83.87,83.87,0,0,0,84.06-84.05l.09-38.37c0-116.72-94.62-211.34-211.35-211.34S660.16,131.77,660,248.49l-.07,38.37A83.89,83.89,0,0,0,744,370.91Z"/><path class="cls-1" d="M755.63,71.63A211.61,211.61,0,0,0,660,248.49l-.07,38.37A83.85,83.85,0,0,0,699,358l.07-124.7c.1-62.44,21.53-119.23,56.53-161.64Z"/><path class="cls-18" d="M935.36,47A57.2,57.2,0,0,1,946.43,81V370.91H998.5a83.87,83.87,0,0,0,84.06-84.05l.09-38.37c0-94.39-61.88-174.31-147.29-201.45Z"/><path class="cls-4" d="M658.62,199a219.06,219.06,0,0,0-5.71,49.47l-.07,38.36A91.08,91.08,0,0,0,744,378H998.49a91.05,91.05,0,0,0,91.1-91.1l.1-38.35A218.72,218.72,0,0,0,1084,199h-14.47a205.15,205.15,0,0,1,6,49.47l-.1,38.36a76.68,76.68,0,0,1-77,77H744a76.71,76.71,0,0,1-77-77l.08-38.35a205.83,205.83,0,0,1,6.1-49.49Z"/><path class="cls-4" d="M871.3,30.09c-107.06,0-196.06,77.23-214.76,179h14.35c18.47-94,101-164.83,200.43-164.83a204.23,204.23,0,0,1,200.49,164.84h14.32C1067.53,107.34,978.36,30.14,871.3,30.14Z"/><path class="cls-17" d="M853.52,23.64A57.22,57.22,0,0,0,796.18,81V343.34H946.43V81a57.22,57.22,0,0,0-57.34-57.35Z"/><rect class="cls-1" x="819.7" y="70.97" width="14.1" height="278.52"/><path class="cls-4" d="M853.53,16.59A64.42,64.42,0,0,0,789.13,81V370.91h14.1V81a50,50,0,0,1,50.3-50.3h35.56A50,50,0,0,1,939.39,81V370.91h14.1V81a64.42,64.42,0,0,0-64.4-64.4Z"/><path class="cls-4" d="M68.79,631V906.74c0,62.84,51.46,114.3,114.3,114.3s114.32-51.46,114.32-114.3V631H241V906.68c0,32.58-25.35,57.92-57.93,57.92s-57.91-25.34-57.91-57.92V631Z"/><path class="cls-4" d="M43.8,201.25l-8.45,11.54A183.1,183.1,0,0,0,0,320.61v.14C.07,376.19,26.16,427.43,68.79,462V641h56.39V434.23l-12.53-8.39A126.59,126.59,0,0,1,56.39,320.68c.07-22.44,7.3-43.78,18.54-63h30.44v39.58c0,25.45,21.37,46.81,46.82,46.81H214c25.44,0,46.8-21.36,46.8-46.81V257.65h30.44c11.25,19.25,18.49,40.6,18.54,63.05a126.68,126.68,0,0,1-56.26,105.21L241,434.29V641h56.39V462c42.64-34.55,68.75-85.83,68.78-141.28v-.07a183.13,183.13,0,0,0-35.38-107.82l-8.45-11.54H204.43v86.4H161.76v-86.4Z"/><path class="cls-2" d="M183.1,341.68a85.93,85.93,0,0,1,86.11,86.12V906.68a86.12,86.12,0,1,1-172.23,0V427.8a85.93,85.93,0,0,1,86.12-86.12Z"/><path class="cls-4" d="M205.74,909.9a22.64,22.64,0,1,1-6.63-16,22.6,22.6,0,0,1,6.63,16Z"/><path class="cls-2" d="M58.11,229.45a154.91,154.91,0,1,0,250,0H232.63v67.77A18.58,18.58,0,0,1,214,315.84H152.19a18.58,18.58,0,0,1-18.62-18.62V229.45Z"/><path class="cls-1" d="M232.63,229.45v67.77A18.58,18.58,0,0,1,214,315.84H152.19a18.57,18.57,0,0,1-18.62-18.62v-9.13l-84.39,110A154.82,154.82,0,0,0,97,449.28v89.28L319.76,248.23a155.32,155.32,0,0,0-11.69-18.78Z"/><path class="cls-4" d="M89.94,631V906.67a93.17,93.17,0,0,0,186.33,0V631h-14.1V906.68a79.07,79.07,0,1,1-158.14,0V631Z"/><path class="cls-19" d="M183.1,451.91c-22.07,0-38.34,16.27-38.34,38.34V781.78c0,22.07,16.27,38.34,38.34,38.34s38.34-16.27,38.34-38.34V490.25c0-22.07-16.27-38.34-38.34-38.34Z"/><path class="cls-4" d="M137.71,631V781.79c0,25.53,19.85,45.38,45.38,45.38s45.39-19.85,45.39-45.38V631H214.39V781.79c0,18.6-12.69,31.28-31.3,31.28s-31.29-12.68-31.29-31.28V631Z"/><path class="cls-4" d="M54.53,222.4l-2.12,2.89A160.79,160.79,0,0,0,89.94,452.42V641H104V445.51l-3.12-2.09A146.87,146.87,0,0,1,62,236.51h64.51v60.73a25.78,25.78,0,0,0,25.68,25.67H214a25.77,25.77,0,0,0,25.66-25.67V236.51h64.49a146.95,146.95,0,0,1-38.87,207l-3.13,2.09V641h14.1V452.49a160.84,160.84,0,0,0,37.48-227.2l-2.11-2.88H225.58v74.83A11.39,11.39,0,0,1,214,308.81H152.19a11.41,11.41,0,0,1-11.58-11.57V222.41Z"/><path class="cls-4" d="M183.09,444.86c-25.53,0-45.38,19.86-45.38,45.39V641H151.8V490.25c0-18.6,12.69-31.29,31.29-31.29s31.3,12.69,31.3,31.29V641h14.09V490.25c0-25.53-19.85-45.39-45.39-45.39Z"/><path class="cls-4" d="M1807.5,932.12v56.39h278.84c8.39,0,14.25,5.87,14.25,14.26V1320.4c0,8.39-5.86,14.27-14.25,14.27H1807.5v56.39h278.84c38.65,0,70.64-32,70.64-70.66V1002.77c0-38.65-32-70.65-70.64-70.65Z"/><path class="cls-4" d="M1735.35,810.87c-39.62,0-72.41,32.78-72.41,72.41V988.52h97.8V908.65h103.55v79.87h97.78V883.28c0-39.63-32.8-72.41-72.42-72.41Z"/><path class="cls-4" d="M1538.69,932.12c-38.65,0-70.65,32-70.65,70.65V1320.4c0,38.65,32,70.66,70.65,70.66h278.82v-56.39H1538.69c-8.39,0-14.27-5.88-14.27-14.27V1002.77c0-8.39,5.88-14.26,14.27-14.26h278.82V932.12Z"/><path class="cls-20" d="M1538.68,960.32h547.66a42.35,42.35,0,0,1,42.45,42.45v317.64a42.35,42.35,0,0,1-42.45,42.45H1538.68a42.35,42.35,0,0,1-42.45-42.45V1002.77a42.35,42.35,0,0,1,42.45-42.45Z"/><path class="cls-21" d="M1496.41,1312.54l-.18.34v7.53a42.36,42.36,0,0,0,42.45,42.45h547.66a42.36,42.36,0,0,0,42.45-42.45v-7.62l-.19-.25Z"/><path class="cls-22" d="M1538.68,960.32a42.36,42.36,0,0,0-42.45,42.45v37.3a42.36,42.36,0,0,1,42.45-42.45h547.66a42.36,42.36,0,0,1,42.45,42.45v-37.3a42.36,42.36,0,0,0-42.45-42.45Z"/><path class="cls-23" d="M1735.36,839.06a44.12,44.12,0,0,0-44.22,44.21v77.05h41.4V880.46h159.94v79.86h41.4V883.27a44.13,44.13,0,0,0-44.23-44.21Z"/><path class="cls-4" d="M1807.5,953.27v14.09h278.84a35.17,35.17,0,0,1,35.39,35.41V1320.4a35.16,35.16,0,0,1-35.39,35.41H1807.5v14.1h278.84a49.55,49.55,0,0,0,49.49-49.51V1002.77a49.54,49.54,0,0,0-49.49-49.5Z"/><path class="cls-21" d="M1606.55,1058.85a17,17,0,0,0-17,17v80.69a51.81,51.81,0,0,0,103.61,0v-80.69a17,17,0,0,0-17-17Z"/><path class="cls-21" d="M1941.49,1058.85a17,17,0,0,0-17,17v80.69a51.8,51.8,0,0,0,103.6,0v-80.69a17,17,0,0,0-17-17Z"/><rect class="cls-4" x="1496.23" y="1087.45" width="632.55" height="14.1"/><rect class="cls-4" x="1496.41" y="1305.5" width="632.2" height="14.09"/><path class="cls-4" d="M1735.37,832a51.32,51.32,0,0,0-51.28,51.27v77.05h14.09V883.28a36.94,36.94,0,0,1,37.19-37.17h154.29a36.93,36.93,0,0,1,37.17,37.17v77.05h14.09V883.28A51.31,51.31,0,0,0,1889.66,832Zm-9.87,41.4v86.92h14.09V887.5h145.84v72.83h14.1V873.41Z"/><path class="cls-23" d="M1610.7,1042a15,15,0,0,0-15,15v71.09a45.63,45.63,0,0,0,91.26,0V1057a15,15,0,0,0-15-15Z"/><path class="cls-24" d="M1610.7,1042a15,15,0,0,0-15,15V1073H1687V1057a15,15,0,0,0-15-15Z"/><path class="cls-4" d="M1588.64,1102.85v25.25a52.69,52.69,0,0,0,105.37,0v-25.25h-14.09v25.25a38.59,38.59,0,0,1-77.18,0v-25.25Z"/><rect class="cls-4" x="1595.69" y="1065.89" width="91.27" height="14.1"/><path class="cls-23" d="M1945.63,1042a15,15,0,0,0-15,15v71.09a45.63,45.63,0,0,0,91.26,0V1057a15,15,0,0,0-15-15Z"/><path class="cls-24" d="M1945.63,1042a15,15,0,0,0-15,15V1073h91.26V1057a15,15,0,0,0-15-15Z"/><path class="cls-4" d="M1923.58,1102.85v25.25a52.68,52.68,0,0,0,105.35,0v-25.25h-14.09v25.25a38.58,38.58,0,0,1-77.16,0v-25.25Z"/><rect class="cls-4" x="1930.63" y="1065.89" width="91.26" height="14.1"/><path class="cls-4" d="M1538.69,953.27a49.56,49.56,0,0,0-49.51,49.5V1320.4a49.57,49.57,0,0,0,49.51,49.51h278.82v-14.1H1538.69a35.18,35.18,0,0,1-35.41-35.41V1002.77a35.18,35.18,0,0,1,35.41-35.41h278.82V953.27Z"/><path class="cls-4" d="M1610.7,1035a22.17,22.17,0,0,0-22.06,22v55.86h14.1V1057a7.79,7.79,0,0,1,8-8H1672a7.79,7.79,0,0,1,8,8v55.86H1694V1057a22.17,22.17,0,0,0-22.06-22Z"/><path class="cls-4" d="M1945.64,1035a22.16,22.16,0,0,0-22.06,22v55.86h14.1V1057a7.79,7.79,0,0,1,8-8h61.26a7.78,7.78,0,0,1,7.94,8v55.86h14.1V1057a22.15,22.15,0,0,0-22-22Z"/></g></g></svg>