<svg xmlns="http://www.w3.org/2000/svg" viewBox="0 0 385.84 493.32"><defs><style>.cls-1{isolation:isolate;}.cls-2{fill:#133441;}.cls-3{fill:#45d5da;}.cls-4{mix-blend-mode:soft-light;}.cls-5{fill:#fff;}.cls-6{mix-blend-mode:multiply;}.cls-7{fill:#88dbdb;}.cls-8{mix-blend-mode:overlay;}.cls-9{fill:#c5f0f0;}.cls-10{fill:#73cc14;}.cls-11{fill:#bae3e3;}.cls-12{fill:#e0e0e0;}.cls-13{fill:#ccc;}.cls-14{fill:#a3c7c7;}</style></defs><g class="cls-1"><g id="Réteg_2" data-name="Réteg 2"><g id="Layer_1" data-name="Layer 1"><path class="cls-2" d="M362.8,379.83a4.43,4.43,0,0,1-1.16-8.7c12.84-3.5,16.7-16,14.86-26.1-2.86-15.63-18.56-30.19-47.23-27.46a4.43,4.43,0,1,1-.84-8.82c34.25-3.26,53.2,15.07,56.78,34.69,3.12,17.07-5.62,32-21.24,36.24A4.69,4.69,0,0,1,362.8,379.83Z"/><path class="cls-2" d="M368.56,372.48c-3.31-8.56-9.24-9.88-13.33-8.33a11,11,0,0,0-5.66,5.14,13.26,13.26,0,0,0-6.4,8.12,10,10,0,0,0,3.13,10.13,16.22,16.22,0,0,0,15,2.87,13.2,13.2,0,0,0,3.6-1.8C369.76,385.13,371.13,379.1,368.56,372.48Z"/><path class="cls-2" d="M254.53,493.32h-.3c-7.5-.5-11.35-3.37-11.76-3.7a4.39,4.39,0,0,1-1.69-3.68l2.33-52.12a4.43,4.43,0,1,1,8.85.4l-2.2,49.28a19,19,0,0,0,5.06,1,4.43,4.43,0,0,1-.29,8.86Z"/><path class="cls-2" d="M166.59,493.32a4.44,4.44,0,0,1-.29-8.86,18.73,18.73,0,0,0,5.07-1l-2.21-49.27a4.43,4.43,0,1,1,8.86-.4l2.33,52.12a4.44,4.44,0,0,1-1.69,3.68c-.42.33-4.26,3.2-11.77,3.7Z"/><path class="cls-2" d="M97.53,274a4.55,4.55,0,0,1-1.82-.39c-1.87-.85-46.34-21.14-78-55.74a4.43,4.43,0,0,1,6.54-6c30.41,33.22,74.68,53.44,75.12,53.64A4.43,4.43,0,0,1,97.53,274Z"/><path class="cls-2" d="M15.37,201.71c-2.79-3.72-4.94-6.62-5-6.66a5.77,5.77,0,0,0-9.27,6.86c0,.05,2.62,3.53,5.81,7.77A10.88,10.88,0,0,0,5.5,215c.32,7.83,22.38,13.11,25.92-1.34a9.6,9.6,0,0,0-2.9-9.56A11.83,11.83,0,0,0,15.37,201.71Z"/><path class="cls-3" d="M280.58,21.45A17.64,17.64,0,0,0,266,4.3a317,317,0,0,0-90.25-2A17.63,17.63,0,0,0,160.5,18.8c-.44,6.42-.83,12.85-1.21,19.27l121.65,2.69C280.84,34.32,280.74,27.89,280.58,21.45Z"/><path class="cls-3" d="M280.58,21.45A17.64,17.64,0,0,0,266,4.3a317,317,0,0,0-90.25-2A17.63,17.63,0,0,0,160.5,18.8c-.44,6.42-.83,12.85-1.21,19.27l121.65,2.69C280.84,34.32,280.74,27.89,280.58,21.45Z"/><g class="cls-4"><path class="cls-5" d="M160.4,23A17.65,17.65,0,0,1,175.69,6.49a317.38,317.38,0,0,1,90.25,2,17.64,17.64,0,0,1,14.55,17.15c.12,5,.2,10.09.28,15.13h.17c-.1-6.44-.2-12.87-.36-19.31A17.64,17.64,0,0,0,266,4.3a317,317,0,0,0-90.25-2A17.63,17.63,0,0,0,160.5,18.8c-.44,6.42-.83,12.85-1.21,19.27h.17C159.76,33,160.06,28,160.4,23Z"/></g><g class="cls-6"><path class="cls-7" d="M274.7,35a15.23,15.23,0,0,0-13.22-14.36,311.67,311.67,0,0,0-81.86-1.81,15.23,15.23,0,0,0-13.84,13.76c-.39,5.37-.73,10.74-1.07,16.12l110.34,2.43C275,45.8,274.85,40.42,274.7,35Z"/></g><path class="cls-3" d="M302.5,441.49a721.64,721.64,0,0,1-182.44-4C103.39,435,91,422,90.57,406.64a3342.32,3342.32,0,0,1,7.69-348.3C99.4,43,112.32,30.61,129.08,28.86a721.63,721.63,0,0,1,182.44,4c16.67,2.5,29,15.45,29.49,30.82A3339.45,3339.45,0,0,1,333.32,412C332.18,427.34,319.26,439.74,302.5,441.49Z"/><g class="cls-8"><path class="cls-5" d="M341,63.7c-.46-15.37-12.82-28.33-29.49-30.82a721.63,721.63,0,0,0-182.44-4C112.32,30.61,99.4,43,98.26,58.34a3342.32,3342.32,0,0,0-7.69,348.3C91,422,103.39,435,120.06,437.46a721.65,721.65,0,0,0,182.44,4c16.76-1.75,29.68-14.15,30.82-29.49A3339.45,3339.45,0,0,0,341,63.7ZM330.35,408.83c-1.11,15.06-13.72,27.24-30.06,29a698.58,698.58,0,0,1-177.86-3.93c-16.25-2.44-28.3-15.16-28.75-30.26a3305.84,3305.84,0,0,1,7.55-342.08c1.12-15.07,13.72-27.24,30.06-29a698.66,698.66,0,0,1,177.87,3.93c16.24,2.45,28.3,15.17,28.74,30.27A3305.9,3305.9,0,0,1,330.35,408.83Z"/></g><g class="cls-6"><path class="cls-9" d="M104.1,137.6c.59-35.8,0-64.76,19.87-83.37s166-14.62,185.69-3.52,21.14,57.48,20.42,90.36C328.18,227.12,102.7,222.9,104.1,137.6Z"/></g><g class="cls-4"><path class="cls-5" d="M341,63.7c-.47-15.37-12.83-28.33-29.5-30.82a722.1,722.1,0,0,0-182.44-4C112.32,30.61,99.4,43,98.26,58.34c0,.1,0,.2,0,.3,3.46-12.9,15.89-22.86,30.73-24.41a722,722,0,0,1,182.43,4c16.18,2.42,28.57,14.66,29.71,29.43C341.07,66.36,341.06,65,341,63.7Z"/></g><g class="cls-8"><g class="cls-4"><path class="cls-5" d="M290.33,423.8A621.71,621.71,0,0,1,133,420.33c-14.37-2.15-25-13.35-25.43-26.63a2890.93,2890.93,0,0,1,6.65-300.91c1-13.26,12.13-24,26.58-25.48a621.71,621.71,0,0,1,157.34,3.47c14.37,2.15,25,13.35,25.43,26.63a2893.88,2893.88,0,0,1-6.64,300.92C315.93,411.58,304.79,422.29,290.33,423.8Z"/></g></g><path class="cls-10" d="M286.91,418.93a577.25,577.25,0,0,1-150.28-3.32c-13.73-2.11-23.9-13.1-24.28-26.15a2926.3,2926.3,0,0,1,6.53-295.72c1-13,11.6-23.56,25.41-25A576.82,576.82,0,0,1,294.57,72c13.73,2.1,23.91,13.09,24.28,26.15a2926.17,2926.17,0,0,1-6.53,295.71C311.37,406.9,300.72,417.43,286.91,418.93Z"/><g class="cls-6"><path class="cls-11" d="M282.88,411.44c-29.21,6.51-111.69,6.46-140.38-1.51-10.06-2.79-59.63-33.57,69.09-30.91C325.64,381.38,307.72,405.9,282.88,411.44Z"/></g><g class="cls-4"><path class="cls-12" d="M162.46,336.79a14.1,14.1,0,1,0-14.41,13.78A14.1,14.1,0,0,0,162.46,336.79Z"/></g><g class="cls-4"><path class="cls-12" d="M154.36,374.45A10.33,10.33,0,1,0,164.46,385,10.34,10.34,0,0,0,154.36,374.45Z"/></g><g class="cls-4"><path class="cls-12" d="M271.12,103.07a8.87,8.87,0,1,0,8.67,9.06A8.87,8.87,0,0,0,271.12,103.07Z"/></g><g class="cls-4"><path class="cls-12" d="M159.75,104.39a5.38,5.38,0,1,0,5.26,5.5A5.37,5.37,0,0,0,159.75,104.39Z"/></g><g class="cls-4"><path class="cls-12" d="M287.6,158a5.39,5.39,0,1,0,5.26,5.51A5.4,5.4,0,0,0,287.6,158Z"/></g><g class="cls-4"><path class="cls-12" d="M283.51,370.48a5.39,5.39,0,1,0,5.27,5.51A5.4,5.4,0,0,0,283.51,370.48Z"/></g><g class="cls-4"><path class="cls-12" d="M193.87,349.41a8,8,0,1,0,7.87,8.23A8.05,8.05,0,0,0,193.87,349.41Z"/></g><g class="cls-8"><path class="cls-13" d="M114.09,98.29c1-13.26,12.13-24,26.58-25.48A621.71,621.71,0,0,1,298,76.28c14.37,2.15,25,13.35,25.43,26.63q2.22,73.93.64,147.79,1.76-76.59-.52-153.29c-.4-13.28-11.06-24.47-25.43-26.63a621.71,621.71,0,0,0-157.34-3.47c-14.45,1.51-25.6,12.22-26.58,25.48q-5.68,76.52-7.29,153.12Q108.63,172,114.09,98.29Z"/></g><ellipse class="cls-5" cx="172.98" cy="14.11" rx="6.85" ry="4.34" transform="translate(29.3 111.46) rotate(-38.78)"/><path class="cls-5" d="M142.35,73.59c-9.72,8.74-22.23,10.69-27.94,4.34S112,59.35,121.7,50.61s22.23-10.69,27.93-4.34S152.08,64.85,142.35,73.59Z"/><g class="cls-6"><path class="cls-14" d="M232,98.43c-2.54-1.89-44,25.8-41.73,31.41s21.74-1.75,23.87.53S197.36,156,199.6,159.32s42.81-34.81,41.15-38.72-20.63,3.42-21.86-.48S234.51,100.31,232,98.43Z"/></g><ellipse class="cls-5" cx="146.23" cy="260.11" rx="32.15" ry="32.19" transform="translate(-119.25 396.34) rotate(-87.82)"/><path class="cls-2" d="M168.38,259.71a22.17,22.17,0,1,0-21.77,22.54A22.16,22.16,0,0,0,168.38,259.71Zm-24.82-1.95c-3.53,3.81-9,4.52-12.12,1.6s-2.87-8.38.66-12.19,9-4.52,12.12-1.59S147.08,254,143.56,257.76Zm16.68,15.17c-2,2.2-5.18,2.61-7,.92s-1.66-4.85.38-7.05,5.18-2.62,7-.93S162.28,270.72,160.24,272.93Z"/><ellipse class="cls-5" cx="284.67" cy="263.64" rx="32.15" ry="32.19" transform="translate(10.45 538.14) rotate(-87.83)"/><path class="cls-2" d="M306.82,263.25a22.17,22.17,0,1,0-21.77,22.53A22.17,22.17,0,0,0,306.82,263.25ZM282.33,260c-4,3.33-9.45,3.36-12.22.06s-1.79-8.67,2.19-12,9.45-3.36,12.22-.06S286.31,256.68,282.33,260Zm17.86,15.69c-2,2.2-5.18,2.62-7,.92s-1.66-4.85.38-7.05,5.18-2.61,7-.92S302.23,273.5,300.19,275.7Z"/><path class="cls-2" d="M262.82,202.51c-.9,5.63,8.93,9.18,20,10.7,9.92,1.35,19.47,3.56,21.94-3.6C309.85,194.89,265.5,185.58,262.82,202.51Z"/><path class="cls-2" d="M128.89,205c2.05,7.28,11.71,5.63,21.69,4.86,11.15-.87,21.17-3.86,20.6-9.52C169.48,183.26,124.67,190,128.89,205Z"/><path class="cls-2" d="M195.67,282.57c1.78,7.89,10.57,11.69,18,12.28,6.06.49,21.32-2.47,20.46-11.1-.15-1.46-1.4-3.1-3.11-2.51-3,1-4.14,3.8-6.82,5.36a17.94,17.94,0,0,1-9.78,2.16c-6.07-.23-12.46-2.58-16.22-7.55-.94-1.24-2.8,0-2.5,1.36Z"/></g></g></g></svg>