<svg xmlns="http://www.w3.org/2000/svg" viewBox="0 0 1558.05 1055.05"><defs><style>.cls-1{fill:#fff;}.cls-2{fill:#1a1a1a;}.cls-3{fill:#c21532;}.cls-4{fill:#8d1330;}.cls-5{fill:#f31931;}.cls-6{fill:#3aa89a;}.cls-7{fill:#326e79;}.cls-8{fill:#b4afa9;}.cls-9{fill:#8b8b8b;}.cls-10{fill:#d7d4d1;}.cls-11{fill:#c1bcb7;}.cls-12{fill:#959595;}.cls-13{fill:#c4b676;}</style></defs><g id="Réteg_2" data-name="Réteg 2"><g id="Réteg_1" data-name="Réteg 1"><path class="cls-1" d="M841.44,434.75h-.89c-.24,0-.47.05-.7.09s-.45.06-.67.09-.46.09-.68.15l-.61.12h-.09a.72.72,0,0,1-.2.09l-.89.31c-.21.08-.43.16-.63.25s-.42.19-.63.29-.41.21-.61.32l-.59.33-.57.38-.56.4-.52.43c-.18.15-.35.3-.51.46s-.33.32-.49.48l-.47.51c-.15.17-.29.34-.43.52s-.28.37-.42.56-.26.37-.38.56l-.36.58c-.11.21-.22.41-.32.62s-.2.4-.29.61-.18.42-.26.64-.16.42-.23.64-.14.43-.2.66-.12.44-.17.65-.09.45-.12.68-.08.45-.11.68l-.09.68v1.62c0,.07,0,.15,0,.22,0,.23.06.45.09.68s.06.45.09.68.09.45.15.68.08.41.13.61v.09l.09.2c.09.3.19.6.3.89s.16.43.26.65.17.41.27.62.21.4.32.6.22.4.34.6.24.38.37.57l.4.56c.13.18.28.36.43.53s.3.34.45.51.32.33.49.48l.5.47.53.44c.18.14.36.28.55.41l.56.38c.19.13.39.25.59.36l.6.32c.21.11.41.21.62.3l.63.26.65.23c.22.08.44.14.66.2l.67.17.66.13.68.1.68.09h1.84l.69-.09c.23,0,.46-.06.68-.09s.45-.09.67-.15l.61-.13h.09l.2-.08.91-.31.63-.25.63-.29.6-.32.6-.33.57-.38c.19-.13.38-.26.56-.4s.36-.28.53-.43.35-.29.51-.45l.48-.48c.16-.17.32-.33.47-.5s.3-.34.44-.53.28-.36.41-.55l.39-.56.35-.58c.11-.21.22-.41.32-.62l.3-.61c.09-.21.17-.42.25-.63s.16-.43.24-.65.13-.43.19-.65.12-.44.17-.67.1-.44.13-.67.07-.45.1-.68.07-.45.09-.68,0-.45,0-.68a1.22,1.22,0,0,0,0-.27c0-.22,0-.45,0-.68a1.48,1.48,0,0,0,0-.21c0-.23,0-.47-.09-.7s-.05-.44-.09-.67-.09-.45-.14-.68-.08-.41-.13-.61v-.09l-.09-.2q-.14-.45-.3-.9c-.09-.21-.17-.43-.26-.64s-.18-.41-.28-.62-.2-.4-.32-.6-.21-.4-.33-.59-.25-.39-.38-.57-.26-.38-.4-.56-.28-.36-.43-.53-.3-.35-.46-.52l-.48-.49c-.16-.16-.33-.31-.5-.46l-.53-.43c-.18-.14-.36-.28-.55-.41l-.58-.39c-.19-.12-.38-.24-.58-.35l-.6-.32L847,436l-.64-.26-.63-.24-.66-.19-.67-.17-.67-.13-.68-.1-.68-.09h-.94Z"/><path class="cls-1" d="M841.44,434.75h-.89c-.24,0-.47.05-.7.09s-.45.06-.67.09-.46.09-.68.15l-.61.12h-.09a.72.72,0,0,1-.2.09l-.89.31c-.21.08-.43.16-.63.25s-.42.19-.63.29-.41.21-.61.32l-.59.33-.57.38-.56.4-.52.43c-.18.15-.35.3-.51.46s-.33.32-.49.48l-.47.51c-.15.17-.29.34-.43.52s-.28.37-.42.56-.26.37-.38.56l-.36.58c-.11.21-.22.41-.32.62s-.2.4-.29.61-.18.42-.26.64-.16.42-.23.64-.14.43-.2.66-.12.44-.17.65-.09.45-.12.68-.08.45-.11.68l-.09.68v1.62c0,.07,0,.15,0,.22,0,.23.06.45.09.68s.06.46.09.69.09.45.15.68.08.4.13.6v.09l.09.2c.09.3.19.6.3.89s.16.43.26.65.17.41.27.62.21.4.32.6.22.4.34.6.24.38.37.57l.4.56c.13.18.28.36.43.53s.3.34.45.51.32.33.49.48l.5.47.53.44c.18.14.36.28.55.41l.56.38c.19.13.39.25.59.36l.6.32c.21.11.41.21.62.3l.63.26.65.23c.22.08.44.14.66.2l.67.16.66.13.68.1c.23,0,.45.07.68.09h1.84q.35,0,.69-.09c.23,0,.46-.05.68-.09s.45-.09.67-.15a6,6,0,0,0,.61-.13h.09a.72.72,0,0,0,.2-.09c.31-.08.61-.19.91-.29l.63-.26.63-.28.6-.33c.2-.1.4-.22.6-.34s.38-.24.57-.37.38-.26.56-.4.36-.28.53-.43l.51-.45c.17-.15.33-.32.48-.48l.47-.49c.15-.18.3-.35.44-.54s.28-.36.41-.54l.39-.57.35-.58c.11-.21.22-.41.32-.62l.3-.61c.09-.21.17-.42.25-.63s.16-.43.24-.65.13-.43.19-.65.12-.44.17-.66.1-.45.13-.68.07-.45.1-.68.07-.45.09-.68,0-.45,0-.68a1.22,1.22,0,0,0,0-.27q0-.34,0-.69a1.48,1.48,0,0,0,0-.21q0-.35-.09-.69c0-.23-.05-.46-.09-.68s-.09-.45-.14-.67-.08-.41-.13-.61v-.09l-.09-.2q-.14-.45-.3-.9l-.26-.63c-.09-.21-.18-.42-.28-.63s-.2-.4-.32-.6-.21-.4-.33-.59l-.38-.57-.4-.56-.43-.53c-.15-.18-.3-.35-.46-.52l-.48-.48-.5-.47-.53-.44c-.18-.14-.36-.28-.55-.41s-.38-.26-.58-.38-.38-.25-.58-.36l-.6-.32-.62-.3c-.21-.09-.42-.18-.64-.25s-.42-.17-.63-.24-.44-.14-.66-.19-.45-.13-.67-.18l-.67-.13-.68-.1-.68-.09h-.95Z"/><path class="cls-1" d="M841.44,434.75h-.89c-.24,0-.47.05-.7.09s-.45.06-.67.09-.46.09-.68.15l-.61.12h-.09a.72.72,0,0,1-.2.09l-.89.31c-.21.08-.43.16-.63.25s-.42.19-.63.29-.41.21-.61.32l-.59.33-.57.38-.56.4-.52.43c-.18.15-.35.3-.51.46s-.33.32-.49.48l-.47.51c-.15.17-.29.34-.43.52s-.28.37-.42.56-.26.37-.38.56l-.36.58c-.11.21-.22.41-.32.62s-.2.4-.29.61-.18.42-.26.64-.16.42-.23.64-.14.43-.2.66-.12.44-.17.65-.09.45-.12.68-.08.45-.11.68l-.09.68v1.62c0,.07,0,.15,0,.22,0,.23.06.45.09.68s.06.46.09.69.09.45.15.68.08.4.13.6v.09l.09.2c.09.3.19.6.3.89s.16.43.26.65.17.41.27.62.21.4.32.6.22.4.34.6.24.38.37.57l.4.56c.13.18.28.36.43.53s.3.34.45.51.32.33.49.48l.5.47.53.44c.18.14.36.28.55.41l.56.38c.19.13.39.25.59.36l.6.32c.21.11.41.21.62.3l.63.26.65.23c.22.08.44.14.66.2l.67.16.66.13.68.1c.23,0,.45.07.68.09h1.84q.35,0,.69-.09c.23,0,.46-.05.68-.09s.45-.09.67-.15a6,6,0,0,0,.61-.13h.09a.72.72,0,0,0,.2-.09c.31-.08.61-.19.91-.29l.63-.26.63-.28.6-.33c.2-.1.4-.22.6-.34s.38-.24.57-.37.38-.26.56-.4.36-.28.53-.43l.51-.45c.17-.15.33-.32.48-.48l.47-.49c.15-.18.3-.35.44-.54s.28-.36.41-.54l.39-.57.35-.58c.11-.21.22-.41.32-.62l.3-.61c.09-.21.17-.42.25-.63s.16-.43.24-.65.13-.43.19-.65.12-.44.17-.66.1-.45.13-.68.07-.45.1-.68.07-.45.09-.68,0-.45,0-.68a1.22,1.22,0,0,0,0-.27q0-.34,0-.69a1.48,1.48,0,0,0,0-.21q0-.35-.09-.69c0-.23-.05-.46-.09-.68s-.09-.45-.14-.67-.08-.41-.13-.61v-.09l-.09-.2q-.14-.45-.3-.9l-.26-.63c-.09-.21-.18-.42-.28-.63s-.2-.4-.32-.6-.21-.4-.33-.59l-.38-.57-.4-.56-.43-.53c-.15-.18-.3-.35-.46-.52l-.48-.48-.5-.47-.53-.44c-.18-.14-.36-.28-.55-.41s-.38-.26-.58-.38-.38-.25-.58-.36l-.6-.32-.62-.3c-.21-.09-.42-.18-.64-.25s-.42-.17-.63-.24-.44-.14-.66-.19-.45-.13-.67-.18l-.67-.13-.68-.1-.68-.09h-.95Z"/><path class="cls-1" d="M841.44,434.75h-.89c-.24,0-.47.05-.7.09s-.45.06-.67.09-.46.09-.68.15l-.61.12h-.09a.72.72,0,0,1-.2.09l-.89.31c-.21.08-.43.16-.63.25s-.42.19-.63.29-.41.21-.61.32l-.59.33-.57.38-.56.4-.52.43c-.18.15-.35.3-.51.46s-.33.32-.49.48l-.47.51c-.15.17-.29.34-.43.52s-.28.37-.42.56-.26.37-.38.56l-.36.58c-.11.21-.22.41-.32.62s-.2.4-.29.61-.18.42-.26.64-.16.42-.23.64-.14.43-.2.66-.12.44-.17.65-.09.45-.12.68-.08.45-.11.68l-.09.68v1.62c0,.07,0,.15,0,.22,0,.23.06.45.09.68s.06.46.09.69.09.45.15.68.08.4.13.6v.09l.09.2c.09.3.19.6.3.89s.16.43.26.65.17.41.27.62.21.4.32.6.22.4.34.6.24.38.37.57l.4.56c.13.18.28.36.43.53s.3.34.45.51.32.33.49.48l.5.47.53.44c.18.14.36.28.55.41l.56.38c.19.13.39.25.59.36l.6.32c.21.11.41.21.62.3l.63.26.65.23c.22.08.44.14.66.2l.67.16.66.13.68.1c.23,0,.45.07.68.09h1.84q.35,0,.69-.09c.23,0,.46-.05.68-.09s.45-.09.67-.15a6,6,0,0,0,.61-.13h.09a.72.72,0,0,0,.2-.09c.31-.08.61-.19.91-.29l.63-.26.63-.28.6-.33c.2-.1.4-.22.6-.34s.38-.24.57-.37.38-.26.56-.4.36-.28.53-.43l.51-.45c.17-.15.33-.32.48-.48l.47-.49c.15-.18.3-.35.44-.54s.28-.36.41-.54l.39-.57.35-.58c.11-.21.22-.41.32-.62l.3-.61c.09-.21.17-.42.25-.63s.16-.43.24-.65.13-.43.19-.65.12-.44.17-.66.1-.45.13-.68.07-.45.1-.68.07-.45.09-.68,0-.45,0-.68a1.22,1.22,0,0,0,0-.27q0-.34,0-.69a1.48,1.48,0,0,0,0-.21q0-.35-.09-.69c0-.23-.05-.46-.09-.68s-.09-.45-.14-.67-.08-.41-.13-.61v-.09l-.09-.2q-.14-.45-.3-.9l-.26-.63c-.09-.21-.18-.42-.28-.63s-.2-.4-.32-.6-.21-.4-.33-.59l-.38-.57-.4-.56-.43-.53c-.15-.18-.3-.35-.46-.52l-.48-.48-.5-.47-.53-.44c-.18-.14-.36-.28-.55-.41s-.38-.26-.58-.38-.38-.25-.58-.36l-.6-.32-.62-.3c-.21-.09-.42-.18-.64-.25s-.42-.17-.63-.24-.44-.14-.66-.19-.45-.13-.67-.18l-.67-.13-.68-.1-.68-.09h-.95Z"/><path class="cls-1" d="M841.44,434.75h-.89c-.24,0-.47.05-.7.09s-.45.06-.67.09-.46.09-.68.15l-.61.12h-.09a.72.72,0,0,1-.2.09l-.89.31c-.21.08-.43.16-.63.25s-.42.19-.63.29-.41.21-.61.32l-.59.33-.57.38-.56.4-.52.43c-.18.15-.35.3-.51.46s-.33.32-.49.48l-.47.51c-.15.17-.29.34-.43.52s-.28.37-.42.56-.26.37-.38.56l-.36.58c-.11.21-.22.41-.32.62s-.2.4-.29.61-.18.42-.26.64-.16.42-.23.64-.14.43-.2.66-.12.44-.17.65-.09.45-.12.68-.08.45-.11.68l-.09.68v1.62c0,.07,0,.15,0,.22,0,.23.06.45.09.68s.06.46.09.69.09.45.15.68.08.4.13.6v.09l.09.2c.09.3.19.6.3.89s.16.43.26.65.17.41.27.62.21.4.32.6.22.4.34.6.24.38.37.57l.4.56c.13.18.28.36.43.53s.3.34.45.51.32.33.49.48l.5.47.53.44c.18.14.36.28.55.41l.56.38c.19.13.39.25.59.36l.6.32c.21.11.41.21.62.3l.63.26.65.23c.22.08.44.14.66.2l.67.16.66.13.68.1c.23,0,.45.07.68.09h1.84q.35,0,.69-.09c.23,0,.46-.05.68-.09s.45-.09.67-.15a6,6,0,0,0,.61-.13h.09a.72.72,0,0,0,.2-.09c.31-.08.61-.19.91-.29l.63-.26.63-.28.6-.33c.2-.1.4-.22.6-.34s.38-.24.57-.37.38-.26.56-.4.36-.28.53-.43l.51-.45c.17-.15.33-.32.48-.48l.47-.49c.15-.18.3-.35.44-.54s.28-.36.41-.54l.39-.57.35-.58c.11-.21.22-.41.32-.62l.3-.61c.09-.21.17-.42.25-.63s.16-.43.24-.65.13-.43.19-.65.12-.44.17-.66.1-.45.13-.68.07-.45.1-.68.07-.45.09-.68,0-.45,0-.68a1.22,1.22,0,0,0,0-.27q0-.34,0-.69a1.48,1.48,0,0,0,0-.21q0-.35-.09-.69c0-.23-.05-.46-.09-.68s-.09-.45-.14-.67-.08-.41-.13-.61v-.09l-.09-.2q-.14-.45-.3-.9l-.26-.63c-.09-.21-.18-.42-.28-.63s-.2-.4-.32-.6-.21-.4-.33-.59l-.38-.57-.4-.56-.43-.53c-.15-.18-.3-.35-.46-.52l-.48-.48-.5-.47-.53-.44c-.18-.14-.36-.28-.55-.41s-.38-.26-.58-.38-.38-.25-.58-.36l-.6-.32-.62-.3c-.21-.09-.42-.18-.64-.25s-.42-.17-.63-.24-.44-.14-.66-.19-.45-.13-.67-.18l-.67-.13-.68-.1-.68-.09h-.95Z"/><path class="cls-1" d="M841.44,434.75h-.89c-.24,0-.47.05-.7.09s-.45.06-.67.09-.46.09-.68.15l-.61.12h-.09a.72.72,0,0,1-.2.09l-.89.31c-.21.08-.43.16-.63.25s-.42.19-.63.29-.41.21-.61.32l-.59.33-.57.38-.56.4-.52.43c-.18.15-.35.3-.51.46s-.33.32-.49.48l-.47.51c-.15.17-.29.34-.43.52s-.28.37-.42.56-.26.37-.38.56l-.36.58c-.11.21-.22.41-.32.62s-.2.4-.29.61-.18.42-.26.64-.16.42-.23.64-.14.43-.2.66-.12.44-.17.65-.09.45-.12.68-.08.45-.11.68l-.09.68v1.62c0,.07,0,.15,0,.22,0,.23.06.45.09.68s.06.46.09.69.09.45.15.68.08.4.13.6v.09l.09.2c.09.3.19.6.3.89s.16.43.26.65.17.41.27.62.21.4.32.6.22.4.34.6.24.38.37.57l.4.56c.13.18.28.36.43.53s.3.34.45.51.32.33.49.48l.5.47.53.44c.18.14.36.28.55.41l.56.38c.19.13.39.25.59.36l.6.32c.21.11.41.21.62.3l.63.26.65.23c.22.08.44.14.66.2l.67.16.66.13.68.1c.23,0,.45.07.68.09h1.84q.35,0,.69-.09c.23,0,.46-.05.68-.09s.45-.09.67-.15a6,6,0,0,0,.61-.13h.09a.72.72,0,0,0,.2-.09c.31-.08.61-.19.91-.29l.63-.26.63-.28.6-.33c.2-.1.4-.22.6-.34s.38-.24.57-.37.38-.26.56-.4.36-.28.53-.43l.51-.45c.17-.15.33-.32.48-.48l.47-.49c.15-.18.3-.35.44-.54s.28-.36.41-.54l.39-.57.35-.58c.11-.21.22-.41.32-.62l.3-.61c.09-.21.17-.42.25-.63s.16-.43.24-.65.13-.43.19-.65.12-.44.17-.66.1-.45.13-.68.07-.45.1-.68.07-.45.09-.68,0-.45,0-.68a1.22,1.22,0,0,0,0-.27q0-.34,0-.69a1.48,1.48,0,0,0,0-.21q0-.35-.09-.69c0-.23-.05-.46-.09-.68s-.09-.45-.14-.67-.08-.41-.13-.61v-.09l-.09-.2q-.14-.45-.3-.9l-.26-.63c-.09-.21-.18-.42-.28-.63s-.2-.4-.32-.6-.21-.4-.33-.59l-.38-.57-.4-.56-.43-.53c-.15-.18-.3-.35-.46-.52l-.48-.48-.5-.47-.53-.44c-.18-.14-.36-.28-.55-.41s-.38-.26-.58-.38-.38-.25-.58-.36l-.6-.32-.62-.3c-.21-.09-.42-.18-.64-.25s-.42-.17-.63-.24-.44-.14-.66-.19-.45-.13-.67-.18l-.67-.13-.68-.1-.68-.09h-.95Z"/><path class="cls-1" d="M841.44,434.75h-.89c-.24,0-.47.05-.7.09s-.45.06-.67.09-.46.09-.68.15l-.61.12h-.09a.72.72,0,0,1-.2.09l-.89.31c-.21.08-.43.16-.63.25s-.42.19-.63.29-.41.21-.61.32l-.59.33-.57.38-.56.4-.52.43c-.18.15-.35.3-.51.46s-.33.32-.49.48l-.47.51c-.15.17-.29.34-.43.52s-.28.37-.42.56-.26.37-.38.56l-.36.58c-.11.21-.22.41-.32.62s-.2.4-.29.61-.18.42-.26.64-.16.42-.23.64-.14.43-.2.66-.12.44-.17.65-.09.45-.12.68-.08.45-.11.68l-.09.68v1.62c0,.07,0,.15,0,.22,0,.23.06.45.09.68s.06.46.09.69.09.45.15.68.08.4.13.6v.09l.09.2c.09.3.19.6.3.89s.16.43.26.65.17.41.27.62.21.4.32.6.22.4.34.6.24.38.37.57l.4.56c.13.18.28.36.43.53s.3.34.45.51.32.33.49.48l.5.47.53.44c.18.14.36.28.55.41l.56.38c.19.13.39.25.59.36l.6.32c.21.11.41.21.62.3l.63.26.65.23c.22.08.44.14.66.2l.67.16.66.13.68.1c.23,0,.45.07.68.09h1.84q.35,0,.69-.09c.23,0,.46-.05.68-.09s.45-.09.67-.15a6,6,0,0,0,.61-.13h.09a.72.72,0,0,0,.2-.09c.31-.08.61-.19.91-.29l.63-.26.63-.28.6-.33c.2-.1.4-.22.6-.34s.38-.24.57-.37.38-.26.56-.4.36-.28.53-.43l.51-.45c.17-.15.33-.32.48-.48l.47-.49c.15-.18.3-.35.44-.54s.28-.36.41-.54l.39-.57.35-.58c.11-.21.22-.41.32-.62l.3-.61c.09-.21.17-.42.25-.63s.16-.43.24-.65.13-.43.19-.65.12-.44.17-.66.1-.45.13-.68.07-.45.1-.68.07-.45.09-.68,0-.45,0-.68a1.22,1.22,0,0,0,0-.27q0-.34,0-.69a1.48,1.48,0,0,0,0-.21q0-.35-.09-.69c0-.23-.05-.46-.09-.68s-.09-.45-.14-.67-.08-.41-.13-.61v-.09l-.09-.2q-.14-.45-.3-.9l-.26-.63c-.09-.21-.18-.42-.28-.63s-.2-.4-.32-.6-.21-.4-.33-.59l-.38-.57-.4-.56-.43-.53c-.15-.18-.3-.35-.46-.52l-.48-.48-.5-.47-.53-.44c-.18-.14-.36-.28-.55-.41s-.38-.26-.58-.38-.38-.25-.58-.36l-.6-.32-.62-.3c-.21-.09-.42-.18-.64-.25s-.42-.17-.63-.24-.44-.14-.66-.19-.45-.13-.67-.18l-.67-.13-.68-.1-.68-.09h-.95Z"/><path class="cls-1" d="M841.44,434.75h-.89c-.24,0-.47.05-.7.09s-.45.06-.67.09-.46.09-.68.15l-.61.12h-.09a.72.72,0,0,1-.2.09l-.89.31c-.21.08-.43.16-.63.25s-.42.19-.63.29-.41.21-.61.32l-.59.33-.57.38-.56.4-.52.43c-.18.15-.35.3-.51.46s-.33.32-.49.48l-.47.51c-.15.17-.29.34-.43.52s-.28.37-.42.56-.26.37-.38.56l-.36.58c-.11.21-.22.41-.32.62s-.2.4-.29.61-.18.42-.26.64-.16.42-.23.64-.14.43-.2.66-.12.44-.17.65-.09.45-.12.68-.08.45-.11.68l-.09.68v1.62c0,.07,0,.15,0,.22,0,.23.06.45.09.68s.06.46.09.69.09.45.15.68.08.4.13.6v.09l.09.2c.09.3.19.6.3.89s.16.43.26.65.17.41.27.62.21.4.32.6.22.4.34.6.24.38.37.57l.4.56c.13.18.28.36.43.53s.3.34.45.51.32.33.49.48l.5.47.53.44c.18.14.36.28.55.41l.56.38c.19.13.39.25.59.36l.6.32c.21.11.41.21.62.3l.63.26.65.23c.22.08.44.14.66.2l.67.16.66.13.68.1c.23,0,.45.07.68.09h1.84q.35,0,.69-.09c.23,0,.46-.05.68-.09s.45-.09.67-.15a6,6,0,0,0,.61-.13h.09a.72.72,0,0,0,.2-.09c.31-.08.61-.19.91-.29l.63-.26.63-.28.6-.33c.2-.1.4-.22.6-.34s.38-.24.57-.37.38-.26.56-.4.36-.28.53-.43l.51-.45c.17-.15.33-.32.48-.48l.47-.49c.15-.18.3-.35.44-.54s.28-.36.41-.54l.39-.57.35-.58c.11-.21.22-.41.32-.62l.3-.61c.09-.21.17-.42.25-.63s.16-.43.24-.65.13-.43.19-.65.12-.44.17-.66.1-.45.13-.68.07-.45.1-.68.07-.45.09-.68,0-.45,0-.68a1.22,1.22,0,0,0,0-.27q0-.34,0-.69a1.48,1.48,0,0,0,0-.21q0-.35-.09-.69c0-.23-.05-.46-.09-.68s-.09-.45-.14-.67-.08-.41-.13-.61v-.09l-.09-.2q-.14-.45-.3-.9l-.26-.63c-.09-.21-.18-.42-.28-.63s-.2-.4-.32-.6-.21-.4-.33-.59l-.38-.57-.4-.56-.43-.53c-.15-.18-.3-.35-.46-.52l-.48-.48-.5-.47-.53-.44c-.18-.14-.36-.28-.55-.41s-.38-.26-.58-.38-.38-.25-.58-.36l-.6-.32-.62-.3c-.21-.09-.42-.18-.64-.25s-.42-.17-.63-.24-.44-.14-.66-.19-.45-.13-.67-.18l-.67-.13-.68-.1-.68-.09h-.95Z"/><path class="cls-1" d="M841.44,434.75h-.89c-.24,0-.47.05-.7.09s-.45.06-.67.09-.46.09-.68.15l-.61.12h-.09a.72.72,0,0,1-.2.09l-.89.31c-.21.08-.43.16-.63.25s-.42.19-.63.29-.41.21-.61.32l-.59.33-.57.38-.56.4-.52.43c-.18.15-.35.3-.51.46s-.33.32-.49.48l-.47.51c-.15.17-.29.34-.43.52s-.28.37-.42.56-.26.37-.38.56l-.36.58c-.11.21-.22.41-.32.62s-.2.4-.29.61-.18.42-.26.64-.16.42-.23.64-.14.43-.2.66-.12.44-.17.65-.09.45-.12.68-.08.45-.11.68l-.09.68v1.62c0,.07,0,.15,0,.22,0,.23.06.45.09.68s.06.46.09.69.09.45.15.68.08.4.13.6v.09l.09.2c.09.3.19.6.3.89s.16.43.26.65.17.41.27.62.21.4.32.6.22.4.34.6.24.38.37.57l.4.56c.13.18.28.36.43.53s.3.34.45.51.32.33.49.48l.5.47.53.44c.18.14.36.28.55.41l.56.38c.19.13.39.25.59.36l.6.32c.21.11.41.21.62.3l.63.26.65.23c.22.08.44.14.66.2l.67.16.66.13.68.1c.23,0,.45.07.68.09h1.84q.35,0,.69-.09c.23,0,.46-.05.68-.09s.45-.09.67-.15a6,6,0,0,0,.61-.13h.09a.72.72,0,0,0,.2-.09c.31-.08.61-.19.91-.29l.63-.26.63-.28.6-.33c.2-.1.4-.22.6-.34s.38-.24.57-.37.38-.26.56-.4.36-.28.53-.43l.51-.45c.17-.15.33-.32.48-.48l.47-.49c.15-.18.3-.35.44-.54s.28-.36.41-.54l.39-.57.35-.58c.11-.21.22-.41.32-.62l.3-.61c.09-.21.17-.42.25-.63s.16-.43.24-.65.13-.43.19-.65.12-.44.17-.66.1-.45.13-.68.07-.45.1-.68.07-.45.09-.68,0-.45,0-.68a1.22,1.22,0,0,0,0-.27q0-.34,0-.69a1.48,1.48,0,0,0,0-.21q0-.35-.09-.69c0-.23-.05-.46-.09-.68s-.09-.45-.14-.67-.08-.41-.13-.61v-.09l-.09-.2q-.14-.45-.3-.9l-.26-.63c-.09-.21-.18-.42-.28-.63s-.2-.4-.32-.6-.21-.4-.33-.59l-.38-.57-.4-.56-.43-.53c-.15-.18-.3-.35-.46-.52l-.48-.48-.5-.47-.53-.44c-.18-.14-.36-.28-.55-.41s-.38-.26-.58-.38-.38-.25-.58-.36l-.6-.32-.62-.3c-.21-.09-.42-.18-.64-.25s-.42-.17-.63-.24-.44-.14-.66-.19-.45-.13-.67-.18l-.67-.13-.68-.1-.68-.09h-.95Z"/><path class="cls-1" d="M841.44,434.75h-.89c-.24,0-.47.05-.7.09s-.45.06-.67.09-.46.09-.68.15l-.61.12h-.09a.72.72,0,0,1-.2.09l-.89.31c-.21.08-.43.16-.63.25s-.42.19-.63.29-.41.21-.61.32l-.59.33-.57.38-.56.4-.52.43c-.18.15-.35.3-.51.46s-.33.32-.49.48l-.47.51c-.15.17-.29.34-.43.52s-.28.37-.42.56-.26.37-.38.56l-.36.58c-.11.21-.22.41-.32.62s-.2.4-.29.61-.18.42-.26.64-.16.42-.23.64-.14.43-.2.66-.12.44-.17.65-.09.45-.12.68-.08.45-.11.68l-.09.68v1.62c0,.07,0,.15,0,.22,0,.23.06.45.09.68s.06.46.09.69.09.45.15.68.08.4.13.6v.09l.09.2c.09.3.19.6.3.89s.16.43.26.65.17.41.27.62.21.4.32.6.22.4.34.6.24.38.37.57l.4.56c.13.18.28.36.43.53s.3.34.45.51.32.33.49.48l.5.47.53.44c.18.14.36.28.55.41l.56.38c.19.13.39.25.59.36l.6.32c.21.11.41.21.62.3l.63.26.65.23c.22.08.44.14.66.2l.67.16.66.13.68.1c.23,0,.45.07.68.09h1.84q.35,0,.69-.09c.23,0,.46-.05.68-.09s.45-.09.67-.15a6,6,0,0,0,.61-.13h.09a.72.72,0,0,0,.2-.09c.31-.08.61-.19.91-.29l.63-.26.63-.28.6-.33c.2-.1.4-.22.6-.34s.38-.24.57-.37.38-.26.56-.4.36-.28.53-.43l.51-.45c.17-.15.33-.32.48-.48l.47-.49c.15-.18.3-.35.44-.54s.28-.36.41-.54l.39-.57.35-.58c.11-.21.22-.41.32-.62l.3-.61c.09-.21.17-.42.25-.63s.16-.43.24-.65.13-.43.19-.65.12-.44.17-.66.1-.45.13-.68.07-.45.1-.68.07-.45.09-.68,0-.45,0-.68a1.22,1.22,0,0,0,0-.27q0-.34,0-.69a1.48,1.48,0,0,0,0-.21q0-.35-.09-.69c0-.23-.05-.46-.09-.68s-.09-.45-.14-.67-.08-.41-.13-.61v-.09l-.09-.2q-.14-.45-.3-.9l-.26-.63c-.09-.21-.18-.42-.28-.63s-.2-.4-.32-.6-.21-.4-.33-.59l-.38-.57-.4-.56-.43-.53c-.15-.18-.3-.35-.46-.52l-.48-.48-.5-.47-.53-.44c-.18-.14-.36-.28-.55-.41s-.38-.26-.58-.38-.38-.25-.58-.36l-.6-.32-.62-.3c-.21-.09-.42-.18-.64-.25s-.42-.17-.63-.24-.44-.14-.66-.19-.45-.13-.67-.18l-.67-.13-.68-.1-.68-.09h-.95Z"/><path class="cls-2" d="M649.27,255.23A263.15,263.15,0,0,0,526,288.78C428.48,343,364.59,446.91,309,533.87c-43.81,68.58-87.69,112.54-123,125.31-17.66,6.4-32.73,6.53-50-.26S98.77,637.17,77.35,610.6L54.13,581.79,33.59,612.56C-4.88,670.17-10,740.25,16.72,795S105.9,886,184.77,873c26-4.29,42.37-4.3,43.73-3.75.68.28-.11-1.07,1.47,2.23s3.9,11.55,5,25c1.78,22.36,10.06,43.07,26.33,56.66s38.48,17.64,59.53,14.12c42.1-7,85.51-38.72,130.33-94.3,14.59-18.1,25.16-21.82,24.61-21.82-.28,0-.64-.84,2.36,1.9s8.07,9.31,13.47,20.16c14,28.26,34.56,48.83,59.78,57.37s52.1,4.48,76.86-6.22C677.74,902.91,725,855.74,769.4,796.09c88.78-119.3,163.92-288.66,158.4-419.15l-.55-13.2L916.52,356c-102.14-73.47-191.1-102.56-267.25-100.8Zm2.91,52.62C711.71,306.16,783,329.5,873.5,392.37c-1.29,106.46-68.61,265-147.71,371.28C684.61,819,639.73,860.12,606.66,874.42c-16.53,7.14-28.58,7.77-37.86,4.63S549.91,868.4,540.24,849c-7.28-14.65-15.13-26.62-25.44-36.06s-24.35-16.09-38.8-16.16c-28.89-.13-48.61,19-67.16,42-39.87,49.43-77.68,71.58-97,74.81-9.66,1.61-13.21-.1-15.72-2.21s-6-7-7-19.29c-1.37-17.14-4-31.27-10.1-44.05s-17.29-23.94-29.95-29.12c-25.3-10.35-47.31-3.84-73.18.43-60.06,9.94-93.07-13-110.35-48.28-13.08-26.75-14.9-62.31-2.76-96.39,17,15.78,34.7,27.51,53.38,34.83,29,11.38,60.1,11,88.37.77,56.54-20.46,103.69-74.2,150.3-147.16C410.5,476,472.52,380.71,552.37,336.27c30-16.66,62.61-27.37,99.81-28.42Z"/><path class="cls-3" d="M655.93,281.46c-155.13.69-246.66,146-324,267C241.51,690,149.86,743.87,56.19,627.65c-66.74,100-14.8,241.51,124.14,218.53,51.83-8.58,76.82-13,81.7,48.09,5.54,69.24,83.27,66.59,168-38.42,33.15-41.11,60.57-45.79,85.92,5.21,94.84,190.78,394.74-246.3,384.75-483-96.56-69.46-176.75-96.92-244.73-96.63Z"/><path class="cls-4" d="M564,422.82C489.8,555,415.85,805.32,247.68,849.91c7.85,7.71,12.52,21.42,14.35,44.36,5.54,69.24,83.27,66.59,168-38.42,33.15-41.11,60.57-45.79,85.92,5.21,94.84,190.78,394.74-246.3,384.75-483,0,0-221-138.8-336.71,44.73Z"/><path class="cls-5" d="M372.8,613.51c94.7-138.69,168.49-356,336.45-326.83a272.38,272.38,0,0,0-53.32-5.22c-155.13.69-246.66,146-324,267C241.51,690,149.86,743.87,56.19,627.65,33.74,759.83,196.27,872.07,372.8,613.51Z"/><path class="cls-2" d="M650.36,275c-42.51,1.06-80.42,12.67-114.5,31.63C445,357.15,381.8,457.82,326.21,544.85c-44.86,70.22-90,117.84-133.25,133.5-21.63,7.83-42.69,8.06-64.41-.46s-44.15-26.06-67.07-54.5l-5.8-7.2-5.14,7.69C15.89,675.77,11.83,738.57,35,786s74.59,78.76,146.41,66.88c25.93-4.29,44.43-6.74,54.77-2.51,5.18,2.11,8.88,5.46,12.16,12.31s5.71,17.31,6.9,32.13c1.48,18.57,8,33.36,19.08,42.65s26.32,12.45,43.1,9.65c33.56-5.61,74.86-33.72,117.83-87,16.08-19.94,30.08-29.45,40.56-29.4,5.25,0,10.29,2,16,7.25s11.85,13.84,17.95,26.12c12.41,24.95,28.83,40.62,48.08,47.14s40.56,3.74,62.24-5.63C663.49,886.86,709.86,842,753,783.92c86.39-116.08,159.53-284.74,154.4-406.11l-.14-3.31-2.68-1.93C804.81,300.78,721.21,273.21,650.36,275Zm.73,13.16c66.66-1.75,145.84,24.41,242.78,93.55,3.42,115.19-67.73,281.27-151.73,394.14-42.39,57-88.15,100.36-127.39,117.31-19.63,8.48-37.23,10.4-52.49,5.23S533.3,880.78,522,858c-6.57-13.22-13.38-23.16-20.95-30.09s-16.21-10.77-25.13-10.82c-17.85-.08-34.14,13.3-51.21,34.47C383,903.32,343.07,929.05,315.21,933.7c-13.93,2.33-24.48-.25-32.15-6.67s-13-17.25-14.25-33.3c-1.26-15.75-3.78-27.67-8.18-36.9s-11.11-15.7-19.27-19c-16.33-6.68-36.24-2.61-62.14,1.67-67.11,11.11-111.16-16.85-132-59.44C27.52,739.7,29.5,685.61,57,639.16c21.92,25.54,44,42.55,66.58,51.39,24.64,9.66,49.7,9.37,74,.57,48.58-17.58,94.51-67.64,140.07-139C393.28,465.09,456,366.57,542.47,318.46c32.42-18,68.23-29.29,108.62-30.34Z"/><path class="cls-2" d="M678.83,277.24c-30.59.1-58.19,8.47-83.08,22.8-33.18,19.11-61.66,48.57-87.62,83-51.92,68.87-94.06,158-140.94,226.63C279.73,737.78,197.3,771.93,141.24,760.45S52.17,691.9,62.89,628.79l-13.4-2.27c-11.73,69.07,25.3,134.2,89,147.25s150.82-26,239.89-156.43c47.82-70,89.93-158.94,140.57-226.11,25.32-33.59,52.7-61.65,83.55-79.42s65.06-25.48,105.56-18.44L710.42,280a181,181,0,0,0-31.59-2.74Z"/><path class="cls-6" d="M818.84,893.37c-49.73,64.81-142,140.36-168.7,119.9s22.42-129.18,72.15-194,88.2-55.87,107.94-40.72,38.34,50-11.39,114.8Z"/><path class="cls-2" d="M840.57,765.1a69,69,0,0,0-56.67-12.75c-23.6,5.12-48.7,22.21-75.08,56.6-26,33.9-51.16,78-67,117.64-7.93,19.8-13.58,38.33-15.5,54.9s-.93,34.18,13.5,45.25,31.69,7.47,47.2,1.33,32-16.4,49-29.18c34.14-25.56,70.28-61.28,96.29-95.18,26.38-34.38,36.4-63.06,35.24-87.18a69,69,0,0,0-27-51.43ZM819.89,792c6.93,5.32,13.09,12.84,13.73,26.13s-4.91,34.44-28.25,64.86c-23.72,30.91-58.6,65.37-89.71,88.67-15.56,11.65-30.31,20.5-41.16,24.79-8.14,3.22-12.57,3-13.82,3-.29-1.22-1.65-5.44-.64-14.14,1.34-11.59,6.07-28.12,13.29-46.17,14.45-36.08,38.72-78.69,62.43-109.6,23.35-30.42,42.35-41.26,55.35-44.08s21.86,1.19,28.78,6.5Z"/><path class="cls-6" d="M1130.33,877.25c-31.26,75.47-100.87,172.34-131.92,159.48s-11.78-130.58,19.48-206.05,70.74-76.79,93.73-67.27,50,38.37,18.71,113.84Z"/><path class="cls-2" d="M1118.12,747.73a68.91,68.91,0,0,0-58,2.35c-21.48,11-41.3,34.06-57.88,74.1-16.36,39.48-29.22,88.64-34.28,131-2.54,21.17-3.21,40.53-.77,57s8,33.26,24.75,40.21,32.54-1,45.94-10.93,26.61-24.11,39.79-40.87c26.36-33.53,52-77.38,68.38-116.86,16.58-40,18.84-70.33,11.47-93.33a69,69,0,0,0-39.37-42.69Zm-13,31.37c8.06,3.34,16,9,20,21.68s4.18,34.54-10.5,70c-14.91,36-39.68,78.31-63.7,108.87-12,15.28-24,27.64-33.34,34.59-7,5.22-11.37,6.15-12.57,6.52-.58-1.11-3-4.83-4.27-13.49-1.71-11.54-1.42-28.74.89-48,4.62-38.59,17-86,31.93-122,14.68-35.44,30.22-50.82,42.05-56.91s21.42-4.51,29.49-1.17Z"/><path class="cls-6" d="M515.4,485.63c-64.81,49.73-173.53,98.81-194,72.15s55.09-119,119.9-168.7S541,358,556.11,377.69s24.1,58.21-40.71,107.94Z"/><path class="cls-2" d="M569.59,367.35a69,69,0,0,0-51.43-27c-24.13-1.16-52.8,8.86-87.18,35.24-33.91,26-69.62,62.16-95.18,96.29-12.78,17.07-23,33.5-29.18,49s-9.75,32.78,1.33,47.2,28.67,15.42,45.25,13.5,35.09-7.57,54.89-15.5c39.59-15.86,83.75-41,117.65-67,34.38-26.38,51.47-51.48,56.6-75.08a69,69,0,0,0-12.75-56.67Zm-27,20.68c5.32,6.92,9.32,15.78,6.5,28.79s-13.65,32-44.08,55.34c-30.9,23.72-73.52,48-109.6,62.43-18,7.22-34.58,11.95-46.17,13.29-8.69,1-12.92-.35-14.13-.64.06-1.25-.19-5.68,3-13.82,4.29-10.85,13.13-25.6,24.78-41.16,23.3-31.11,57.76-66,88.67-89.7,30.43-23.35,51.58-28.9,64.87-28.26s20.81,6.81,26.12,13.73Z"/><path class="cls-6" d="M1336.84,390.42c81-10.67,199.68,1.19,204.07,34.51s-107.2,75.48-188.19,86.15-101.86-22.87-105.11-47.54,8.23-62.46,89.23-73.12Z"/><path class="cls-2" d="M1230.77,465.75a69,69,0,0,0,31,49.09c20.31,13.07,50.15,18.73,93.12,13.07,42.36-5.57,91.36-19,130.58-35.8,19.6-8.4,36.69-17.5,49.77-27.86s24.83-23.52,22.45-41.54-17.12-27.69-32.44-34.32-34.18-11-55.29-14c-42.21-6.06-93-6.37-135.39-.79-43,5.66-70.32,18.85-86.56,36.73a68.93,68.93,0,0,0-17.29,55.44Zm33.68-4.42c-1.15-8.66-.19-18.34,8.75-28.19s27.83-20.88,65.85-25.89c38.63-5.08,87.66-4.79,126.13.74,19.24,2.76,35.93,6.94,46.63,11.57,8,3.48,11,6.77,11.93,7.63-.66,1.06-2.69,5-9.54,10.45-9.15,7.24-24.18,15.6-42,23.25-35.74,15.29-83,28.27-121.65,33.35-38,5-59.11-.77-70.3-8s-14.62-16.29-15.75-24.94Z"/><path class="cls-2" d="M604.41,0C527.58,0,464.89,62.7,464.89,139.52V757.41c0,76.82,62.69,139.52,139.52,139.52H1222.3c76.82,0,139.52-62.7,139.52-139.52V139.52C1361.82,62.7,1299.12,0,1222.3,0Zm0,54.35H1222.3c47.65,0,85.17,37.52,85.17,85.17V757.41c0,47.65-37.52,85.17-85.17,85.17H604.41c-47.66,0-85.17-37.52-85.17-85.17V139.52c0-47.65,37.51-85.17,85.17-85.17Z"/><path class="cls-6" d="M604.41,27.18H1222.3a112.1,112.1,0,0,1,112.34,112.34V757.41A112.1,112.1,0,0,1,1222.3,869.75H604.41A112.1,112.1,0,0,1,492.06,757.41V139.52A112.1,112.1,0,0,1,604.41,27.18Z"/><path class="cls-2" d="M604.41,20.38A119,119,0,0,0,485.27,139.52V757.41A119,119,0,0,0,604.41,876.55H1222.3a119,119,0,0,0,119.14-119.14V139.52A119,119,0,0,0,1222.3,20.38Zm0,13.59H1222.3a105.17,105.17,0,0,1,105.55,105.55V757.41A105.17,105.17,0,0,1,1222.3,863H604.41A105.17,105.17,0,0,1,498.86,757.41V139.52A105.17,105.17,0,0,1,604.41,34Z"/><path class="cls-7" d="M608,63.2h610.71a79.74,79.74,0,0,1,79.91,79.91V753.82a79.74,79.74,0,0,1-79.91,79.91H608a79.74,79.74,0,0,1-79.91-79.91V143.11A79.74,79.74,0,0,1,608,63.2Z"/><path class="cls-8" d="M635.67,141a29.71,29.71,0,0,0-29.77,29.78V334.23h-11A16.68,16.68,0,0,0,578.18,351V546a16.67,16.67,0,0,0,16.71,16.71h11V726.14a29.71,29.71,0,0,0,29.77,29.78H1191a29.71,29.71,0,0,0,29.78-29.78V562.69h11A16.68,16.68,0,0,0,1248.52,546V351a16.69,16.69,0,0,0-16.72-16.72h-11V170.79A29.71,29.71,0,0,0,1191,141Z"/><path class="cls-8" d="M635.67,141H1191a29.71,29.71,0,0,1,29.77,29.78V726.14A29.71,29.71,0,0,1,1191,755.92H635.67a29.72,29.72,0,0,1-29.78-29.78V170.79A29.72,29.72,0,0,1,635.67,141Z"/><path class="cls-9" d="M635.67,134.22a36.63,36.63,0,0,0-36.56,36.57V327.44h-4.22A23.6,23.6,0,0,0,571.39,351V546a23.6,23.6,0,0,0,23.5,23.5h4.22V726.15a36.63,36.63,0,0,0,36.56,36.56H1191a36.63,36.63,0,0,0,36.57-36.56V569.48h4.2a23.6,23.6,0,0,0,23.51-23.5V351a23.61,23.61,0,0,0-23.51-23.51h-4.2V170.79A36.64,36.64,0,0,0,1191,134.22Zm0,13.58H1191a22.79,22.79,0,0,1,23,23V341h17.79a9.76,9.76,0,0,1,9.93,9.92V546a9.76,9.76,0,0,1-9.93,9.92H1214V726.15a22.78,22.78,0,0,1-23,23H635.67a22.78,22.78,0,0,1-23-23V555.9h-17.8A9.76,9.76,0,0,1,585,546V351a9.76,9.76,0,0,1,9.92-9.92h17.8V170.79a22.79,22.79,0,0,1,23-23Z"/><path class="cls-10" d="M662.77,186.73h501.16a11.13,11.13,0,0,1,11.15,11.16V699a11.13,11.13,0,0,1-11.15,11.16H662.77A11.14,11.14,0,0,1,651.61,699V197.89a11.14,11.14,0,0,1,11.16-11.16Z"/><path class="cls-11" d="M1143.7,186.73a11.14,11.14,0,0,1,11.16,11.16V699a11.14,11.14,0,0,1-11.16,11.16h20.22A11.14,11.14,0,0,0,1175.08,699V197.89a11.14,11.14,0,0,0-11.16-11.16Z"/><path class="cls-11" d="M1175.08,481.32,651.61,621.59V699a11.13,11.13,0,0,0,11.16,11.16h501.15A11.13,11.13,0,0,0,1175.08,699Z"/><path class="cls-1" d="M683,186.73a11.14,11.14,0,0,0-11.16,11.16V699A11.14,11.14,0,0,0,683,710.2H662.77A11.14,11.14,0,0,1,651.61,699V197.89a11.14,11.14,0,0,1,11.16-11.16Z"/><path class="cls-12" d="M662.77,179.94a18.06,18.06,0,0,0-17.95,17.95V699a18.06,18.06,0,0,0,17.95,18h501.15a18.06,18.06,0,0,0,17.95-18V197.89a18.06,18.06,0,0,0-17.95-17.95Zm0,13.59h501.15a4.22,4.22,0,0,1,4.37,4.36V699a4.21,4.21,0,0,1-4.37,4.36H662.77a4.21,4.21,0,0,1-4.36-4.36V197.89a4.21,4.21,0,0,1,4.36-4.36Z"/><rect class="cls-6" x="821.97" y="43.47" width="182.77" height="39.46"/><rect class="cls-6" x="821.97" y="814" width="182.77" height="39.46"/><path class="cls-13" d="M596.46,784.64a13,13,0,1,1-3.8-9.17,13,13,0,0,1,3.8,9.17Z"/><path class="cls-13" d="M645.66,84.52a7.55,7.55,0,1,1-2.21-5.36,7.55,7.55,0,0,1,2.21,5.36Z"/><path class="cls-13" d="M671.1,84.52a7.56,7.56,0,1,1-2.22-5.36,7.56,7.56,0,0,1,2.22,5.36Z"/><path class="cls-13" d="M696.53,84.52a7.55,7.55,0,1,1-2.21-5.36,7.56,7.56,0,0,1,2.21,5.36Z"/><path class="cls-13" d="M722,84.52a7.55,7.55,0,1,1-2.21-5.36A7.55,7.55,0,0,1,722,84.52Z"/><path class="cls-13" d="M747.39,84.52a7.55,7.55,0,1,1-2.21-5.36,7.55,7.55,0,0,1,2.21,5.36Z"/><path class="cls-13" d="M772.83,84.52a7.56,7.56,0,1,1-2.22-5.36,7.56,7.56,0,0,1,2.22,5.36Z"/><path class="cls-13" d="M658.38,105.27a7.58,7.58,0,1,1-2.22-5.35,7.57,7.57,0,0,1,2.22,5.35Z"/><path class="cls-13" d="M683.82,105.27a7.58,7.58,0,1,1-2.22-5.35,7.57,7.57,0,0,1,2.22,5.35Z"/><path class="cls-13" d="M709.25,105.27A7.58,7.58,0,1,1,707,99.92a7.57,7.57,0,0,1,2.22,5.35Z"/><path class="cls-13" d="M734.68,105.27a7.58,7.58,0,1,1-2.22-5.35,7.57,7.57,0,0,1,2.22,5.35Z"/><path class="cls-13" d="M760.11,105.27a7.58,7.58,0,1,1-2.22-5.35,7.57,7.57,0,0,1,2.22,5.35Z"/><path class="cls-2" d="M918.94,419.21a66.32,66.32,0,0,0,132.64,0H1038a52.74,52.74,0,0,1-105.47,0Z"/><path class="cls-2" d="M840.86,253.41a69.83,69.83,0,0,1,70,70v35.07a70,70,0,0,1-140,0V323.4a69.84,69.84,0,0,1,70-70Z"/><path class="cls-1" d="M881.6,303.59A22.59,22.59,0,1,1,859,281a22.59,22.59,0,0,1,22.59,22.59Z"/><path class="cls-2" d="M1129.66,428.46a69.83,69.83,0,0,1-70-70V300.65h140v57.82a69.84,69.84,0,0,1-70,70Z"/><path class="cls-1" d="M1181.19,340.05a22.6,22.6,0,1,1-22.59-22.59,22.56,22.56,0,0,1,22.59,22.59Z"/></g></g></svg>